<?xml version="1.0" encoding="utf-8" standalone="no"?>
<!DOCTYPE svg PUBLIC "-//W3C//DTD SVG 1.1//EN"
  "http://www.w3.org/Graphics/SVG/1.1/DTD/svg11.dtd">
<!-- Created with matplotlib (https://matplotlib.org/) -->
<svg height="864pt" version="1.1" viewBox="0 0 1440 864" width="1440pt" xmlns="http://www.w3.org/2000/svg" xmlns:xlink="http://www.w3.org/1999/xlink">
 <defs>
  <style type="text/css">
*{stroke-linecap:butt;stroke-linejoin:round;}
  </style>
 </defs>
 <g id="figure_1">
  <g id="patch_1">
   <path d="M 0 864 
L 1440 864 
L 1440 0 
L 0 0 
z
" style="fill:#ffffff;"/>
  </g>
  <g id="axes_1">
   <g id="patch_2">
    <path d="M 180 691.2 
L 1296 691.2 
L 1296 103.68 
L 180 103.68 
z
" style="fill:#ffffff;"/>
   </g>
   <g id="matplotlib.axis_1">
    <g id="xtick_1">
     <g id="line2d_1">
      <path clip-path="url(#pb32ddb9864)" d="M 189.317254 691.2 
L 189.317254 103.68 
" style="fill:none;stroke:#b0b0b0;stroke-linecap:square;stroke-width:0.8;"/>
     </g>
     <g id="line2d_2">
      <defs>
       <path d="M 0 0 
L 0 3.5 
" id="mb7773ecce1" style="stroke:#000000;stroke-width:0.8;"/>
      </defs>
      <g>
       <use style="stroke:#000000;stroke-width:0.8;" x="189.317254" xlink:href="#mb7773ecce1" y="691.2"/>
      </g>
     </g>
     <g id="text_1">
      <!-- 2020-03-01 -->
      <defs>
       <path d="M 19.1875 8.296875 
L 53.609375 8.296875 
L 53.609375 0 
L 7.328125 0 
L 7.328125 8.296875 
Q 12.9375 14.109375 22.625 23.890625 
Q 32.328125 33.6875 34.8125 36.53125 
Q 39.546875 41.84375 41.421875 45.53125 
Q 43.3125 49.21875 43.3125 52.78125 
Q 43.3125 58.59375 39.234375 62.25 
Q 35.15625 65.921875 28.609375 65.921875 
Q 23.96875 65.921875 18.8125 64.3125 
Q 13.671875 62.703125 7.8125 59.421875 
L 7.8125 69.390625 
Q 13.765625 71.78125 18.9375 73 
Q 24.125 74.21875 28.421875 74.21875 
Q 39.75 74.21875 46.484375 68.546875 
Q 53.21875 62.890625 53.21875 53.421875 
Q 53.21875 48.921875 51.53125 44.890625 
Q 49.859375 40.875 45.40625 35.40625 
Q 44.1875 33.984375 37.640625 27.21875 
Q 31.109375 20.453125 19.1875 8.296875 
z
" id="DejaVuSans-50"/>
       <path d="M 31.78125 66.40625 
Q 24.171875 66.40625 20.328125 58.90625 
Q 16.5 51.421875 16.5 36.375 
Q 16.5 21.390625 20.328125 13.890625 
Q 24.171875 6.390625 31.78125 6.390625 
Q 39.453125 6.390625 43.28125 13.890625 
Q 47.125 21.390625 47.125 36.375 
Q 47.125 51.421875 43.28125 58.90625 
Q 39.453125 66.40625 31.78125 66.40625 
z
M 31.78125 74.21875 
Q 44.046875 74.21875 50.515625 64.515625 
Q 56.984375 54.828125 56.984375 36.375 
Q 56.984375 17.96875 50.515625 8.265625 
Q 44.046875 -1.421875 31.78125 -1.421875 
Q 19.53125 -1.421875 13.0625 8.265625 
Q 6.59375 17.96875 6.59375 36.375 
Q 6.59375 54.828125 13.0625 64.515625 
Q 19.53125 74.21875 31.78125 74.21875 
z
" id="DejaVuSans-48"/>
       <path d="M 4.890625 31.390625 
L 31.203125 31.390625 
L 31.203125 23.390625 
L 4.890625 23.390625 
z
" id="DejaVuSans-45"/>
       <path d="M 40.578125 39.3125 
Q 47.65625 37.796875 51.625 33 
Q 55.609375 28.21875 55.609375 21.1875 
Q 55.609375 10.40625 48.1875 4.484375 
Q 40.765625 -1.421875 27.09375 -1.421875 
Q 22.515625 -1.421875 17.65625 -0.515625 
Q 12.796875 0.390625 7.625 2.203125 
L 7.625 11.71875 
Q 11.71875 9.328125 16.59375 8.109375 
Q 21.484375 6.890625 26.8125 6.890625 
Q 36.078125 6.890625 40.9375 10.546875 
Q 45.796875 14.203125 45.796875 21.1875 
Q 45.796875 27.640625 41.28125 31.265625 
Q 36.765625 34.90625 28.71875 34.90625 
L 20.21875 34.90625 
L 20.21875 43.015625 
L 29.109375 43.015625 
Q 36.375 43.015625 40.234375 45.921875 
Q 44.09375 48.828125 44.09375 54.296875 
Q 44.09375 59.90625 40.109375 62.90625 
Q 36.140625 65.921875 28.71875 65.921875 
Q 24.65625 65.921875 20.015625 65.03125 
Q 15.375 64.15625 9.8125 62.3125 
L 9.8125 71.09375 
Q 15.4375 72.65625 20.34375 73.4375 
Q 25.25 74.21875 29.59375 74.21875 
Q 40.828125 74.21875 47.359375 69.109375 
Q 53.90625 64.015625 53.90625 55.328125 
Q 53.90625 49.265625 50.4375 45.09375 
Q 46.96875 40.921875 40.578125 39.3125 
z
" id="DejaVuSans-51"/>
       <path d="M 12.40625 8.296875 
L 28.515625 8.296875 
L 28.515625 63.921875 
L 10.984375 60.40625 
L 10.984375 69.390625 
L 28.421875 72.90625 
L 38.28125 72.90625 
L 38.28125 8.296875 
L 54.390625 8.296875 
L 54.390625 0 
L 12.40625 0 
z
" id="DejaVuSans-49"/>
      </defs>
      <g transform="translate(137.947803 733.838252)rotate(-30)scale(0.1 -0.1)">
       <use xlink:href="#DejaVuSans-50"/>
       <use x="63.623047" xlink:href="#DejaVuSans-48"/>
       <use x="127.246094" xlink:href="#DejaVuSans-50"/>
       <use x="190.869141" xlink:href="#DejaVuSans-48"/>
       <use x="254.492188" xlink:href="#DejaVuSans-45"/>
       <use x="290.576172" xlink:href="#DejaVuSans-48"/>
       <use x="354.199219" xlink:href="#DejaVuSans-51"/>
       <use x="417.822266" xlink:href="#DejaVuSans-45"/>
       <use x="453.90625" xlink:href="#DejaVuSans-48"/>
       <use x="517.529297" xlink:href="#DejaVuSans-49"/>
      </g>
     </g>
    </g>
    <g id="xtick_2">
     <g id="line2d_3">
      <path clip-path="url(#pb32ddb9864)" d="M 334.252319 691.2 
L 334.252319 103.68 
" style="fill:none;stroke:#b0b0b0;stroke-linecap:square;stroke-width:0.8;"/>
     </g>
     <g id="line2d_4">
      <g>
       <use style="stroke:#000000;stroke-width:0.8;" x="334.252319" xlink:href="#mb7773ecce1" y="691.2"/>
      </g>
     </g>
     <g id="text_2">
      <!-- 2020-03-08 -->
      <defs>
       <path d="M 31.78125 34.625 
Q 24.75 34.625 20.71875 30.859375 
Q 16.703125 27.09375 16.703125 20.515625 
Q 16.703125 13.921875 20.71875 10.15625 
Q 24.75 6.390625 31.78125 6.390625 
Q 38.8125 6.390625 42.859375 10.171875 
Q 46.921875 13.96875 46.921875 20.515625 
Q 46.921875 27.09375 42.890625 30.859375 
Q 38.875 34.625 31.78125 34.625 
z
M 21.921875 38.8125 
Q 15.578125 40.375 12.03125 44.71875 
Q 8.5 49.078125 8.5 55.328125 
Q 8.5 64.0625 14.71875 69.140625 
Q 20.953125 74.21875 31.78125 74.21875 
Q 42.671875 74.21875 48.875 69.140625 
Q 55.078125 64.0625 55.078125 55.328125 
Q 55.078125 49.078125 51.53125 44.71875 
Q 48 40.375 41.703125 38.8125 
Q 48.828125 37.15625 52.796875 32.3125 
Q 56.78125 27.484375 56.78125 20.515625 
Q 56.78125 9.90625 50.3125 4.234375 
Q 43.84375 -1.421875 31.78125 -1.421875 
Q 19.734375 -1.421875 13.25 4.234375 
Q 6.78125 9.90625 6.78125 20.515625 
Q 6.78125 27.484375 10.78125 32.3125 
Q 14.796875 37.15625 21.921875 38.8125 
z
M 18.3125 54.390625 
Q 18.3125 48.734375 21.84375 45.5625 
Q 25.390625 42.390625 31.78125 42.390625 
Q 38.140625 42.390625 41.71875 45.5625 
Q 45.3125 48.734375 45.3125 54.390625 
Q 45.3125 60.0625 41.71875 63.234375 
Q 38.140625 66.40625 31.78125 66.40625 
Q 25.390625 66.40625 21.84375 63.234375 
Q 18.3125 60.0625 18.3125 54.390625 
z
" id="DejaVuSans-56"/>
      </defs>
      <g transform="translate(282.882868 733.838252)rotate(-30)scale(0.1 -0.1)">
       <use xlink:href="#DejaVuSans-50"/>
       <use x="63.623047" xlink:href="#DejaVuSans-48"/>
       <use x="127.246094" xlink:href="#DejaVuSans-50"/>
       <use x="190.869141" xlink:href="#DejaVuSans-48"/>
       <use x="254.492188" xlink:href="#DejaVuSans-45"/>
       <use x="290.576172" xlink:href="#DejaVuSans-48"/>
       <use x="354.199219" xlink:href="#DejaVuSans-51"/>
       <use x="417.822266" xlink:href="#DejaVuSans-45"/>
       <use x="453.90625" xlink:href="#DejaVuSans-48"/>
       <use x="517.529297" xlink:href="#DejaVuSans-56"/>
      </g>
     </g>
    </g>
    <g id="xtick_3">
     <g id="line2d_5">
      <path clip-path="url(#pb32ddb9864)" d="M 479.187384 691.2 
L 479.187384 103.68 
" style="fill:none;stroke:#b0b0b0;stroke-linecap:square;stroke-width:0.8;"/>
     </g>
     <g id="line2d_6">
      <g>
       <use style="stroke:#000000;stroke-width:0.8;" x="479.187384" xlink:href="#mb7773ecce1" y="691.2"/>
      </g>
     </g>
     <g id="text_3">
      <!-- 2020-03-15 -->
      <defs>
       <path d="M 10.796875 72.90625 
L 49.515625 72.90625 
L 49.515625 64.59375 
L 19.828125 64.59375 
L 19.828125 46.734375 
Q 21.96875 47.46875 24.109375 47.828125 
Q 26.265625 48.1875 28.421875 48.1875 
Q 40.625 48.1875 47.75 41.5 
Q 54.890625 34.8125 54.890625 23.390625 
Q 54.890625 11.625 47.5625 5.09375 
Q 40.234375 -1.421875 26.90625 -1.421875 
Q 22.3125 -1.421875 17.546875 -0.640625 
Q 12.796875 0.140625 7.71875 1.703125 
L 7.71875 11.625 
Q 12.109375 9.234375 16.796875 8.0625 
Q 21.484375 6.890625 26.703125 6.890625 
Q 35.15625 6.890625 40.078125 11.328125 
Q 45.015625 15.765625 45.015625 23.390625 
Q 45.015625 31 40.078125 35.4375 
Q 35.15625 39.890625 26.703125 39.890625 
Q 22.75 39.890625 18.8125 39.015625 
Q 14.890625 38.140625 10.796875 36.28125 
z
" id="DejaVuSans-53"/>
      </defs>
      <g transform="translate(427.817933 733.838252)rotate(-30)scale(0.1 -0.1)">
       <use xlink:href="#DejaVuSans-50"/>
       <use x="63.623047" xlink:href="#DejaVuSans-48"/>
       <use x="127.246094" xlink:href="#DejaVuSans-50"/>
       <use x="190.869141" xlink:href="#DejaVuSans-48"/>
       <use x="254.492188" xlink:href="#DejaVuSans-45"/>
       <use x="290.576172" xlink:href="#DejaVuSans-48"/>
       <use x="354.199219" xlink:href="#DejaVuSans-51"/>
       <use x="417.822266" xlink:href="#DejaVuSans-45"/>
       <use x="453.90625" xlink:href="#DejaVuSans-49"/>
       <use x="517.529297" xlink:href="#DejaVuSans-53"/>
      </g>
     </g>
    </g>
    <g id="xtick_4">
     <g id="line2d_7">
      <path clip-path="url(#pb32ddb9864)" d="M 624.122449 691.2 
L 624.122449 103.68 
" style="fill:none;stroke:#b0b0b0;stroke-linecap:square;stroke-width:0.8;"/>
     </g>
     <g id="line2d_8">
      <g>
       <use style="stroke:#000000;stroke-width:0.8;" x="624.122449" xlink:href="#mb7773ecce1" y="691.2"/>
      </g>
     </g>
     <g id="text_4">
      <!-- 2020-03-22 -->
      <g transform="translate(572.752998 733.838252)rotate(-30)scale(0.1 -0.1)">
       <use xlink:href="#DejaVuSans-50"/>
       <use x="63.623047" xlink:href="#DejaVuSans-48"/>
       <use x="127.246094" xlink:href="#DejaVuSans-50"/>
       <use x="190.869141" xlink:href="#DejaVuSans-48"/>
       <use x="254.492188" xlink:href="#DejaVuSans-45"/>
       <use x="290.576172" xlink:href="#DejaVuSans-48"/>
       <use x="354.199219" xlink:href="#DejaVuSans-51"/>
       <use x="417.822266" xlink:href="#DejaVuSans-45"/>
       <use x="453.90625" xlink:href="#DejaVuSans-50"/>
       <use x="517.529297" xlink:href="#DejaVuSans-50"/>
      </g>
     </g>
    </g>
    <g id="xtick_5">
     <g id="line2d_9">
      <path clip-path="url(#pb32ddb9864)" d="M 831.172542 691.2 
L 831.172542 103.68 
" style="fill:none;stroke:#b0b0b0;stroke-linecap:square;stroke-width:0.8;"/>
     </g>
     <g id="line2d_10">
      <g>
       <use style="stroke:#000000;stroke-width:0.8;" x="831.172542" xlink:href="#mb7773ecce1" y="691.2"/>
      </g>
     </g>
     <g id="text_5">
      <!-- 2020-04-01 -->
      <defs>
       <path d="M 37.796875 64.3125 
L 12.890625 25.390625 
L 37.796875 25.390625 
z
M 35.203125 72.90625 
L 47.609375 72.90625 
L 47.609375 25.390625 
L 58.015625 25.390625 
L 58.015625 17.1875 
L 47.609375 17.1875 
L 47.609375 0 
L 37.796875 0 
L 37.796875 17.1875 
L 4.890625 17.1875 
L 4.890625 26.703125 
z
" id="DejaVuSans-52"/>
      </defs>
      <g transform="translate(779.80309 733.838252)rotate(-30)scale(0.1 -0.1)">
       <use xlink:href="#DejaVuSans-50"/>
       <use x="63.623047" xlink:href="#DejaVuSans-48"/>
       <use x="127.246094" xlink:href="#DejaVuSans-50"/>
       <use x="190.869141" xlink:href="#DejaVuSans-48"/>
       <use x="254.492188" xlink:href="#DejaVuSans-45"/>
       <use x="290.576172" xlink:href="#DejaVuSans-48"/>
       <use x="354.199219" xlink:href="#DejaVuSans-52"/>
       <use x="417.822266" xlink:href="#DejaVuSans-45"/>
       <use x="453.90625" xlink:href="#DejaVuSans-48"/>
       <use x="517.529297" xlink:href="#DejaVuSans-49"/>
      </g>
     </g>
    </g>
    <g id="xtick_6">
     <g id="line2d_11">
      <path clip-path="url(#pb32ddb9864)" d="M 976.107607 691.2 
L 976.107607 103.68 
" style="fill:none;stroke:#b0b0b0;stroke-linecap:square;stroke-width:0.8;"/>
     </g>
     <g id="line2d_12">
      <g>
       <use style="stroke:#000000;stroke-width:0.8;" x="976.107607" xlink:href="#mb7773ecce1" y="691.2"/>
      </g>
     </g>
     <g id="text_6">
      <!-- 2020-04-08 -->
      <g transform="translate(924.738155 733.838252)rotate(-30)scale(0.1 -0.1)">
       <use xlink:href="#DejaVuSans-50"/>
       <use x="63.623047" xlink:href="#DejaVuSans-48"/>
       <use x="127.246094" xlink:href="#DejaVuSans-50"/>
       <use x="190.869141" xlink:href="#DejaVuSans-48"/>
       <use x="254.492188" xlink:href="#DejaVuSans-45"/>
       <use x="290.576172" xlink:href="#DejaVuSans-48"/>
       <use x="354.199219" xlink:href="#DejaVuSans-52"/>
       <use x="417.822266" xlink:href="#DejaVuSans-45"/>
       <use x="453.90625" xlink:href="#DejaVuSans-48"/>
       <use x="517.529297" xlink:href="#DejaVuSans-56"/>
      </g>
     </g>
    </g>
    <g id="xtick_7">
     <g id="line2d_13">
      <path clip-path="url(#pb32ddb9864)" d="M 1121.042672 691.2 
L 1121.042672 103.68 
" style="fill:none;stroke:#b0b0b0;stroke-linecap:square;stroke-width:0.8;"/>
     </g>
     <g id="line2d_14">
      <g>
       <use style="stroke:#000000;stroke-width:0.8;" x="1121.042672" xlink:href="#mb7773ecce1" y="691.2"/>
      </g>
     </g>
     <g id="text_7">
      <!-- 2020-04-15 -->
      <g transform="translate(1069.67322 733.838252)rotate(-30)scale(0.1 -0.1)">
       <use xlink:href="#DejaVuSans-50"/>
       <use x="63.623047" xlink:href="#DejaVuSans-48"/>
       <use x="127.246094" xlink:href="#DejaVuSans-50"/>
       <use x="190.869141" xlink:href="#DejaVuSans-48"/>
       <use x="254.492188" xlink:href="#DejaVuSans-45"/>
       <use x="290.576172" xlink:href="#DejaVuSans-48"/>
       <use x="354.199219" xlink:href="#DejaVuSans-52"/>
       <use x="417.822266" xlink:href="#DejaVuSans-45"/>
       <use x="453.90625" xlink:href="#DejaVuSans-49"/>
       <use x="517.529297" xlink:href="#DejaVuSans-53"/>
      </g>
     </g>
    </g>
    <g id="xtick_8">
     <g id="line2d_15">
      <path clip-path="url(#pb32ddb9864)" d="M 1265.977737 691.2 
L 1265.977737 103.68 
" style="fill:none;stroke:#b0b0b0;stroke-linecap:square;stroke-width:0.8;"/>
     </g>
     <g id="line2d_16">
      <g>
       <use style="stroke:#000000;stroke-width:0.8;" x="1265.977737" xlink:href="#mb7773ecce1" y="691.2"/>
      </g>
     </g>
     <g id="text_8">
      <!-- 2020-04-22 -->
      <g transform="translate(1214.608285 733.838252)rotate(-30)scale(0.1 -0.1)">
       <use xlink:href="#DejaVuSans-50"/>
       <use x="63.623047" xlink:href="#DejaVuSans-48"/>
       <use x="127.246094" xlink:href="#DejaVuSans-50"/>
       <use x="190.869141" xlink:href="#DejaVuSans-48"/>
       <use x="254.492188" xlink:href="#DejaVuSans-45"/>
       <use x="290.576172" xlink:href="#DejaVuSans-48"/>
       <use x="354.199219" xlink:href="#DejaVuSans-52"/>
       <use x="417.822266" xlink:href="#DejaVuSans-45"/>
       <use x="453.90625" xlink:href="#DejaVuSans-50"/>
       <use x="517.529297" xlink:href="#DejaVuSans-50"/>
      </g>
     </g>
    </g>
    <g id="text_9">
     <!-- Date -->
     <defs>
      <path d="M 8.703125 6 
L 8.703125 77.796875 
L 23.59375 77.796875 
Q 38.90625 77.796875 46.046875 75.546875 
Q 53.203125 73.296875 58.390625 68.4375 
Q 63.59375 63.59375 66.390625 56.59375 
Q 69.203125 49.59375 69.203125 40.25 
Q 69.203125 30.90625 64.84375 22.65625 
Q 60.5 14.40625 53.046875 10.203125 
Q 45.59375 6 31.59375 6 
z
M 15.59375 12.796875 
L 23.90625 12.796875 
Q 36.90625 12.796875 42.75 14.09375 
Q 48.59375 15.40625 53 19.25 
Q 57.40625 23.09375 59.703125 28.59375 
Q 62 34.09375 62 41.1875 
Q 62 48.296875 59.34375 54.296875 
Q 56.703125 60.296875 51.796875 64.1875 
Q 46.90625 68.09375 40.25 69.4375 
Q 33.59375 70.796875 20.703125 70.796875 
L 15.59375 70.796875 
z
" id="STHeitiTC-Light-68"/>
      <path d="M 60.5 59.09375 
L 60.5 6 
L 53.796875 6 
L 53.796875 15.09375 
Q 44.703125 4.203125 33 4.203125 
Q 21.296875 4.203125 13.25 12.546875 
Q 5.203125 20.90625 5.203125 32.453125 
Q 5.203125 44 13.296875 52.25 
Q 21.40625 60.5 32.703125 60.5 
Q 45.703125 60.5 53.796875 49.40625 
L 53.796875 59.09375 
z
M 54.203125 32.296875 
Q 54.203125 41.40625 48.09375 47.65625 
Q 42 53.90625 33.140625 53.90625 
Q 24.296875 53.90625 18.1875 47.453125 
Q 12.09375 41 12.09375 32.203125 
Q 12.09375 23.40625 18.296875 16.953125 
Q 24.5 10.5 33.140625 10.5 
Q 41.796875 10.5 48 16.703125 
Q 54.203125 22.90625 54.203125 32.296875 
z
" id="STHeitiTC-Light-97"/>
      <path d="M 20.5 14.40625 
Q 20.5 11.703125 21.203125 11.203125 
Q 21.90625 10.703125 24.796875 10.703125 
L 28.90625 10.703125 
L 28.90625 4.90625 
Q 24.703125 4.203125 22.296875 4.203125 
Q 17.796875 4.203125 15.6875 6.390625 
Q 13.59375 8.59375 13.59375 13.296875 
L 13.59375 53.296875 
L 4.203125 53.296875 
L 4.203125 59.09375 
L 13.59375 59.09375 
L 13.59375 79.59375 
L 20.5 79.59375 
L 20.5 59.09375 
L 31.296875 59.09375 
L 31.296875 53.296875 
L 20.5 53.296875 
z
" id="STHeitiTC-Light-116"/>
      <path d="M 52.296875 23.203125 
L 58.09375 20.203125 
Q 49.5 4.203125 32.703125 4.203125 
Q 20.703125 4.203125 12.890625 12.453125 
Q 5.09375 20.703125 5.09375 32.296875 
Q 5.09375 43.90625 12.9375 52.203125 
Q 20.796875 60.5 32.34375 60.5 
Q 43.90625 60.5 51.75 52.796875 
Q 59.59375 45.09375 59.90625 31.796875 
L 12.09375 31.796875 
Q 12.40625 22.203125 18.15625 16.34375 
Q 23.90625 10.5 32.09375 10.5 
Q 45.59375 10.5 52.296875 23.203125 
z
M 52.296875 37.703125 
Q 50.90625 45.296875 45.296875 49.59375 
Q 39.703125 53.90625 32.40625 53.90625 
Q 17.40625 53.90625 12.796875 37.703125 
z
" id="STHeitiTC-Light-101"/>
     </defs>
     <g transform="translate(725.919531 747.59869)scale(0.1 -0.1)">
      <use xlink:href="#STHeitiTC-Light-68"/>
      <use x="74.399994" xlink:href="#STHeitiTC-Light-97"/>
      <use x="142.699982" xlink:href="#STHeitiTC-Light-116"/>
      <use x="176.599976" xlink:href="#STHeitiTC-Light-101"/>
     </g>
    </g>
   </g>
   <g id="matplotlib.axis_2">
    <g id="ytick_1">
     <g id="line2d_17">
      <path clip-path="url(#pb32ddb9864)" d="M 180 668.238301 
L 1296 668.238301 
" style="fill:none;stroke:#b0b0b0;stroke-linecap:square;stroke-width:0.8;"/>
     </g>
     <g id="line2d_18">
      <defs>
       <path d="M 0 0 
L 3.5 0 
" id="mf1c0408ac7" style="stroke:#000000;stroke-width:0.8;"/>
      </defs>
      <g>
       <use style="stroke:#000000;stroke-width:0.8;" x="1296" xlink:href="#mf1c0408ac7" y="668.238301"/>
      </g>
     </g>
     <g id="text_10">
      <!-- 0 -->
      <g transform="translate(1303 672.03752)scale(0.1 -0.1)">
       <use xlink:href="#DejaVuSans-48"/>
      </g>
     </g>
    </g>
    <g id="ytick_2">
     <g id="line2d_19">
      <path clip-path="url(#pb32ddb9864)" d="M 180 590.243398 
L 1296 590.243398 
" style="fill:none;stroke:#b0b0b0;stroke-linecap:square;stroke-width:0.8;"/>
     </g>
     <g id="line2d_20">
      <g>
       <use style="stroke:#000000;stroke-width:0.8;" x="1296" xlink:href="#mf1c0408ac7" y="590.243398"/>
      </g>
     </g>
     <g id="text_11">
      <!-- 250 -->
      <g transform="translate(1303 594.042617)scale(0.1 -0.1)">
       <use xlink:href="#DejaVuSans-50"/>
       <use x="63.623047" xlink:href="#DejaVuSans-53"/>
       <use x="127.246094" xlink:href="#DejaVuSans-48"/>
      </g>
     </g>
    </g>
    <g id="ytick_3">
     <g id="line2d_21">
      <path clip-path="url(#pb32ddb9864)" d="M 180 512.248496 
L 1296 512.248496 
" style="fill:none;stroke:#b0b0b0;stroke-linecap:square;stroke-width:0.8;"/>
     </g>
     <g id="line2d_22">
      <g>
       <use style="stroke:#000000;stroke-width:0.8;" x="1296" xlink:href="#mf1c0408ac7" y="512.248496"/>
      </g>
     </g>
     <g id="text_12">
      <!-- 500 -->
      <g transform="translate(1303 516.047715)scale(0.1 -0.1)">
       <use xlink:href="#DejaVuSans-53"/>
       <use x="63.623047" xlink:href="#DejaVuSans-48"/>
       <use x="127.246094" xlink:href="#DejaVuSans-48"/>
      </g>
     </g>
    </g>
    <g id="ytick_4">
     <g id="line2d_23">
      <path clip-path="url(#pb32ddb9864)" d="M 180 434.253594 
L 1296 434.253594 
" style="fill:none;stroke:#b0b0b0;stroke-linecap:square;stroke-width:0.8;"/>
     </g>
     <g id="line2d_24">
      <g>
       <use style="stroke:#000000;stroke-width:0.8;" x="1296" xlink:href="#mf1c0408ac7" y="434.253594"/>
      </g>
     </g>
     <g id="text_13">
      <!-- 750 -->
      <defs>
       <path d="M 8.203125 72.90625 
L 55.078125 72.90625 
L 55.078125 68.703125 
L 28.609375 0 
L 18.3125 0 
L 43.21875 64.59375 
L 8.203125 64.59375 
z
" id="DejaVuSans-55"/>
      </defs>
      <g transform="translate(1303 438.052813)scale(0.1 -0.1)">
       <use xlink:href="#DejaVuSans-55"/>
       <use x="63.623047" xlink:href="#DejaVuSans-53"/>
       <use x="127.246094" xlink:href="#DejaVuSans-48"/>
      </g>
     </g>
    </g>
    <g id="ytick_5">
     <g id="line2d_25">
      <path clip-path="url(#pb32ddb9864)" d="M 180 356.258692 
L 1296 356.258692 
" style="fill:none;stroke:#b0b0b0;stroke-linecap:square;stroke-width:0.8;"/>
     </g>
     <g id="line2d_26">
      <g>
       <use style="stroke:#000000;stroke-width:0.8;" x="1296" xlink:href="#mf1c0408ac7" y="356.258692"/>
      </g>
     </g>
     <g id="text_14">
      <!-- 1000 -->
      <g transform="translate(1303 360.05791)scale(0.1 -0.1)">
       <use xlink:href="#DejaVuSans-49"/>
       <use x="63.623047" xlink:href="#DejaVuSans-48"/>
       <use x="127.246094" xlink:href="#DejaVuSans-48"/>
       <use x="190.869141" xlink:href="#DejaVuSans-48"/>
      </g>
     </g>
    </g>
    <g id="ytick_6">
     <g id="line2d_27">
      <path clip-path="url(#pb32ddb9864)" d="M 180 278.263789 
L 1296 278.263789 
" style="fill:none;stroke:#b0b0b0;stroke-linecap:square;stroke-width:0.8;"/>
     </g>
     <g id="line2d_28">
      <g>
       <use style="stroke:#000000;stroke-width:0.8;" x="1296" xlink:href="#mf1c0408ac7" y="278.263789"/>
      </g>
     </g>
     <g id="text_15">
      <!-- 1250 -->
      <g transform="translate(1303 282.063008)scale(0.1 -0.1)">
       <use xlink:href="#DejaVuSans-49"/>
       <use x="63.623047" xlink:href="#DejaVuSans-50"/>
       <use x="127.246094" xlink:href="#DejaVuSans-53"/>
       <use x="190.869141" xlink:href="#DejaVuSans-48"/>
      </g>
     </g>
    </g>
    <g id="ytick_7">
     <g id="line2d_29">
      <path clip-path="url(#pb32ddb9864)" d="M 180 200.268887 
L 1296 200.268887 
" style="fill:none;stroke:#b0b0b0;stroke-linecap:square;stroke-width:0.8;"/>
     </g>
     <g id="line2d_30">
      <g>
       <use style="stroke:#000000;stroke-width:0.8;" x="1296" xlink:href="#mf1c0408ac7" y="200.268887"/>
      </g>
     </g>
     <g id="text_16">
      <!-- 1500 -->
      <g transform="translate(1303 204.068106)scale(0.1 -0.1)">
       <use xlink:href="#DejaVuSans-49"/>
       <use x="63.623047" xlink:href="#DejaVuSans-53"/>
       <use x="127.246094" xlink:href="#DejaVuSans-48"/>
       <use x="190.869141" xlink:href="#DejaVuSans-48"/>
      </g>
     </g>
    </g>
    <g id="ytick_8">
     <g id="line2d_31">
      <path clip-path="url(#pb32ddb9864)" d="M 180 122.273985 
L 1296 122.273985 
" style="fill:none;stroke:#b0b0b0;stroke-linecap:square;stroke-width:0.8;"/>
     </g>
     <g id="line2d_32">
      <g>
       <use style="stroke:#000000;stroke-width:0.8;" x="1296" xlink:href="#mf1c0408ac7" y="122.273985"/>
      </g>
     </g>
     <g id="text_17">
      <!-- 1750 -->
      <g transform="translate(1303 126.073203)scale(0.1 -0.1)">
       <use xlink:href="#DejaVuSans-49"/>
       <use x="63.623047" xlink:href="#DejaVuSans-55"/>
       <use x="127.246094" xlink:href="#DejaVuSans-53"/>
       <use x="190.869141" xlink:href="#DejaVuSans-48"/>
      </g>
     </g>
    </g>
    <g id="text_18">
     <!-- Canada BC Confirmed Cases -->
     <defs>
      <path d="M 75.59375 64.5 
L 70 60.203125 
Q 60 72.59375 44.296875 72.59375 
Q 31.5 72.59375 22.25 63.59375 
Q 13 54.59375 13 41.546875 
Q 13 28.5 22.046875 19.75 
Q 31.09375 11 44.703125 11 
Q 59.90625 11 70 22.796875 
L 75.59375 18.5 
Q 70.296875 11.5 62.1875 7.84375 
Q 54.09375 4.203125 44.296875 4.203125 
Q 27.203125 4.203125 16.296875 15 
Q 5.40625 25.796875 5.40625 42.296875 
Q 5.40625 52.5 10.453125 61.140625 
Q 15.5 69.796875 24.453125 74.6875 
Q 33.40625 79.59375 43.703125 79.59375 
Q 54 79.59375 62.203125 75.6875 
Q 70.40625 71.796875 75.59375 64.5 
z
" id="STHeitiTC-Light-67"/>
      <path d="M 7.59375 59.09375 
L 14.5 59.09375 
L 14.5 49.59375 
Q 22.703125 60.5 34.40625 60.5 
Q 40.40625 60.5 45.203125 57.25 
Q 50 54 52 48.75 
Q 54 43.5 54 33.296875 
L 54 6 
L 47.203125 6 
L 47.203125 31.296875 
Q 47.203125 40.59375 46.34375 43.890625 
Q 45.5 47.203125 43.75 49.5 
Q 42 51.796875 39.296875 53 
Q 36.59375 54.203125 32.75 54.203125 
Q 28.90625 54.203125 25.203125 52.296875 
Q 21.5 50.40625 18.890625 47 
Q 16.296875 43.59375 15.390625 40 
Q 14.5 36.40625 14.5 25.5 
L 14.5 6 
L 7.59375 6 
z
" id="STHeitiTC-Light-110"/>
      <path d="M 60.59375 79.59375 
L 60.59375 6 
L 53.90625 6 
L 53.90625 15.09375 
Q 44.796875 4.203125 33.046875 4.203125 
Q 21.296875 4.203125 13.296875 12.5 
Q 5.296875 20.796875 5.296875 32.390625 
Q 5.296875 44 13.390625 52.25 
Q 21.5 60.5 32.796875 60.5 
Q 45.796875 60.5 53.90625 49.40625 
L 53.90625 79.59375 
z
M 54.296875 32.203125 
Q 54.296875 41.296875 48.296875 47.59375 
Q 42.296875 53.90625 33.296875 53.90625 
Q 24.296875 53.90625 18.25 47.453125 
Q 12.203125 41 12.203125 32.25 
Q 12.203125 23.5 18.390625 17 
Q 24.59375 10.5 33.046875 10.5 
Q 41.5 10.5 47.890625 16.640625 
Q 54.296875 22.796875 54.296875 32.203125 
z
" id="STHeitiTC-Light-100"/>
      <path id="STHeitiTC-Light-32"/>
      <path d="M 8.90625 77.796875 
L 23.09375 77.796875 
Q 34.40625 77.796875 40.25 73.25 
Q 46.09375 68.703125 46.09375 60.203125 
Q 46.09375 55.5 43.75 51.546875 
Q 41.40625 47.59375 36.90625 45.203125 
Q 44.296875 42.796875 48.140625 38 
Q 52 33.203125 52 26.59375 
Q 52 17.703125 45.5 11.84375 
Q 39 6 28.703125 6 
L 8.90625 6 
z
M 16 70.796875 
L 16 47.796875 
L 20.09375 47.796875 
Q 29.5 47.796875 34.09375 50.796875 
Q 38.703125 53.796875 38.703125 60.203125 
Q 38.703125 70.796875 24.296875 70.796875 
z
M 16 40.59375 
L 16 13 
L 24.90625 13 
Q 32.59375 13 36.25 14.546875 
Q 39.90625 16.09375 42.203125 19.34375 
Q 44.5 22.59375 44.5 26 
Q 44.5 29.40625 43.203125 32 
Q 41.90625 34.59375 39.34375 36.59375 
Q 36.796875 38.59375 33.25 39.59375 
Q 29.703125 40.59375 20 40.59375 
z
" id="STHeitiTC-Light-66"/>
      <path d="M 5.09375 32.203125 
Q 5.09375 43.90625 13.140625 52.203125 
Q 21.203125 60.5 32.75 60.5 
Q 44.296875 60.5 52.34375 52.203125 
Q 60.40625 43.90625 60.40625 32.296875 
Q 60.40625 20.703125 52.453125 12.453125 
Q 44.5 4.203125 32.796875 4.203125 
Q 21.09375 4.203125 13.09375 12.453125 
Q 5.09375 20.703125 5.09375 32.203125 
z
M 53.5 32.09375 
Q 53.5 40.90625 47.34375 47.34375 
Q 41.203125 53.796875 32.75 53.796875 
Q 24.296875 53.796875 18.1875 47.34375 
Q 12.09375 40.90625 12.09375 32 
Q 12.09375 23.09375 18 16.890625 
Q 23.90625 10.703125 32.65625 10.703125 
Q 41.40625 10.703125 47.453125 16.953125 
Q 53.5 23.203125 53.5 32.09375 
z
" id="STHeitiTC-Light-111"/>
      <path d="M 29.5 78.203125 
L 29.5 71.5 
Q 25.59375 73.203125 22.546875 73.203125 
Q 19.5 73.203125 18.59375 71.25 
Q 17.703125 69.296875 17.703125 64.90625 
L 17.703125 59.09375 
L 28.796875 59.09375 
L 28.796875 53.296875 
L 17.703125 53.296875 
L 17.703125 6 
L 10.796875 6 
L 10.796875 53.296875 
L 3.90625 53.296875 
L 3.90625 59.09375 
L 10.796875 59.09375 
L 10.796875 66 
Q 10.796875 73 13.390625 76.296875 
Q 16 79.59375 21.5 79.59375 
Q 24.703125 79.59375 29.5 78.203125 
z
" id="STHeitiTC-Light-102"/>
      <path d="M 4.40625 73.90625 
Q 4.40625 76.203125 6.046875 77.890625 
Q 7.703125 79.59375 10.046875 79.59375 
Q 12.40625 79.59375 14.046875 77.9375 
Q 15.703125 76.296875 15.703125 73.9375 
Q 15.703125 71.59375 14.046875 69.9375 
Q 12.40625 68.296875 10.046875 68.296875 
Q 7.703125 68.296875 6.046875 70 
Q 4.40625 71.703125 4.40625 73.90625 
z
M 6.59375 59.09375 
L 13.5 59.09375 
L 13.5 6 
L 6.59375 6 
z
" id="STHeitiTC-Light-105"/>
      <path d="M 5 59.09375 
L 12 59.09375 
L 12 51.40625 
Q 14.796875 56.09375 17.4375 58.296875 
Q 20.09375 60.5 23.34375 60.5 
Q 26.59375 60.5 29.90625 58.703125 
L 26.296875 52.90625 
Q 24.796875 53.796875 23.203125 53.796875 
Q 20.09375 53.796875 17.34375 50.59375 
Q 14.59375 47.40625 13.296875 42.34375 
Q 12 37.296875 12 24 
L 12 6 
L 5 6 
z
" id="STHeitiTC-Light-114"/>
      <path d="M 7.59375 59.09375 
L 14.40625 59.09375 
L 14.40625 49.90625 
Q 21.5 60.5 32.59375 60.5 
Q 38.5 60.5 43.140625 57.140625 
Q 47.796875 53.796875 49.40625 47.703125 
Q 52.703125 53.90625 57.796875 57.203125 
Q 62.90625 60.5 69.546875 60.5 
Q 76.203125 60.5 81.59375 55.34375 
Q 87 50.203125 87 35 
L 87 6 
L 80 6 
L 80 35 
Q 80 42.296875 79.09375 45.75 
Q 78.203125 49.203125 75.203125 51.546875 
Q 72.203125 53.90625 67.25 53.90625 
Q 62.296875 53.90625 58 50.59375 
Q 53.703125 47.296875 52.09375 42.1875 
Q 50.5 37.09375 50.5 26.796875 
L 50.5 6 
L 43.796875 6 
L 43.796875 33.203125 
Q 43.796875 41.703125 42.890625 45.34375 
Q 42 49 38.890625 51.453125 
Q 35.796875 53.90625 31.296875 53.90625 
Q 26.796875 53.90625 22.84375 51.25 
Q 18.90625 48.59375 16.65625 44 
Q 14.40625 39.40625 14.40625 28.5 
L 14.40625 6 
L 7.59375 6 
z
" id="STHeitiTC-Light-109"/>
      <path d="M 34.296875 53.296875 
L 29.90625 48.796875 
Q 24.40625 54.09375 19.203125 54.09375 
Q 15.796875 54.09375 13.5 51.9375 
Q 11.203125 49.796875 11.203125 46.640625 
Q 11.203125 43.5 13.640625 41.25 
Q 16.09375 39 22.09375 35.84375 
Q 28.09375 32.703125 31.25 29.046875 
Q 34.40625 25.40625 34.40625 20.09375 
Q 34.40625 13.40625 29.75 8.796875 
Q 25.09375 4.203125 18.296875 4.203125 
Q 13.796875 4.203125 9.640625 6.203125 
Q 5.5 8.203125 2.59375 11.796875 
L 6.90625 16.59375 
Q 12.203125 10.703125 18 10.703125 
Q 22.09375 10.703125 25 13.390625 
Q 27.90625 16.09375 27.90625 19.75 
Q 27.90625 23.40625 25.34375 25.75 
Q 22.796875 28.09375 16.84375 31.09375 
Q 10.90625 34.09375 7.953125 37.640625 
Q 5 41.203125 5 46.84375 
Q 5 52.5 9.140625 56.5 
Q 13.296875 60.5 20.140625 60.5 
Q 27 60.5 34.296875 53.296875 
z
" id="STHeitiTC-Light-115"/>
     </defs>
     <g transform="translate(174.659375 469.348594)rotate(-90)scale(0.1 -0.1)">
      <use xlink:href="#STHeitiTC-Light-67"/>
      <use x="81.299988" xlink:href="#STHeitiTC-Light-97"/>
      <use x="149.599976" xlink:href="#STHeitiTC-Light-110"/>
      <use x="210.59996" xlink:href="#STHeitiTC-Light-97"/>
      <use x="278.899948" xlink:href="#STHeitiTC-Light-100"/>
      <use x="347.399933" xlink:href="#STHeitiTC-Light-97"/>
      <use x="415.699921" xlink:href="#STHeitiTC-Light-32"/>
      <use x="440.699905" xlink:href="#STHeitiTC-Light-66"/>
      <use x="498.099899" xlink:href="#STHeitiTC-Light-67"/>
      <use x="579.399887" xlink:href="#STHeitiTC-Light-32"/>
      <use x="604.399872" xlink:href="#STHeitiTC-Light-67"/>
      <use x="685.69986" xlink:href="#STHeitiTC-Light-111"/>
      <use x="751.199844" xlink:href="#STHeitiTC-Light-110"/>
      <use x="812.199829" xlink:href="#STHeitiTC-Light-102"/>
      <use x="843.599823" xlink:href="#STHeitiTC-Light-105"/>
      <use x="863.599808" xlink:href="#STHeitiTC-Light-114"/>
      <use x="893.699799" xlink:href="#STHeitiTC-Light-109"/>
      <use x="987.499786" xlink:href="#STHeitiTC-Light-101"/>
      <use x="1052.499771" xlink:href="#STHeitiTC-Light-100"/>
      <use x="1120.999756" xlink:href="#STHeitiTC-Light-32"/>
      <use x="1145.999741" xlink:href="#STHeitiTC-Light-67"/>
      <use x="1227.299728" xlink:href="#STHeitiTC-Light-97"/>
      <use x="1295.599716" xlink:href="#STHeitiTC-Light-115"/>
      <use x="1334.399704" xlink:href="#STHeitiTC-Light-101"/>
      <use x="1399.399689" xlink:href="#STHeitiTC-Light-115"/>
     </g>
    </g>
   </g>
   <g id="line2d_33">
    <path clip-path="url(#pb32ddb9864)" d="M 230.727273 664.494545 
L 272.137291 661.686729 
L 292.842301 661.686729 
L 313.54731 659.814851 
L 334.252319 659.814851 
L 354.957328 658.254953 
L 396.367347 656.071096 
L 417.072356 653.887239 
L 437.777365 651.703381 
L 458.482375 648.271606 
L 479.187384 645.463789 
L 499.892393 645.463789 
L 520.597403 636.104401 
L 541.302412 610.210093 
L 562.007421 583.691827 
L 582.71243 583.691827 
L 603.41744 535.958946 
L 624.122449 535.958946 
L 644.827458 520.983925 
L 665.532468 475.746882 
L 686.237477 462.643738 
L 706.942486 442.053084 
L 727.647495 442.053084 
L 748.352505 392.448326 
L 769.057514 392.448326 
L 789.762523 368.737876 
L 810.467532 365.61808 
L 831.172542 335.668037 
L 851.877551 318.509159 
L 872.58256 301.97424 
L 893.28757 292.926831 
L 913.992579 292.926831 
L 934.697588 273.272116 
L 955.402597 265.472625 
L 976.107607 251.433543 
L 996.812616 240.826236 
L 1017.517625 228.347052 
L 1038.222635 217.427766 
L 1058.927644 217.427766 
L 1079.632653 203.388683 
L 1100.337662 194.965234 
L 1121.042672 181.238131 
L 1141.747681 181.238131 
L 1162.45269 176.870416 
L 1183.157699 163.455293 
L 1203.862709 163.455293 
L 1224.567718 138.184945 
L 1245.272727 130.385455 
" style="fill:none;stroke:#1f77b4;stroke-dasharray:5.55,2.4;stroke-dashoffset:0;stroke-width:1.5;"/>
    <defs>
     <path d="M -1.5 3 
L 0 1.5 
L 1.5 3 
L 3 1.5 
L 1.5 0 
L 3 -1.5 
L 1.5 -3 
L 0 -1.5 
L -1.5 -3 
L -3 -1.5 
L -1.5 0 
L -3 1.5 
z
" id="m5bce7ccc22" style="stroke:#1f77b4;stroke-linejoin:miter;"/>
    </defs>
    <g clip-path="url(#pb32ddb9864)">
     <use style="fill:#1f77b4;stroke:#1f77b4;stroke-linejoin:miter;" x="230.727273" xlink:href="#m5bce7ccc22" y="664.494545"/>
     <use style="fill:#1f77b4;stroke:#1f77b4;stroke-linejoin:miter;" x="272.137291" xlink:href="#m5bce7ccc22" y="661.686729"/>
     <use style="fill:#1f77b4;stroke:#1f77b4;stroke-linejoin:miter;" x="292.842301" xlink:href="#m5bce7ccc22" y="661.686729"/>
     <use style="fill:#1f77b4;stroke:#1f77b4;stroke-linejoin:miter;" x="313.54731" xlink:href="#m5bce7ccc22" y="659.814851"/>
     <use style="fill:#1f77b4;stroke:#1f77b4;stroke-linejoin:miter;" x="334.252319" xlink:href="#m5bce7ccc22" y="659.814851"/>
     <use style="fill:#1f77b4;stroke:#1f77b4;stroke-linejoin:miter;" x="354.957328" xlink:href="#m5bce7ccc22" y="658.254953"/>
     <use style="fill:#1f77b4;stroke:#1f77b4;stroke-linejoin:miter;" x="396.367347" xlink:href="#m5bce7ccc22" y="656.071096"/>
     <use style="fill:#1f77b4;stroke:#1f77b4;stroke-linejoin:miter;" x="417.072356" xlink:href="#m5bce7ccc22" y="653.887239"/>
     <use style="fill:#1f77b4;stroke:#1f77b4;stroke-linejoin:miter;" x="437.777365" xlink:href="#m5bce7ccc22" y="651.703381"/>
     <use style="fill:#1f77b4;stroke:#1f77b4;stroke-linejoin:miter;" x="458.482375" xlink:href="#m5bce7ccc22" y="648.271606"/>
     <use style="fill:#1f77b4;stroke:#1f77b4;stroke-linejoin:miter;" x="479.187384" xlink:href="#m5bce7ccc22" y="645.463789"/>
     <use style="fill:#1f77b4;stroke:#1f77b4;stroke-linejoin:miter;" x="499.892393" xlink:href="#m5bce7ccc22" y="645.463789"/>
     <use style="fill:#1f77b4;stroke:#1f77b4;stroke-linejoin:miter;" x="520.597403" xlink:href="#m5bce7ccc22" y="636.104401"/>
     <use style="fill:#1f77b4;stroke:#1f77b4;stroke-linejoin:miter;" x="541.302412" xlink:href="#m5bce7ccc22" y="610.210093"/>
     <use style="fill:#1f77b4;stroke:#1f77b4;stroke-linejoin:miter;" x="562.007421" xlink:href="#m5bce7ccc22" y="583.691827"/>
     <use style="fill:#1f77b4;stroke:#1f77b4;stroke-linejoin:miter;" x="582.71243" xlink:href="#m5bce7ccc22" y="583.691827"/>
     <use style="fill:#1f77b4;stroke:#1f77b4;stroke-linejoin:miter;" x="603.41744" xlink:href="#m5bce7ccc22" y="535.958946"/>
     <use style="fill:#1f77b4;stroke:#1f77b4;stroke-linejoin:miter;" x="624.122449" xlink:href="#m5bce7ccc22" y="535.958946"/>
     <use style="fill:#1f77b4;stroke:#1f77b4;stroke-linejoin:miter;" x="644.827458" xlink:href="#m5bce7ccc22" y="520.983925"/>
     <use style="fill:#1f77b4;stroke:#1f77b4;stroke-linejoin:miter;" x="665.532468" xlink:href="#m5bce7ccc22" y="475.746882"/>
     <use style="fill:#1f77b4;stroke:#1f77b4;stroke-linejoin:miter;" x="686.237477" xlink:href="#m5bce7ccc22" y="462.643738"/>
     <use style="fill:#1f77b4;stroke:#1f77b4;stroke-linejoin:miter;" x="706.942486" xlink:href="#m5bce7ccc22" y="442.053084"/>
     <use style="fill:#1f77b4;stroke:#1f77b4;stroke-linejoin:miter;" x="727.647495" xlink:href="#m5bce7ccc22" y="442.053084"/>
     <use style="fill:#1f77b4;stroke:#1f77b4;stroke-linejoin:miter;" x="748.352505" xlink:href="#m5bce7ccc22" y="392.448326"/>
     <use style="fill:#1f77b4;stroke:#1f77b4;stroke-linejoin:miter;" x="769.057514" xlink:href="#m5bce7ccc22" y="392.448326"/>
     <use style="fill:#1f77b4;stroke:#1f77b4;stroke-linejoin:miter;" x="789.762523" xlink:href="#m5bce7ccc22" y="368.737876"/>
     <use style="fill:#1f77b4;stroke:#1f77b4;stroke-linejoin:miter;" x="810.467532" xlink:href="#m5bce7ccc22" y="365.61808"/>
     <use style="fill:#1f77b4;stroke:#1f77b4;stroke-linejoin:miter;" x="831.172542" xlink:href="#m5bce7ccc22" y="335.668037"/>
     <use style="fill:#1f77b4;stroke:#1f77b4;stroke-linejoin:miter;" x="851.877551" xlink:href="#m5bce7ccc22" y="318.509159"/>
     <use style="fill:#1f77b4;stroke:#1f77b4;stroke-linejoin:miter;" x="872.58256" xlink:href="#m5bce7ccc22" y="301.97424"/>
     <use style="fill:#1f77b4;stroke:#1f77b4;stroke-linejoin:miter;" x="893.28757" xlink:href="#m5bce7ccc22" y="292.926831"/>
     <use style="fill:#1f77b4;stroke:#1f77b4;stroke-linejoin:miter;" x="913.992579" xlink:href="#m5bce7ccc22" y="292.926831"/>
     <use style="fill:#1f77b4;stroke:#1f77b4;stroke-linejoin:miter;" x="934.697588" xlink:href="#m5bce7ccc22" y="273.272116"/>
     <use style="fill:#1f77b4;stroke:#1f77b4;stroke-linejoin:miter;" x="955.402597" xlink:href="#m5bce7ccc22" y="265.472625"/>
     <use style="fill:#1f77b4;stroke:#1f77b4;stroke-linejoin:miter;" x="976.107607" xlink:href="#m5bce7ccc22" y="251.433543"/>
     <use style="fill:#1f77b4;stroke:#1f77b4;stroke-linejoin:miter;" x="996.812616" xlink:href="#m5bce7ccc22" y="240.826236"/>
     <use style="fill:#1f77b4;stroke:#1f77b4;stroke-linejoin:miter;" x="1017.517625" xlink:href="#m5bce7ccc22" y="228.347052"/>
     <use style="fill:#1f77b4;stroke:#1f77b4;stroke-linejoin:miter;" x="1038.222635" xlink:href="#m5bce7ccc22" y="217.427766"/>
     <use style="fill:#1f77b4;stroke:#1f77b4;stroke-linejoin:miter;" x="1058.927644" xlink:href="#m5bce7ccc22" y="217.427766"/>
     <use style="fill:#1f77b4;stroke:#1f77b4;stroke-linejoin:miter;" x="1079.632653" xlink:href="#m5bce7ccc22" y="203.388683"/>
     <use style="fill:#1f77b4;stroke:#1f77b4;stroke-linejoin:miter;" x="1100.337662" xlink:href="#m5bce7ccc22" y="194.965234"/>
     <use style="fill:#1f77b4;stroke:#1f77b4;stroke-linejoin:miter;" x="1121.042672" xlink:href="#m5bce7ccc22" y="181.238131"/>
     <use style="fill:#1f77b4;stroke:#1f77b4;stroke-linejoin:miter;" x="1141.747681" xlink:href="#m5bce7ccc22" y="181.238131"/>
     <use style="fill:#1f77b4;stroke:#1f77b4;stroke-linejoin:miter;" x="1162.45269" xlink:href="#m5bce7ccc22" y="176.870416"/>
     <use style="fill:#1f77b4;stroke:#1f77b4;stroke-linejoin:miter;" x="1183.157699" xlink:href="#m5bce7ccc22" y="163.455293"/>
     <use style="fill:#1f77b4;stroke:#1f77b4;stroke-linejoin:miter;" x="1203.862709" xlink:href="#m5bce7ccc22" y="163.455293"/>
     <use style="fill:#1f77b4;stroke:#1f77b4;stroke-linejoin:miter;" x="1224.567718" xlink:href="#m5bce7ccc22" y="138.184945"/>
     <use style="fill:#1f77b4;stroke:#1f77b4;stroke-linejoin:miter;" x="1245.272727" xlink:href="#m5bce7ccc22" y="130.385455"/>
    </g>
   </g>
   <g id="patch_3">
    <path d="M 180 691.2 
L 180 103.68 
" style="fill:none;stroke:#000000;stroke-linecap:square;stroke-linejoin:miter;stroke-width:0.8;"/>
   </g>
   <g id="patch_4">
    <path d="M 1296 691.2 
L 1296 103.68 
" style="fill:none;stroke:#000000;stroke-linecap:square;stroke-linejoin:miter;stroke-width:0.8;"/>
   </g>
   <g id="patch_5">
    <path d="M 180 691.2 
L 1296 691.2 
" style="fill:none;stroke:#000000;stroke-linecap:square;stroke-linejoin:miter;stroke-width:0.8;"/>
   </g>
   <g id="patch_6">
    <path d="M 180 103.68 
L 1296 103.68 
" style="fill:none;stroke:#000000;stroke-linecap:square;stroke-linejoin:miter;stroke-width:0.8;"/>
   </g>
   <g id="text_19">
    <!-- Canada BC Confirmed Cases -->
    <defs>
     <path d="M 64.40625 67.28125 
L 64.40625 56.890625 
Q 59.421875 61.53125 53.78125 63.8125 
Q 48.140625 66.109375 41.796875 66.109375 
Q 29.296875 66.109375 22.65625 58.46875 
Q 16.015625 50.828125 16.015625 36.375 
Q 16.015625 21.96875 22.65625 14.328125 
Q 29.296875 6.6875 41.796875 6.6875 
Q 48.140625 6.6875 53.78125 8.984375 
Q 59.421875 11.28125 64.40625 15.921875 
L 64.40625 5.609375 
Q 59.234375 2.09375 53.4375 0.328125 
Q 47.65625 -1.421875 41.21875 -1.421875 
Q 24.65625 -1.421875 15.125 8.703125 
Q 5.609375 18.84375 5.609375 36.375 
Q 5.609375 53.953125 15.125 64.078125 
Q 24.65625 74.21875 41.21875 74.21875 
Q 47.75 74.21875 53.53125 72.484375 
Q 59.328125 70.75 64.40625 67.28125 
z
" id="DejaVuSans-67"/>
     <path d="M 34.28125 27.484375 
Q 23.390625 27.484375 19.1875 25 
Q 14.984375 22.515625 14.984375 16.5 
Q 14.984375 11.71875 18.140625 8.90625 
Q 21.296875 6.109375 26.703125 6.109375 
Q 34.1875 6.109375 38.703125 11.40625 
Q 43.21875 16.703125 43.21875 25.484375 
L 43.21875 27.484375 
z
M 52.203125 31.203125 
L 52.203125 0 
L 43.21875 0 
L 43.21875 8.296875 
Q 40.140625 3.328125 35.546875 0.953125 
Q 30.953125 -1.421875 24.3125 -1.421875 
Q 15.921875 -1.421875 10.953125 3.296875 
Q 6 8.015625 6 15.921875 
Q 6 25.140625 12.171875 29.828125 
Q 18.359375 34.515625 30.609375 34.515625 
L 43.21875 34.515625 
L 43.21875 35.40625 
Q 43.21875 41.609375 39.140625 45 
Q 35.0625 48.390625 27.6875 48.390625 
Q 23 48.390625 18.546875 47.265625 
Q 14.109375 46.140625 10.015625 43.890625 
L 10.015625 52.203125 
Q 14.9375 54.109375 19.578125 55.046875 
Q 24.21875 56 28.609375 56 
Q 40.484375 56 46.34375 49.84375 
Q 52.203125 43.703125 52.203125 31.203125 
z
" id="DejaVuSans-97"/>
     <path d="M 54.890625 33.015625 
L 54.890625 0 
L 45.90625 0 
L 45.90625 32.71875 
Q 45.90625 40.484375 42.875 44.328125 
Q 39.84375 48.1875 33.796875 48.1875 
Q 26.515625 48.1875 22.3125 43.546875 
Q 18.109375 38.921875 18.109375 30.90625 
L 18.109375 0 
L 9.078125 0 
L 9.078125 54.6875 
L 18.109375 54.6875 
L 18.109375 46.1875 
Q 21.34375 51.125 25.703125 53.5625 
Q 30.078125 56 35.796875 56 
Q 45.21875 56 50.046875 50.171875 
Q 54.890625 44.34375 54.890625 33.015625 
z
" id="DejaVuSans-110"/>
     <path d="M 45.40625 46.390625 
L 45.40625 75.984375 
L 54.390625 75.984375 
L 54.390625 0 
L 45.40625 0 
L 45.40625 8.203125 
Q 42.578125 3.328125 38.25 0.953125 
Q 33.9375 -1.421875 27.875 -1.421875 
Q 17.96875 -1.421875 11.734375 6.484375 
Q 5.515625 14.40625 5.515625 27.296875 
Q 5.515625 40.1875 11.734375 48.09375 
Q 17.96875 56 27.875 56 
Q 33.9375 56 38.25 53.625 
Q 42.578125 51.265625 45.40625 46.390625 
z
M 14.796875 27.296875 
Q 14.796875 17.390625 18.875 11.75 
Q 22.953125 6.109375 30.078125 6.109375 
Q 37.203125 6.109375 41.296875 11.75 
Q 45.40625 17.390625 45.40625 27.296875 
Q 45.40625 37.203125 41.296875 42.84375 
Q 37.203125 48.484375 30.078125 48.484375 
Q 22.953125 48.484375 18.875 42.84375 
Q 14.796875 37.203125 14.796875 27.296875 
z
" id="DejaVuSans-100"/>
     <path id="DejaVuSans-32"/>
     <path d="M 19.671875 34.8125 
L 19.671875 8.109375 
L 35.5 8.109375 
Q 43.453125 8.109375 47.28125 11.40625 
Q 51.125 14.703125 51.125 21.484375 
Q 51.125 28.328125 47.28125 31.5625 
Q 43.453125 34.8125 35.5 34.8125 
z
M 19.671875 64.796875 
L 19.671875 42.828125 
L 34.28125 42.828125 
Q 41.5 42.828125 45.03125 45.53125 
Q 48.578125 48.25 48.578125 53.8125 
Q 48.578125 59.328125 45.03125 62.0625 
Q 41.5 64.796875 34.28125 64.796875 
z
M 9.8125 72.90625 
L 35.015625 72.90625 
Q 46.296875 72.90625 52.390625 68.21875 
Q 58.5 63.53125 58.5 54.890625 
Q 58.5 48.1875 55.375 44.234375 
Q 52.25 40.28125 46.1875 39.3125 
Q 53.46875 37.75 57.5 32.78125 
Q 61.53125 27.828125 61.53125 20.40625 
Q 61.53125 10.640625 54.890625 5.3125 
Q 48.25 0 35.984375 0 
L 9.8125 0 
z
" id="DejaVuSans-66"/>
     <path d="M 30.609375 48.390625 
Q 23.390625 48.390625 19.1875 42.75 
Q 14.984375 37.109375 14.984375 27.296875 
Q 14.984375 17.484375 19.15625 11.84375 
Q 23.34375 6.203125 30.609375 6.203125 
Q 37.796875 6.203125 41.984375 11.859375 
Q 46.1875 17.53125 46.1875 27.296875 
Q 46.1875 37.015625 41.984375 42.703125 
Q 37.796875 48.390625 30.609375 48.390625 
z
M 30.609375 56 
Q 42.328125 56 49.015625 48.375 
Q 55.71875 40.765625 55.71875 27.296875 
Q 55.71875 13.875 49.015625 6.21875 
Q 42.328125 -1.421875 30.609375 -1.421875 
Q 18.84375 -1.421875 12.171875 6.21875 
Q 5.515625 13.875 5.515625 27.296875 
Q 5.515625 40.765625 12.171875 48.375 
Q 18.84375 56 30.609375 56 
z
" id="DejaVuSans-111"/>
     <path d="M 37.109375 75.984375 
L 37.109375 68.5 
L 28.515625 68.5 
Q 23.6875 68.5 21.796875 66.546875 
Q 19.921875 64.59375 19.921875 59.515625 
L 19.921875 54.6875 
L 34.71875 54.6875 
L 34.71875 47.703125 
L 19.921875 47.703125 
L 19.921875 0 
L 10.890625 0 
L 10.890625 47.703125 
L 2.296875 47.703125 
L 2.296875 54.6875 
L 10.890625 54.6875 
L 10.890625 58.5 
Q 10.890625 67.625 15.140625 71.796875 
Q 19.390625 75.984375 28.609375 75.984375 
z
" id="DejaVuSans-102"/>
     <path d="M 9.421875 54.6875 
L 18.40625 54.6875 
L 18.40625 0 
L 9.421875 0 
z
M 9.421875 75.984375 
L 18.40625 75.984375 
L 18.40625 64.59375 
L 9.421875 64.59375 
z
" id="DejaVuSans-105"/>
     <path d="M 41.109375 46.296875 
Q 39.59375 47.171875 37.8125 47.578125 
Q 36.03125 48 33.890625 48 
Q 26.265625 48 22.1875 43.046875 
Q 18.109375 38.09375 18.109375 28.8125 
L 18.109375 0 
L 9.078125 0 
L 9.078125 54.6875 
L 18.109375 54.6875 
L 18.109375 46.1875 
Q 20.953125 51.171875 25.484375 53.578125 
Q 30.03125 56 36.53125 56 
Q 37.453125 56 38.578125 55.875 
Q 39.703125 55.765625 41.0625 55.515625 
z
" id="DejaVuSans-114"/>
     <path d="M 52 44.1875 
Q 55.375 50.25 60.0625 53.125 
Q 64.75 56 71.09375 56 
Q 79.640625 56 84.28125 50.015625 
Q 88.921875 44.046875 88.921875 33.015625 
L 88.921875 0 
L 79.890625 0 
L 79.890625 32.71875 
Q 79.890625 40.578125 77.09375 44.375 
Q 74.3125 48.1875 68.609375 48.1875 
Q 61.625 48.1875 57.5625 43.546875 
Q 53.515625 38.921875 53.515625 30.90625 
L 53.515625 0 
L 44.484375 0 
L 44.484375 32.71875 
Q 44.484375 40.625 41.703125 44.40625 
Q 38.921875 48.1875 33.109375 48.1875 
Q 26.21875 48.1875 22.15625 43.53125 
Q 18.109375 38.875 18.109375 30.90625 
L 18.109375 0 
L 9.078125 0 
L 9.078125 54.6875 
L 18.109375 54.6875 
L 18.109375 46.1875 
Q 21.1875 51.21875 25.484375 53.609375 
Q 29.78125 56 35.6875 56 
Q 41.65625 56 45.828125 52.96875 
Q 50 49.953125 52 44.1875 
z
" id="DejaVuSans-109"/>
     <path d="M 56.203125 29.59375 
L 56.203125 25.203125 
L 14.890625 25.203125 
Q 15.484375 15.921875 20.484375 11.0625 
Q 25.484375 6.203125 34.421875 6.203125 
Q 39.59375 6.203125 44.453125 7.46875 
Q 49.3125 8.734375 54.109375 11.28125 
L 54.109375 2.78125 
Q 49.265625 0.734375 44.1875 -0.34375 
Q 39.109375 -1.421875 33.890625 -1.421875 
Q 20.796875 -1.421875 13.15625 6.1875 
Q 5.515625 13.8125 5.515625 26.8125 
Q 5.515625 40.234375 12.765625 48.109375 
Q 20.015625 56 32.328125 56 
Q 43.359375 56 49.78125 48.890625 
Q 56.203125 41.796875 56.203125 29.59375 
z
M 47.21875 32.234375 
Q 47.125 39.59375 43.09375 43.984375 
Q 39.0625 48.390625 32.421875 48.390625 
Q 24.90625 48.390625 20.390625 44.140625 
Q 15.875 39.890625 15.1875 32.171875 
z
" id="DejaVuSans-101"/>
     <path d="M 44.28125 53.078125 
L 44.28125 44.578125 
Q 40.484375 46.53125 36.375 47.5 
Q 32.28125 48.484375 27.875 48.484375 
Q 21.1875 48.484375 17.84375 46.4375 
Q 14.5 44.390625 14.5 40.28125 
Q 14.5 37.15625 16.890625 35.375 
Q 19.28125 33.59375 26.515625 31.984375 
L 29.59375 31.296875 
Q 39.15625 29.25 43.1875 25.515625 
Q 47.21875 21.78125 47.21875 15.09375 
Q 47.21875 7.46875 41.1875 3.015625 
Q 35.15625 -1.421875 24.609375 -1.421875 
Q 20.21875 -1.421875 15.453125 -0.5625 
Q 10.6875 0.296875 5.421875 2 
L 5.421875 11.28125 
Q 10.40625 8.6875 15.234375 7.390625 
Q 20.0625 6.109375 24.8125 6.109375 
Q 31.15625 6.109375 34.5625 8.28125 
Q 37.984375 10.453125 37.984375 14.40625 
Q 37.984375 18.0625 35.515625 20.015625 
Q 33.0625 21.96875 24.703125 23.78125 
L 21.578125 24.515625 
Q 13.234375 26.265625 9.515625 29.90625 
Q 5.8125 33.546875 5.8125 39.890625 
Q 5.8125 47.609375 11.28125 51.796875 
Q 16.75 56 26.8125 56 
Q 31.78125 56 36.171875 55.265625 
Q 40.578125 54.546875 44.28125 53.078125 
z
" id="DejaVuSans-115"/>
    </defs>
    <g transform="translate(652.079062 97.68)scale(0.12 -0.12)">
     <use xlink:href="#DejaVuSans-67"/>
     <use x="69.824219" xlink:href="#DejaVuSans-97"/>
     <use x="131.103516" xlink:href="#DejaVuSans-110"/>
     <use x="194.482422" xlink:href="#DejaVuSans-97"/>
     <use x="255.761719" xlink:href="#DejaVuSans-100"/>
     <use x="319.238281" xlink:href="#DejaVuSans-97"/>
     <use x="380.517578" xlink:href="#DejaVuSans-32"/>
     <use x="412.304688" xlink:href="#DejaVuSans-66"/>
     <use x="480.892578" xlink:href="#DejaVuSans-67"/>
     <use x="550.716797" xlink:href="#DejaVuSans-32"/>
     <use x="582.503906" xlink:href="#DejaVuSans-67"/>
     <use x="652.328125" xlink:href="#DejaVuSans-111"/>
     <use x="713.509766" xlink:href="#DejaVuSans-110"/>
     <use x="776.888672" xlink:href="#DejaVuSans-102"/>
     <use x="812.09375" xlink:href="#DejaVuSans-105"/>
     <use x="839.876953" xlink:href="#DejaVuSans-114"/>
     <use x="880.974609" xlink:href="#DejaVuSans-109"/>
     <use x="978.386719" xlink:href="#DejaVuSans-101"/>
     <use x="1039.910156" xlink:href="#DejaVuSans-100"/>
     <use x="1103.386719" xlink:href="#DejaVuSans-32"/>
     <use x="1135.173828" xlink:href="#DejaVuSans-67"/>
     <use x="1204.998047" xlink:href="#DejaVuSans-97"/>
     <use x="1266.277344" xlink:href="#DejaVuSans-115"/>
     <use x="1318.376953" xlink:href="#DejaVuSans-101"/>
     <use x="1379.900391" xlink:href="#DejaVuSans-115"/>
    </g>
   </g>
   <g id="legend_1">
    <g id="patch_7">
     <path d="M 187 125.98 
L 322.842188 125.98 
Q 324.842188 125.98 324.842188 123.98 
L 324.842188 110.68 
Q 324.842188 108.68 322.842188 108.68 
L 187 108.68 
Q 185 108.68 185 110.68 
L 185 123.98 
Q 185 125.98 187 125.98 
z
" style="fill:#ffffff;opacity:0.8;stroke:#cccccc;stroke-linejoin:miter;"/>
    </g>
    <g id="line2d_34">
     <path d="M 189 117.139375 
L 209 117.139375 
" style="fill:none;stroke:#1f77b4;stroke-dasharray:5.55,2.4;stroke-dashoffset:0;stroke-width:1.5;"/>
    </g>
    <g id="line2d_35">
     <g>
      <use style="fill:#1f77b4;stroke:#1f77b4;stroke-linejoin:miter;" x="199" xlink:href="#m5bce7ccc22" y="117.139375"/>
     </g>
    </g>
    <g id="text_20">
     <!-- British Columbia: 1724 -->
     <defs>
      <path d="M 7.59375 79.59375 
L 14.5 79.59375 
L 14.5 49.59375 
Q 22.703125 60.5 34.40625 60.5 
Q 40.40625 60.5 45.203125 57.25 
Q 50 54 52 48.75 
Q 54 43.5 54 33.296875 
L 54 6 
L 47.09375 6 
L 47.09375 31.296875 
Q 47.09375 39.5 46.59375 42.59375 
Q 46.09375 45.703125 44.390625 48.5 
Q 42.703125 51.296875 39.84375 52.75 
Q 37 54.203125 32.953125 54.203125 
Q 28.90625 54.203125 25.203125 52.296875 
Q 21.5 50.40625 18.890625 47 
Q 16.296875 43.59375 15.390625 40 
Q 14.5 36.40625 14.5 25.5 
L 14.5 6 
L 7.59375 6 
z
" id="STHeitiTC-Light-104"/>
      <path d="M 6.59375 79.59375 
L 13.40625 79.59375 
L 13.40625 6 
L 6.59375 6 
z
" id="STHeitiTC-Light-108"/>
      <path d="M 53.203125 6 
L 46.296875 6 
L 46.296875 15.5 
Q 38.09375 4.59375 26.40625 4.59375 
Q 20.40625 4.59375 15.59375 7.84375 
Q 10.796875 11.09375 8.796875 16.34375 
Q 6.796875 21.59375 6.796875 31.796875 
L 6.796875 59.09375 
L 13.59375 59.09375 
L 13.59375 33.796875 
Q 13.59375 24.5 14.4375 21.203125 
Q 15.296875 17.90625 17.046875 15.59375 
Q 18.796875 13.296875 21.5 12.09375 
Q 24.203125 10.90625 28.046875 10.90625 
Q 31.90625 10.90625 35.59375 12.796875 
Q 39.296875 14.703125 41.890625 18.09375 
Q 44.5 21.5 45.390625 25.09375 
Q 46.296875 28.703125 46.296875 39.59375 
L 46.296875 59.09375 
L 53.203125 59.09375 
z
" id="STHeitiTC-Light-117"/>
      <path d="M 8.09375 6 
L 8.09375 79.59375 
L 14.796875 79.59375 
L 14.796875 50 
Q 23.5 60.5 36.09375 60.5 
Q 47.5 60.5 55.453125 52.25 
Q 63.40625 44 63.40625 32.390625 
Q 63.40625 20.796875 55.296875 12.5 
Q 47.203125 4.203125 35.90625 4.203125 
Q 23.296875 4.203125 14.796875 15.796875 
L 14.796875 6 
z
M 14.40625 32.90625 
Q 14.40625 23.59375 20.5 17.1875 
Q 26.59375 10.796875 35.390625 10.796875 
Q 44.203125 10.796875 50.34375 17.296875 
Q 56.5 23.796875 56.5 32.546875 
Q 56.5 41.296875 50.5 47.796875 
Q 44.5 54.296875 35.5 54.296875 
Q 26.5 54.296875 20.453125 48.1875 
Q 14.40625 42.09375 14.40625 32.90625 
z
" id="STHeitiTC-Light-98"/>
      <path d="M 9.09375 54.40625 
Q 9.09375 56.90625 10.890625 58.703125 
Q 12.703125 60.5 15.140625 60.5 
Q 17.59375 60.5 19.34375 58.75 
Q 21.09375 57 21.09375 54.453125 
Q 21.09375 51.90625 19.390625 50.15625 
Q 17.703125 48.40625 15.140625 48.40625 
Q 12.59375 48.40625 10.84375 50.15625 
Q 9.09375 51.90625 9.09375 54.40625 
z
M 9.09375 10.703125 
Q 9.09375 13.203125 10.890625 14.953125 
Q 12.703125 16.703125 15.140625 16.703125 
Q 17.59375 16.703125 19.34375 14.953125 
Q 21.09375 13.203125 21.09375 10.640625 
Q 21.09375 8.09375 19.34375 6.34375 
Q 17.59375 4.59375 15.140625 4.59375 
Q 12.703125 4.59375 10.890625 6.390625 
Q 9.09375 8.203125 9.09375 10.703125 
z
" id="STHeitiTC-Light-58"/>
      <path d="M 18.5 77.796875 
L 32.59375 77.796875 
L 32.59375 6 
L 25.5 6 
L 25.5 70.796875 
L 14.203125 70.796875 
z
" id="STHeitiTC-Light-49"/>
      <path d="M 7.203125 77.796875 
L 52.703125 77.796875 
L 14.296875 4.203125 
L 8.40625 7.203125 
L 41.59375 71 
L 7.203125 71 
z
" id="STHeitiTC-Light-55"/>
      <path d="M 11.59375 55.296875 
L 4.703125 55.296875 
Q 5.203125 66.296875 12 72.9375 
Q 18.796875 79.59375 28.4375 79.59375 
Q 38.09375 79.59375 44.4375 73.34375 
Q 50.796875 67.09375 50.796875 58.09375 
Q 50.796875 51.40625 47.25 45.703125 
Q 43.703125 40 36.5 32.203125 
L 18.59375 12.90625 
L 51.796875 12.90625 
L 51.796875 6 
L 3 6 
L 30.40625 35.59375 
Q 37.59375 43.40625 40.6875 47.90625 
Q 43.796875 52.40625 43.796875 58.203125 
Q 43.796875 64 39.25 68.390625 
Q 34.703125 72.796875 27.953125 72.796875 
Q 21.203125 72.796875 16.75 68.25 
Q 12.296875 63.703125 11.59375 55.296875 
z
" id="STHeitiTC-Light-50"/>
      <path d="M 42.59375 79.59375 
L 44 79.59375 
L 44 29.59375 
L 52.703125 29.59375 
L 52.703125 22.703125 
L 44 22.703125 
L 44 6 
L 36.90625 6 
L 36.90625 22.703125 
L 2.5 22.703125 
z
M 36.90625 29.59375 
L 36.90625 59.5 
L 15.703125 29.59375 
z
" id="STHeitiTC-Light-52"/>
     </defs>
     <g transform="translate(217 120.639375)scale(0.1 -0.1)">
      <use xlink:href="#STHeitiTC-Light-66"/>
      <use x="57.399994" xlink:href="#STHeitiTC-Light-114"/>
      <use x="87.499985" xlink:href="#STHeitiTC-Light-105"/>
      <use x="107.499969" xlink:href="#STHeitiTC-Light-116"/>
      <use x="141.399963" xlink:href="#STHeitiTC-Light-105"/>
      <use x="161.399948" xlink:href="#STHeitiTC-Light-115"/>
      <use x="200.199936" xlink:href="#STHeitiTC-Light-104"/>
      <use x="261.199921" xlink:href="#STHeitiTC-Light-32"/>
      <use x="286.199905" xlink:href="#STHeitiTC-Light-67"/>
      <use x="367.499893" xlink:href="#STHeitiTC-Light-111"/>
      <use x="432.999878" xlink:href="#STHeitiTC-Light-108"/>
      <use x="452.999863" xlink:href="#STHeitiTC-Light-117"/>
      <use x="513.79985" xlink:href="#STHeitiTC-Light-109"/>
      <use x="607.599838" xlink:href="#STHeitiTC-Light-98"/>
      <use x="675.79982" xlink:href="#STHeitiTC-Light-105"/>
      <use x="695.799805" xlink:href="#STHeitiTC-Light-97"/>
      <use x="764.099792" xlink:href="#STHeitiTC-Light-58"/>
      <use x="791.799789" xlink:href="#STHeitiTC-Light-32"/>
      <use x="816.799774" xlink:href="#STHeitiTC-Light-49"/>
      <use x="872.199768" xlink:href="#STHeitiTC-Light-55"/>
      <use x="927.599762" xlink:href="#STHeitiTC-Light-50"/>
      <use x="982.999756" xlink:href="#STHeitiTC-Light-52"/>
     </g>
    </g>
   </g>
  </g>
 </g>
 <defs>
  <clipPath id="pb32ddb9864">
   <rect height="587.52" width="1116" x="180" y="103.68"/>
  </clipPath>
 </defs>
</svg>
