<?xml version="1.0" encoding="utf-8" standalone="no"?>
<!DOCTYPE svg PUBLIC "-//W3C//DTD SVG 1.1//EN"
  "http://www.w3.org/Graphics/SVG/1.1/DTD/svg11.dtd">
<!-- Created with matplotlib (https://matplotlib.org/) -->
<svg height="864pt" version="1.1" viewBox="0 0 1440 864" width="1440pt" xmlns="http://www.w3.org/2000/svg" xmlns:xlink="http://www.w3.org/1999/xlink">
 <defs>
  <style type="text/css">
*{stroke-linecap:butt;stroke-linejoin:round;}
  </style>
 </defs>
 <g id="figure_1">
  <g id="patch_1">
   <path d="M 0 864 
L 1440 864 
L 1440 0 
L 0 0 
z
" style="fill:#ffffff;"/>
  </g>
  <g id="axes_1">
   <g id="patch_2">
    <path d="M 180 691.2 
L 1296 691.2 
L 1296 103.68 
L 180 103.68 
z
" style="fill:#ffffff;"/>
   </g>
   <g id="matplotlib.axis_1">
    <g id="xtick_1">
     <g id="line2d_1">
      <path clip-path="url(#p279aaf51b3)" d="M 213.083004 691.2 
L 213.083004 103.68 
" style="fill:none;stroke:#b0b0b0;stroke-linecap:square;stroke-width:0.8;"/>
     </g>
     <g id="line2d_2">
      <defs>
       <path d="M 0 0 
L 0 3.5 
" id="m10902d74e1" style="stroke:#000000;stroke-width:0.8;"/>
      </defs>
      <g>
       <use style="stroke:#000000;stroke-width:0.8;" x="213.083004" xlink:href="#m10902d74e1" y="691.2"/>
      </g>
     </g>
     <g id="text_1">
      <!-- 2020-03-01 -->
      <defs>
       <path d="M 19.1875 8.296875 
L 53.609375 8.296875 
L 53.609375 0 
L 7.328125 0 
L 7.328125 8.296875 
Q 12.9375 14.109375 22.625 23.890625 
Q 32.328125 33.6875 34.8125 36.53125 
Q 39.546875 41.84375 41.421875 45.53125 
Q 43.3125 49.21875 43.3125 52.78125 
Q 43.3125 58.59375 39.234375 62.25 
Q 35.15625 65.921875 28.609375 65.921875 
Q 23.96875 65.921875 18.8125 64.3125 
Q 13.671875 62.703125 7.8125 59.421875 
L 7.8125 69.390625 
Q 13.765625 71.78125 18.9375 73 
Q 24.125 74.21875 28.421875 74.21875 
Q 39.75 74.21875 46.484375 68.546875 
Q 53.21875 62.890625 53.21875 53.421875 
Q 53.21875 48.921875 51.53125 44.890625 
Q 49.859375 40.875 45.40625 35.40625 
Q 44.1875 33.984375 37.640625 27.21875 
Q 31.109375 20.453125 19.1875 8.296875 
z
" id="DejaVuSans-50"/>
       <path d="M 31.78125 66.40625 
Q 24.171875 66.40625 20.328125 58.90625 
Q 16.5 51.421875 16.5 36.375 
Q 16.5 21.390625 20.328125 13.890625 
Q 24.171875 6.390625 31.78125 6.390625 
Q 39.453125 6.390625 43.28125 13.890625 
Q 47.125 21.390625 47.125 36.375 
Q 47.125 51.421875 43.28125 58.90625 
Q 39.453125 66.40625 31.78125 66.40625 
z
M 31.78125 74.21875 
Q 44.046875 74.21875 50.515625 64.515625 
Q 56.984375 54.828125 56.984375 36.375 
Q 56.984375 17.96875 50.515625 8.265625 
Q 44.046875 -1.421875 31.78125 -1.421875 
Q 19.53125 -1.421875 13.0625 8.265625 
Q 6.59375 17.96875 6.59375 36.375 
Q 6.59375 54.828125 13.0625 64.515625 
Q 19.53125 74.21875 31.78125 74.21875 
z
" id="DejaVuSans-48"/>
       <path d="M 4.890625 31.390625 
L 31.203125 31.390625 
L 31.203125 23.390625 
L 4.890625 23.390625 
z
" id="DejaVuSans-45"/>
       <path d="M 40.578125 39.3125 
Q 47.65625 37.796875 51.625 33 
Q 55.609375 28.21875 55.609375 21.1875 
Q 55.609375 10.40625 48.1875 4.484375 
Q 40.765625 -1.421875 27.09375 -1.421875 
Q 22.515625 -1.421875 17.65625 -0.515625 
Q 12.796875 0.390625 7.625 2.203125 
L 7.625 11.71875 
Q 11.71875 9.328125 16.59375 8.109375 
Q 21.484375 6.890625 26.8125 6.890625 
Q 36.078125 6.890625 40.9375 10.546875 
Q 45.796875 14.203125 45.796875 21.1875 
Q 45.796875 27.640625 41.28125 31.265625 
Q 36.765625 34.90625 28.71875 34.90625 
L 20.21875 34.90625 
L 20.21875 43.015625 
L 29.109375 43.015625 
Q 36.375 43.015625 40.234375 45.921875 
Q 44.09375 48.828125 44.09375 54.296875 
Q 44.09375 59.90625 40.109375 62.90625 
Q 36.140625 65.921875 28.71875 65.921875 
Q 24.65625 65.921875 20.015625 65.03125 
Q 15.375 64.15625 9.8125 62.3125 
L 9.8125 71.09375 
Q 15.4375 72.65625 20.34375 73.4375 
Q 25.25 74.21875 29.59375 74.21875 
Q 40.828125 74.21875 47.359375 69.109375 
Q 53.90625 64.015625 53.90625 55.328125 
Q 53.90625 49.265625 50.4375 45.09375 
Q 46.96875 40.921875 40.578125 39.3125 
z
" id="DejaVuSans-51"/>
       <path d="M 12.40625 8.296875 
L 28.515625 8.296875 
L 28.515625 63.921875 
L 10.984375 60.40625 
L 10.984375 69.390625 
L 28.421875 72.90625 
L 38.28125 72.90625 
L 38.28125 8.296875 
L 54.390625 8.296875 
L 54.390625 0 
L 12.40625 0 
z
" id="DejaVuSans-49"/>
      </defs>
      <g transform="translate(161.713553 733.838252)rotate(-30)scale(0.1 -0.1)">
       <use xlink:href="#DejaVuSans-50"/>
       <use x="63.623047" xlink:href="#DejaVuSans-48"/>
       <use x="127.246094" xlink:href="#DejaVuSans-50"/>
       <use x="190.869141" xlink:href="#DejaVuSans-48"/>
       <use x="254.492188" xlink:href="#DejaVuSans-45"/>
       <use x="290.576172" xlink:href="#DejaVuSans-48"/>
       <use x="354.199219" xlink:href="#DejaVuSans-51"/>
       <use x="417.822266" xlink:href="#DejaVuSans-45"/>
       <use x="453.90625" xlink:href="#DejaVuSans-48"/>
       <use x="517.529297" xlink:href="#DejaVuSans-49"/>
      </g>
     </g>
    </g>
    <g id="xtick_2">
     <g id="line2d_3">
      <path clip-path="url(#p279aaf51b3)" d="M 336.592885 691.2 
L 336.592885 103.68 
" style="fill:none;stroke:#b0b0b0;stroke-linecap:square;stroke-width:0.8;"/>
     </g>
     <g id="line2d_4">
      <g>
       <use style="stroke:#000000;stroke-width:0.8;" x="336.592885" xlink:href="#m10902d74e1" y="691.2"/>
      </g>
     </g>
     <g id="text_2">
      <!-- 2020-03-15 -->
      <defs>
       <path d="M 10.796875 72.90625 
L 49.515625 72.90625 
L 49.515625 64.59375 
L 19.828125 64.59375 
L 19.828125 46.734375 
Q 21.96875 47.46875 24.109375 47.828125 
Q 26.265625 48.1875 28.421875 48.1875 
Q 40.625 48.1875 47.75 41.5 
Q 54.890625 34.8125 54.890625 23.390625 
Q 54.890625 11.625 47.5625 5.09375 
Q 40.234375 -1.421875 26.90625 -1.421875 
Q 22.3125 -1.421875 17.546875 -0.640625 
Q 12.796875 0.140625 7.71875 1.703125 
L 7.71875 11.625 
Q 12.109375 9.234375 16.796875 8.0625 
Q 21.484375 6.890625 26.703125 6.890625 
Q 35.15625 6.890625 40.078125 11.328125 
Q 45.015625 15.765625 45.015625 23.390625 
Q 45.015625 31 40.078125 35.4375 
Q 35.15625 39.890625 26.703125 39.890625 
Q 22.75 39.890625 18.8125 39.015625 
Q 14.890625 38.140625 10.796875 36.28125 
z
" id="DejaVuSans-53"/>
      </defs>
      <g transform="translate(285.223434 733.838252)rotate(-30)scale(0.1 -0.1)">
       <use xlink:href="#DejaVuSans-50"/>
       <use x="63.623047" xlink:href="#DejaVuSans-48"/>
       <use x="127.246094" xlink:href="#DejaVuSans-50"/>
       <use x="190.869141" xlink:href="#DejaVuSans-48"/>
       <use x="254.492188" xlink:href="#DejaVuSans-45"/>
       <use x="290.576172" xlink:href="#DejaVuSans-48"/>
       <use x="354.199219" xlink:href="#DejaVuSans-51"/>
       <use x="417.822266" xlink:href="#DejaVuSans-45"/>
       <use x="453.90625" xlink:href="#DejaVuSans-49"/>
       <use x="517.529297" xlink:href="#DejaVuSans-53"/>
      </g>
     </g>
    </g>
    <g id="xtick_3">
     <g id="line2d_5">
      <path clip-path="url(#p279aaf51b3)" d="M 486.56917 691.2 
L 486.56917 103.68 
" style="fill:none;stroke:#b0b0b0;stroke-linecap:square;stroke-width:0.8;"/>
     </g>
     <g id="line2d_6">
      <g>
       <use style="stroke:#000000;stroke-width:0.8;" x="486.56917" xlink:href="#m10902d74e1" y="691.2"/>
      </g>
     </g>
     <g id="text_3">
      <!-- 2020-04-01 -->
      <defs>
       <path d="M 37.796875 64.3125 
L 12.890625 25.390625 
L 37.796875 25.390625 
z
M 35.203125 72.90625 
L 47.609375 72.90625 
L 47.609375 25.390625 
L 58.015625 25.390625 
L 58.015625 17.1875 
L 47.609375 17.1875 
L 47.609375 0 
L 37.796875 0 
L 37.796875 17.1875 
L 4.890625 17.1875 
L 4.890625 26.703125 
z
" id="DejaVuSans-52"/>
      </defs>
      <g transform="translate(435.199719 733.838252)rotate(-30)scale(0.1 -0.1)">
       <use xlink:href="#DejaVuSans-50"/>
       <use x="63.623047" xlink:href="#DejaVuSans-48"/>
       <use x="127.246094" xlink:href="#DejaVuSans-50"/>
       <use x="190.869141" xlink:href="#DejaVuSans-48"/>
       <use x="254.492188" xlink:href="#DejaVuSans-45"/>
       <use x="290.576172" xlink:href="#DejaVuSans-48"/>
       <use x="354.199219" xlink:href="#DejaVuSans-52"/>
       <use x="417.822266" xlink:href="#DejaVuSans-45"/>
       <use x="453.90625" xlink:href="#DejaVuSans-48"/>
       <use x="517.529297" xlink:href="#DejaVuSans-49"/>
      </g>
     </g>
    </g>
    <g id="xtick_4">
     <g id="line2d_7">
      <path clip-path="url(#p279aaf51b3)" d="M 610.079051 691.2 
L 610.079051 103.68 
" style="fill:none;stroke:#b0b0b0;stroke-linecap:square;stroke-width:0.8;"/>
     </g>
     <g id="line2d_8">
      <g>
       <use style="stroke:#000000;stroke-width:0.8;" x="610.079051" xlink:href="#m10902d74e1" y="691.2"/>
      </g>
     </g>
     <g id="text_4">
      <!-- 2020-04-15 -->
      <g transform="translate(558.7096 733.838252)rotate(-30)scale(0.1 -0.1)">
       <use xlink:href="#DejaVuSans-50"/>
       <use x="63.623047" xlink:href="#DejaVuSans-48"/>
       <use x="127.246094" xlink:href="#DejaVuSans-50"/>
       <use x="190.869141" xlink:href="#DejaVuSans-48"/>
       <use x="254.492188" xlink:href="#DejaVuSans-45"/>
       <use x="290.576172" xlink:href="#DejaVuSans-48"/>
       <use x="354.199219" xlink:href="#DejaVuSans-52"/>
       <use x="417.822266" xlink:href="#DejaVuSans-45"/>
       <use x="453.90625" xlink:href="#DejaVuSans-49"/>
       <use x="517.529297" xlink:href="#DejaVuSans-53"/>
      </g>
     </g>
    </g>
    <g id="xtick_5">
     <g id="line2d_9">
      <path clip-path="url(#p279aaf51b3)" d="M 751.233202 691.2 
L 751.233202 103.68 
" style="fill:none;stroke:#b0b0b0;stroke-linecap:square;stroke-width:0.8;"/>
     </g>
     <g id="line2d_10">
      <g>
       <use style="stroke:#000000;stroke-width:0.8;" x="751.233202" xlink:href="#m10902d74e1" y="691.2"/>
      </g>
     </g>
     <g id="text_5">
      <!-- 2020-05-01 -->
      <g transform="translate(699.86375 733.838252)rotate(-30)scale(0.1 -0.1)">
       <use xlink:href="#DejaVuSans-50"/>
       <use x="63.623047" xlink:href="#DejaVuSans-48"/>
       <use x="127.246094" xlink:href="#DejaVuSans-50"/>
       <use x="190.869141" xlink:href="#DejaVuSans-48"/>
       <use x="254.492188" xlink:href="#DejaVuSans-45"/>
       <use x="290.576172" xlink:href="#DejaVuSans-48"/>
       <use x="354.199219" xlink:href="#DejaVuSans-53"/>
       <use x="417.822266" xlink:href="#DejaVuSans-45"/>
       <use x="453.90625" xlink:href="#DejaVuSans-48"/>
       <use x="517.529297" xlink:href="#DejaVuSans-49"/>
      </g>
     </g>
    </g>
    <g id="xtick_6">
     <g id="line2d_11">
      <path clip-path="url(#p279aaf51b3)" d="M 874.743083 691.2 
L 874.743083 103.68 
" style="fill:none;stroke:#b0b0b0;stroke-linecap:square;stroke-width:0.8;"/>
     </g>
     <g id="line2d_12">
      <g>
       <use style="stroke:#000000;stroke-width:0.8;" x="874.743083" xlink:href="#m10902d74e1" y="691.2"/>
      </g>
     </g>
     <g id="text_6">
      <!-- 2020-05-15 -->
      <g transform="translate(823.373632 733.838252)rotate(-30)scale(0.1 -0.1)">
       <use xlink:href="#DejaVuSans-50"/>
       <use x="63.623047" xlink:href="#DejaVuSans-48"/>
       <use x="127.246094" xlink:href="#DejaVuSans-50"/>
       <use x="190.869141" xlink:href="#DejaVuSans-48"/>
       <use x="254.492188" xlink:href="#DejaVuSans-45"/>
       <use x="290.576172" xlink:href="#DejaVuSans-48"/>
       <use x="354.199219" xlink:href="#DejaVuSans-53"/>
       <use x="417.822266" xlink:href="#DejaVuSans-45"/>
       <use x="453.90625" xlink:href="#DejaVuSans-49"/>
       <use x="517.529297" xlink:href="#DejaVuSans-53"/>
      </g>
     </g>
    </g>
    <g id="xtick_7">
     <g id="line2d_13">
      <path clip-path="url(#p279aaf51b3)" d="M 1024.719368 691.2 
L 1024.719368 103.68 
" style="fill:none;stroke:#b0b0b0;stroke-linecap:square;stroke-width:0.8;"/>
     </g>
     <g id="line2d_14">
      <g>
       <use style="stroke:#000000;stroke-width:0.8;" x="1024.719368" xlink:href="#m10902d74e1" y="691.2"/>
      </g>
     </g>
     <g id="text_7">
      <!-- 2020-06-01 -->
      <defs>
       <path d="M 33.015625 40.375 
Q 26.375 40.375 22.484375 35.828125 
Q 18.609375 31.296875 18.609375 23.390625 
Q 18.609375 15.53125 22.484375 10.953125 
Q 26.375 6.390625 33.015625 6.390625 
Q 39.65625 6.390625 43.53125 10.953125 
Q 47.40625 15.53125 47.40625 23.390625 
Q 47.40625 31.296875 43.53125 35.828125 
Q 39.65625 40.375 33.015625 40.375 
z
M 52.59375 71.296875 
L 52.59375 62.3125 
Q 48.875 64.0625 45.09375 64.984375 
Q 41.3125 65.921875 37.59375 65.921875 
Q 27.828125 65.921875 22.671875 59.328125 
Q 17.53125 52.734375 16.796875 39.40625 
Q 19.671875 43.65625 24.015625 45.921875 
Q 28.375 48.1875 33.59375 48.1875 
Q 44.578125 48.1875 50.953125 41.515625 
Q 57.328125 34.859375 57.328125 23.390625 
Q 57.328125 12.15625 50.6875 5.359375 
Q 44.046875 -1.421875 33.015625 -1.421875 
Q 20.359375 -1.421875 13.671875 8.265625 
Q 6.984375 17.96875 6.984375 36.375 
Q 6.984375 53.65625 15.1875 63.9375 
Q 23.390625 74.21875 37.203125 74.21875 
Q 40.921875 74.21875 44.703125 73.484375 
Q 48.484375 72.75 52.59375 71.296875 
z
" id="DejaVuSans-54"/>
      </defs>
      <g transform="translate(973.349916 733.838252)rotate(-30)scale(0.1 -0.1)">
       <use xlink:href="#DejaVuSans-50"/>
       <use x="63.623047" xlink:href="#DejaVuSans-48"/>
       <use x="127.246094" xlink:href="#DejaVuSans-50"/>
       <use x="190.869141" xlink:href="#DejaVuSans-48"/>
       <use x="254.492188" xlink:href="#DejaVuSans-45"/>
       <use x="290.576172" xlink:href="#DejaVuSans-48"/>
       <use x="354.199219" xlink:href="#DejaVuSans-54"/>
       <use x="417.822266" xlink:href="#DejaVuSans-45"/>
       <use x="453.90625" xlink:href="#DejaVuSans-48"/>
       <use x="517.529297" xlink:href="#DejaVuSans-49"/>
      </g>
     </g>
    </g>
    <g id="xtick_8">
     <g id="line2d_15">
      <path clip-path="url(#p279aaf51b3)" d="M 1148.229249 691.2 
L 1148.229249 103.68 
" style="fill:none;stroke:#b0b0b0;stroke-linecap:square;stroke-width:0.8;"/>
     </g>
     <g id="line2d_16">
      <g>
       <use style="stroke:#000000;stroke-width:0.8;" x="1148.229249" xlink:href="#m10902d74e1" y="691.2"/>
      </g>
     </g>
     <g id="text_8">
      <!-- 2020-06-15 -->
      <g transform="translate(1096.859798 733.838252)rotate(-30)scale(0.1 -0.1)">
       <use xlink:href="#DejaVuSans-50"/>
       <use x="63.623047" xlink:href="#DejaVuSans-48"/>
       <use x="127.246094" xlink:href="#DejaVuSans-50"/>
       <use x="190.869141" xlink:href="#DejaVuSans-48"/>
       <use x="254.492188" xlink:href="#DejaVuSans-45"/>
       <use x="290.576172" xlink:href="#DejaVuSans-48"/>
       <use x="354.199219" xlink:href="#DejaVuSans-54"/>
       <use x="417.822266" xlink:href="#DejaVuSans-45"/>
       <use x="453.90625" xlink:href="#DejaVuSans-49"/>
       <use x="517.529297" xlink:href="#DejaVuSans-53"/>
      </g>
     </g>
    </g>
    <g id="xtick_9">
     <g id="line2d_17">
      <path clip-path="url(#p279aaf51b3)" d="M 1289.383399 691.2 
L 1289.383399 103.68 
" style="fill:none;stroke:#b0b0b0;stroke-linecap:square;stroke-width:0.8;"/>
     </g>
     <g id="line2d_18">
      <g>
       <use style="stroke:#000000;stroke-width:0.8;" x="1289.383399" xlink:href="#m10902d74e1" y="691.2"/>
      </g>
     </g>
     <g id="text_9">
      <!-- 2020-07-01 -->
      <defs>
       <path d="M 8.203125 72.90625 
L 55.078125 72.90625 
L 55.078125 68.703125 
L 28.609375 0 
L 18.3125 0 
L 43.21875 64.59375 
L 8.203125 64.59375 
z
" id="DejaVuSans-55"/>
      </defs>
      <g transform="translate(1238.013948 733.838252)rotate(-30)scale(0.1 -0.1)">
       <use xlink:href="#DejaVuSans-50"/>
       <use x="63.623047" xlink:href="#DejaVuSans-48"/>
       <use x="127.246094" xlink:href="#DejaVuSans-50"/>
       <use x="190.869141" xlink:href="#DejaVuSans-48"/>
       <use x="254.492188" xlink:href="#DejaVuSans-45"/>
       <use x="290.576172" xlink:href="#DejaVuSans-48"/>
       <use x="354.199219" xlink:href="#DejaVuSans-55"/>
       <use x="417.822266" xlink:href="#DejaVuSans-45"/>
       <use x="453.90625" xlink:href="#DejaVuSans-48"/>
       <use x="517.529297" xlink:href="#DejaVuSans-49"/>
      </g>
     </g>
    </g>
    <g id="text_10">
     <!-- Date -->
     <defs>
      <path d="M 8.703125 6 
L 8.703125 77.796875 
L 23.59375 77.796875 
Q 38.90625 77.796875 46.046875 75.546875 
Q 53.203125 73.296875 58.390625 68.4375 
Q 63.59375 63.59375 66.390625 56.59375 
Q 69.203125 49.59375 69.203125 40.25 
Q 69.203125 30.90625 64.84375 22.65625 
Q 60.5 14.40625 53.046875 10.203125 
Q 45.59375 6 31.59375 6 
z
M 15.59375 12.796875 
L 23.90625 12.796875 
Q 36.90625 12.796875 42.75 14.09375 
Q 48.59375 15.40625 53 19.25 
Q 57.40625 23.09375 59.703125 28.59375 
Q 62 34.09375 62 41.1875 
Q 62 48.296875 59.34375 54.296875 
Q 56.703125 60.296875 51.796875 64.1875 
Q 46.90625 68.09375 40.25 69.4375 
Q 33.59375 70.796875 20.703125 70.796875 
L 15.59375 70.796875 
z
" id="STHeitiTC-Light-68"/>
      <path d="M 60.5 59.09375 
L 60.5 6 
L 53.796875 6 
L 53.796875 15.09375 
Q 44.703125 4.203125 33 4.203125 
Q 21.296875 4.203125 13.25 12.546875 
Q 5.203125 20.90625 5.203125 32.453125 
Q 5.203125 44 13.296875 52.25 
Q 21.40625 60.5 32.703125 60.5 
Q 45.703125 60.5 53.796875 49.40625 
L 53.796875 59.09375 
z
M 54.203125 32.296875 
Q 54.203125 41.40625 48.09375 47.65625 
Q 42 53.90625 33.140625 53.90625 
Q 24.296875 53.90625 18.1875 47.453125 
Q 12.09375 41 12.09375 32.203125 
Q 12.09375 23.40625 18.296875 16.953125 
Q 24.5 10.5 33.140625 10.5 
Q 41.796875 10.5 48 16.703125 
Q 54.203125 22.90625 54.203125 32.296875 
z
" id="STHeitiTC-Light-97"/>
      <path d="M 20.5 14.40625 
Q 20.5 11.703125 21.203125 11.203125 
Q 21.90625 10.703125 24.796875 10.703125 
L 28.90625 10.703125 
L 28.90625 4.90625 
Q 24.703125 4.203125 22.296875 4.203125 
Q 17.796875 4.203125 15.6875 6.390625 
Q 13.59375 8.59375 13.59375 13.296875 
L 13.59375 53.296875 
L 4.203125 53.296875 
L 4.203125 59.09375 
L 13.59375 59.09375 
L 13.59375 79.59375 
L 20.5 79.59375 
L 20.5 59.09375 
L 31.296875 59.09375 
L 31.296875 53.296875 
L 20.5 53.296875 
z
" id="STHeitiTC-Light-116"/>
      <path d="M 52.296875 23.203125 
L 58.09375 20.203125 
Q 49.5 4.203125 32.703125 4.203125 
Q 20.703125 4.203125 12.890625 12.453125 
Q 5.09375 20.703125 5.09375 32.296875 
Q 5.09375 43.90625 12.9375 52.203125 
Q 20.796875 60.5 32.34375 60.5 
Q 43.90625 60.5 51.75 52.796875 
Q 59.59375 45.09375 59.90625 31.796875 
L 12.09375 31.796875 
Q 12.40625 22.203125 18.15625 16.34375 
Q 23.90625 10.5 32.09375 10.5 
Q 45.59375 10.5 52.296875 23.203125 
z
M 52.296875 37.703125 
Q 50.90625 45.296875 45.296875 49.59375 
Q 39.703125 53.90625 32.40625 53.90625 
Q 17.40625 53.90625 12.796875 37.703125 
z
" id="STHeitiTC-Light-101"/>
     </defs>
     <g transform="translate(725.919531 747.59869)scale(0.1 -0.1)">
      <use xlink:href="#STHeitiTC-Light-68"/>
      <use x="74.399994" xlink:href="#STHeitiTC-Light-97"/>
      <use x="142.699982" xlink:href="#STHeitiTC-Light-116"/>
      <use x="176.599976" xlink:href="#STHeitiTC-Light-101"/>
     </g>
    </g>
   </g>
   <g id="matplotlib.axis_2">
    <g id="ytick_1">
     <g id="line2d_19">
      <path clip-path="url(#p279aaf51b3)" d="M 180 666.730871 
L 1296 666.730871 
" style="fill:none;stroke:#b0b0b0;stroke-linecap:square;stroke-width:0.8;"/>
     </g>
     <g id="line2d_20">
      <defs>
       <path d="M 0 0 
L 3.5 0 
" id="me1d9c8b0df" style="stroke:#000000;stroke-width:0.8;"/>
      </defs>
      <g>
       <use style="stroke:#000000;stroke-width:0.8;" x="1296" xlink:href="#me1d9c8b0df" y="666.730871"/>
      </g>
     </g>
     <g id="text_11">
      <!-- 0 -->
      <g transform="translate(1303 670.53009)scale(0.1 -0.1)">
       <use xlink:href="#DejaVuSans-48"/>
      </g>
     </g>
    </g>
    <g id="ytick_2">
     <g id="line2d_21">
      <path clip-path="url(#p279aaf51b3)" d="M 180 573.550639 
L 1296 573.550639 
" style="fill:none;stroke:#b0b0b0;stroke-linecap:square;stroke-width:0.8;"/>
     </g>
     <g id="line2d_22">
      <g>
       <use style="stroke:#000000;stroke-width:0.8;" x="1296" xlink:href="#me1d9c8b0df" y="573.550639"/>
      </g>
     </g>
     <g id="text_12">
      <!-- 500 -->
      <g transform="translate(1303 577.349858)scale(0.1 -0.1)">
       <use xlink:href="#DejaVuSans-53"/>
       <use x="63.623047" xlink:href="#DejaVuSans-48"/>
       <use x="127.246094" xlink:href="#DejaVuSans-48"/>
      </g>
     </g>
    </g>
    <g id="ytick_3">
     <g id="line2d_23">
      <path clip-path="url(#p279aaf51b3)" d="M 180 480.370407 
L 1296 480.370407 
" style="fill:none;stroke:#b0b0b0;stroke-linecap:square;stroke-width:0.8;"/>
     </g>
     <g id="line2d_24">
      <g>
       <use style="stroke:#000000;stroke-width:0.8;" x="1296" xlink:href="#me1d9c8b0df" y="480.370407"/>
      </g>
     </g>
     <g id="text_13">
      <!-- 1000 -->
      <g transform="translate(1303 484.169625)scale(0.1 -0.1)">
       <use xlink:href="#DejaVuSans-49"/>
       <use x="63.623047" xlink:href="#DejaVuSans-48"/>
       <use x="127.246094" xlink:href="#DejaVuSans-48"/>
       <use x="190.869141" xlink:href="#DejaVuSans-48"/>
      </g>
     </g>
    </g>
    <g id="ytick_4">
     <g id="line2d_25">
      <path clip-path="url(#p279aaf51b3)" d="M 180 387.190174 
L 1296 387.190174 
" style="fill:none;stroke:#b0b0b0;stroke-linecap:square;stroke-width:0.8;"/>
     </g>
     <g id="line2d_26">
      <g>
       <use style="stroke:#000000;stroke-width:0.8;" x="1296" xlink:href="#me1d9c8b0df" y="387.190174"/>
      </g>
     </g>
     <g id="text_14">
      <!-- 1500 -->
      <g transform="translate(1303 390.989393)scale(0.1 -0.1)">
       <use xlink:href="#DejaVuSans-49"/>
       <use x="63.623047" xlink:href="#DejaVuSans-53"/>
       <use x="127.246094" xlink:href="#DejaVuSans-48"/>
       <use x="190.869141" xlink:href="#DejaVuSans-48"/>
      </g>
     </g>
    </g>
    <g id="ytick_5">
     <g id="line2d_27">
      <path clip-path="url(#p279aaf51b3)" d="M 180 294.009942 
L 1296 294.009942 
" style="fill:none;stroke:#b0b0b0;stroke-linecap:square;stroke-width:0.8;"/>
     </g>
     <g id="line2d_28">
      <g>
       <use style="stroke:#000000;stroke-width:0.8;" x="1296" xlink:href="#me1d9c8b0df" y="294.009942"/>
      </g>
     </g>
     <g id="text_15">
      <!-- 2000 -->
      <g transform="translate(1303 297.809161)scale(0.1 -0.1)">
       <use xlink:href="#DejaVuSans-50"/>
       <use x="63.623047" xlink:href="#DejaVuSans-48"/>
       <use x="127.246094" xlink:href="#DejaVuSans-48"/>
       <use x="190.869141" xlink:href="#DejaVuSans-48"/>
      </g>
     </g>
    </g>
    <g id="ytick_6">
     <g id="line2d_29">
      <path clip-path="url(#p279aaf51b3)" d="M 180 200.82971 
L 1296 200.82971 
" style="fill:none;stroke:#b0b0b0;stroke-linecap:square;stroke-width:0.8;"/>
     </g>
     <g id="line2d_30">
      <g>
       <use style="stroke:#000000;stroke-width:0.8;" x="1296" xlink:href="#me1d9c8b0df" y="200.82971"/>
      </g>
     </g>
     <g id="text_16">
      <!-- 2500 -->
      <g transform="translate(1303 204.628929)scale(0.1 -0.1)">
       <use xlink:href="#DejaVuSans-50"/>
       <use x="63.623047" xlink:href="#DejaVuSans-53"/>
       <use x="127.246094" xlink:href="#DejaVuSans-48"/>
       <use x="190.869141" xlink:href="#DejaVuSans-48"/>
      </g>
     </g>
    </g>
    <g id="ytick_7">
     <g id="line2d_31">
      <path clip-path="url(#p279aaf51b3)" d="M 180 107.649478 
L 1296 107.649478 
" style="fill:none;stroke:#b0b0b0;stroke-linecap:square;stroke-width:0.8;"/>
     </g>
     <g id="line2d_32">
      <g>
       <use style="stroke:#000000;stroke-width:0.8;" x="1296" xlink:href="#me1d9c8b0df" y="107.649478"/>
      </g>
     </g>
     <g id="text_17">
      <!-- 3000 -->
      <g transform="translate(1303 111.448697)scale(0.1 -0.1)">
       <use xlink:href="#DejaVuSans-51"/>
       <use x="63.623047" xlink:href="#DejaVuSans-48"/>
       <use x="127.246094" xlink:href="#DejaVuSans-48"/>
       <use x="190.869141" xlink:href="#DejaVuSans-48"/>
      </g>
     </g>
    </g>
    <g id="text_18">
     <!-- Canada BC Confirmed Cases -->
     <defs>
      <path d="M 75.59375 64.5 
L 70 60.203125 
Q 60 72.59375 44.296875 72.59375 
Q 31.5 72.59375 22.25 63.59375 
Q 13 54.59375 13 41.546875 
Q 13 28.5 22.046875 19.75 
Q 31.09375 11 44.703125 11 
Q 59.90625 11 70 22.796875 
L 75.59375 18.5 
Q 70.296875 11.5 62.1875 7.84375 
Q 54.09375 4.203125 44.296875 4.203125 
Q 27.203125 4.203125 16.296875 15 
Q 5.40625 25.796875 5.40625 42.296875 
Q 5.40625 52.5 10.453125 61.140625 
Q 15.5 69.796875 24.453125 74.6875 
Q 33.40625 79.59375 43.703125 79.59375 
Q 54 79.59375 62.203125 75.6875 
Q 70.40625 71.796875 75.59375 64.5 
z
" id="STHeitiTC-Light-67"/>
      <path d="M 7.59375 59.09375 
L 14.5 59.09375 
L 14.5 49.59375 
Q 22.703125 60.5 34.40625 60.5 
Q 40.40625 60.5 45.203125 57.25 
Q 50 54 52 48.75 
Q 54 43.5 54 33.296875 
L 54 6 
L 47.203125 6 
L 47.203125 31.296875 
Q 47.203125 40.59375 46.34375 43.890625 
Q 45.5 47.203125 43.75 49.5 
Q 42 51.796875 39.296875 53 
Q 36.59375 54.203125 32.75 54.203125 
Q 28.90625 54.203125 25.203125 52.296875 
Q 21.5 50.40625 18.890625 47 
Q 16.296875 43.59375 15.390625 40 
Q 14.5 36.40625 14.5 25.5 
L 14.5 6 
L 7.59375 6 
z
" id="STHeitiTC-Light-110"/>
      <path d="M 60.59375 79.59375 
L 60.59375 6 
L 53.90625 6 
L 53.90625 15.09375 
Q 44.796875 4.203125 33.046875 4.203125 
Q 21.296875 4.203125 13.296875 12.5 
Q 5.296875 20.796875 5.296875 32.390625 
Q 5.296875 44 13.390625 52.25 
Q 21.5 60.5 32.796875 60.5 
Q 45.796875 60.5 53.90625 49.40625 
L 53.90625 79.59375 
z
M 54.296875 32.203125 
Q 54.296875 41.296875 48.296875 47.59375 
Q 42.296875 53.90625 33.296875 53.90625 
Q 24.296875 53.90625 18.25 47.453125 
Q 12.203125 41 12.203125 32.25 
Q 12.203125 23.5 18.390625 17 
Q 24.59375 10.5 33.046875 10.5 
Q 41.5 10.5 47.890625 16.640625 
Q 54.296875 22.796875 54.296875 32.203125 
z
" id="STHeitiTC-Light-100"/>
      <path id="STHeitiTC-Light-32"/>
      <path d="M 8.90625 77.796875 
L 23.09375 77.796875 
Q 34.40625 77.796875 40.25 73.25 
Q 46.09375 68.703125 46.09375 60.203125 
Q 46.09375 55.5 43.75 51.546875 
Q 41.40625 47.59375 36.90625 45.203125 
Q 44.296875 42.796875 48.140625 38 
Q 52 33.203125 52 26.59375 
Q 52 17.703125 45.5 11.84375 
Q 39 6 28.703125 6 
L 8.90625 6 
z
M 16 70.796875 
L 16 47.796875 
L 20.09375 47.796875 
Q 29.5 47.796875 34.09375 50.796875 
Q 38.703125 53.796875 38.703125 60.203125 
Q 38.703125 70.796875 24.296875 70.796875 
z
M 16 40.59375 
L 16 13 
L 24.90625 13 
Q 32.59375 13 36.25 14.546875 
Q 39.90625 16.09375 42.203125 19.34375 
Q 44.5 22.59375 44.5 26 
Q 44.5 29.40625 43.203125 32 
Q 41.90625 34.59375 39.34375 36.59375 
Q 36.796875 38.59375 33.25 39.59375 
Q 29.703125 40.59375 20 40.59375 
z
" id="STHeitiTC-Light-66"/>
      <path d="M 5.09375 32.203125 
Q 5.09375 43.90625 13.140625 52.203125 
Q 21.203125 60.5 32.75 60.5 
Q 44.296875 60.5 52.34375 52.203125 
Q 60.40625 43.90625 60.40625 32.296875 
Q 60.40625 20.703125 52.453125 12.453125 
Q 44.5 4.203125 32.796875 4.203125 
Q 21.09375 4.203125 13.09375 12.453125 
Q 5.09375 20.703125 5.09375 32.203125 
z
M 53.5 32.09375 
Q 53.5 40.90625 47.34375 47.34375 
Q 41.203125 53.796875 32.75 53.796875 
Q 24.296875 53.796875 18.1875 47.34375 
Q 12.09375 40.90625 12.09375 32 
Q 12.09375 23.09375 18 16.890625 
Q 23.90625 10.703125 32.65625 10.703125 
Q 41.40625 10.703125 47.453125 16.953125 
Q 53.5 23.203125 53.5 32.09375 
z
" id="STHeitiTC-Light-111"/>
      <path d="M 29.5 78.203125 
L 29.5 71.5 
Q 25.59375 73.203125 22.546875 73.203125 
Q 19.5 73.203125 18.59375 71.25 
Q 17.703125 69.296875 17.703125 64.90625 
L 17.703125 59.09375 
L 28.796875 59.09375 
L 28.796875 53.296875 
L 17.703125 53.296875 
L 17.703125 6 
L 10.796875 6 
L 10.796875 53.296875 
L 3.90625 53.296875 
L 3.90625 59.09375 
L 10.796875 59.09375 
L 10.796875 66 
Q 10.796875 73 13.390625 76.296875 
Q 16 79.59375 21.5 79.59375 
Q 24.703125 79.59375 29.5 78.203125 
z
" id="STHeitiTC-Light-102"/>
      <path d="M 4.40625 73.90625 
Q 4.40625 76.203125 6.046875 77.890625 
Q 7.703125 79.59375 10.046875 79.59375 
Q 12.40625 79.59375 14.046875 77.9375 
Q 15.703125 76.296875 15.703125 73.9375 
Q 15.703125 71.59375 14.046875 69.9375 
Q 12.40625 68.296875 10.046875 68.296875 
Q 7.703125 68.296875 6.046875 70 
Q 4.40625 71.703125 4.40625 73.90625 
z
M 6.59375 59.09375 
L 13.5 59.09375 
L 13.5 6 
L 6.59375 6 
z
" id="STHeitiTC-Light-105"/>
      <path d="M 5 59.09375 
L 12 59.09375 
L 12 51.40625 
Q 14.796875 56.09375 17.4375 58.296875 
Q 20.09375 60.5 23.34375 60.5 
Q 26.59375 60.5 29.90625 58.703125 
L 26.296875 52.90625 
Q 24.796875 53.796875 23.203125 53.796875 
Q 20.09375 53.796875 17.34375 50.59375 
Q 14.59375 47.40625 13.296875 42.34375 
Q 12 37.296875 12 24 
L 12 6 
L 5 6 
z
" id="STHeitiTC-Light-114"/>
      <path d="M 7.59375 59.09375 
L 14.40625 59.09375 
L 14.40625 49.90625 
Q 21.5 60.5 32.59375 60.5 
Q 38.5 60.5 43.140625 57.140625 
Q 47.796875 53.796875 49.40625 47.703125 
Q 52.703125 53.90625 57.796875 57.203125 
Q 62.90625 60.5 69.546875 60.5 
Q 76.203125 60.5 81.59375 55.34375 
Q 87 50.203125 87 35 
L 87 6 
L 80 6 
L 80 35 
Q 80 42.296875 79.09375 45.75 
Q 78.203125 49.203125 75.203125 51.546875 
Q 72.203125 53.90625 67.25 53.90625 
Q 62.296875 53.90625 58 50.59375 
Q 53.703125 47.296875 52.09375 42.1875 
Q 50.5 37.09375 50.5 26.796875 
L 50.5 6 
L 43.796875 6 
L 43.796875 33.203125 
Q 43.796875 41.703125 42.890625 45.34375 
Q 42 49 38.890625 51.453125 
Q 35.796875 53.90625 31.296875 53.90625 
Q 26.796875 53.90625 22.84375 51.25 
Q 18.90625 48.59375 16.65625 44 
Q 14.40625 39.40625 14.40625 28.5 
L 14.40625 6 
L 7.59375 6 
z
" id="STHeitiTC-Light-109"/>
      <path d="M 34.296875 53.296875 
L 29.90625 48.796875 
Q 24.40625 54.09375 19.203125 54.09375 
Q 15.796875 54.09375 13.5 51.9375 
Q 11.203125 49.796875 11.203125 46.640625 
Q 11.203125 43.5 13.640625 41.25 
Q 16.09375 39 22.09375 35.84375 
Q 28.09375 32.703125 31.25 29.046875 
Q 34.40625 25.40625 34.40625 20.09375 
Q 34.40625 13.40625 29.75 8.796875 
Q 25.09375 4.203125 18.296875 4.203125 
Q 13.796875 4.203125 9.640625 6.203125 
Q 5.5 8.203125 2.59375 11.796875 
L 6.90625 16.59375 
Q 12.203125 10.703125 18 10.703125 
Q 22.09375 10.703125 25 13.390625 
Q 27.90625 16.09375 27.90625 19.75 
Q 27.90625 23.40625 25.34375 25.75 
Q 22.796875 28.09375 16.84375 31.09375 
Q 10.90625 34.09375 7.953125 37.640625 
Q 5 41.203125 5 46.84375 
Q 5 52.5 9.140625 56.5 
Q 13.296875 60.5 20.140625 60.5 
Q 27 60.5 34.296875 53.296875 
z
" id="STHeitiTC-Light-115"/>
     </defs>
     <g transform="translate(174.659375 469.348594)rotate(-90)scale(0.1 -0.1)">
      <use xlink:href="#STHeitiTC-Light-67"/>
      <use x="81.299988" xlink:href="#STHeitiTC-Light-97"/>
      <use x="149.599976" xlink:href="#STHeitiTC-Light-110"/>
      <use x="210.59996" xlink:href="#STHeitiTC-Light-97"/>
      <use x="278.899948" xlink:href="#STHeitiTC-Light-100"/>
      <use x="347.399933" xlink:href="#STHeitiTC-Light-97"/>
      <use x="415.699921" xlink:href="#STHeitiTC-Light-32"/>
      <use x="440.699905" xlink:href="#STHeitiTC-Light-66"/>
      <use x="498.099899" xlink:href="#STHeitiTC-Light-67"/>
      <use x="579.399887" xlink:href="#STHeitiTC-Light-32"/>
      <use x="604.399872" xlink:href="#STHeitiTC-Light-67"/>
      <use x="685.69986" xlink:href="#STHeitiTC-Light-111"/>
      <use x="751.199844" xlink:href="#STHeitiTC-Light-110"/>
      <use x="812.199829" xlink:href="#STHeitiTC-Light-102"/>
      <use x="843.599823" xlink:href="#STHeitiTC-Light-105"/>
      <use x="863.599808" xlink:href="#STHeitiTC-Light-114"/>
      <use x="893.699799" xlink:href="#STHeitiTC-Light-109"/>
      <use x="987.499786" xlink:href="#STHeitiTC-Light-101"/>
      <use x="1052.499771" xlink:href="#STHeitiTC-Light-100"/>
      <use x="1120.999756" xlink:href="#STHeitiTC-Light-32"/>
      <use x="1145.999741" xlink:href="#STHeitiTC-Light-67"/>
      <use x="1227.299728" xlink:href="#STHeitiTC-Light-97"/>
      <use x="1295.599716" xlink:href="#STHeitiTC-Light-115"/>
      <use x="1334.399704" xlink:href="#STHeitiTC-Light-101"/>
      <use x="1399.399689" xlink:href="#STHeitiTC-Light-115"/>
     </g>
    </g>
   </g>
   <g id="line2d_33">
    <path clip-path="url(#p279aaf51b3)" d="M 230.727273 664.494545 
L 248.371542 662.817301 
L 257.193676 662.817301 
L 266.01581 661.699138 
L 274.837945 661.699138 
L 283.660079 660.767336 
L 301.304348 659.462813 
L 310.126482 658.15829 
L 318.948617 656.853766 
L 327.770751 654.803801 
L 336.592885 653.126557 
L 345.41502 653.126557 
L 354.237154 647.535743 
L 363.059289 632.067825 
L 371.881423 616.227185 
L 380.703557 616.227185 
L 389.525692 587.714034 
L 398.347826 587.714034 
L 407.16996 578.768732 
L 415.992095 551.746465 
L 424.814229 543.919325 
L 433.636364 531.619534 
L 442.458498 531.619534 
L 451.280632 501.988221 
L 460.102767 501.988221 
L 468.924901 487.824825 
L 477.747036 485.961221 
L 486.56917 468.070616 
L 495.391304 457.82079 
L 504.213439 447.943686 
L 513.035573 442.539232 
L 521.857708 442.539232 
L 530.679842 430.798523 
L 539.501976 426.139512 
L 548.324111 417.753291 
L 557.146245 411.417035 
L 565.968379 403.962616 
L 574.790514 397.44 
L 583.612648 397.44 
L 592.434783 389.053779 
L 601.256917 384.022047 
L 610.079051 375.822186 
L 618.901186 375.822186 
L 627.72332 373.21314 
L 636.545455 365.19964 
L 645.367589 365.19964 
L 654.189723 350.104442 
L 663.011858 345.44543 
L 671.833992 332.213837 
L 680.656126 326.809384 
L 689.478261 321.404931 
L 698.300395 303.700686 
L 707.12253 303.700686 
L 715.944664 294.382663 
L 724.766798 284.132838 
L 733.588933 277.796582 
L 742.411067 273.13757 
L 751.233202 266.987675 
L 760.055336 262.142303 
L 768.87747 262.142303 
L 777.699605 252.265198 
L 786.521739 250.774315 
L 795.343874 246.488024 
L 804.166008 240.338129 
L 812.988142 235.306396 
L 821.810277 232.510989 
L 830.632411 232.510989 
L 839.454545 228.224698 
L 848.27668 226.920175 
L 857.098814 223.938408 
L 865.920949 220.95664 
L 874.743083 218.161233 
L 883.565217 214.247664 
L 892.387352 214.247664 
L 901.209486 211.265896 
L 910.031621 210.893175 
L 918.853755 206.979605 
L 927.675889 204.74328 
L 936.498024 199.525187 
L 945.320158 197.661582 
L 954.142292 197.661582 
L 962.964427 195.238896 
L 971.786561 193.188931 
L 980.608696 191.511687 
L 989.43083 190.020803 
L 998.252964 189.275361 
L 1007.075099 187.225396 
L 1015.897233 187.225396 
L 1024.719368 182.752745 
L 1033.541502 182.007303 
L 1042.363636 177.907373 
L 1051.185771 176.230129 
L 1060.007905 176.230129 
L 1068.83004 176.230129 
L 1077.652174 176.230129 
L 1086.474308 171.198396 
L 1095.296443 169.334792 
L 1104.118577 167.284826 
L 1112.940711 164.67578 
L 1121.762846 161.880373 
L 1130.58498 161.880373 
L 1139.407115 161.880373 
L 1148.229249 155.171396 
L 1157.051383 153.121431 
L 1165.873518 149.580582 
L 1174.695652 148.089699 
L 1183.517787 146.785175 
L 1192.339921 146.785175 
L 1201.162055 146.785175 
L 1209.98419 140.821641 
L 1218.806324 138.398955 
L 1227.628458 135.789908 
L 1236.450593 132.062699 
L 1245.272727 130.385455 
" style="fill:none;stroke:#1f77b4;stroke-dasharray:5.55,2.4;stroke-dashoffset:0;stroke-width:1.5;"/>
    <defs>
     <path d="M -1.5 3 
L 0 1.5 
L 1.5 3 
L 3 1.5 
L 1.5 0 
L 3 -1.5 
L 1.5 -3 
L 0 -1.5 
L -1.5 -3 
L -3 -1.5 
L -1.5 0 
L -3 1.5 
z
" id="md12cfdcaa3" style="stroke:#1f77b4;stroke-linejoin:miter;"/>
    </defs>
    <g clip-path="url(#p279aaf51b3)">
     <use style="fill:#1f77b4;stroke:#1f77b4;stroke-linejoin:miter;" x="230.727273" xlink:href="#md12cfdcaa3" y="664.494545"/>
     <use style="fill:#1f77b4;stroke:#1f77b4;stroke-linejoin:miter;" x="248.371542" xlink:href="#md12cfdcaa3" y="662.817301"/>
     <use style="fill:#1f77b4;stroke:#1f77b4;stroke-linejoin:miter;" x="257.193676" xlink:href="#md12cfdcaa3" y="662.817301"/>
     <use style="fill:#1f77b4;stroke:#1f77b4;stroke-linejoin:miter;" x="266.01581" xlink:href="#md12cfdcaa3" y="661.699138"/>
     <use style="fill:#1f77b4;stroke:#1f77b4;stroke-linejoin:miter;" x="274.837945" xlink:href="#md12cfdcaa3" y="661.699138"/>
     <use style="fill:#1f77b4;stroke:#1f77b4;stroke-linejoin:miter;" x="283.660079" xlink:href="#md12cfdcaa3" y="660.767336"/>
     <use style="fill:#1f77b4;stroke:#1f77b4;stroke-linejoin:miter;" x="301.304348" xlink:href="#md12cfdcaa3" y="659.462813"/>
     <use style="fill:#1f77b4;stroke:#1f77b4;stroke-linejoin:miter;" x="310.126482" xlink:href="#md12cfdcaa3" y="658.15829"/>
     <use style="fill:#1f77b4;stroke:#1f77b4;stroke-linejoin:miter;" x="318.948617" xlink:href="#md12cfdcaa3" y="656.853766"/>
     <use style="fill:#1f77b4;stroke:#1f77b4;stroke-linejoin:miter;" x="327.770751" xlink:href="#md12cfdcaa3" y="654.803801"/>
     <use style="fill:#1f77b4;stroke:#1f77b4;stroke-linejoin:miter;" x="336.592885" xlink:href="#md12cfdcaa3" y="653.126557"/>
     <use style="fill:#1f77b4;stroke:#1f77b4;stroke-linejoin:miter;" x="345.41502" xlink:href="#md12cfdcaa3" y="653.126557"/>
     <use style="fill:#1f77b4;stroke:#1f77b4;stroke-linejoin:miter;" x="354.237154" xlink:href="#md12cfdcaa3" y="647.535743"/>
     <use style="fill:#1f77b4;stroke:#1f77b4;stroke-linejoin:miter;" x="363.059289" xlink:href="#md12cfdcaa3" y="632.067825"/>
     <use style="fill:#1f77b4;stroke:#1f77b4;stroke-linejoin:miter;" x="371.881423" xlink:href="#md12cfdcaa3" y="616.227185"/>
     <use style="fill:#1f77b4;stroke:#1f77b4;stroke-linejoin:miter;" x="380.703557" xlink:href="#md12cfdcaa3" y="616.227185"/>
     <use style="fill:#1f77b4;stroke:#1f77b4;stroke-linejoin:miter;" x="389.525692" xlink:href="#md12cfdcaa3" y="587.714034"/>
     <use style="fill:#1f77b4;stroke:#1f77b4;stroke-linejoin:miter;" x="398.347826" xlink:href="#md12cfdcaa3" y="587.714034"/>
     <use style="fill:#1f77b4;stroke:#1f77b4;stroke-linejoin:miter;" x="407.16996" xlink:href="#md12cfdcaa3" y="578.768732"/>
     <use style="fill:#1f77b4;stroke:#1f77b4;stroke-linejoin:miter;" x="415.992095" xlink:href="#md12cfdcaa3" y="551.746465"/>
     <use style="fill:#1f77b4;stroke:#1f77b4;stroke-linejoin:miter;" x="424.814229" xlink:href="#md12cfdcaa3" y="543.919325"/>
     <use style="fill:#1f77b4;stroke:#1f77b4;stroke-linejoin:miter;" x="433.636364" xlink:href="#md12cfdcaa3" y="531.619534"/>
     <use style="fill:#1f77b4;stroke:#1f77b4;stroke-linejoin:miter;" x="442.458498" xlink:href="#md12cfdcaa3" y="531.619534"/>
     <use style="fill:#1f77b4;stroke:#1f77b4;stroke-linejoin:miter;" x="451.280632" xlink:href="#md12cfdcaa3" y="501.988221"/>
     <use style="fill:#1f77b4;stroke:#1f77b4;stroke-linejoin:miter;" x="460.102767" xlink:href="#md12cfdcaa3" y="501.988221"/>
     <use style="fill:#1f77b4;stroke:#1f77b4;stroke-linejoin:miter;" x="468.924901" xlink:href="#md12cfdcaa3" y="487.824825"/>
     <use style="fill:#1f77b4;stroke:#1f77b4;stroke-linejoin:miter;" x="477.747036" xlink:href="#md12cfdcaa3" y="485.961221"/>
     <use style="fill:#1f77b4;stroke:#1f77b4;stroke-linejoin:miter;" x="486.56917" xlink:href="#md12cfdcaa3" y="468.070616"/>
     <use style="fill:#1f77b4;stroke:#1f77b4;stroke-linejoin:miter;" x="495.391304" xlink:href="#md12cfdcaa3" y="457.82079"/>
     <use style="fill:#1f77b4;stroke:#1f77b4;stroke-linejoin:miter;" x="504.213439" xlink:href="#md12cfdcaa3" y="447.943686"/>
     <use style="fill:#1f77b4;stroke:#1f77b4;stroke-linejoin:miter;" x="513.035573" xlink:href="#md12cfdcaa3" y="442.539232"/>
     <use style="fill:#1f77b4;stroke:#1f77b4;stroke-linejoin:miter;" x="521.857708" xlink:href="#md12cfdcaa3" y="442.539232"/>
     <use style="fill:#1f77b4;stroke:#1f77b4;stroke-linejoin:miter;" x="530.679842" xlink:href="#md12cfdcaa3" y="430.798523"/>
     <use style="fill:#1f77b4;stroke:#1f77b4;stroke-linejoin:miter;" x="539.501976" xlink:href="#md12cfdcaa3" y="426.139512"/>
     <use style="fill:#1f77b4;stroke:#1f77b4;stroke-linejoin:miter;" x="548.324111" xlink:href="#md12cfdcaa3" y="417.753291"/>
     <use style="fill:#1f77b4;stroke:#1f77b4;stroke-linejoin:miter;" x="557.146245" xlink:href="#md12cfdcaa3" y="411.417035"/>
     <use style="fill:#1f77b4;stroke:#1f77b4;stroke-linejoin:miter;" x="565.968379" xlink:href="#md12cfdcaa3" y="403.962616"/>
     <use style="fill:#1f77b4;stroke:#1f77b4;stroke-linejoin:miter;" x="574.790514" xlink:href="#md12cfdcaa3" y="397.44"/>
     <use style="fill:#1f77b4;stroke:#1f77b4;stroke-linejoin:miter;" x="583.612648" xlink:href="#md12cfdcaa3" y="397.44"/>
     <use style="fill:#1f77b4;stroke:#1f77b4;stroke-linejoin:miter;" x="592.434783" xlink:href="#md12cfdcaa3" y="389.053779"/>
     <use style="fill:#1f77b4;stroke:#1f77b4;stroke-linejoin:miter;" x="601.256917" xlink:href="#md12cfdcaa3" y="384.022047"/>
     <use style="fill:#1f77b4;stroke:#1f77b4;stroke-linejoin:miter;" x="610.079051" xlink:href="#md12cfdcaa3" y="375.822186"/>
     <use style="fill:#1f77b4;stroke:#1f77b4;stroke-linejoin:miter;" x="618.901186" xlink:href="#md12cfdcaa3" y="375.822186"/>
     <use style="fill:#1f77b4;stroke:#1f77b4;stroke-linejoin:miter;" x="627.72332" xlink:href="#md12cfdcaa3" y="373.21314"/>
     <use style="fill:#1f77b4;stroke:#1f77b4;stroke-linejoin:miter;" x="636.545455" xlink:href="#md12cfdcaa3" y="365.19964"/>
     <use style="fill:#1f77b4;stroke:#1f77b4;stroke-linejoin:miter;" x="645.367589" xlink:href="#md12cfdcaa3" y="365.19964"/>
     <use style="fill:#1f77b4;stroke:#1f77b4;stroke-linejoin:miter;" x="654.189723" xlink:href="#md12cfdcaa3" y="350.104442"/>
     <use style="fill:#1f77b4;stroke:#1f77b4;stroke-linejoin:miter;" x="663.011858" xlink:href="#md12cfdcaa3" y="345.44543"/>
     <use style="fill:#1f77b4;stroke:#1f77b4;stroke-linejoin:miter;" x="671.833992" xlink:href="#md12cfdcaa3" y="332.213837"/>
     <use style="fill:#1f77b4;stroke:#1f77b4;stroke-linejoin:miter;" x="680.656126" xlink:href="#md12cfdcaa3" y="326.809384"/>
     <use style="fill:#1f77b4;stroke:#1f77b4;stroke-linejoin:miter;" x="689.478261" xlink:href="#md12cfdcaa3" y="321.404931"/>
     <use style="fill:#1f77b4;stroke:#1f77b4;stroke-linejoin:miter;" x="698.300395" xlink:href="#md12cfdcaa3" y="303.700686"/>
     <use style="fill:#1f77b4;stroke:#1f77b4;stroke-linejoin:miter;" x="707.12253" xlink:href="#md12cfdcaa3" y="303.700686"/>
     <use style="fill:#1f77b4;stroke:#1f77b4;stroke-linejoin:miter;" x="715.944664" xlink:href="#md12cfdcaa3" y="294.382663"/>
     <use style="fill:#1f77b4;stroke:#1f77b4;stroke-linejoin:miter;" x="724.766798" xlink:href="#md12cfdcaa3" y="284.132838"/>
     <use style="fill:#1f77b4;stroke:#1f77b4;stroke-linejoin:miter;" x="733.588933" xlink:href="#md12cfdcaa3" y="277.796582"/>
     <use style="fill:#1f77b4;stroke:#1f77b4;stroke-linejoin:miter;" x="742.411067" xlink:href="#md12cfdcaa3" y="273.13757"/>
     <use style="fill:#1f77b4;stroke:#1f77b4;stroke-linejoin:miter;" x="751.233202" xlink:href="#md12cfdcaa3" y="266.987675"/>
     <use style="fill:#1f77b4;stroke:#1f77b4;stroke-linejoin:miter;" x="760.055336" xlink:href="#md12cfdcaa3" y="262.142303"/>
     <use style="fill:#1f77b4;stroke:#1f77b4;stroke-linejoin:miter;" x="768.87747" xlink:href="#md12cfdcaa3" y="262.142303"/>
     <use style="fill:#1f77b4;stroke:#1f77b4;stroke-linejoin:miter;" x="777.699605" xlink:href="#md12cfdcaa3" y="252.265198"/>
     <use style="fill:#1f77b4;stroke:#1f77b4;stroke-linejoin:miter;" x="786.521739" xlink:href="#md12cfdcaa3" y="250.774315"/>
     <use style="fill:#1f77b4;stroke:#1f77b4;stroke-linejoin:miter;" x="795.343874" xlink:href="#md12cfdcaa3" y="246.488024"/>
     <use style="fill:#1f77b4;stroke:#1f77b4;stroke-linejoin:miter;" x="804.166008" xlink:href="#md12cfdcaa3" y="240.338129"/>
     <use style="fill:#1f77b4;stroke:#1f77b4;stroke-linejoin:miter;" x="812.988142" xlink:href="#md12cfdcaa3" y="235.306396"/>
     <use style="fill:#1f77b4;stroke:#1f77b4;stroke-linejoin:miter;" x="821.810277" xlink:href="#md12cfdcaa3" y="232.510989"/>
     <use style="fill:#1f77b4;stroke:#1f77b4;stroke-linejoin:miter;" x="830.632411" xlink:href="#md12cfdcaa3" y="232.510989"/>
     <use style="fill:#1f77b4;stroke:#1f77b4;stroke-linejoin:miter;" x="839.454545" xlink:href="#md12cfdcaa3" y="228.224698"/>
     <use style="fill:#1f77b4;stroke:#1f77b4;stroke-linejoin:miter;" x="848.27668" xlink:href="#md12cfdcaa3" y="226.920175"/>
     <use style="fill:#1f77b4;stroke:#1f77b4;stroke-linejoin:miter;" x="857.098814" xlink:href="#md12cfdcaa3" y="223.938408"/>
     <use style="fill:#1f77b4;stroke:#1f77b4;stroke-linejoin:miter;" x="865.920949" xlink:href="#md12cfdcaa3" y="220.95664"/>
     <use style="fill:#1f77b4;stroke:#1f77b4;stroke-linejoin:miter;" x="874.743083" xlink:href="#md12cfdcaa3" y="218.161233"/>
     <use style="fill:#1f77b4;stroke:#1f77b4;stroke-linejoin:miter;" x="883.565217" xlink:href="#md12cfdcaa3" y="214.247664"/>
     <use style="fill:#1f77b4;stroke:#1f77b4;stroke-linejoin:miter;" x="892.387352" xlink:href="#md12cfdcaa3" y="214.247664"/>
     <use style="fill:#1f77b4;stroke:#1f77b4;stroke-linejoin:miter;" x="901.209486" xlink:href="#md12cfdcaa3" y="211.265896"/>
     <use style="fill:#1f77b4;stroke:#1f77b4;stroke-linejoin:miter;" x="910.031621" xlink:href="#md12cfdcaa3" y="210.893175"/>
     <use style="fill:#1f77b4;stroke:#1f77b4;stroke-linejoin:miter;" x="918.853755" xlink:href="#md12cfdcaa3" y="206.979605"/>
     <use style="fill:#1f77b4;stroke:#1f77b4;stroke-linejoin:miter;" x="927.675889" xlink:href="#md12cfdcaa3" y="204.74328"/>
     <use style="fill:#1f77b4;stroke:#1f77b4;stroke-linejoin:miter;" x="936.498024" xlink:href="#md12cfdcaa3" y="199.525187"/>
     <use style="fill:#1f77b4;stroke:#1f77b4;stroke-linejoin:miter;" x="945.320158" xlink:href="#md12cfdcaa3" y="197.661582"/>
     <use style="fill:#1f77b4;stroke:#1f77b4;stroke-linejoin:miter;" x="954.142292" xlink:href="#md12cfdcaa3" y="197.661582"/>
     <use style="fill:#1f77b4;stroke:#1f77b4;stroke-linejoin:miter;" x="962.964427" xlink:href="#md12cfdcaa3" y="195.238896"/>
     <use style="fill:#1f77b4;stroke:#1f77b4;stroke-linejoin:miter;" x="971.786561" xlink:href="#md12cfdcaa3" y="193.188931"/>
     <use style="fill:#1f77b4;stroke:#1f77b4;stroke-linejoin:miter;" x="980.608696" xlink:href="#md12cfdcaa3" y="191.511687"/>
     <use style="fill:#1f77b4;stroke:#1f77b4;stroke-linejoin:miter;" x="989.43083" xlink:href="#md12cfdcaa3" y="190.020803"/>
     <use style="fill:#1f77b4;stroke:#1f77b4;stroke-linejoin:miter;" x="998.252964" xlink:href="#md12cfdcaa3" y="189.275361"/>
     <use style="fill:#1f77b4;stroke:#1f77b4;stroke-linejoin:miter;" x="1007.075099" xlink:href="#md12cfdcaa3" y="187.225396"/>
     <use style="fill:#1f77b4;stroke:#1f77b4;stroke-linejoin:miter;" x="1015.897233" xlink:href="#md12cfdcaa3" y="187.225396"/>
     <use style="fill:#1f77b4;stroke:#1f77b4;stroke-linejoin:miter;" x="1024.719368" xlink:href="#md12cfdcaa3" y="182.752745"/>
     <use style="fill:#1f77b4;stroke:#1f77b4;stroke-linejoin:miter;" x="1033.541502" xlink:href="#md12cfdcaa3" y="182.007303"/>
     <use style="fill:#1f77b4;stroke:#1f77b4;stroke-linejoin:miter;" x="1042.363636" xlink:href="#md12cfdcaa3" y="177.907373"/>
     <use style="fill:#1f77b4;stroke:#1f77b4;stroke-linejoin:miter;" x="1051.185771" xlink:href="#md12cfdcaa3" y="176.230129"/>
     <use style="fill:#1f77b4;stroke:#1f77b4;stroke-linejoin:miter;" x="1060.007905" xlink:href="#md12cfdcaa3" y="176.230129"/>
     <use style="fill:#1f77b4;stroke:#1f77b4;stroke-linejoin:miter;" x="1068.83004" xlink:href="#md12cfdcaa3" y="176.230129"/>
     <use style="fill:#1f77b4;stroke:#1f77b4;stroke-linejoin:miter;" x="1077.652174" xlink:href="#md12cfdcaa3" y="176.230129"/>
     <use style="fill:#1f77b4;stroke:#1f77b4;stroke-linejoin:miter;" x="1086.474308" xlink:href="#md12cfdcaa3" y="171.198396"/>
     <use style="fill:#1f77b4;stroke:#1f77b4;stroke-linejoin:miter;" x="1095.296443" xlink:href="#md12cfdcaa3" y="169.334792"/>
     <use style="fill:#1f77b4;stroke:#1f77b4;stroke-linejoin:miter;" x="1104.118577" xlink:href="#md12cfdcaa3" y="167.284826"/>
     <use style="fill:#1f77b4;stroke:#1f77b4;stroke-linejoin:miter;" x="1112.940711" xlink:href="#md12cfdcaa3" y="164.67578"/>
     <use style="fill:#1f77b4;stroke:#1f77b4;stroke-linejoin:miter;" x="1121.762846" xlink:href="#md12cfdcaa3" y="161.880373"/>
     <use style="fill:#1f77b4;stroke:#1f77b4;stroke-linejoin:miter;" x="1130.58498" xlink:href="#md12cfdcaa3" y="161.880373"/>
     <use style="fill:#1f77b4;stroke:#1f77b4;stroke-linejoin:miter;" x="1139.407115" xlink:href="#md12cfdcaa3" y="161.880373"/>
     <use style="fill:#1f77b4;stroke:#1f77b4;stroke-linejoin:miter;" x="1148.229249" xlink:href="#md12cfdcaa3" y="155.171396"/>
     <use style="fill:#1f77b4;stroke:#1f77b4;stroke-linejoin:miter;" x="1157.051383" xlink:href="#md12cfdcaa3" y="153.121431"/>
     <use style="fill:#1f77b4;stroke:#1f77b4;stroke-linejoin:miter;" x="1165.873518" xlink:href="#md12cfdcaa3" y="149.580582"/>
     <use style="fill:#1f77b4;stroke:#1f77b4;stroke-linejoin:miter;" x="1174.695652" xlink:href="#md12cfdcaa3" y="148.089699"/>
     <use style="fill:#1f77b4;stroke:#1f77b4;stroke-linejoin:miter;" x="1183.517787" xlink:href="#md12cfdcaa3" y="146.785175"/>
     <use style="fill:#1f77b4;stroke:#1f77b4;stroke-linejoin:miter;" x="1192.339921" xlink:href="#md12cfdcaa3" y="146.785175"/>
     <use style="fill:#1f77b4;stroke:#1f77b4;stroke-linejoin:miter;" x="1201.162055" xlink:href="#md12cfdcaa3" y="146.785175"/>
     <use style="fill:#1f77b4;stroke:#1f77b4;stroke-linejoin:miter;" x="1209.98419" xlink:href="#md12cfdcaa3" y="140.821641"/>
     <use style="fill:#1f77b4;stroke:#1f77b4;stroke-linejoin:miter;" x="1218.806324" xlink:href="#md12cfdcaa3" y="138.398955"/>
     <use style="fill:#1f77b4;stroke:#1f77b4;stroke-linejoin:miter;" x="1227.628458" xlink:href="#md12cfdcaa3" y="135.789908"/>
     <use style="fill:#1f77b4;stroke:#1f77b4;stroke-linejoin:miter;" x="1236.450593" xlink:href="#md12cfdcaa3" y="132.062699"/>
     <use style="fill:#1f77b4;stroke:#1f77b4;stroke-linejoin:miter;" x="1245.272727" xlink:href="#md12cfdcaa3" y="130.385455"/>
    </g>
   </g>
   <g id="patch_3">
    <path d="M 180 691.2 
L 180 103.68 
" style="fill:none;stroke:#000000;stroke-linecap:square;stroke-linejoin:miter;stroke-width:0.8;"/>
   </g>
   <g id="patch_4">
    <path d="M 1296 691.2 
L 1296 103.68 
" style="fill:none;stroke:#000000;stroke-linecap:square;stroke-linejoin:miter;stroke-width:0.8;"/>
   </g>
   <g id="patch_5">
    <path d="M 180 691.2 
L 1296 691.2 
" style="fill:none;stroke:#000000;stroke-linecap:square;stroke-linejoin:miter;stroke-width:0.8;"/>
   </g>
   <g id="patch_6">
    <path d="M 180 103.68 
L 1296 103.68 
" style="fill:none;stroke:#000000;stroke-linecap:square;stroke-linejoin:miter;stroke-width:0.8;"/>
   </g>
   <g id="text_19">
    <!-- Canada BC Confirmed Cases -->
    <defs>
     <path d="M 64.40625 67.28125 
L 64.40625 56.890625 
Q 59.421875 61.53125 53.78125 63.8125 
Q 48.140625 66.109375 41.796875 66.109375 
Q 29.296875 66.109375 22.65625 58.46875 
Q 16.015625 50.828125 16.015625 36.375 
Q 16.015625 21.96875 22.65625 14.328125 
Q 29.296875 6.6875 41.796875 6.6875 
Q 48.140625 6.6875 53.78125 8.984375 
Q 59.421875 11.28125 64.40625 15.921875 
L 64.40625 5.609375 
Q 59.234375 2.09375 53.4375 0.328125 
Q 47.65625 -1.421875 41.21875 -1.421875 
Q 24.65625 -1.421875 15.125 8.703125 
Q 5.609375 18.84375 5.609375 36.375 
Q 5.609375 53.953125 15.125 64.078125 
Q 24.65625 74.21875 41.21875 74.21875 
Q 47.75 74.21875 53.53125 72.484375 
Q 59.328125 70.75 64.40625 67.28125 
z
" id="DejaVuSans-67"/>
     <path d="M 34.28125 27.484375 
Q 23.390625 27.484375 19.1875 25 
Q 14.984375 22.515625 14.984375 16.5 
Q 14.984375 11.71875 18.140625 8.90625 
Q 21.296875 6.109375 26.703125 6.109375 
Q 34.1875 6.109375 38.703125 11.40625 
Q 43.21875 16.703125 43.21875 25.484375 
L 43.21875 27.484375 
z
M 52.203125 31.203125 
L 52.203125 0 
L 43.21875 0 
L 43.21875 8.296875 
Q 40.140625 3.328125 35.546875 0.953125 
Q 30.953125 -1.421875 24.3125 -1.421875 
Q 15.921875 -1.421875 10.953125 3.296875 
Q 6 8.015625 6 15.921875 
Q 6 25.140625 12.171875 29.828125 
Q 18.359375 34.515625 30.609375 34.515625 
L 43.21875 34.515625 
L 43.21875 35.40625 
Q 43.21875 41.609375 39.140625 45 
Q 35.0625 48.390625 27.6875 48.390625 
Q 23 48.390625 18.546875 47.265625 
Q 14.109375 46.140625 10.015625 43.890625 
L 10.015625 52.203125 
Q 14.9375 54.109375 19.578125 55.046875 
Q 24.21875 56 28.609375 56 
Q 40.484375 56 46.34375 49.84375 
Q 52.203125 43.703125 52.203125 31.203125 
z
" id="DejaVuSans-97"/>
     <path d="M 54.890625 33.015625 
L 54.890625 0 
L 45.90625 0 
L 45.90625 32.71875 
Q 45.90625 40.484375 42.875 44.328125 
Q 39.84375 48.1875 33.796875 48.1875 
Q 26.515625 48.1875 22.3125 43.546875 
Q 18.109375 38.921875 18.109375 30.90625 
L 18.109375 0 
L 9.078125 0 
L 9.078125 54.6875 
L 18.109375 54.6875 
L 18.109375 46.1875 
Q 21.34375 51.125 25.703125 53.5625 
Q 30.078125 56 35.796875 56 
Q 45.21875 56 50.046875 50.171875 
Q 54.890625 44.34375 54.890625 33.015625 
z
" id="DejaVuSans-110"/>
     <path d="M 45.40625 46.390625 
L 45.40625 75.984375 
L 54.390625 75.984375 
L 54.390625 0 
L 45.40625 0 
L 45.40625 8.203125 
Q 42.578125 3.328125 38.25 0.953125 
Q 33.9375 -1.421875 27.875 -1.421875 
Q 17.96875 -1.421875 11.734375 6.484375 
Q 5.515625 14.40625 5.515625 27.296875 
Q 5.515625 40.1875 11.734375 48.09375 
Q 17.96875 56 27.875 56 
Q 33.9375 56 38.25 53.625 
Q 42.578125 51.265625 45.40625 46.390625 
z
M 14.796875 27.296875 
Q 14.796875 17.390625 18.875 11.75 
Q 22.953125 6.109375 30.078125 6.109375 
Q 37.203125 6.109375 41.296875 11.75 
Q 45.40625 17.390625 45.40625 27.296875 
Q 45.40625 37.203125 41.296875 42.84375 
Q 37.203125 48.484375 30.078125 48.484375 
Q 22.953125 48.484375 18.875 42.84375 
Q 14.796875 37.203125 14.796875 27.296875 
z
" id="DejaVuSans-100"/>
     <path id="DejaVuSans-32"/>
     <path d="M 19.671875 34.8125 
L 19.671875 8.109375 
L 35.5 8.109375 
Q 43.453125 8.109375 47.28125 11.40625 
Q 51.125 14.703125 51.125 21.484375 
Q 51.125 28.328125 47.28125 31.5625 
Q 43.453125 34.8125 35.5 34.8125 
z
M 19.671875 64.796875 
L 19.671875 42.828125 
L 34.28125 42.828125 
Q 41.5 42.828125 45.03125 45.53125 
Q 48.578125 48.25 48.578125 53.8125 
Q 48.578125 59.328125 45.03125 62.0625 
Q 41.5 64.796875 34.28125 64.796875 
z
M 9.8125 72.90625 
L 35.015625 72.90625 
Q 46.296875 72.90625 52.390625 68.21875 
Q 58.5 63.53125 58.5 54.890625 
Q 58.5 48.1875 55.375 44.234375 
Q 52.25 40.28125 46.1875 39.3125 
Q 53.46875 37.75 57.5 32.78125 
Q 61.53125 27.828125 61.53125 20.40625 
Q 61.53125 10.640625 54.890625 5.3125 
Q 48.25 0 35.984375 0 
L 9.8125 0 
z
" id="DejaVuSans-66"/>
     <path d="M 30.609375 48.390625 
Q 23.390625 48.390625 19.1875 42.75 
Q 14.984375 37.109375 14.984375 27.296875 
Q 14.984375 17.484375 19.15625 11.84375 
Q 23.34375 6.203125 30.609375 6.203125 
Q 37.796875 6.203125 41.984375 11.859375 
Q 46.1875 17.53125 46.1875 27.296875 
Q 46.1875 37.015625 41.984375 42.703125 
Q 37.796875 48.390625 30.609375 48.390625 
z
M 30.609375 56 
Q 42.328125 56 49.015625 48.375 
Q 55.71875 40.765625 55.71875 27.296875 
Q 55.71875 13.875 49.015625 6.21875 
Q 42.328125 -1.421875 30.609375 -1.421875 
Q 18.84375 -1.421875 12.171875 6.21875 
Q 5.515625 13.875 5.515625 27.296875 
Q 5.515625 40.765625 12.171875 48.375 
Q 18.84375 56 30.609375 56 
z
" id="DejaVuSans-111"/>
     <path d="M 37.109375 75.984375 
L 37.109375 68.5 
L 28.515625 68.5 
Q 23.6875 68.5 21.796875 66.546875 
Q 19.921875 64.59375 19.921875 59.515625 
L 19.921875 54.6875 
L 34.71875 54.6875 
L 34.71875 47.703125 
L 19.921875 47.703125 
L 19.921875 0 
L 10.890625 0 
L 10.890625 47.703125 
L 2.296875 47.703125 
L 2.296875 54.6875 
L 10.890625 54.6875 
L 10.890625 58.5 
Q 10.890625 67.625 15.140625 71.796875 
Q 19.390625 75.984375 28.609375 75.984375 
z
" id="DejaVuSans-102"/>
     <path d="M 9.421875 54.6875 
L 18.40625 54.6875 
L 18.40625 0 
L 9.421875 0 
z
M 9.421875 75.984375 
L 18.40625 75.984375 
L 18.40625 64.59375 
L 9.421875 64.59375 
z
" id="DejaVuSans-105"/>
     <path d="M 41.109375 46.296875 
Q 39.59375 47.171875 37.8125 47.578125 
Q 36.03125 48 33.890625 48 
Q 26.265625 48 22.1875 43.046875 
Q 18.109375 38.09375 18.109375 28.8125 
L 18.109375 0 
L 9.078125 0 
L 9.078125 54.6875 
L 18.109375 54.6875 
L 18.109375 46.1875 
Q 20.953125 51.171875 25.484375 53.578125 
Q 30.03125 56 36.53125 56 
Q 37.453125 56 38.578125 55.875 
Q 39.703125 55.765625 41.0625 55.515625 
z
" id="DejaVuSans-114"/>
     <path d="M 52 44.1875 
Q 55.375 50.25 60.0625 53.125 
Q 64.75 56 71.09375 56 
Q 79.640625 56 84.28125 50.015625 
Q 88.921875 44.046875 88.921875 33.015625 
L 88.921875 0 
L 79.890625 0 
L 79.890625 32.71875 
Q 79.890625 40.578125 77.09375 44.375 
Q 74.3125 48.1875 68.609375 48.1875 
Q 61.625 48.1875 57.5625 43.546875 
Q 53.515625 38.921875 53.515625 30.90625 
L 53.515625 0 
L 44.484375 0 
L 44.484375 32.71875 
Q 44.484375 40.625 41.703125 44.40625 
Q 38.921875 48.1875 33.109375 48.1875 
Q 26.21875 48.1875 22.15625 43.53125 
Q 18.109375 38.875 18.109375 30.90625 
L 18.109375 0 
L 9.078125 0 
L 9.078125 54.6875 
L 18.109375 54.6875 
L 18.109375 46.1875 
Q 21.1875 51.21875 25.484375 53.609375 
Q 29.78125 56 35.6875 56 
Q 41.65625 56 45.828125 52.96875 
Q 50 49.953125 52 44.1875 
z
" id="DejaVuSans-109"/>
     <path d="M 56.203125 29.59375 
L 56.203125 25.203125 
L 14.890625 25.203125 
Q 15.484375 15.921875 20.484375 11.0625 
Q 25.484375 6.203125 34.421875 6.203125 
Q 39.59375 6.203125 44.453125 7.46875 
Q 49.3125 8.734375 54.109375 11.28125 
L 54.109375 2.78125 
Q 49.265625 0.734375 44.1875 -0.34375 
Q 39.109375 -1.421875 33.890625 -1.421875 
Q 20.796875 -1.421875 13.15625 6.1875 
Q 5.515625 13.8125 5.515625 26.8125 
Q 5.515625 40.234375 12.765625 48.109375 
Q 20.015625 56 32.328125 56 
Q 43.359375 56 49.78125 48.890625 
Q 56.203125 41.796875 56.203125 29.59375 
z
M 47.21875 32.234375 
Q 47.125 39.59375 43.09375 43.984375 
Q 39.0625 48.390625 32.421875 48.390625 
Q 24.90625 48.390625 20.390625 44.140625 
Q 15.875 39.890625 15.1875 32.171875 
z
" id="DejaVuSans-101"/>
     <path d="M 44.28125 53.078125 
L 44.28125 44.578125 
Q 40.484375 46.53125 36.375 47.5 
Q 32.28125 48.484375 27.875 48.484375 
Q 21.1875 48.484375 17.84375 46.4375 
Q 14.5 44.390625 14.5 40.28125 
Q 14.5 37.15625 16.890625 35.375 
Q 19.28125 33.59375 26.515625 31.984375 
L 29.59375 31.296875 
Q 39.15625 29.25 43.1875 25.515625 
Q 47.21875 21.78125 47.21875 15.09375 
Q 47.21875 7.46875 41.1875 3.015625 
Q 35.15625 -1.421875 24.609375 -1.421875 
Q 20.21875 -1.421875 15.453125 -0.5625 
Q 10.6875 0.296875 5.421875 2 
L 5.421875 11.28125 
Q 10.40625 8.6875 15.234375 7.390625 
Q 20.0625 6.109375 24.8125 6.109375 
Q 31.15625 6.109375 34.5625 8.28125 
Q 37.984375 10.453125 37.984375 14.40625 
Q 37.984375 18.0625 35.515625 20.015625 
Q 33.0625 21.96875 24.703125 23.78125 
L 21.578125 24.515625 
Q 13.234375 26.265625 9.515625 29.90625 
Q 5.8125 33.546875 5.8125 39.890625 
Q 5.8125 47.609375 11.28125 51.796875 
Q 16.75 56 26.8125 56 
Q 31.78125 56 36.171875 55.265625 
Q 40.578125 54.546875 44.28125 53.078125 
z
" id="DejaVuSans-115"/>
    </defs>
    <g transform="translate(652.079062 97.68)scale(0.12 -0.12)">
     <use xlink:href="#DejaVuSans-67"/>
     <use x="69.824219" xlink:href="#DejaVuSans-97"/>
     <use x="131.103516" xlink:href="#DejaVuSans-110"/>
     <use x="194.482422" xlink:href="#DejaVuSans-97"/>
     <use x="255.761719" xlink:href="#DejaVuSans-100"/>
     <use x="319.238281" xlink:href="#DejaVuSans-97"/>
     <use x="380.517578" xlink:href="#DejaVuSans-32"/>
     <use x="412.304688" xlink:href="#DejaVuSans-66"/>
     <use x="480.892578" xlink:href="#DejaVuSans-67"/>
     <use x="550.716797" xlink:href="#DejaVuSans-32"/>
     <use x="582.503906" xlink:href="#DejaVuSans-67"/>
     <use x="652.328125" xlink:href="#DejaVuSans-111"/>
     <use x="713.509766" xlink:href="#DejaVuSans-110"/>
     <use x="776.888672" xlink:href="#DejaVuSans-102"/>
     <use x="812.09375" xlink:href="#DejaVuSans-105"/>
     <use x="839.876953" xlink:href="#DejaVuSans-114"/>
     <use x="880.974609" xlink:href="#DejaVuSans-109"/>
     <use x="978.386719" xlink:href="#DejaVuSans-101"/>
     <use x="1039.910156" xlink:href="#DejaVuSans-100"/>
     <use x="1103.386719" xlink:href="#DejaVuSans-32"/>
     <use x="1135.173828" xlink:href="#DejaVuSans-67"/>
     <use x="1204.998047" xlink:href="#DejaVuSans-97"/>
     <use x="1266.277344" xlink:href="#DejaVuSans-115"/>
     <use x="1318.376953" xlink:href="#DejaVuSans-101"/>
     <use x="1379.900391" xlink:href="#DejaVuSans-115"/>
    </g>
   </g>
   <g id="legend_1">
    <g id="patch_7">
     <path d="M 187 125.98 
L 322.842188 125.98 
Q 324.842188 125.98 324.842188 123.98 
L 324.842188 110.68 
Q 324.842188 108.68 322.842188 108.68 
L 187 108.68 
Q 185 108.68 185 110.68 
L 185 123.98 
Q 185 125.98 187 125.98 
z
" style="fill:#ffffff;opacity:0.8;stroke:#cccccc;stroke-linejoin:miter;"/>
    </g>
    <g id="line2d_34">
     <path d="M 189 117.139375 
L 209 117.139375 
" style="fill:none;stroke:#1f77b4;stroke-dasharray:5.55,2.4;stroke-dashoffset:0;stroke-width:1.5;"/>
    </g>
    <g id="line2d_35">
     <g>
      <use style="fill:#1f77b4;stroke:#1f77b4;stroke-linejoin:miter;" x="199" xlink:href="#md12cfdcaa3" y="117.139375"/>
     </g>
    </g>
    <g id="text_20">
     <!-- British Columbia: 2878 -->
     <defs>
      <path d="M 7.59375 79.59375 
L 14.5 79.59375 
L 14.5 49.59375 
Q 22.703125 60.5 34.40625 60.5 
Q 40.40625 60.5 45.203125 57.25 
Q 50 54 52 48.75 
Q 54 43.5 54 33.296875 
L 54 6 
L 47.09375 6 
L 47.09375 31.296875 
Q 47.09375 39.5 46.59375 42.59375 
Q 46.09375 45.703125 44.390625 48.5 
Q 42.703125 51.296875 39.84375 52.75 
Q 37 54.203125 32.953125 54.203125 
Q 28.90625 54.203125 25.203125 52.296875 
Q 21.5 50.40625 18.890625 47 
Q 16.296875 43.59375 15.390625 40 
Q 14.5 36.40625 14.5 25.5 
L 14.5 6 
L 7.59375 6 
z
" id="STHeitiTC-Light-104"/>
      <path d="M 6.59375 79.59375 
L 13.40625 79.59375 
L 13.40625 6 
L 6.59375 6 
z
" id="STHeitiTC-Light-108"/>
      <path d="M 53.203125 6 
L 46.296875 6 
L 46.296875 15.5 
Q 38.09375 4.59375 26.40625 4.59375 
Q 20.40625 4.59375 15.59375 7.84375 
Q 10.796875 11.09375 8.796875 16.34375 
Q 6.796875 21.59375 6.796875 31.796875 
L 6.796875 59.09375 
L 13.59375 59.09375 
L 13.59375 33.796875 
Q 13.59375 24.5 14.4375 21.203125 
Q 15.296875 17.90625 17.046875 15.59375 
Q 18.796875 13.296875 21.5 12.09375 
Q 24.203125 10.90625 28.046875 10.90625 
Q 31.90625 10.90625 35.59375 12.796875 
Q 39.296875 14.703125 41.890625 18.09375 
Q 44.5 21.5 45.390625 25.09375 
Q 46.296875 28.703125 46.296875 39.59375 
L 46.296875 59.09375 
L 53.203125 59.09375 
z
" id="STHeitiTC-Light-117"/>
      <path d="M 8.09375 6 
L 8.09375 79.59375 
L 14.796875 79.59375 
L 14.796875 50 
Q 23.5 60.5 36.09375 60.5 
Q 47.5 60.5 55.453125 52.25 
Q 63.40625 44 63.40625 32.390625 
Q 63.40625 20.796875 55.296875 12.5 
Q 47.203125 4.203125 35.90625 4.203125 
Q 23.296875 4.203125 14.796875 15.796875 
L 14.796875 6 
z
M 14.40625 32.90625 
Q 14.40625 23.59375 20.5 17.1875 
Q 26.59375 10.796875 35.390625 10.796875 
Q 44.203125 10.796875 50.34375 17.296875 
Q 56.5 23.796875 56.5 32.546875 
Q 56.5 41.296875 50.5 47.796875 
Q 44.5 54.296875 35.5 54.296875 
Q 26.5 54.296875 20.453125 48.1875 
Q 14.40625 42.09375 14.40625 32.90625 
z
" id="STHeitiTC-Light-98"/>
      <path d="M 9.09375 54.40625 
Q 9.09375 56.90625 10.890625 58.703125 
Q 12.703125 60.5 15.140625 60.5 
Q 17.59375 60.5 19.34375 58.75 
Q 21.09375 57 21.09375 54.453125 
Q 21.09375 51.90625 19.390625 50.15625 
Q 17.703125 48.40625 15.140625 48.40625 
Q 12.59375 48.40625 10.84375 50.15625 
Q 9.09375 51.90625 9.09375 54.40625 
z
M 9.09375 10.703125 
Q 9.09375 13.203125 10.890625 14.953125 
Q 12.703125 16.703125 15.140625 16.703125 
Q 17.59375 16.703125 19.34375 14.953125 
Q 21.09375 13.203125 21.09375 10.640625 
Q 21.09375 8.09375 19.34375 6.34375 
Q 17.59375 4.59375 15.140625 4.59375 
Q 12.703125 4.59375 10.890625 6.390625 
Q 9.09375 8.203125 9.09375 10.703125 
z
" id="STHeitiTC-Light-58"/>
      <path d="M 11.59375 55.296875 
L 4.703125 55.296875 
Q 5.203125 66.296875 12 72.9375 
Q 18.796875 79.59375 28.4375 79.59375 
Q 38.09375 79.59375 44.4375 73.34375 
Q 50.796875 67.09375 50.796875 58.09375 
Q 50.796875 51.40625 47.25 45.703125 
Q 43.703125 40 36.5 32.203125 
L 18.59375 12.90625 
L 51.796875 12.90625 
L 51.796875 6 
L 3 6 
L 30.40625 35.59375 
Q 37.59375 43.40625 40.6875 47.90625 
Q 43.796875 52.40625 43.796875 58.203125 
Q 43.796875 64 39.25 68.390625 
Q 34.703125 72.796875 27.953125 72.796875 
Q 21.203125 72.796875 16.75 68.25 
Q 12.296875 63.703125 11.59375 55.296875 
z
" id="STHeitiTC-Light-50"/>
      <path d="M 38.40625 45.40625 
Q 52 38.703125 52 26.59375 
Q 52 17 45.25 10.59375 
Q 38.5 4.203125 27.546875 4.203125 
Q 16.59375 4.203125 10 10.59375 
Q 3.40625 17 3.40625 26 
Q 3.40625 38.59375 17.296875 45.40625 
Q 6.796875 51 6.796875 60.90625 
Q 6.796875 68.296875 12.9375 73.9375 
Q 19.09375 79.59375 27.796875 79.59375 
Q 36.5 79.59375 42.59375 74.09375 
Q 48.703125 68.59375 48.703125 60.703125 
Q 48.703125 51.09375 38.40625 45.40625 
z
M 41.5 61 
Q 41.5 65.796875 37.75 69.25 
Q 34 72.703125 27.953125 72.703125 
Q 21.90625 72.703125 18 69.25 
Q 14.09375 65.796875 14.09375 60.890625 
Q 14.09375 56 18.34375 52.140625 
Q 22.59375 48.296875 28 48.296875 
Q 33.40625 48.296875 37.453125 52.09375 
Q 41.5 55.90625 41.5 61 
z
M 44.796875 26.5 
Q 44.796875 32.59375 39.84375 37.1875 
Q 34.90625 41.796875 27.84375 41.796875 
Q 20.796875 41.796875 15.6875 37.046875 
Q 10.59375 32.296875 10.59375 25.84375 
Q 10.59375 19.40625 15.296875 15.203125 
Q 20 11 27.59375 11 
Q 35.203125 11 40 15.5 
Q 44.796875 20 44.796875 26.5 
z
" id="STHeitiTC-Light-56"/>
      <path d="M 7.203125 77.796875 
L 52.703125 77.796875 
L 14.296875 4.203125 
L 8.40625 7.203125 
L 41.59375 71 
L 7.203125 71 
z
" id="STHeitiTC-Light-55"/>
     </defs>
     <g transform="translate(217 120.639375)scale(0.1 -0.1)">
      <use xlink:href="#STHeitiTC-Light-66"/>
      <use x="57.399994" xlink:href="#STHeitiTC-Light-114"/>
      <use x="87.499985" xlink:href="#STHeitiTC-Light-105"/>
      <use x="107.499969" xlink:href="#STHeitiTC-Light-116"/>
      <use x="141.399963" xlink:href="#STHeitiTC-Light-105"/>
      <use x="161.399948" xlink:href="#STHeitiTC-Light-115"/>
      <use x="200.199936" xlink:href="#STHeitiTC-Light-104"/>
      <use x="261.199921" xlink:href="#STHeitiTC-Light-32"/>
      <use x="286.199905" xlink:href="#STHeitiTC-Light-67"/>
      <use x="367.499893" xlink:href="#STHeitiTC-Light-111"/>
      <use x="432.999878" xlink:href="#STHeitiTC-Light-108"/>
      <use x="452.999863" xlink:href="#STHeitiTC-Light-117"/>
      <use x="513.79985" xlink:href="#STHeitiTC-Light-109"/>
      <use x="607.599838" xlink:href="#STHeitiTC-Light-98"/>
      <use x="675.79982" xlink:href="#STHeitiTC-Light-105"/>
      <use x="695.799805" xlink:href="#STHeitiTC-Light-97"/>
      <use x="764.099792" xlink:href="#STHeitiTC-Light-58"/>
      <use x="791.799789" xlink:href="#STHeitiTC-Light-32"/>
      <use x="816.799774" xlink:href="#STHeitiTC-Light-50"/>
      <use x="872.199768" xlink:href="#STHeitiTC-Light-56"/>
      <use x="927.599762" xlink:href="#STHeitiTC-Light-55"/>
      <use x="982.999756" xlink:href="#STHeitiTC-Light-56"/>
     </g>
    </g>
   </g>
  </g>
 </g>
 <defs>
  <clipPath id="p279aaf51b3">
   <rect height="587.52" width="1116" x="180" y="103.68"/>
  </clipPath>
 </defs>
</svg>
