<?xml version="1.0" encoding="utf-8" standalone="no"?>
<!DOCTYPE svg PUBLIC "-//W3C//DTD SVG 1.1//EN"
  "http://www.w3.org/Graphics/SVG/1.1/DTD/svg11.dtd">
<!-- Created with matplotlib (https://matplotlib.org/) -->
<svg height="720pt" version="1.1" viewBox="0 0 1440 720" width="1440pt" xmlns="http://www.w3.org/2000/svg" xmlns:xlink="http://www.w3.org/1999/xlink">
 <defs>
  <style type="text/css">
*{stroke-linecap:butt;stroke-linejoin:round;}
  </style>
 </defs>
 <g id="figure_1">
  <g id="patch_1">
   <path d="M 0 720 
L 1440 720 
L 1440 0 
L 0 0 
z
" style="fill:#ffffff;"/>
  </g>
  <g id="axes_1">
   <g id="patch_2">
    <path d="M 180 640.8 
L 1296 640.8 
L 1296 86.4 
L 180 86.4 
z
" style="fill:#ffffff;"/>
   </g>
   <g id="PathCollection_1">
    <defs>
     <path d="M 0 3 
C 0.795609 3 1.55874 2.683901 2.12132 2.12132 
C 2.683901 1.55874 3 0.795609 3 0 
C 3 -0.795609 2.683901 -1.55874 2.12132 -2.12132 
C 1.55874 -2.683901 0.795609 -3 0 -3 
C -0.795609 -3 -1.55874 -2.683901 -2.12132 -2.12132 
C -2.683901 -1.55874 -3 -0.795609 -3 0 
C -3 0.795609 -2.683901 1.55874 -2.12132 2.12132 
C -1.55874 2.683901 -0.795609 3 0 3 
z
" id="me89c13c740" style="stroke:#1f77b4;"/>
    </defs>
    <g clip-path="url(#p211582130c)">
     <use style="fill:#1f77b4;stroke:#1f77b4;" x="1194.525215" xlink:href="#me89c13c740" y="111.663064"/>
     <use style="fill:#1f77b4;stroke:#1f77b4;" x="1143.798955" xlink:href="#me89c13c740" y="127.849416"/>
     <use style="fill:#1f77b4;stroke:#1f77b4;" x="1093.072694" xlink:href="#me89c13c740" y="144.035769"/>
     <use style="fill:#1f77b4;stroke:#1f77b4;" x="1042.346433" xlink:href="#me89c13c740" y="176.408475"/>
     <use style="fill:#1f77b4;stroke:#1f77b4;" x="991.620172" xlink:href="#me89c13c740" y="176.408475"/>
     <use style="fill:#1f77b4;stroke:#1f77b4;" x="940.893912" xlink:href="#me89c13c740" y="160.222122"/>
     <use style="fill:#1f77b4;stroke:#1f77b4;" x="890.167651" xlink:href="#me89c13c740" y="192.594828"/>
     <use style="fill:#1f77b4;stroke:#1f77b4;" x="839.44139" xlink:href="#me89c13c740" y="224.967533"/>
     <use style="fill:#1f77b4;stroke:#1f77b4;" x="737.988868" xlink:href="#me89c13c740" y="305.899297"/>
     <use style="fill:#1f77b4;stroke:#1f77b4;" x="687.262608" xlink:href="#me89c13c740" y="322.08565"/>
     <use style="fill:#1f77b4;stroke:#1f77b4;" x="636.536347" xlink:href="#me89c13c740" y="370.644708"/>
     <use style="fill:#1f77b4;stroke:#1f77b4;" x="585.810086" xlink:href="#me89c13c740" y="386.831061"/>
     <use style="fill:#1f77b4;stroke:#1f77b4;" x="535.083825" xlink:href="#me89c13c740" y="451.576472"/>
     <use style="fill:#1f77b4;stroke:#1f77b4;" x="484.357565" xlink:href="#me89c13c740" y="483.949178"/>
     <use style="fill:#1f77b4;stroke:#1f77b4;" x="433.631304" xlink:href="#me89c13c740" y="516.321883"/>
     <use style="fill:#1f77b4;stroke:#1f77b4;" x="382.905043" xlink:href="#me89c13c740" y="516.321883"/>
     <use style="fill:#1f77b4;stroke:#1f77b4;" x="332.178782" xlink:href="#me89c13c740" y="548.694589"/>
     <use style="fill:#1f77b4;stroke:#1f77b4;" x="281.452522" xlink:href="#me89c13c740" y="597.253647"/>
     <use style="fill:#1f77b4;stroke:#1f77b4;" x="230.726261" xlink:href="#me89c13c740" y="613.44"/>
     <use style="fill:#1f77b4;stroke:#1f77b4;" x="180" xlink:href="#me89c13c740" y="613.44"/>
    </g>
   </g>
   <g id="PathCollection_2">
    <defs>
     <path d="M 0 3 
C 0.795609 3 1.55874 2.683901 2.12132 2.12132 
C 2.683901 1.55874 3 0.795609 3 0 
C 3 -0.795609 2.683901 -1.55874 2.12132 -2.12132 
C 1.55874 -2.683901 0.795609 -3 0 -3 
C -0.795609 -3 -1.55874 -2.683901 -2.12132 -2.12132 
C -2.683901 -1.55874 -3 -0.795609 -3 0 
C -3 0.795609 -2.683901 1.55874 -2.12132 2.12132 
C -1.55874 2.683901 -0.795609 3 0 3 
z
" id="maaacbbf6e3" style="stroke:#ff7f0e;"/>
    </defs>
    <g clip-path="url(#p211582130c)">
     <use style="fill:#ff7f0e;stroke:#ff7f0e;" x="1194.525215" xlink:href="#maaacbbf6e3" y="273.526592"/>
     <use style="fill:#ff7f0e;stroke:#ff7f0e;" x="1143.798955" xlink:href="#maaacbbf6e3" y="322.08565"/>
     <use style="fill:#ff7f0e;stroke:#ff7f0e;" x="1093.072694" xlink:href="#maaacbbf6e3" y="386.831061"/>
     <use style="fill:#ff7f0e;stroke:#ff7f0e;" x="1042.346433" xlink:href="#maaacbbf6e3" y="419.203767"/>
     <use style="fill:#ff7f0e;stroke:#ff7f0e;" x="991.620172" xlink:href="#maaacbbf6e3" y="467.762825"/>
     <use style="fill:#ff7f0e;stroke:#ff7f0e;" x="940.893912" xlink:href="#maaacbbf6e3" y="483.949178"/>
     <use style="fill:#ff7f0e;stroke:#ff7f0e;" x="890.167651" xlink:href="#maaacbbf6e3" y="483.949178"/>
     <use style="fill:#ff7f0e;stroke:#ff7f0e;" x="839.44139" xlink:href="#maaacbbf6e3" y="500.135531"/>
     <use style="fill:#ff7f0e;stroke:#ff7f0e;" x="737.988868" xlink:href="#maaacbbf6e3" y="516.321883"/>
     <use style="fill:#ff7f0e;stroke:#ff7f0e;" x="687.262608" xlink:href="#maaacbbf6e3" y="516.321883"/>
     <use style="fill:#ff7f0e;stroke:#ff7f0e;" x="636.536347" xlink:href="#maaacbbf6e3" y="516.321883"/>
     <use style="fill:#ff7f0e;stroke:#ff7f0e;" x="585.810086" xlink:href="#maaacbbf6e3" y="532.508236"/>
     <use style="fill:#ff7f0e;stroke:#ff7f0e;" x="535.083825" xlink:href="#maaacbbf6e3" y="548.694589"/>
     <use style="fill:#ff7f0e;stroke:#ff7f0e;" x="484.357565" xlink:href="#maaacbbf6e3" y="548.694589"/>
     <use style="fill:#ff7f0e;stroke:#ff7f0e;" x="433.631304" xlink:href="#maaacbbf6e3" y="581.067294"/>
     <use style="fill:#ff7f0e;stroke:#ff7f0e;" x="382.905043" xlink:href="#maaacbbf6e3" y="597.253647"/>
    </g>
   </g>
   <g id="PathCollection_3">
    <defs>
     <path d="M 0 3 
C 0.795609 3 1.55874 2.683901 2.12132 2.12132 
C 2.683901 1.55874 3 0.795609 3 0 
C 3 -0.795609 2.683901 -1.55874 2.12132 -2.12132 
C 1.55874 -2.683901 0.795609 -3 0 -3 
C -0.795609 -3 -1.55874 -2.683901 -2.12132 -2.12132 
C -2.683901 -1.55874 -3 -0.795609 -3 0 
C -3 0.795609 -2.683901 1.55874 -2.12132 2.12132 
C -1.55874 2.683901 -0.795609 3 0 3 
z
" id="meaed475f47" style="stroke:#2ca02c;"/>
    </defs>
    <g clip-path="url(#p211582130c)">
     <use style="fill:#2ca02c;stroke:#2ca02c;" x="1194.525215" xlink:href="#meaed475f47" y="548.694589"/>
     <use style="fill:#2ca02c;stroke:#2ca02c;" x="1143.798955" xlink:href="#meaed475f47" y="581.067294"/>
     <use style="fill:#2ca02c;stroke:#2ca02c;" x="1093.072694" xlink:href="#meaed475f47" y="581.067294"/>
     <use style="fill:#2ca02c;stroke:#2ca02c;" x="1042.346433" xlink:href="#meaed475f47" y="581.067294"/>
     <use style="fill:#2ca02c;stroke:#2ca02c;" x="991.620172" xlink:href="#meaed475f47" y="597.253647"/>
     <use style="fill:#2ca02c;stroke:#2ca02c;" x="940.893912" xlink:href="#meaed475f47" y="597.253647"/>
     <use style="fill:#2ca02c;stroke:#2ca02c;" x="890.167651" xlink:href="#meaed475f47" y="597.253647"/>
     <use style="fill:#2ca02c;stroke:#2ca02c;" x="839.44139" xlink:href="#meaed475f47" y="597.253647"/>
     <use style="fill:#2ca02c;stroke:#2ca02c;" x="737.988868" xlink:href="#meaed475f47" y="597.253647"/>
     <use style="fill:#2ca02c;stroke:#2ca02c;" x="687.262608" xlink:href="#meaed475f47" y="597.253647"/>
     <use style="fill:#2ca02c;stroke:#2ca02c;" x="636.536347" xlink:href="#meaed475f47" y="597.253647"/>
     <use style="fill:#2ca02c;stroke:#2ca02c;" x="585.810086" xlink:href="#meaed475f47" y="597.253647"/>
     <use style="fill:#2ca02c;stroke:#2ca02c;" x="535.083825" xlink:href="#meaed475f47" y="597.253647"/>
     <use style="fill:#2ca02c;stroke:#2ca02c;" x="484.357565" xlink:href="#meaed475f47" y="613.44"/>
     <use style="fill:#2ca02c;stroke:#2ca02c;" x="433.631304" xlink:href="#meaed475f47" y="613.44"/>
     <use style="fill:#2ca02c;stroke:#2ca02c;" x="382.905043" xlink:href="#meaed475f47" y="613.44"/>
     <use style="fill:#2ca02c;stroke:#2ca02c;" x="332.178782" xlink:href="#meaed475f47" y="613.44"/>
     <use style="fill:#2ca02c;stroke:#2ca02c;" x="281.452522" xlink:href="#meaed475f47" y="613.44"/>
     <use style="fill:#2ca02c;stroke:#2ca02c;" x="230.726261" xlink:href="#meaed475f47" y="613.44"/>
    </g>
   </g>
   <g id="PathCollection_4">
    <defs>
     <path d="M 0 3 
C 0.795609 3 1.55874 2.683901 2.12132 2.12132 
C 2.683901 1.55874 3 0.795609 3 0 
C 3 -0.795609 2.683901 -1.55874 2.12132 -2.12132 
C 1.55874 -2.683901 0.795609 -3 0 -3 
C -0.795609 -3 -1.55874 -2.683901 -2.12132 -2.12132 
C -2.683901 -1.55874 -3 -0.795609 -3 0 
C -3 0.795609 -2.683901 1.55874 -2.12132 2.12132 
C -1.55874 2.683901 -0.795609 3 0 3 
z
" id="m68afa865fe" style="stroke:#d62728;"/>
    </defs>
    <g clip-path="url(#p211582130c)">
     <use style="fill:#d62728;stroke:#d62728;" x="1194.525215" xlink:href="#m68afa865fe" y="581.067294"/>
     <use style="fill:#d62728;stroke:#d62728;" x="1143.798955" xlink:href="#m68afa865fe" y="581.067294"/>
     <use style="fill:#d62728;stroke:#d62728;" x="1093.072694" xlink:href="#m68afa865fe" y="581.067294"/>
     <use style="fill:#d62728;stroke:#d62728;" x="1042.346433" xlink:href="#m68afa865fe" y="581.067294"/>
     <use style="fill:#d62728;stroke:#d62728;" x="991.620172" xlink:href="#m68afa865fe" y="581.067294"/>
     <use style="fill:#d62728;stroke:#d62728;" x="940.893912" xlink:href="#m68afa865fe" y="581.067294"/>
     <use style="fill:#d62728;stroke:#d62728;" x="890.167651" xlink:href="#m68afa865fe" y="581.067294"/>
     <use style="fill:#d62728;stroke:#d62728;" x="839.44139" xlink:href="#m68afa865fe" y="581.067294"/>
     <use style="fill:#d62728;stroke:#d62728;" x="737.988868" xlink:href="#m68afa865fe" y="581.067294"/>
     <use style="fill:#d62728;stroke:#d62728;" x="687.262608" xlink:href="#m68afa865fe" y="597.253647"/>
     <use style="fill:#d62728;stroke:#d62728;" x="636.536347" xlink:href="#m68afa865fe" y="597.253647"/>
     <use style="fill:#d62728;stroke:#d62728;" x="585.810086" xlink:href="#m68afa865fe" y="597.253647"/>
     <use style="fill:#d62728;stroke:#d62728;" x="535.083825" xlink:href="#m68afa865fe" y="597.253647"/>
     <use style="fill:#d62728;stroke:#d62728;" x="484.357565" xlink:href="#m68afa865fe" y="613.44"/>
     <use style="fill:#d62728;stroke:#d62728;" x="433.631304" xlink:href="#m68afa865fe" y="613.44"/>
     <use style="fill:#d62728;stroke:#d62728;" x="382.905043" xlink:href="#m68afa865fe" y="613.44"/>
     <use style="fill:#d62728;stroke:#d62728;" x="332.178782" xlink:href="#m68afa865fe" y="613.44"/>
     <use style="fill:#d62728;stroke:#d62728;" x="281.452522" xlink:href="#m68afa865fe" y="613.44"/>
     <use style="fill:#d62728;stroke:#d62728;" x="230.726261" xlink:href="#m68afa865fe" y="613.44"/>
     <use style="fill:#d62728;stroke:#d62728;" x="180" xlink:href="#m68afa865fe" y="613.44"/>
    </g>
   </g>
   <g id="PathCollection_5">
    <defs>
     <path d="M 0 3 
C 0.795609 3 1.55874 2.683901 2.12132 2.12132 
C 2.683901 1.55874 3 0.795609 3 0 
C 3 -0.795609 2.683901 -1.55874 2.12132 -2.12132 
C 1.55874 -2.683901 0.795609 -3 0 -3 
C -0.795609 -3 -1.55874 -2.683901 -2.12132 -2.12132 
C -2.683901 -1.55874 -3 -0.795609 -3 0 
C -3 0.795609 -2.683901 1.55874 -2.12132 2.12132 
C -1.55874 2.683901 -0.795609 3 0 3 
z
" id="m36f8a682b4" style="stroke:#9467bd;"/>
    </defs>
    <g clip-path="url(#p211582130c)">
     <use style="fill:#9467bd;stroke:#9467bd;" x="1194.525215" xlink:href="#m36f8a682b4" y="613.44"/>
     <use style="fill:#9467bd;stroke:#9467bd;" x="1143.798955" xlink:href="#m36f8a682b4" y="613.44"/>
     <use style="fill:#9467bd;stroke:#9467bd;" x="1093.072694" xlink:href="#m36f8a682b4" y="613.44"/>
     <use style="fill:#9467bd;stroke:#9467bd;" x="1042.346433" xlink:href="#m36f8a682b4" y="613.44"/>
     <use style="fill:#9467bd;stroke:#9467bd;" x="991.620172" xlink:href="#m36f8a682b4" y="613.44"/>
     <use style="fill:#9467bd;stroke:#9467bd;" x="484.357565" xlink:href="#m36f8a682b4" y="613.44"/>
    </g>
   </g>
   <g id="PathCollection_6">
    <defs>
     <path d="M 0 3 
C 0.795609 3 1.55874 2.683901 2.12132 2.12132 
C 2.683901 1.55874 3 0.795609 3 0 
C 3 -0.795609 2.683901 -1.55874 2.12132 -2.12132 
C 1.55874 -2.683901 0.795609 -3 0 -3 
C -0.795609 -3 -1.55874 -2.683901 -2.12132 -2.12132 
C -2.683901 -1.55874 -3 -0.795609 -3 0 
C -3 0.795609 -2.683901 1.55874 -2.12132 2.12132 
C -1.55874 2.683901 -0.795609 3 0 3 
z
" id="m9ea5446391" style="stroke:#8c564b;"/>
    </defs>
    <g clip-path="url(#p211582130c)">
     <use style="fill:#8c564b;stroke:#8c564b;" x="1194.525215" xlink:href="#m9ea5446391" y="613.44"/>
     <use style="fill:#8c564b;stroke:#8c564b;" x="1143.798955" xlink:href="#m9ea5446391" y="613.44"/>
     <use style="fill:#8c564b;stroke:#8c564b;" x="1093.072694" xlink:href="#m9ea5446391" y="613.44"/>
     <use style="fill:#8c564b;stroke:#8c564b;" x="1042.346433" xlink:href="#m9ea5446391" y="613.44"/>
     <use style="fill:#8c564b;stroke:#8c564b;" x="991.620172" xlink:href="#m9ea5446391" y="613.44"/>
     <use style="fill:#8c564b;stroke:#8c564b;" x="940.893912" xlink:href="#m9ea5446391" y="613.44"/>
     <use style="fill:#8c564b;stroke:#8c564b;" x="890.167651" xlink:href="#m9ea5446391" y="613.44"/>
     <use style="fill:#8c564b;stroke:#8c564b;" x="839.44139" xlink:href="#m9ea5446391" y="613.44"/>
     <use style="fill:#8c564b;stroke:#8c564b;" x="737.988868" xlink:href="#m9ea5446391" y="613.44"/>
    </g>
   </g>
   <g id="PathCollection_7">
    <defs>
     <path d="M 0 3 
C 0.795609 3 1.55874 2.683901 2.12132 2.12132 
C 2.683901 1.55874 3 0.795609 3 0 
C 3 -0.795609 2.683901 -1.55874 2.12132 -2.12132 
C 1.55874 -2.683901 0.795609 -3 0 -3 
C -0.795609 -3 -1.55874 -2.683901 -2.12132 -2.12132 
C -2.683901 -1.55874 -3 -0.795609 -3 0 
C -3 0.795609 -2.683901 1.55874 -2.12132 2.12132 
C -1.55874 2.683901 -0.795609 3 0 3 
z
" id="m348a61c7ee" style="stroke:#e377c2;"/>
    </defs>
    <g clip-path="url(#p211582130c)">
     <use style="fill:#e377c2;stroke:#e377c2;" x="940.893912" xlink:href="#m348a61c7ee" y="613.44"/>
     <use style="fill:#e377c2;stroke:#e377c2;" x="890.167651" xlink:href="#m348a61c7ee" y="613.44"/>
     <use style="fill:#e377c2;stroke:#e377c2;" x="839.44139" xlink:href="#m348a61c7ee" y="613.44"/>
     <use style="fill:#e377c2;stroke:#e377c2;" x="737.988868" xlink:href="#m348a61c7ee" y="613.44"/>
     <use style="fill:#e377c2;stroke:#e377c2;" x="687.262608" xlink:href="#m348a61c7ee" y="613.44"/>
     <use style="fill:#e377c2;stroke:#e377c2;" x="636.536347" xlink:href="#m348a61c7ee" y="613.44"/>
     <use style="fill:#e377c2;stroke:#e377c2;" x="585.810086" xlink:href="#m348a61c7ee" y="613.44"/>
     <use style="fill:#e377c2;stroke:#e377c2;" x="535.083825" xlink:href="#m348a61c7ee" y="613.44"/>
     <use style="fill:#e377c2;stroke:#e377c2;" x="484.357565" xlink:href="#m348a61c7ee" y="613.44"/>
    </g>
   </g>
   <g id="matplotlib.axis_1">
    <g id="xtick_1">
     <g id="line2d_1">
      <path clip-path="url(#p211582130c)" d="M 180 640.8 
L 180 86.4 
" style="fill:none;stroke:#b0b0b0;stroke-linecap:square;stroke-width:0.8;"/>
     </g>
     <g id="line2d_2">
      <defs>
       <path d="M 0 0 
L 0 3.5 
" id="m62e3f77cd7" style="stroke:#000000;stroke-width:0.8;"/>
      </defs>
      <g>
       <use style="stroke:#000000;stroke-width:0.8;" x="180" xlink:href="#m62e3f77cd7" y="640.8"/>
      </g>
     </g>
     <g id="text_1">
      <!-- 0.0 -->
      <defs>
       <path d="M 31.78125 66.40625 
Q 24.171875 66.40625 20.328125 58.90625 
Q 16.5 51.421875 16.5 36.375 
Q 16.5 21.390625 20.328125 13.890625 
Q 24.171875 6.390625 31.78125 6.390625 
Q 39.453125 6.390625 43.28125 13.890625 
Q 47.125 21.390625 47.125 36.375 
Q 47.125 51.421875 43.28125 58.90625 
Q 39.453125 66.40625 31.78125 66.40625 
z
M 31.78125 74.21875 
Q 44.046875 74.21875 50.515625 64.515625 
Q 56.984375 54.828125 56.984375 36.375 
Q 56.984375 17.96875 50.515625 8.265625 
Q 44.046875 -1.421875 31.78125 -1.421875 
Q 19.53125 -1.421875 13.0625 8.265625 
Q 6.59375 17.96875 6.59375 36.375 
Q 6.59375 54.828125 13.0625 64.515625 
Q 19.53125 74.21875 31.78125 74.21875 
z
" id="DejaVuSans-48"/>
       <path d="M 10.6875 12.40625 
L 21 12.40625 
L 21 0 
L 10.6875 0 
z
" id="DejaVuSans-46"/>
      </defs>
      <g transform="translate(172.048438 655.398438)scale(0.1 -0.1)">
       <use xlink:href="#DejaVuSans-48"/>
       <use x="63.623047" xlink:href="#DejaVuSans-46"/>
       <use x="95.410156" xlink:href="#DejaVuSans-48"/>
      </g>
     </g>
    </g>
    <g id="xtick_2">
     <g id="line2d_3">
      <path clip-path="url(#p211582130c)" d="M 306.815652 640.8 
L 306.815652 86.4 
" style="fill:none;stroke:#b0b0b0;stroke-linecap:square;stroke-width:0.8;"/>
     </g>
     <g id="line2d_4">
      <g>
       <use style="stroke:#000000;stroke-width:0.8;" x="306.815652" xlink:href="#m62e3f77cd7" y="640.8"/>
      </g>
     </g>
     <g id="text_2">
      <!-- 2.5 -->
      <defs>
       <path d="M 19.1875 8.296875 
L 53.609375 8.296875 
L 53.609375 0 
L 7.328125 0 
L 7.328125 8.296875 
Q 12.9375 14.109375 22.625 23.890625 
Q 32.328125 33.6875 34.8125 36.53125 
Q 39.546875 41.84375 41.421875 45.53125 
Q 43.3125 49.21875 43.3125 52.78125 
Q 43.3125 58.59375 39.234375 62.25 
Q 35.15625 65.921875 28.609375 65.921875 
Q 23.96875 65.921875 18.8125 64.3125 
Q 13.671875 62.703125 7.8125 59.421875 
L 7.8125 69.390625 
Q 13.765625 71.78125 18.9375 73 
Q 24.125 74.21875 28.421875 74.21875 
Q 39.75 74.21875 46.484375 68.546875 
Q 53.21875 62.890625 53.21875 53.421875 
Q 53.21875 48.921875 51.53125 44.890625 
Q 49.859375 40.875 45.40625 35.40625 
Q 44.1875 33.984375 37.640625 27.21875 
Q 31.109375 20.453125 19.1875 8.296875 
z
" id="DejaVuSans-50"/>
       <path d="M 10.796875 72.90625 
L 49.515625 72.90625 
L 49.515625 64.59375 
L 19.828125 64.59375 
L 19.828125 46.734375 
Q 21.96875 47.46875 24.109375 47.828125 
Q 26.265625 48.1875 28.421875 48.1875 
Q 40.625 48.1875 47.75 41.5 
Q 54.890625 34.8125 54.890625 23.390625 
Q 54.890625 11.625 47.5625 5.09375 
Q 40.234375 -1.421875 26.90625 -1.421875 
Q 22.3125 -1.421875 17.546875 -0.640625 
Q 12.796875 0.140625 7.71875 1.703125 
L 7.71875 11.625 
Q 12.109375 9.234375 16.796875 8.0625 
Q 21.484375 6.890625 26.703125 6.890625 
Q 35.15625 6.890625 40.078125 11.328125 
Q 45.015625 15.765625 45.015625 23.390625 
Q 45.015625 31 40.078125 35.4375 
Q 35.15625 39.890625 26.703125 39.890625 
Q 22.75 39.890625 18.8125 39.015625 
Q 14.890625 38.140625 10.796875 36.28125 
z
" id="DejaVuSans-53"/>
      </defs>
      <g transform="translate(298.864089 655.398438)scale(0.1 -0.1)">
       <use xlink:href="#DejaVuSans-50"/>
       <use x="63.623047" xlink:href="#DejaVuSans-46"/>
       <use x="95.410156" xlink:href="#DejaVuSans-53"/>
      </g>
     </g>
    </g>
    <g id="xtick_3">
     <g id="line2d_5">
      <path clip-path="url(#p211582130c)" d="M 433.631304 640.8 
L 433.631304 86.4 
" style="fill:none;stroke:#b0b0b0;stroke-linecap:square;stroke-width:0.8;"/>
     </g>
     <g id="line2d_6">
      <g>
       <use style="stroke:#000000;stroke-width:0.8;" x="433.631304" xlink:href="#m62e3f77cd7" y="640.8"/>
      </g>
     </g>
     <g id="text_3">
      <!-- 5.0 -->
      <g transform="translate(425.679741 655.398438)scale(0.1 -0.1)">
       <use xlink:href="#DejaVuSans-53"/>
       <use x="63.623047" xlink:href="#DejaVuSans-46"/>
       <use x="95.410156" xlink:href="#DejaVuSans-48"/>
      </g>
     </g>
    </g>
    <g id="xtick_4">
     <g id="line2d_7">
      <path clip-path="url(#p211582130c)" d="M 560.446956 640.8 
L 560.446956 86.4 
" style="fill:none;stroke:#b0b0b0;stroke-linecap:square;stroke-width:0.8;"/>
     </g>
     <g id="line2d_8">
      <g>
       <use style="stroke:#000000;stroke-width:0.8;" x="560.446956" xlink:href="#m62e3f77cd7" y="640.8"/>
      </g>
     </g>
     <g id="text_4">
      <!-- 7.5 -->
      <defs>
       <path d="M 8.203125 72.90625 
L 55.078125 72.90625 
L 55.078125 68.703125 
L 28.609375 0 
L 18.3125 0 
L 43.21875 64.59375 
L 8.203125 64.59375 
z
" id="DejaVuSans-55"/>
      </defs>
      <g transform="translate(552.495393 655.398438)scale(0.1 -0.1)">
       <use xlink:href="#DejaVuSans-55"/>
       <use x="63.623047" xlink:href="#DejaVuSans-46"/>
       <use x="95.410156" xlink:href="#DejaVuSans-53"/>
      </g>
     </g>
    </g>
    <g id="xtick_5">
     <g id="line2d_9">
      <path clip-path="url(#p211582130c)" d="M 687.262608 640.8 
L 687.262608 86.4 
" style="fill:none;stroke:#b0b0b0;stroke-linecap:square;stroke-width:0.8;"/>
     </g>
     <g id="line2d_10">
      <g>
       <use style="stroke:#000000;stroke-width:0.8;" x="687.262608" xlink:href="#m62e3f77cd7" y="640.8"/>
      </g>
     </g>
     <g id="text_5">
      <!-- 10.0 -->
      <defs>
       <path d="M 12.40625 8.296875 
L 28.515625 8.296875 
L 28.515625 63.921875 
L 10.984375 60.40625 
L 10.984375 69.390625 
L 28.421875 72.90625 
L 38.28125 72.90625 
L 38.28125 8.296875 
L 54.390625 8.296875 
L 54.390625 0 
L 12.40625 0 
z
" id="DejaVuSans-49"/>
      </defs>
      <g transform="translate(676.129795 655.398438)scale(0.1 -0.1)">
       <use xlink:href="#DejaVuSans-49"/>
       <use x="63.623047" xlink:href="#DejaVuSans-48"/>
       <use x="127.246094" xlink:href="#DejaVuSans-46"/>
       <use x="159.033203" xlink:href="#DejaVuSans-48"/>
      </g>
     </g>
    </g>
    <g id="xtick_6">
     <g id="line2d_11">
      <path clip-path="url(#p211582130c)" d="M 814.07826 640.8 
L 814.07826 86.4 
" style="fill:none;stroke:#b0b0b0;stroke-linecap:square;stroke-width:0.8;"/>
     </g>
     <g id="line2d_12">
      <g>
       <use style="stroke:#000000;stroke-width:0.8;" x="814.07826" xlink:href="#m62e3f77cd7" y="640.8"/>
      </g>
     </g>
     <g id="text_6">
      <!-- 12.5 -->
      <g transform="translate(802.945447 655.398438)scale(0.1 -0.1)">
       <use xlink:href="#DejaVuSans-49"/>
       <use x="63.623047" xlink:href="#DejaVuSans-50"/>
       <use x="127.246094" xlink:href="#DejaVuSans-46"/>
       <use x="159.033203" xlink:href="#DejaVuSans-53"/>
      </g>
     </g>
    </g>
    <g id="xtick_7">
     <g id="line2d_13">
      <path clip-path="url(#p211582130c)" d="M 940.893912 640.8 
L 940.893912 86.4 
" style="fill:none;stroke:#b0b0b0;stroke-linecap:square;stroke-width:0.8;"/>
     </g>
     <g id="line2d_14">
      <g>
       <use style="stroke:#000000;stroke-width:0.8;" x="940.893912" xlink:href="#m62e3f77cd7" y="640.8"/>
      </g>
     </g>
     <g id="text_7">
      <!-- 15.0 -->
      <g transform="translate(929.761099 655.398438)scale(0.1 -0.1)">
       <use xlink:href="#DejaVuSans-49"/>
       <use x="63.623047" xlink:href="#DejaVuSans-53"/>
       <use x="127.246094" xlink:href="#DejaVuSans-46"/>
       <use x="159.033203" xlink:href="#DejaVuSans-48"/>
      </g>
     </g>
    </g>
    <g id="xtick_8">
     <g id="line2d_15">
      <path clip-path="url(#p211582130c)" d="M 1067.709563 640.8 
L 1067.709563 86.4 
" style="fill:none;stroke:#b0b0b0;stroke-linecap:square;stroke-width:0.8;"/>
     </g>
     <g id="line2d_16">
      <g>
       <use style="stroke:#000000;stroke-width:0.8;" x="1067.709563" xlink:href="#m62e3f77cd7" y="640.8"/>
      </g>
     </g>
     <g id="text_8">
      <!-- 17.5 -->
      <g transform="translate(1056.576751 655.398438)scale(0.1 -0.1)">
       <use xlink:href="#DejaVuSans-49"/>
       <use x="63.623047" xlink:href="#DejaVuSans-55"/>
       <use x="127.246094" xlink:href="#DejaVuSans-46"/>
       <use x="159.033203" xlink:href="#DejaVuSans-53"/>
      </g>
     </g>
    </g>
    <g id="xtick_9">
     <g id="line2d_17">
      <path clip-path="url(#p211582130c)" d="M 1194.525215 640.8 
L 1194.525215 86.4 
" style="fill:none;stroke:#b0b0b0;stroke-linecap:square;stroke-width:0.8;"/>
     </g>
     <g id="line2d_18">
      <g>
       <use style="stroke:#000000;stroke-width:0.8;" x="1194.525215" xlink:href="#m62e3f77cd7" y="640.8"/>
      </g>
     </g>
     <g id="text_9">
      <!-- 20.0 -->
      <g transform="translate(1183.392403 655.398438)scale(0.1 -0.1)">
       <use xlink:href="#DejaVuSans-50"/>
       <use x="63.623047" xlink:href="#DejaVuSans-48"/>
       <use x="127.246094" xlink:href="#DejaVuSans-46"/>
       <use x="159.033203" xlink:href="#DejaVuSans-48"/>
      </g>
     </g>
    </g>
    <g id="text_10">
     <!-- day from 2020-01-24 00:00:00 -->
     <defs>
      <path d="M 60.59375 79.59375 
L 60.59375 6 
L 53.90625 6 
L 53.90625 15.09375 
Q 44.796875 4.203125 33.046875 4.203125 
Q 21.296875 4.203125 13.296875 12.5 
Q 5.296875 20.796875 5.296875 32.390625 
Q 5.296875 44 13.390625 52.25 
Q 21.5 60.5 32.796875 60.5 
Q 45.796875 60.5 53.90625 49.40625 
L 53.90625 79.59375 
z
M 54.296875 32.203125 
Q 54.296875 41.296875 48.296875 47.59375 
Q 42.296875 53.90625 33.296875 53.90625 
Q 24.296875 53.90625 18.25 47.453125 
Q 12.203125 41 12.203125 32.25 
Q 12.203125 23.5 18.390625 17 
Q 24.59375 10.5 33.046875 10.5 
Q 41.5 10.5 47.890625 16.640625 
Q 54.296875 22.796875 54.296875 32.203125 
z
" id="STHeitiTC-Light-100"/>
      <path d="M 60.5 59.09375 
L 60.5 6 
L 53.796875 6 
L 53.796875 15.09375 
Q 44.703125 4.203125 33 4.203125 
Q 21.296875 4.203125 13.25 12.546875 
Q 5.203125 20.90625 5.203125 32.453125 
Q 5.203125 44 13.296875 52.25 
Q 21.40625 60.5 32.703125 60.5 
Q 45.703125 60.5 53.796875 49.40625 
L 53.796875 59.09375 
z
M 54.203125 32.296875 
Q 54.203125 41.40625 48.09375 47.65625 
Q 42 53.90625 33.140625 53.90625 
Q 24.296875 53.90625 18.1875 47.453125 
Q 12.09375 41 12.09375 32.203125 
Q 12.09375 23.40625 18.296875 16.953125 
Q 24.5 10.5 33.140625 10.5 
Q 41.796875 10.5 48 16.703125 
Q 54.203125 22.90625 54.203125 32.296875 
z
" id="STHeitiTC-Light-97"/>
      <path d="M 1.90625 59.09375 
L 9.09375 59.09375 
L 27.40625 18.203125 
L 45.09375 59.09375 
L 52.40625 59.09375 
L 20.703125 -13.40625 
L 13.5 -13.40625 
L 23.703125 10 
z
" id="STHeitiTC-Light-121"/>
      <path id="STHeitiTC-Light-32"/>
      <path d="M 29.5 78.203125 
L 29.5 71.5 
Q 25.59375 73.203125 22.546875 73.203125 
Q 19.5 73.203125 18.59375 71.25 
Q 17.703125 69.296875 17.703125 64.90625 
L 17.703125 59.09375 
L 28.796875 59.09375 
L 28.796875 53.296875 
L 17.703125 53.296875 
L 17.703125 6 
L 10.796875 6 
L 10.796875 53.296875 
L 3.90625 53.296875 
L 3.90625 59.09375 
L 10.796875 59.09375 
L 10.796875 66 
Q 10.796875 73 13.390625 76.296875 
Q 16 79.59375 21.5 79.59375 
Q 24.703125 79.59375 29.5 78.203125 
z
" id="STHeitiTC-Light-102"/>
      <path d="M 5 59.09375 
L 12 59.09375 
L 12 51.40625 
Q 14.796875 56.09375 17.4375 58.296875 
Q 20.09375 60.5 23.34375 60.5 
Q 26.59375 60.5 29.90625 58.703125 
L 26.296875 52.90625 
Q 24.796875 53.796875 23.203125 53.796875 
Q 20.09375 53.796875 17.34375 50.59375 
Q 14.59375 47.40625 13.296875 42.34375 
Q 12 37.296875 12 24 
L 12 6 
L 5 6 
z
" id="STHeitiTC-Light-114"/>
      <path d="M 5.09375 32.203125 
Q 5.09375 43.90625 13.140625 52.203125 
Q 21.203125 60.5 32.75 60.5 
Q 44.296875 60.5 52.34375 52.203125 
Q 60.40625 43.90625 60.40625 32.296875 
Q 60.40625 20.703125 52.453125 12.453125 
Q 44.5 4.203125 32.796875 4.203125 
Q 21.09375 4.203125 13.09375 12.453125 
Q 5.09375 20.703125 5.09375 32.203125 
z
M 53.5 32.09375 
Q 53.5 40.90625 47.34375 47.34375 
Q 41.203125 53.796875 32.75 53.796875 
Q 24.296875 53.796875 18.1875 47.34375 
Q 12.09375 40.90625 12.09375 32 
Q 12.09375 23.09375 18 16.890625 
Q 23.90625 10.703125 32.65625 10.703125 
Q 41.40625 10.703125 47.453125 16.953125 
Q 53.5 23.203125 53.5 32.09375 
z
" id="STHeitiTC-Light-111"/>
      <path d="M 7.59375 59.09375 
L 14.40625 59.09375 
L 14.40625 49.90625 
Q 21.5 60.5 32.59375 60.5 
Q 38.5 60.5 43.140625 57.140625 
Q 47.796875 53.796875 49.40625 47.703125 
Q 52.703125 53.90625 57.796875 57.203125 
Q 62.90625 60.5 69.546875 60.5 
Q 76.203125 60.5 81.59375 55.34375 
Q 87 50.203125 87 35 
L 87 6 
L 80 6 
L 80 35 
Q 80 42.296875 79.09375 45.75 
Q 78.203125 49.203125 75.203125 51.546875 
Q 72.203125 53.90625 67.25 53.90625 
Q 62.296875 53.90625 58 50.59375 
Q 53.703125 47.296875 52.09375 42.1875 
Q 50.5 37.09375 50.5 26.796875 
L 50.5 6 
L 43.796875 6 
L 43.796875 33.203125 
Q 43.796875 41.703125 42.890625 45.34375 
Q 42 49 38.890625 51.453125 
Q 35.796875 53.90625 31.296875 53.90625 
Q 26.796875 53.90625 22.84375 51.25 
Q 18.90625 48.59375 16.65625 44 
Q 14.40625 39.40625 14.40625 28.5 
L 14.40625 6 
L 7.59375 6 
z
" id="STHeitiTC-Light-109"/>
      <path d="M 11.59375 55.296875 
L 4.703125 55.296875 
Q 5.203125 66.296875 12 72.9375 
Q 18.796875 79.59375 28.4375 79.59375 
Q 38.09375 79.59375 44.4375 73.34375 
Q 50.796875 67.09375 50.796875 58.09375 
Q 50.796875 51.40625 47.25 45.703125 
Q 43.703125 40 36.5 32.203125 
L 18.59375 12.90625 
L 51.796875 12.90625 
L 51.796875 6 
L 3 6 
L 30.40625 35.59375 
Q 37.59375 43.40625 40.6875 47.90625 
Q 43.796875 52.40625 43.796875 58.203125 
Q 43.796875 64 39.25 68.390625 
Q 34.703125 72.796875 27.953125 72.796875 
Q 21.203125 72.796875 16.75 68.25 
Q 12.296875 63.703125 11.59375 55.296875 
z
" id="STHeitiTC-Light-50"/>
      <path d="M 27.296875 4.203125 
Q 15.703125 4.203125 9.453125 13.75 
Q 3.203125 23.296875 3.203125 41.890625 
Q 3.203125 60.5 9.453125 70.046875 
Q 15.703125 79.59375 27.203125 79.59375 
Q 38.703125 79.59375 45.453125 69.84375 
Q 52.203125 60.09375 52.203125 41.890625 
Q 52.203125 23.703125 45.390625 13.953125 
Q 38.59375 4.203125 27.296875 4.203125 
z
M 27.5 72.796875 
Q 19.203125 72.796875 14.59375 64.796875 
Q 10 56.796875 10 41.703125 
Q 10 10.703125 27.5 10.703125 
Q 36 10.703125 40.75 18.84375 
Q 45.5 27 45.5 41.890625 
Q 45.5 56.796875 40.59375 64.796875 
Q 35.703125 72.796875 27.5 72.796875 
z
" id="STHeitiTC-Light-48"/>
      <path d="M 3.203125 37 
L 30 37 
L 30 30 
L 3.203125 30 
z
" id="STHeitiTC-Light-45"/>
      <path d="M 18.5 77.796875 
L 32.59375 77.796875 
L 32.59375 6 
L 25.5 6 
L 25.5 70.796875 
L 14.203125 70.796875 
z
" id="STHeitiTC-Light-49"/>
      <path d="M 42.59375 79.59375 
L 44 79.59375 
L 44 29.59375 
L 52.703125 29.59375 
L 52.703125 22.703125 
L 44 22.703125 
L 44 6 
L 36.90625 6 
L 36.90625 22.703125 
L 2.5 22.703125 
z
M 36.90625 29.59375 
L 36.90625 59.5 
L 15.703125 29.59375 
z
" id="STHeitiTC-Light-52"/>
      <path d="M 9.09375 54.40625 
Q 9.09375 56.90625 10.890625 58.703125 
Q 12.703125 60.5 15.140625 60.5 
Q 17.59375 60.5 19.34375 58.75 
Q 21.09375 57 21.09375 54.453125 
Q 21.09375 51.90625 19.390625 50.15625 
Q 17.703125 48.40625 15.140625 48.40625 
Q 12.59375 48.40625 10.84375 50.15625 
Q 9.09375 51.90625 9.09375 54.40625 
z
M 9.09375 10.703125 
Q 9.09375 13.203125 10.890625 14.953125 
Q 12.703125 16.703125 15.140625 16.703125 
Q 17.59375 16.703125 19.34375 14.953125 
Q 21.09375 13.203125 21.09375 10.640625 
Q 21.09375 8.09375 19.34375 6.34375 
Q 17.59375 4.59375 15.140625 4.59375 
Q 12.703125 4.59375 10.890625 6.390625 
Q 9.09375 8.203125 9.09375 10.703125 
z
" id="STHeitiTC-Light-58"/>
     </defs>
     <g transform="translate(680.369416 668.108284)scale(0.0833 -0.0833)">
      <use xlink:href="#STHeitiTC-Light-100"/>
      <use x="68.499985" xlink:href="#STHeitiTC-Light-97"/>
      <use x="136.799973" xlink:href="#STHeitiTC-Light-121"/>
      <use x="190.399963" xlink:href="#STHeitiTC-Light-32"/>
      <use x="215.399948" xlink:href="#STHeitiTC-Light-102"/>
      <use x="246.799942" xlink:href="#STHeitiTC-Light-114"/>
      <use x="276.899933" xlink:href="#STHeitiTC-Light-111"/>
      <use x="342.399918" xlink:href="#STHeitiTC-Light-109"/>
      <use x="436.199905" xlink:href="#STHeitiTC-Light-32"/>
      <use x="461.19989" xlink:href="#STHeitiTC-Light-50"/>
      <use x="516.599884" xlink:href="#STHeitiTC-Light-48"/>
      <use x="571.999878" xlink:href="#STHeitiTC-Light-50"/>
      <use x="627.399872" xlink:href="#STHeitiTC-Light-48"/>
      <use x="682.799866" xlink:href="#STHeitiTC-Light-45"/>
      <use x="715.999863" xlink:href="#STHeitiTC-Light-48"/>
      <use x="771.399857" xlink:href="#STHeitiTC-Light-49"/>
      <use x="826.79985" xlink:href="#STHeitiTC-Light-45"/>
      <use x="859.999847" xlink:href="#STHeitiTC-Light-50"/>
      <use x="915.399841" xlink:href="#STHeitiTC-Light-52"/>
      <use x="970.799835" xlink:href="#STHeitiTC-Light-32"/>
      <use x="995.79982" xlink:href="#STHeitiTC-Light-48"/>
      <use x="1051.199814" xlink:href="#STHeitiTC-Light-48"/>
      <use x="1106.599808" xlink:href="#STHeitiTC-Light-58"/>
      <use x="1134.299805" xlink:href="#STHeitiTC-Light-48"/>
      <use x="1189.699799" xlink:href="#STHeitiTC-Light-48"/>
      <use x="1245.099792" xlink:href="#STHeitiTC-Light-58"/>
      <use x="1272.799789" xlink:href="#STHeitiTC-Light-48"/>
      <use x="1328.199783" xlink:href="#STHeitiTC-Light-48"/>
     </g>
    </g>
   </g>
   <g id="matplotlib.axis_2">
    <g id="ytick_1">
     <g id="line2d_19">
      <path clip-path="url(#p211582130c)" d="M 180 629.626353 
L 1296 629.626353 
" style="fill:none;stroke:#b0b0b0;stroke-linecap:square;stroke-width:0.8;"/>
     </g>
     <g id="line2d_20">
      <defs>
       <path d="M 0 0 
L -3.5 0 
" id="m6b7fe6d444" style="stroke:#000000;stroke-width:0.8;"/>
      </defs>
      <g>
       <use style="stroke:#000000;stroke-width:0.8;" x="180" xlink:href="#m6b7fe6d444" y="629.626353"/>
      </g>
     </g>
     <g id="text_11">
      <!-- 0 -->
      <g transform="translate(166.6375 633.425572)scale(0.1 -0.1)">
       <use xlink:href="#DejaVuSans-48"/>
      </g>
     </g>
    </g>
    <g id="ytick_2">
     <g id="line2d_21">
      <path clip-path="url(#p211582130c)" d="M 180 548.694589 
L 1296 548.694589 
" style="fill:none;stroke:#b0b0b0;stroke-linecap:square;stroke-width:0.8;"/>
     </g>
     <g id="line2d_22">
      <g>
       <use style="stroke:#000000;stroke-width:0.8;" x="180" xlink:href="#m6b7fe6d444" y="548.694589"/>
      </g>
     </g>
     <g id="text_12">
      <!-- 5 -->
      <g transform="translate(166.6375 552.493808)scale(0.1 -0.1)">
       <use xlink:href="#DejaVuSans-53"/>
      </g>
     </g>
    </g>
    <g id="ytick_3">
     <g id="line2d_23">
      <path clip-path="url(#p211582130c)" d="M 180 467.762825 
L 1296 467.762825 
" style="fill:none;stroke:#b0b0b0;stroke-linecap:square;stroke-width:0.8;"/>
     </g>
     <g id="line2d_24">
      <g>
       <use style="stroke:#000000;stroke-width:0.8;" x="180" xlink:href="#m6b7fe6d444" y="467.762825"/>
      </g>
     </g>
     <g id="text_13">
      <!-- 10 -->
      <g transform="translate(160.275 471.562044)scale(0.1 -0.1)">
       <use xlink:href="#DejaVuSans-49"/>
       <use x="63.623047" xlink:href="#DejaVuSans-48"/>
      </g>
     </g>
    </g>
    <g id="ytick_4">
     <g id="line2d_25">
      <path clip-path="url(#p211582130c)" d="M 180 386.831061 
L 1296 386.831061 
" style="fill:none;stroke:#b0b0b0;stroke-linecap:square;stroke-width:0.8;"/>
     </g>
     <g id="line2d_26">
      <g>
       <use style="stroke:#000000;stroke-width:0.8;" x="180" xlink:href="#m6b7fe6d444" y="386.831061"/>
      </g>
     </g>
     <g id="text_14">
      <!-- 15 -->
      <g transform="translate(160.275 390.63028)scale(0.1 -0.1)">
       <use xlink:href="#DejaVuSans-49"/>
       <use x="63.623047" xlink:href="#DejaVuSans-53"/>
      </g>
     </g>
    </g>
    <g id="ytick_5">
     <g id="line2d_27">
      <path clip-path="url(#p211582130c)" d="M 180 305.899297 
L 1296 305.899297 
" style="fill:none;stroke:#b0b0b0;stroke-linecap:square;stroke-width:0.8;"/>
     </g>
     <g id="line2d_28">
      <g>
       <use style="stroke:#000000;stroke-width:0.8;" x="180" xlink:href="#m6b7fe6d444" y="305.899297"/>
      </g>
     </g>
     <g id="text_15">
      <!-- 20 -->
      <g transform="translate(160.275 309.698516)scale(0.1 -0.1)">
       <use xlink:href="#DejaVuSans-50"/>
       <use x="63.623047" xlink:href="#DejaVuSans-48"/>
      </g>
     </g>
    </g>
    <g id="ytick_6">
     <g id="line2d_29">
      <path clip-path="url(#p211582130c)" d="M 180 224.967533 
L 1296 224.967533 
" style="fill:none;stroke:#b0b0b0;stroke-linecap:square;stroke-width:0.8;"/>
     </g>
     <g id="line2d_30">
      <g>
       <use style="stroke:#000000;stroke-width:0.8;" x="180" xlink:href="#m6b7fe6d444" y="224.967533"/>
      </g>
     </g>
     <g id="text_16">
      <!-- 25 -->
      <g transform="translate(160.275 228.766752)scale(0.1 -0.1)">
       <use xlink:href="#DejaVuSans-50"/>
       <use x="63.623047" xlink:href="#DejaVuSans-53"/>
      </g>
     </g>
    </g>
    <g id="ytick_7">
     <g id="line2d_31">
      <path clip-path="url(#p211582130c)" d="M 180 144.035769 
L 1296 144.035769 
" style="fill:none;stroke:#b0b0b0;stroke-linecap:square;stroke-width:0.8;"/>
     </g>
     <g id="line2d_32">
      <g>
       <use style="stroke:#000000;stroke-width:0.8;" x="180" xlink:href="#m6b7fe6d444" y="144.035769"/>
      </g>
     </g>
     <g id="text_17">
      <!-- 30 -->
      <defs>
       <path d="M 40.578125 39.3125 
Q 47.65625 37.796875 51.625 33 
Q 55.609375 28.21875 55.609375 21.1875 
Q 55.609375 10.40625 48.1875 4.484375 
Q 40.765625 -1.421875 27.09375 -1.421875 
Q 22.515625 -1.421875 17.65625 -0.515625 
Q 12.796875 0.390625 7.625 2.203125 
L 7.625 11.71875 
Q 11.71875 9.328125 16.59375 8.109375 
Q 21.484375 6.890625 26.8125 6.890625 
Q 36.078125 6.890625 40.9375 10.546875 
Q 45.796875 14.203125 45.796875 21.1875 
Q 45.796875 27.640625 41.28125 31.265625 
Q 36.765625 34.90625 28.71875 34.90625 
L 20.21875 34.90625 
L 20.21875 43.015625 
L 29.109375 43.015625 
Q 36.375 43.015625 40.234375 45.921875 
Q 44.09375 48.828125 44.09375 54.296875 
Q 44.09375 59.90625 40.109375 62.90625 
Q 36.140625 65.921875 28.71875 65.921875 
Q 24.65625 65.921875 20.015625 65.03125 
Q 15.375 64.15625 9.8125 62.3125 
L 9.8125 71.09375 
Q 15.4375 72.65625 20.34375 73.4375 
Q 25.25 74.21875 29.59375 74.21875 
Q 40.828125 74.21875 47.359375 69.109375 
Q 53.90625 64.015625 53.90625 55.328125 
Q 53.90625 49.265625 50.4375 45.09375 
Q 46.96875 40.921875 40.578125 39.3125 
z
" id="DejaVuSans-51"/>
      </defs>
      <g transform="translate(160.275 147.834988)scale(0.1 -0.1)">
       <use xlink:href="#DejaVuSans-51"/>
       <use x="63.623047" xlink:href="#DejaVuSans-48"/>
      </g>
     </g>
    </g>
   </g>
   <g id="patch_3">
    <path d="M 180 640.8 
L 180 86.4 
" style="fill:none;stroke:#000000;stroke-linecap:square;stroke-linejoin:miter;stroke-width:0.8;"/>
   </g>
   <g id="patch_4">
    <path d="M 1296 640.8 
L 1296 86.4 
" style="fill:none;stroke:#000000;stroke-linecap:square;stroke-linejoin:miter;stroke-width:0.8;"/>
   </g>
   <g id="patch_5">
    <path d="M 180 640.8 
L 1296 640.8 
" style="fill:none;stroke:#000000;stroke-linecap:square;stroke-linejoin:miter;stroke-width:0.8;"/>
   </g>
   <g id="patch_6">
    <path d="M 180 86.4 
L 1296 86.4 
" style="fill:none;stroke:#000000;stroke-linecap:square;stroke-linejoin:miter;stroke-width:0.8;"/>
   </g>
   <g id="legend_1">
    <g id="patch_7">
     <path d="M 185.831 176.504569 
L 254.137 176.504569 
Q 255.803 176.504569 255.803 174.838569 
L 255.803 92.231 
Q 255.803 90.565 254.137 90.565 
L 185.831 90.565 
Q 184.165 90.565 184.165 92.231 
L 184.165 174.838569 
Q 184.165 176.504569 185.831 176.504569 
z
" style="fill:#ffffff;opacity:0.8;stroke:#cccccc;stroke-linejoin:miter;"/>
    </g>
    <g id="PathCollection_8">
     <g>
      <use style="fill:#1f77b4;stroke:#1f77b4;" x="195.827" xlink:href="#me89c13c740" y="98.340534"/>
     </g>
    </g>
    <g id="text_18">
     <!-- 银川 -->
     <defs>
      <path d="M 52.40625 69.296875 
L 52.40625 56 
L 80.796875 56 
L 80.796875 69.296875 
z
M 52.40625 51.296875 
L 52.40625 39 
L 80.796875 39 
L 80.796875 51.296875 
z
M 72.40625 19.296875 
Q 76.09375 21.796875 78.546875 23.5 
Q 81 25.203125 82.84375 26.703125 
Q 84.703125 28.203125 86.25 29.703125 
Q 87.796875 31.203125 89.796875 33.296875 
Q 91 31.5 92.140625 30.140625 
Q 93.296875 28.796875 94.59375 27.90625 
Q 95.796875 27.09375 95.4375 26.5 
Q 95.09375 25.90625 93.796875 26 
Q 93.203125 26 92.140625 25.640625 
Q 91.09375 25.296875 89.046875 24.09375 
Q 87 22.90625 83.75 20.75 
Q 80.5 18.59375 75.40625 15.09375 
Q 77.703125 12.09375 79.953125 9.9375 
Q 82.203125 7.796875 84.703125 6.046875 
Q 87.203125 4.296875 90.046875 2.84375 
Q 92.90625 1.40625 96.40625 -0.203125 
Q 94.40625 -1.5 92.796875 -3.09375 
Q 91.203125 -4.703125 90.40625 -6.40625 
Q 87.203125 -4.5 84.75 -2.703125 
Q 82.296875 -0.90625 80.09375 1.140625 
Q 77.90625 3.203125 75.703125 5.640625 
Q 73.5 8.09375 71 11.40625 
Q 69.5 13.40625 67.890625 16.046875 
Q 66.296875 18.703125 64.890625 21.75 
Q 63.5 24.796875 62.296875 28 
Q 61.09375 31.203125 60.40625 34.296875 
L 52.40625 34.296875 
L 52.40625 3 
Q 59.703125 6.296875 66.90625 10.09375 
Q 67 8.09375 67.25 7 
Q 67.5 5.90625 68.09375 4.5 
Q 61.296875 1.203125 55.6875 -1.9375 
Q 50.09375 -5.09375 45.40625 -8 
Q 44.59375 -6.203125 43.6875 -4.59375 
Q 42.796875 -3 41.5 -1.5 
Q 42.796875 -1 44.046875 -0.5 
Q 45.296875 0 46.5 0.5 
L 46.5 64.796875 
Q 46.5 67.90625 46.34375 70.40625 
Q 46.203125 72.90625 45.796875 75.5 
Q 47.296875 75.296875 49.546875 75.09375 
Q 51.796875 74.90625 54.640625 74.75 
Q 57.5 74.59375 60.640625 74.5 
Q 63.796875 74.40625 67.09375 74.40625 
Q 73.703125 74.40625 79.09375 74.703125 
Q 84.5 75 87.296875 75.5 
Q 87.09375 72.90625 86.9375 70.34375 
Q 86.796875 67.796875 86.796875 64.796875 
L 86.796875 46 
Q 86.796875 42.296875 86.9375 39.4375 
Q 87.09375 36.59375 87.40625 33.5 
Q 84.203125 33.90625 79.25 34.09375 
Q 74.296875 34.296875 66.09375 34.296875 
Q 66.90625 29.90625 68.5 26.296875 
Q 70.09375 22.703125 72.40625 19.296875 
z
M 21.59375 26.796875 
Q 17.203125 26.796875 13.34375 26.59375 
Q 9.5 26.40625 7.203125 26 
L 7.203125 32.59375 
Q 9.703125 32.203125 13.453125 32 
Q 17.203125 31.796875 21.59375 31.796875 
L 21.59375 46.40625 
Q 19 46.296875 16.84375 46.140625 
Q 14.703125 46 13 45.703125 
L 13 50.59375 
Q 11.90625 48.90625 10.84375 47.40625 
Q 9.796875 45.90625 9 44.796875 
Q 7.703125 46.203125 6.5 47.203125 
Q 5.296875 48.203125 3.5 49 
Q 7 52.40625 9.890625 56.5 
Q 12.796875 60.59375 14.9375 65.046875 
Q 17.09375 69.5 18.59375 73.890625 
Q 20.09375 78.296875 20.90625 82.296875 
Q 22.59375 81.40625 24.59375 80.59375 
Q 26.59375 79.796875 27.90625 79.5 
Q 29.5 79.09375 29.59375 78.5 
Q 29.703125 77.90625 28.203125 77.09375 
Q 26.5 76.296875 22.796875 68.40625 
L 30.796875 68.40625 
Q 34.796875 68.40625 37.34375 68.546875 
Q 39.90625 68.703125 42.09375 68.90625 
L 42.09375 62.703125 
Q 40 62.90625 37.390625 63.046875 
Q 34.796875 63.203125 30.796875 63.203125 
L 20.40625 63.203125 
Q 19 60.59375 17.296875 57.6875 
Q 15.59375 54.796875 13.796875 52 
Q 16.09375 51.59375 18.59375 51.4375 
Q 21.09375 51.296875 25.59375 51.296875 
Q 29.796875 51.296875 33.390625 51.5 
Q 37 51.703125 39.296875 52.09375 
L 39.296875 45.703125 
Q 35 46.5 27.59375 46.5 
L 27.59375 31.796875 
Q 32.09375 31.796875 36.140625 32 
Q 40.203125 32.203125 42.703125 32.59375 
L 42.703125 26 
Q 40.296875 26.40625 36.1875 26.59375 
Q 32.09375 26.796875 27.59375 26.796875 
L 27.59375 2.40625 
Q 30.90625 4.40625 34.15625 6.546875 
Q 37.40625 8.703125 40 10.5 
Q 39.90625 7.203125 42 4.703125 
L 28.90625 -4.296875 
Q 27.203125 -5.5 26.09375 -6.25 
Q 25 -7 24.203125 -7.59375 
Q 23.40625 -8.203125 22.75 -8.75 
Q 22.09375 -9.296875 21.40625 -10 
Q 20.59375 -8.203125 19.34375 -6.703125 
Q 18.09375 -5.203125 16.5 -3.90625 
Q 17.5 -3.40625 18.796875 -2.703125 
Q 20.09375 -2 21.59375 -1.203125 
z
" id="STHeitiTC-Light-38134"/>
      <path d="M 59.796875 71.296875 
Q 59.09375 70.90625 58.75 69.65625 
Q 58.40625 68.40625 58.40625 66.59375 
L 58.40625 16.703125 
Q 58.40625 14.90625 58.453125 12.546875 
Q 58.5 10.203125 58.640625 7.640625 
Q 58.796875 5.09375 59 2.5 
Q 59.203125 -0.09375 59.40625 -2.203125 
L 51.59375 -2.203125 
Q 51.796875 -0.296875 51.9375 2.203125 
Q 52.09375 4.703125 52.25 7.34375 
Q 52.40625 10 52.453125 12.453125 
Q 52.5 14.90625 52.5 16.703125 
L 52.5 58.296875 
Q 52.5 63.40625 52.296875 67.75 
Q 52.09375 72.09375 51.59375 74.296875 
Q 56.203125 73.09375 59.09375 73.296875 
Q 60.796875 73.40625 61 72.75 
Q 61.203125 72.09375 59.796875 71.296875 
z
M 89.09375 75.703125 
Q 88.5 75.296875 88.09375 74.296875 
Q 87.703125 73.296875 87.703125 71.5 
L 87.703125 12.40625 
Q 87.703125 10.59375 87.75 8.140625 
Q 87.796875 5.703125 87.9375 3.046875 
Q 88.09375 0.40625 88.296875 -2.25 
Q 88.5 -4.90625 88.703125 -7 
L 80.703125 -7 
Q 80.796875 -5.203125 81 -2.59375 
Q 81.203125 0 81.296875 2.75 
Q 81.40625 5.5 81.5 8.046875 
Q 81.59375 10.59375 81.59375 12.40625 
L 81.59375 62.203125 
Q 81.59375 67.296875 81.390625 71.890625 
Q 81.203125 76.5 80.703125 78.703125 
Q 85.296875 77.59375 88.40625 77.703125 
Q 90.203125 77.796875 90.34375 77.1875 
Q 90.5 76.59375 89.09375 75.703125 
z
M 23.796875 77.703125 
Q 25.5 77.09375 28.046875 76.75 
Q 30.59375 76.40625 32.09375 76.5 
Q 33.59375 76.59375 33.796875 75.890625 
Q 34 75.203125 32.90625 74.5 
Q 31.703125 73.796875 31.203125 72.09375 
Q 30.703125 70.40625 30.703125 68.203125 
L 30.703125 39.203125 
Q 30.703125 30.5 29.890625 23.84375 
Q 29.09375 17.203125 27.390625 11.796875 
Q 25.703125 6.40625 23 1.796875 
Q 20.296875 -2.796875 16.5 -7.40625 
Q 15.40625 -6.09375 13.5 -4.9375 
Q 11.59375 -3.796875 9.5 -3.203125 
Q 14 1 16.84375 5 
Q 19.703125 9 21.390625 13.84375 
Q 23.09375 18.703125 23.75 25.09375 
Q 24.40625 31.5 24.40625 40.59375 
L 24.40625 62.5 
Q 24.40625 68.40625 24.25 72.046875 
Q 24.09375 75.703125 23.796875 77.703125 
z
" id="STHeitiTC-Light-24029"/>
     </defs>
     <g transform="translate(210.821 100.527159)scale(0.0833 -0.0833)">
      <use xlink:href="#STHeitiTC-Light-38134"/>
      <use x="99.999985" xlink:href="#STHeitiTC-Light-24029"/>
     </g>
    </g>
    <g id="PathCollection_9">
     <g>
      <use style="fill:#ff7f0e;stroke:#ff7f0e;" x="195.827" xlink:href="#maaacbbf6e3" y="110.252434"/>
     </g>
    </g>
    <g id="text_19">
     <!-- 吴忠 -->
     <defs>
      <path d="M 71.5 69.5 
L 28.203125 69.5 
L 28.203125 55.40625 
L 71.5 55.40625 
z
M 78.09375 50.203125 
Q 72.90625 50.296875 66.296875 50.390625 
Q 59.703125 50.5 49.796875 50.5 
Q 39.90625 50.5 33.296875 50.390625 
Q 26.703125 50.296875 21.5 50.09375 
Q 21.796875 52.40625 21.9375 55.25 
Q 22.09375 58.09375 22.09375 62.59375 
Q 22.09375 67.203125 21.9375 69.84375 
Q 21.796875 72.5 21.5 74.796875 
Q 24.203125 74.703125 27.09375 74.59375 
Q 30 74.5 33.390625 74.453125 
Q 36.796875 74.40625 40.84375 74.34375 
Q 44.90625 74.296875 49.90625 74.296875 
Q 56.203125 74.296875 60.390625 74.296875 
Q 64.59375 74.296875 67.640625 74.390625 
Q 70.703125 74.5 73.046875 74.546875 
Q 75.40625 74.59375 78.09375 74.796875 
Q 77.90625 71.203125 77.84375 68.546875 
Q 77.796875 65.90625 77.796875 62.59375 
Q 77.796875 59.40625 77.84375 55.953125 
Q 77.90625 52.5 78.09375 50.203125 
z
M 50.203125 18.5 
Q 46.703125 10 36.5 3.453125 
Q 26.296875 -3.09375 8.90625 -8.09375 
Q 8.703125 -6.09375 7.75 -4.6875 
Q 6.796875 -3.296875 4.40625 -2 
Q 20.796875 0.703125 30.4375 6.046875 
Q 40.09375 11.40625 44 18.5 
L 37.09375 18.5 
Q 32.203125 18.5 28.296875 18.453125 
Q 24.40625 18.40625 21 18.34375 
Q 17.59375 18.296875 14.390625 18.140625 
Q 11.203125 18 7.703125 17.796875 
L 7.703125 24 
Q 10.90625 23.796875 13.90625 23.640625 
Q 16.90625 23.5 21.046875 23.453125 
Q 25.203125 23.40625 31.09375 23.34375 
Q 37 23.296875 46 23.296875 
Q 46.796875 26.09375 47.1875 29.59375 
Q 47.59375 33.09375 47.59375 36.59375 
L 43 36.59375 
Q 38.09375 36.59375 34.59375 36.546875 
Q 31.09375 36.5 28.296875 36.453125 
Q 25.5 36.40625 22.953125 36.25 
Q 20.40625 36.09375 17.5 35.90625 
L 17.5 42 
Q 20.5 41.796875 23.640625 41.640625 
Q 26.796875 41.5 30.6875 41.453125 
Q 34.59375 41.40625 39.390625 41.34375 
Q 44.203125 41.296875 50.5 41.296875 
Q 58.40625 41.296875 63.453125 41.296875 
Q 68.5 41.296875 71.953125 41.390625 
Q 75.40625 41.5 77.953125 41.640625 
Q 80.5 41.796875 83.5 42 
L 83.5 35.90625 
Q 80.59375 36.09375 78.1875 36.25 
Q 75.796875 36.40625 73.1875 36.453125 
Q 70.59375 36.5 67.5 36.546875 
Q 64.40625 36.59375 60 36.59375 
L 53.296875 36.59375 
Q 53.203125 33.203125 52.796875 29.546875 
Q 52.40625 25.90625 51.796875 23.296875 
Q 60.796875 23.296875 67.09375 23.34375 
Q 73.40625 23.40625 78.15625 23.453125 
Q 82.90625 23.5 86.453125 23.640625 
Q 90 23.796875 93.5 24 
L 93.5 17.796875 
Q 90 18 86.890625 18.140625 
Q 83.796875 18.296875 80.5 18.34375 
Q 77.203125 18.40625 73.25 18.453125 
Q 69.296875 18.5 64.203125 18.5 
L 58.59375 18.5 
Q 61.40625 15.203125 65.40625 12.296875 
Q 69.40625 9.40625 74.25 7 
Q 79.09375 4.59375 84.546875 2.75 
Q 90 0.90625 95.59375 -0.296875 
Q 93.703125 -1.90625 92.75 -3.296875 
Q 91.796875 -4.703125 91.09375 -7.09375 
Q 83.796875 -4.5 78.140625 -1.890625 
Q 72.5 0.703125 67.890625 3.703125 
Q 63.296875 6.703125 59.546875 10.25 
Q 55.796875 13.796875 52.40625 18.5 
z
" id="STHeitiTC-Light-21556"/>
      <path d="M 47 62.796875 
L 23.203125 62.796875 
L 23.203125 43.90625 
L 47 43.90625 
z
M 53.296875 43.90625 
L 76.796875 43.90625 
L 76.796875 62.796875 
L 53.296875 62.796875 
z
M 53.296875 67.40625 
Q 59.90625 67.40625 64.75 67.5 
Q 69.59375 67.59375 73.1875 67.75 
Q 76.796875 67.90625 79.296875 68.09375 
Q 81.796875 68.296875 83.703125 68.5 
Q 83.5 66.5 83.34375 64.046875 
Q 83.203125 61.59375 83.203125 59 
L 83.203125 45.703125 
Q 83.203125 43.09375 83.34375 41.546875 
Q 83.5 40 83.703125 38.09375 
Q 81.796875 38.40625 79.296875 38.59375 
Q 76.796875 38.796875 73.1875 38.9375 
Q 69.59375 39.09375 64.75 39.140625 
Q 59.90625 39.203125 53.296875 39.203125 
Q 53.296875 37.796875 53.34375 36.59375 
Q 53.40625 35.40625 53.453125 34.203125 
Q 53.5 33 53.640625 31.546875 
Q 53.796875 30.09375 54 28.203125 
L 46.09375 28.203125 
Q 46.5 31.59375 46.703125 33.9375 
Q 46.90625 36.296875 47 39.203125 
Q 40.5 39.203125 35.59375 39.140625 
Q 30.703125 39.09375 27 38.9375 
Q 23.296875 38.796875 20.6875 38.59375 
Q 18.09375 38.40625 16.203125 38.09375 
Q 16.5 40 16.703125 42.046875 
Q 16.90625 44.09375 16.90625 46.703125 
L 16.90625 59 
Q 16.90625 61.59375 16.703125 64.09375 
Q 16.5 66.59375 16.203125 68.5 
Q 20 68 27.5 67.640625 
Q 35 67.296875 47 67.40625 
Q 46.90625 72 46.703125 75.84375 
Q 46.5 79.703125 46.09375 81.703125 
Q 48.40625 81.203125 50.34375 80.953125 
Q 52.296875 80.703125 54 80.703125 
Q 55.5 80.703125 55.640625 79.796875 
Q 55.796875 78.90625 54.703125 78.203125 
Q 53.90625 77.703125 53.59375 75.640625 
Q 53.296875 73.59375 53.296875 70.40625 
z
M 56 8.796875 
Q 53.5 12.5 50.203125 15.890625 
Q 46.90625 19.296875 43.296875 21.90625 
L 47 26.40625 
Q 51.296875 23 54.390625 19.890625 
Q 57.5 16.796875 60.796875 12.703125 
z
M 78.09375 6.40625 
Q 76.59375 2.203125 75.34375 -0.1875 
Q 74.09375 -2.59375 72.546875 -3.890625 
Q 71 -5.203125 68.953125 -5.75 
Q 66.90625 -6.296875 63.796875 -6.59375 
Q 56.90625 -7.40625 49.65625 -7.40625 
Q 42.40625 -7.40625 36.59375 -6.703125 
Q 34.5 -6.5 33.046875 -5.953125 
Q 31.59375 -5.40625 30.6875 -4.203125 
Q 29.796875 -3 29.390625 -1.09375 
Q 29 0.796875 29 3.796875 
L 29 13.59375 
Q 29 14.796875 28.953125 16.34375 
Q 28.90625 17.90625 28.84375 19.40625 
Q 28.796875 20.90625 28.6875 22.203125 
Q 28.59375 23.5 28.5 24.296875 
Q 30.703125 23.796875 32.5 23.59375 
Q 34.296875 23.40625 35.703125 23.40625 
Q 37.09375 23.40625 37.34375 23.046875 
Q 37.59375 22.703125 36.5 21.796875 
Q 35.703125 21.09375 35.453125 20.5 
Q 35.203125 19.90625 35.203125 18.59375 
L 35.203125 5.296875 
Q 35.203125 1.90625 36.25 0.40625 
Q 37.296875 -1.09375 39.59375 -1.40625 
Q 41.203125 -1.59375 44.046875 -1.6875 
Q 46.90625 -1.796875 50.203125 -1.796875 
Q 53.5 -1.796875 56.640625 -1.6875 
Q 59.796875 -1.59375 62 -1.296875 
Q 64.09375 -1 65.640625 -0.34375 
Q 67.203125 0.296875 68.25 1.6875 
Q 69.296875 3.09375 70 5.296875 
Q 70.703125 7.5 71.09375 10.796875 
Q 72.703125 9.09375 74.640625 8 
Q 76.59375 6.90625 78.09375 6.40625 
z
M 22.90625 21.59375 
Q 20.296875 15.5 17.4375 9.59375 
Q 14.59375 3.703125 11.203125 -2 
L 5.09375 1.203125 
Q 6.90625 3.09375 8.75 5.9375 
Q 10.59375 8.796875 12.1875 12.046875 
Q 13.796875 15.296875 15.046875 18.5 
Q 16.296875 21.703125 16.90625 24.40625 
z
M 89.40625 1 
Q 86.296875 6.40625 81.890625 11.34375 
Q 77.5 16.296875 72 21.40625 
L 76.203125 26 
Q 81.5 21.09375 86.140625 15.75 
Q 90.796875 10.40625 94.90625 5 
z
" id="STHeitiTC-Light-24544"/>
     </defs>
     <g transform="translate(210.821 112.439059)scale(0.0833 -0.0833)">
      <use xlink:href="#STHeitiTC-Light-21556"/>
      <use x="99.999985" xlink:href="#STHeitiTC-Light-24544"/>
     </g>
    </g>
    <g id="PathCollection_10">
     <g>
      <use style="fill:#2ca02c;stroke:#2ca02c;" x="195.827" xlink:href="#meaed475f47" y="122.164334"/>
     </g>
    </g>
    <g id="text_20">
     <!-- 固原 -->
     <defs>
      <path d="M 36.703125 31.09375 
L 36.703125 12.796875 
L 62.5 12.796875 
L 62.5 31.09375 
z
M 46.5 58.09375 
Q 46.5 59.90625 46.453125 61.15625 
Q 46.40625 62.40625 46.296875 63.34375 
Q 46.203125 64.296875 46.046875 65.09375 
Q 45.90625 65.90625 45.703125 66.90625 
Q 48 66.40625 49.703125 66.25 
Q 51.40625 66.09375 53.40625 66.203125 
Q 54.703125 66.296875 54.796875 65.796875 
Q 54.90625 65.296875 53.796875 64.5 
Q 52.59375 63.59375 52.59375 59.296875 
L 52.59375 52.5 
Q 57.09375 52.5 60.6875 52.5 
Q 64.296875 52.5 67.34375 52.59375 
Q 70.40625 52.703125 73.046875 52.796875 
Q 75.703125 52.90625 78.40625 53.09375 
L 78.40625 47.09375 
Q 75.703125 47.296875 73.046875 47.390625 
Q 70.40625 47.5 67.34375 47.59375 
Q 64.296875 47.703125 60.6875 47.703125 
Q 57.09375 47.703125 52.59375 47.703125 
L 52.59375 35.796875 
Q 54.703125 35.796875 57.09375 35.84375 
Q 59.5 35.90625 61.84375 36 
Q 64.203125 36.09375 66.25 36.140625 
Q 68.296875 36.203125 69.5 36.296875 
Q 69.09375 34.296875 68.84375 31.796875 
Q 68.59375 29.296875 68.59375 26.703125 
L 68.59375 19.5 
Q 68.59375 17.703125 68.640625 16.34375 
Q 68.703125 15 68.796875 13.703125 
Q 68.90625 12.40625 69.046875 11.046875 
Q 69.203125 9.703125 69.40625 8.09375 
L 29.796875 8.09375 
Q 30.5 11 30.75 13.5 
Q 31 16 31 19.703125 
L 31 26.703125 
Q 31 29.296875 30.796875 31.84375 
Q 30.59375 34.40625 30.203125 36.296875 
Q 31.296875 36.203125 33.25 36.140625 
Q 35.203125 36.09375 37.453125 36 
Q 39.703125 35.90625 42.046875 35.84375 
Q 44.40625 35.796875 46.5 35.796875 
L 46.5 47.703125 
Q 42.09375 47.703125 38.59375 47.703125 
Q 35.09375 47.703125 32.140625 47.59375 
Q 29.203125 47.5 26.546875 47.390625 
Q 23.90625 47.296875 21.296875 47.09375 
L 21.296875 53.09375 
Q 23.90625 52.90625 26.546875 52.796875 
Q 29.203125 52.703125 32.203125 52.640625 
Q 35.203125 52.59375 38.640625 52.546875 
Q 42.09375 52.5 46.5 52.5 
z
M 18.203125 -9.796875 
L 11.5 -9.796875 
Q 11.703125 -5.703125 11.84375 -1.640625 
Q 12 2.40625 12 6.90625 
L 12 64 
Q 12 67 11.84375 69.796875 
Q 11.703125 72.59375 11.5 76.09375 
Q 12.90625 75.90625 15.046875 75.84375 
Q 17.203125 75.796875 21.34375 75.6875 
Q 25.5 75.59375 32.34375 75.59375 
Q 39.203125 75.59375 50 75.59375 
Q 60.796875 75.59375 67.59375 75.59375 
Q 74.40625 75.59375 78.5 75.6875 
Q 82.59375 75.796875 84.75 75.84375 
Q 86.90625 75.90625 88.296875 76.09375 
Q 88.09375 72.59375 88.046875 69.75 
Q 88 66.90625 88 64 
L 88 7.59375 
Q 88 3.09375 88.140625 -0.90625 
Q 88.296875 -4.90625 88.5 -9.09375 
L 81.796875 -9.09375 
L 81.796875 -3.59375 
L 18.203125 -3.59375 
z
M 81.796875 70.40625 
L 18.203125 70.40625 
L 18.203125 1.40625 
L 81.796875 1.40625 
z
" id="STHeitiTC-Light-22266"/>
      <path d="M 78 39.296875 
L 38.40625 39.296875 
L 38.40625 29.296875 
L 78 29.296875 
z
M 78 54.296875 
L 38.40625 54.296875 
L 38.40625 44.09375 
L 78 44.09375 
z
M 44.203125 17.59375 
Q 45.296875 17.09375 45.390625 16.25 
Q 45.5 15.40625 44.40625 15 
Q 43.09375 14.5 42 13.546875 
Q 40.90625 12.59375 39.59375 10.703125 
Q 37.796875 8 34.59375 4.25 
Q 31.40625 0.5 27.09375 -3.90625 
Q 25.90625 -1.796875 24.453125 -0.796875 
Q 23 0.203125 20.40625 0.703125 
Q 23 2.203125 25.890625 4.640625 
Q 28.796875 7.09375 31.4375 9.9375 
Q 34.09375 12.796875 36.140625 15.6875 
Q 38.203125 18.59375 39.09375 21 
Q 40.5 19.59375 41.75 18.84375 
Q 43 18.09375 44.203125 17.59375 
z
M 89.703125 -2.09375 
Q 87.09375 0.59375 84.75 2.796875 
Q 82.40625 5 79.90625 7.046875 
Q 77.40625 9.09375 74.546875 11.09375 
Q 71.703125 13.09375 68.09375 15.5 
L 71.59375 20.09375 
Q 74.90625 18 77.796875 16.046875 
Q 80.703125 14.09375 83.390625 12.046875 
Q 86.09375 10 88.796875 7.796875 
Q 91.5 5.59375 94.5 3 
z
M 47.40625 58.796875 
Q 49.296875 61.796875 50.25 64.5 
Q 51.203125 67.203125 51.40625 70.09375 
Q 53.203125 69.203125 54.953125 68.640625 
Q 56.703125 68.09375 57.5 68 
Q 58.5 67.90625 58.640625 66.953125 
Q 58.796875 66 57.40625 65.296875 
Q 56.59375 64.90625 55.390625 63.15625 
Q 54.203125 61.40625 52.90625 58.796875 
L 65.40625 58.796875 
Q 73.5 58.796875 78.34375 58.9375 
Q 83.203125 59.09375 85.5 59.40625 
Q 85.296875 57.796875 85.140625 56.5 
Q 85 55.203125 84.890625 53.84375 
Q 84.796875 52.5 84.75 50.953125 
Q 84.703125 49.40625 84.703125 47.40625 
L 84.703125 36.796875 
Q 84.703125 33 84.953125 29.5 
Q 85.203125 26 85.5 24 
Q 82.796875 24.40625 77.390625 24.65625 
Q 72 24.90625 62.296875 24.90625 
L 62.296875 -0.5 
Q 62.296875 -2.90625 61.796875 -4.453125 
Q 61.296875 -6 59.5 -7 
Q 57.703125 -8 54.296875 -8.5 
Q 50.90625 -9 45.09375 -9.09375 
Q 45.59375 -6.90625 44.9375 -4.90625 
Q 44.296875 -2.90625 42.296875 -1.40625 
Q 46.40625 -2.203125 49 -2.390625 
Q 51.59375 -2.59375 53.09375 -2.25 
Q 54.59375 -1.90625 55.140625 -0.953125 
Q 55.703125 0 55.703125 1.5 
L 55.703125 24.90625 
Q 50.09375 24.90625 46.09375 24.84375 
Q 42.09375 24.796875 39.296875 24.6875 
Q 36.5 24.59375 34.59375 24.4375 
Q 32.703125 24.296875 31.296875 24 
Q 31.59375 26 31.796875 29.140625 
Q 32 32.296875 32 36.796875 
L 32 47.40625 
Q 32 51.40625 31.84375 54.15625 
Q 31.703125 56.90625 31.296875 59.40625 
Q 35.203125 59 47.40625 58.796875 
z
M 91.59375 70 
Q 90.203125 70.09375 87.640625 70.25 
Q 85.09375 70.40625 80.9375 70.5 
Q 76.796875 70.59375 70.84375 70.640625 
Q 64.90625 70.703125 56.59375 70.703125 
L 23.296875 70.703125 
Q 23.40625 58 23.34375 48.640625 
Q 23.296875 39.296875 23 32.25 
Q 22.703125 25.203125 22.046875 19.953125 
Q 21.40625 14.703125 20.25 10.296875 
Q 19.09375 5.90625 17.34375 1.75 
Q 15.59375 -2.40625 13.09375 -7.296875 
Q 10.796875 -6 9.296875 -5.546875 
Q 7.796875 -5.09375 5.5 -4.90625 
Q 8.5 -0.5 10.546875 3.34375 
Q 12.59375 7.203125 14 11.5 
Q 15.40625 15.796875 16.15625 21.1875 
Q 16.90625 26.59375 17.15625 34.140625 
Q 17.40625 41.703125 17.34375 51.890625 
Q 17.296875 62.09375 17 76.203125 
Q 18.296875 76 21.140625 75.890625 
Q 24 75.796875 28.640625 75.6875 
Q 33.296875 75.59375 39.890625 75.59375 
Q 46.5 75.59375 55.296875 75.59375 
Q 64.09375 75.59375 70.34375 75.59375 
Q 76.59375 75.59375 80.890625 75.6875 
Q 85.203125 75.796875 87.703125 75.890625 
Q 90.203125 76 91.59375 76.203125 
z
" id="STHeitiTC-Light-21407"/>
     </defs>
     <g transform="translate(210.821 124.350959)scale(0.0833 -0.0833)">
      <use xlink:href="#STHeitiTC-Light-22266"/>
      <use x="99.999985" xlink:href="#STHeitiTC-Light-21407"/>
     </g>
    </g>
    <g id="PathCollection_11">
     <g>
      <use style="fill:#d62728;stroke:#d62728;" x="195.827" xlink:href="#m68afa865fe" y="134.117884"/>
     </g>
    </g>
    <g id="text_21">
     <!-- 中卫 -->
     <defs>
      <path d="M 53.59375 8 
Q 53.59375 1.5 53.796875 -2.84375 
Q 54 -7.203125 54.5 -10.796875 
L 46.09375 -10.796875 
Q 46.5 -7.203125 46.75 -2.84375 
Q 47 1.5 47 8 
L 47 23.796875 
L 19.90625 23.796875 
L 19.90625 15.09375 
L 12.90625 15.09375 
Q 13.203125 18.296875 13.390625 21.796875 
Q 13.59375 25.296875 13.59375 28.5 
L 13.59375 52.5 
Q 13.59375 55.09375 13.390625 58 
Q 13.203125 60.90625 12.90625 62.796875 
Q 16.703125 62.296875 25.140625 62.046875 
Q 33.59375 61.796875 47 61.703125 
L 47 68.90625 
Q 47 72.59375 46.796875 76.1875 
Q 46.59375 79.796875 46.09375 82.703125 
Q 48.40625 82.203125 50.65625 81.953125 
Q 52.90625 81.703125 54.296875 81.703125 
Q 56 81.703125 56.203125 80.890625 
Q 56.40625 80.09375 54.796875 79.203125 
Q 54.203125 78.703125 53.890625 77.84375 
Q 53.59375 77 53.59375 75.296875 
L 53.59375 61.703125 
Q 66.90625 61.796875 75.046875 62.046875 
Q 83.203125 62.296875 87 62.796875 
Q 86.90625 61.796875 86.796875 60.25 
Q 86.703125 58.703125 86.640625 57 
Q 86.59375 55.296875 86.546875 53.546875 
Q 86.5 51.796875 86.5 50.5 
L 86.5 30.203125 
Q 86.5 27.203125 86.640625 23.140625 
Q 86.796875 19.09375 87 15.90625 
L 80.09375 15.90625 
L 80.09375 23.796875 
L 53.59375 23.796875 
z
M 47 56.703125 
L 19.90625 56.703125 
L 19.90625 29 
L 47 29 
z
M 53.59375 29 
L 80.09375 29 
L 80.09375 56.703125 
L 53.59375 56.703125 
z
" id="STHeitiTC-Light-20013"/>
      <path d="M 40.09375 66.40625 
Q 35.703125 66.40625 31.546875 66.34375 
Q 27.40625 66.296875 23.90625 66.140625 
Q 20.40625 66 17.59375 65.84375 
Q 14.796875 65.703125 13.09375 65.5 
L 13.09375 72.5 
Q 16.90625 72.09375 26.25 71.84375 
Q 35.59375 71.59375 48.203125 71.59375 
Q 55.796875 71.59375 61.59375 71.640625 
Q 67.40625 71.703125 71.75 71.796875 
Q 76.09375 71.90625 79.09375 72.09375 
Q 82.09375 72.296875 84 72.5 
L 82.40625 34.796875 
Q 82.203125 30.703125 81.34375 28.140625 
Q 80.5 25.59375 77.703125 24.09375 
Q 74.90625 22.59375 69.453125 21.84375 
Q 64 21.09375 54.59375 20.703125 
Q 54.796875 23.296875 54.25 24.890625 
Q 53.703125 26.5 51.796875 28.203125 
Q 60.09375 27.5 65 27.59375 
Q 69.90625 27.703125 72.453125 28.703125 
Q 75 29.703125 75.796875 31.640625 
Q 76.59375 33.59375 76.703125 36.59375 
L 77.40625 66.40625 
L 46.296875 66.40625 
L 46.296875 2.09375 
L 61.09375 2.09375 
Q 66.90625 2.09375 71.59375 2.1875 
Q 76.296875 2.296875 80.34375 2.4375 
Q 84.40625 2.59375 87.953125 2.84375 
Q 91.5 3.09375 94.90625 3.40625 
L 94.90625 -4.09375 
Q 91.5 -3.90625 86.75 -3.703125 
Q 82 -3.5 76.25 -3.34375 
Q 70.5 -3.203125 63.953125 -3.140625 
Q 57.40625 -3.09375 50.40625 -3.09375 
Q 34.09375 -3.09375 23.046875 -3.34375 
Q 12 -3.59375 5.09375 -4.09375 
L 5.09375 3.296875 
Q 8.5 3 11.890625 2.75 
Q 15.296875 2.5 19.34375 2.34375 
Q 23.40625 2.203125 28.40625 2.140625 
Q 33.40625 2.09375 40.09375 2.09375 
z
" id="STHeitiTC-Light-21355"/>
     </defs>
     <g transform="translate(210.821 136.304509)scale(0.0833 -0.0833)">
      <use xlink:href="#STHeitiTC-Light-20013"/>
      <use x="99.999985" xlink:href="#STHeitiTC-Light-21355"/>
     </g>
    </g>
    <g id="PathCollection_12">
     <g>
      <use style="fill:#9467bd;stroke:#9467bd;" x="195.827" xlink:href="#m36f8a682b4" y="146.029784"/>
     </g>
    </g>
    <g id="text_22">
     <!-- 宁东 -->
     <defs>
      <path d="M 26 38.203125 
Q 20.296875 38.203125 16.09375 38.046875 
Q 11.90625 37.90625 8.40625 37.5 
L 8.40625 43.90625 
Q 12.5 43.5 16.890625 43.34375 
Q 21.296875 43.203125 26 43.203125 
L 73.296875 43.203125 
Q 77.09375 43.203125 79.75 43.25 
Q 82.40625 43.296875 84.453125 43.34375 
Q 86.5 43.40625 88.140625 43.546875 
Q 89.796875 43.703125 91.59375 43.90625 
L 91.59375 37.5 
Q 89.796875 37.703125 88.09375 37.84375 
Q 86.40625 38 84.296875 38.046875 
Q 82.203125 38.09375 79.546875 38.140625 
Q 76.90625 38.203125 73.296875 38.203125 
L 56 38.203125 
L 56 0.703125 
Q 56 -2.296875 55.453125 -4.296875 
Q 54.90625 -6.296875 52.90625 -7.5 
Q 50.90625 -8.703125 47.046875 -9.140625 
Q 43.203125 -9.59375 36.59375 -9.5 
Q 36.59375 -8.296875 36.5 -7.390625 
Q 36.40625 -6.5 36.15625 -5.640625 
Q 35.90625 -4.796875 35.453125 -3.9375 
Q 35 -3.09375 34.203125 -1.90625 
Q 39.09375 -2.703125 42.09375 -2.953125 
Q 45.09375 -3.203125 46.796875 -2.59375 
Q 48.5 -2 49.09375 -0.546875 
Q 49.703125 0.90625 49.703125 3.40625 
L 49.703125 38.203125 
z
M 48 70.296875 
Q 46.296875 73.203125 44.6875 75.390625 
Q 43.09375 77.59375 41 79.90625 
L 47 83.09375 
Q 48.90625 80.09375 50.5 77.25 
Q 52.09375 74.40625 54.09375 70.296875 
Q 68 70.296875 76.546875 70.5 
Q 85.09375 70.703125 89.796875 71.203125 
L 89.796875 50.90625 
L 83.703125 50.90625 
L 83.703125 65.09375 
L 16.59375 65.09375 
L 16.59375 51 
L 10.59375 51 
L 10.59375 71.203125 
Q 13 71 16.09375 70.84375 
Q 19.203125 70.703125 23.546875 70.59375 
Q 27.90625 70.5 33.84375 70.390625 
Q 39.796875 70.296875 48 70.296875 
z
" id="STHeitiTC-Light-23425"/>
      <path d="M 37.203125 61.703125 
Q 33.09375 61.703125 28.84375 61.640625 
Q 24.59375 61.59375 20.75 61.5 
Q 16.90625 61.40625 13.59375 61.25 
Q 10.296875 61.09375 8.09375 60.90625 
L 8.09375 67.703125 
Q 10.296875 67.5 13.6875 67.34375 
Q 17.09375 67.203125 21.1875 67.09375 
Q 25.296875 67 30.046875 66.953125 
Q 34.796875 66.90625 39.90625 66.90625 
Q 41.59375 70.296875 42.890625 73.6875 
Q 44.203125 77.09375 45.40625 81 
Q 49.40625 78.703125 52.703125 78.40625 
Q 54.40625 78.203125 54.703125 77.453125 
Q 55 76.703125 53.203125 76 
Q 52.703125 75.796875 52.203125 75.34375 
Q 51.703125 74.90625 51 73.90625 
Q 50.296875 72.90625 49.34375 71.25 
Q 48.40625 69.59375 46.90625 66.90625 
L 72.59375 66.90625 
Q 78 66.90625 83.046875 67.09375 
Q 88.09375 67.296875 92.90625 67.703125 
L 92.90625 60.90625 
Q 88.09375 61.296875 83.046875 61.5 
Q 78 61.703125 72.59375 61.703125 
L 43.90625 61.703125 
Q 40.796875 56.40625 36.34375 50.09375 
Q 31.90625 43.796875 26 36 
L 50.90625 36 
L 50.90625 42.90625 
Q 50.90625 47.90625 50.796875 50.296875 
Q 50.703125 52.703125 50.5 54.203125 
Q 52.796875 53.703125 54.296875 53.5 
Q 55.796875 53.296875 57.5 53.40625 
Q 59.203125 53.5 59.546875 52.890625 
Q 59.90625 52.296875 58.703125 51.5 
Q 56.796875 50.09375 56.796875 47.796875 
L 56.796875 36 
Q 61.796875 36 66.4375 36.046875 
Q 71.09375 36.09375 75.046875 36.140625 
Q 79 36.203125 82 36.34375 
Q 85 36.5 86.796875 36.703125 
L 86.796875 30.09375 
Q 83.203125 30.5 75.25 30.75 
Q 67.296875 31 56.796875 31 
L 56.796875 0 
Q 56.796875 -2.40625 56.34375 -4 
Q 55.90625 -5.59375 54.25 -6.640625 
Q 52.59375 -7.703125 49.296875 -8.296875 
Q 46 -8.90625 40.296875 -9.296875 
Q 40.09375 -7.09375 39.296875 -5.09375 
Q 38.5 -3.09375 36.796875 -1.09375 
Q 41.40625 -1.703125 44.203125 -1.84375 
Q 47 -2 48.5 -1.59375 
Q 50 -1.203125 50.453125 -0.296875 
Q 50.90625 0.59375 50.90625 2 
L 50.90625 31 
Q 41.203125 31 35.140625 30.890625 
Q 29.09375 30.796875 25.546875 30.640625 
Q 22 30.5 20.390625 30.203125 
Q 18.796875 29.90625 17.90625 29.5 
Q 17.90625 31.09375 17.40625 32.9375 
Q 16.90625 34.796875 16.09375 36 
Q 17.203125 36.203125 18.140625 36.640625 
Q 19.09375 37.09375 20.09375 37.890625 
Q 21.09375 38.703125 22.1875 40 
Q 23.296875 41.296875 24.796875 43.296875 
Q 29 48.90625 31.953125 53.34375 
Q 34.90625 57.796875 37.203125 61.703125 
z
M 37.09375 18.296875 
Q 36.59375 18.203125 35.796875 17.796875 
Q 35 17.40625 34.140625 16.796875 
Q 33.296875 16.203125 32.5 15.5 
Q 31.703125 14.796875 31.09375 14.09375 
Q 26.203125 8.203125 20.953125 3.5 
Q 15.703125 -1.203125 10.203125 -5 
Q 9.203125 -3.296875 7.75 -1.84375 
Q 6.296875 -0.40625 4.59375 0.40625 
Q 8.203125 2.09375 11.546875 4.25 
Q 14.90625 6.40625 18.09375 9.25 
Q 21.296875 12.09375 24.546875 15.84375 
Q 27.796875 19.59375 31.296875 24.59375 
Q 32.703125 23.203125 34.25 22.09375 
Q 35.796875 21 37.296875 20.203125 
Q 38.40625 19.703125 38.296875 19.09375 
Q 38.203125 18.5 37.09375 18.296875 
z
M 90.5 -3.203125 
Q 87.59375 -0.203125 84.6875 2.5 
Q 81.796875 5.203125 78.6875 7.75 
Q 75.59375 10.296875 72.25 12.75 
Q 68.90625 15.203125 65 17.796875 
L 69 23 
Q 72.203125 20.796875 75.75 18.09375 
Q 79.296875 15.40625 82.84375 12.546875 
Q 86.40625 9.703125 89.65625 6.953125 
Q 92.90625 4.203125 95.40625 1.90625 
z
" id="STHeitiTC-Light-19996"/>
     </defs>
     <g transform="translate(210.821 148.216409)scale(0.0833 -0.0833)">
      <use xlink:href="#STHeitiTC-Light-23425"/>
      <use x="99.999985" xlink:href="#STHeitiTC-Light-19996"/>
     </g>
    </g>
    <g id="PathCollection_13">
     <g>
      <use style="fill:#8c564b;stroke:#8c564b;" x="195.827" xlink:href="#m9ea5446391" y="157.941684"/>
     </g>
    </g>
    <g id="text_23">
     <!-- 石嘴山 -->
     <defs>
      <path d="M 80.90625 37.296875 
L 36.59375 37.296875 
L 36.59375 7.40625 
L 80.90625 7.40625 
z
M 30.5 31.90625 
Q 27 27 22.453125 22 
Q 17.90625 17 11.703125 11.90625 
Q 10.59375 13.796875 9.25 14.9375 
Q 7.90625 16.09375 5.59375 16.90625 
Q 12.09375 20.90625 17.796875 26.40625 
Q 23.5 31.90625 28.09375 38.59375 
Q 32.703125 45.296875 36.140625 52.890625 
Q 39.59375 60.5 41.59375 68.59375 
Q 32.09375 68.5 24.6875 68.296875 
Q 17.296875 68.09375 11.40625 67.703125 
L 11.40625 74.5 
Q 19 74 29.296875 73.796875 
Q 39.59375 73.59375 53.796875 73.59375 
Q 60.90625 73.59375 66.75 73.640625 
Q 72.59375 73.703125 77.5 73.796875 
Q 82.40625 73.90625 86.546875 74.09375 
Q 90.703125 74.296875 94.40625 74.5 
L 94.40625 67.703125 
Q 90.296875 68 86.140625 68.203125 
Q 82 68.40625 76.75 68.5 
Q 71.5 68.59375 64.5 68.640625 
Q 57.5 68.703125 47.796875 68.703125 
Q 45.90625 61.296875 43.34375 55.046875 
Q 40.796875 48.796875 37.296875 42.59375 
L 73.296875 42.59375 
Q 78.09375 42.59375 81.796875 42.796875 
Q 85.5 43 87.90625 43.296875 
Q 87.5 41.296875 87.34375 39.046875 
Q 87.203125 36.796875 87.203125 32.59375 
L 87.203125 5.703125 
Q 87.203125 2.796875 87.34375 -0.5 
Q 87.5 -3.796875 87.90625 -7.40625 
L 80.90625 -7.40625 
L 80.90625 2.09375 
L 36.59375 2.09375 
L 36.59375 -9.296875 
L 29.703125 -9.296875 
Q 30.203125 -5.203125 30.34375 -1.046875 
Q 30.5 3.09375 30.5 7.59375 
z
" id="STHeitiTC-Light-30707"/>
      <path d="M 21.796875 65.796875 
L 11.90625 65.796875 
L 11.90625 24.40625 
L 21.796875 24.40625 
z
M 11.90625 8.296875 
L 5.59375 8.296875 
Q 6 11.09375 6.203125 13.75 
Q 6.40625 16.40625 6.40625 20 
L 6.40625 61.90625 
Q 6.40625 67.5 5.796875 71.09375 
Q 7.296875 70.796875 9.84375 70.640625 
Q 12.40625 70.5 16.703125 70.5 
Q 21.40625 70.5 23.796875 70.640625 
Q 26.203125 70.796875 27.59375 71.09375 
Q 27 67.796875 27 61.90625 
L 27 22.90625 
Q 27 20.5 27 18.84375 
Q 27 17.203125 27.046875 15.84375 
Q 27.09375 14.5 27.1875 13.25 
Q 27.296875 12 27.40625 10.59375 
L 21.796875 10.59375 
L 21.796875 19.703125 
L 11.90625 19.703125 
z
M 63.5 21.5 
L 81.59375 21.5 
L 81.59375 28.40625 
L 63.5 28.40625 
z
M 58.09375 28.40625 
L 41.203125 28.40625 
L 41.203125 21.5 
L 58.09375 21.5 
z
M 61.296875 32.09375 
L 67.40625 38.59375 
L 45.796875 38.59375 
Q 42.296875 35.09375 38.40625 32.09375 
z
M 40.203125 6.09375 
Q 39.296875 1.59375 37.390625 -1.75 
Q 35.5 -5.09375 32.296875 -8.59375 
Q 31.203125 -7.40625 29.84375 -6.453125 
Q 28.5 -5.5 26.59375 -4.703125 
Q 29.703125 -2.203125 31.546875 0.140625 
Q 33.40625 2.5 34.453125 5.203125 
Q 35.5 7.90625 35.84375 11.046875 
Q 36.203125 14.203125 36.203125 18.203125 
L 36.203125 30.40625 
Q 35.5 29.90625 34.796875 29.34375 
Q 34.09375 28.796875 33.296875 28.296875 
Q 32.5 29.703125 31.5 30.546875 
Q 30.5 31.40625 28.796875 32.296875 
Q 33.796875 34.59375 38.4375 38.546875 
Q 43.09375 42.5 48.09375 49 
Q 40.796875 47.5 36.75 46.296875 
Q 32.703125 45.09375 30.40625 44 
Q 29.59375 47.59375 27.796875 50.59375 
Q 28.59375 50.59375 29.890625 50.75 
Q 31.203125 50.90625 32.90625 51.09375 
L 32.90625 62.796875 
Q 32.90625 66.5 32.75 69.25 
Q 32.59375 72 32.296875 73.5 
Q 34 73.09375 35.796875 72.9375 
Q 37.59375 72.796875 39.203125 72.90625 
Q 40 72.90625 40.09375 72.453125 
Q 40.203125 72 39.59375 71.59375 
Q 38.796875 71.09375 38.296875 69.796875 
Q 37.796875 68.5 37.796875 66.203125 
L 37.796875 51.703125 
L 45.90625 53 
L 45.90625 69.5 
Q 45.90625 73.90625 45.796875 76 
Q 45.703125 78.09375 45.40625 79.796875 
Q 47.203125 79.5 48.953125 79.34375 
Q 50.703125 79.203125 51.90625 79.296875 
Q 53.296875 79.40625 53.59375 78.953125 
Q 53.90625 78.5 53.09375 78 
Q 50.90625 76.5 50.90625 73.09375 
L 50.90625 69 
Q 54.296875 69 56.6875 69.140625 
Q 59.09375 69.296875 60.5 69.5 
L 60.5 64.203125 
Q 57.59375 64.796875 50.90625 64.796875 
L 50.90625 53.90625 
L 61.40625 56 
Q 61.203125 54.796875 61.390625 53.75 
Q 61.59375 52.703125 61.90625 51.5 
Q 58.703125 51 55.953125 50.5 
Q 53.203125 50 50.703125 49.5 
Q 51.796875 48.90625 52.890625 48.453125 
Q 54 48 55.09375 47.703125 
Q 56.203125 47.40625 56.296875 46.796875 
Q 56.40625 46.203125 55 45.796875 
Q 53.703125 45.5 52.296875 44.59375 
Q 50.90625 43.703125 49.59375 42.5 
L 64.40625 42.5 
Q 66.5 42.5 68.203125 42.546875 
Q 69.90625 42.59375 71.5 42.640625 
Q 73.09375 42.703125 74.6875 42.890625 
Q 76.296875 43.09375 78.09375 43.40625 
L 67.09375 32.09375 
Q 72.796875 32.203125 78 32.5 
Q 83.203125 32.796875 87.40625 33.40625 
Q 87.203125 31.40625 87.09375 28.453125 
Q 87 25.5 87 23 
L 87 -0.796875 
Q 87 -3.09375 86.546875 -4.59375 
Q 86.09375 -6.09375 84.6875 -7.046875 
Q 83.296875 -8 80.75 -8.640625 
Q 78.203125 -9.296875 74 -9.796875 
Q 73.90625 -7.90625 73.296875 -6.15625 
Q 72.703125 -4.40625 71.703125 -2.796875 
Q 74.90625 -3.203125 76.84375 -3.25 
Q 78.796875 -3.296875 79.84375 -2.9375 
Q 80.90625 -2.59375 81.25 -1.796875 
Q 81.59375 -1 81.59375 0.296875 
L 81.59375 6.09375 
z
M 81.59375 10.296875 
L 81.59375 17.5 
L 63.5 17.5 
L 63.5 10.296875 
z
M 58.09375 10.296875 
L 58.09375 17.5 
L 41.203125 17.5 
Q 41.203125 13.40625 40.90625 10.296875 
z
M 69.703125 54.90625 
Q 69.703125 53.90625 70 53.15625 
Q 70.296875 52.40625 71.09375 51.953125 
Q 71.90625 51.5 73.453125 51.25 
Q 75 51 77.5 51 
Q 80.796875 51 82.84375 51.34375 
Q 84.90625 51.703125 86.09375 52.75 
Q 87.296875 53.796875 87.796875 55.546875 
Q 88.296875 57.296875 88.5 60.203125 
Q 90 58.5 91.296875 57.75 
Q 92.59375 57 94.296875 56.296875 
Q 93.5 53.09375 92.390625 51.09375 
Q 91.296875 49.09375 89.34375 47.9375 
Q 87.40625 46.796875 84.40625 46.390625 
Q 81.40625 46 76.90625 46 
Q 72.796875 46 70.34375 46.390625 
Q 67.90625 46.796875 66.65625 47.6875 
Q 65.40625 48.59375 65 50.046875 
Q 64.59375 51.5 64.59375 53.59375 
L 64.59375 69.296875 
Q 64.59375 72.40625 64.390625 74.90625 
Q 64.203125 77.40625 63.703125 80.40625 
Q 65.40625 80 67.25 79.796875 
Q 69.09375 79.59375 70.796875 79.796875 
Q 72 79.90625 72.140625 79.40625 
Q 72.296875 78.90625 71.5 78.40625 
Q 70.40625 77.703125 70.046875 76.203125 
Q 69.703125 74.703125 69.703125 72.703125 
L 69.703125 66.203125 
Q 74.90625 68.90625 78.296875 71.40625 
Q 81.703125 73.90625 84.90625 77.203125 
Q 85.703125 75.703125 87.09375 74.25 
Q 88.5 72.796875 89.90625 72 
Q 90.703125 71.5 90.546875 71.046875 
Q 90.40625 70.59375 89.296875 70.40625 
Q 88.5 70.203125 87.25 69.75 
Q 86 69.296875 83.75 68.25 
Q 81.5 67.203125 78.09375 65.453125 
Q 74.703125 63.703125 69.703125 60.90625 
z
" id="STHeitiTC-Light-22068"/>
      <path d="M 45.59375 6.5 
L 45.59375 68.703125 
Q 45.59375 71.703125 45.5 73.796875 
Q 45.40625 75.90625 45.25 77.40625 
Q 45.09375 78.90625 44.890625 79.90625 
Q 44.703125 80.90625 44.40625 81.796875 
Q 46.5 81.40625 48.453125 81.25 
Q 50.40625 81.09375 52.90625 81 
Q 54 81 54.09375 80.34375 
Q 54.203125 79.703125 53.296875 79.09375 
Q 52 78.203125 52 76.5 
L 52 6.5 
L 78.09375 6.5 
L 78.09375 48.296875 
Q 78.09375 51.703125 77.890625 54.25 
Q 77.703125 56.796875 77.203125 59.09375 
Q 78.5 58.90625 79.5 58.75 
Q 80.5 58.59375 81.296875 58.546875 
Q 82.09375 58.5 82.9375 58.453125 
Q 83.796875 58.40625 84.90625 58.40625 
Q 86.59375 58.40625 86.75 57.953125 
Q 86.90625 57.5 85.5 56.40625 
Q 84.90625 55.90625 84.703125 55.25 
Q 84.5 54.59375 84.5 53.203125 
L 84.5 1.296875 
Q 84.5 -1.203125 84.640625 -3.59375 
Q 84.796875 -6 85.09375 -8 
L 77.796875 -8 
Q 78 -6 78.046875 -3.546875 
Q 78.09375 -1.09375 78.09375 1.09375 
L 19.90625 1.09375 
L 19.90625 -8 
L 13.203125 -8 
Q 13.296875 -7 13.34375 -6.046875 
Q 13.40625 -5.09375 13.453125 -3.796875 
Q 13.5 -2.5 13.5 -0.703125 
Q 13.5 1.09375 13.5 3.703125 
L 13.5 48.796875 
Q 13.5 51.5 13.34375 54.640625 
Q 13.203125 57.796875 13 59.59375 
Q 15.5 59.09375 16.890625 58.9375 
Q 18.296875 58.796875 20.296875 58.703125 
Q 22.796875 58.59375 23 57.6875 
Q 23.203125 56.796875 20.90625 55.203125 
Q 19.90625 54.5 19.90625 52 
L 19.90625 6.5 
z
" id="STHeitiTC-Light-23665"/>
     </defs>
     <g transform="translate(210.821 160.128309)scale(0.0833 -0.0833)">
      <use xlink:href="#STHeitiTC-Light-30707"/>
      <use x="99.999985" xlink:href="#STHeitiTC-Light-22068"/>
      <use x="199.999969" xlink:href="#STHeitiTC-Light-23665"/>
     </g>
    </g>
    <g id="PathCollection_14">
     <g>
      <use style="fill:#e377c2;stroke:#e377c2;" x="195.827" xlink:href="#m348a61c7ee" y="169.869203"/>
     </g>
    </g>
    <g id="text_24">
     <!-- 宁东管委会 -->
     <defs>
      <path d="M 71.296875 28.59375 
L 71.296875 37.203125 
L 29.40625 37.203125 
L 29.40625 28.59375 
z
M 53.5 16.59375 
Q 61.90625 16.59375 69.59375 16.6875 
Q 77.296875 16.796875 83 17 
Q 82.703125 15.90625 82.59375 14.203125 
Q 82.5 12.5 82.5 10.203125 
L 82.5 -0.703125 
Q 82.5 -2.40625 82.59375 -4.15625 
Q 82.703125 -5.90625 83.203125 -8.5 
L 76.40625 -8.5 
L 76.40625 -3.296875 
L 29.40625 -3.296875 
Q 29.5 -5 29.59375 -6.703125 
Q 29.703125 -8.40625 29.90625 -10.09375 
L 22.5 -10.09375 
Q 22.90625 -7.796875 23.09375 -5.390625 
Q 23.296875 -3 23.296875 -1.203125 
L 23.296875 32.59375 
Q 23.296875 40 22.703125 42.40625 
Q 24.90625 42.296875 28.203125 42.25 
Q 31.5 42.203125 35.296875 42.140625 
Q 39.09375 42.09375 43 42.046875 
Q 46.90625 42 50.203125 42 
Q 53.5 42 57.5 42.046875 
Q 61.5 42.09375 65.390625 42.140625 
Q 69.296875 42.203125 72.59375 42.25 
Q 75.90625 42.296875 77.59375 42.40625 
Q 77.296875 40.59375 77.140625 37.84375 
Q 77 35.09375 77 33 
Q 76.90625 30.40625 77 27.953125 
Q 77.09375 25.5 77.59375 23.40625 
Q 75.5 23.5 73.09375 23.59375 
Q 70.703125 23.703125 67.796875 23.75 
Q 64.90625 23.796875 61.203125 23.84375 
Q 57.5 23.90625 52.90625 23.90625 
L 29.40625 23.90625 
L 29.40625 16.59375 
z
M 76.40625 11.90625 
L 29.40625 11.90625 
L 29.40625 1.59375 
L 76.40625 1.59375 
z
M 50.40625 53.09375 
Q 49.296875 54.90625 48.09375 56.296875 
Q 46.90625 57.703125 45.203125 59.203125 
L 49.296875 62.796875 
Q 51.5 60.203125 53.046875 58.140625 
Q 54.59375 56.09375 56.703125 53.09375 
Q 62.703125 53.09375 68.390625 53.140625 
Q 74.09375 53.203125 78.890625 53.296875 
Q 83.703125 53.40625 87.34375 53.5 
Q 91 53.59375 93 53.796875 
Q 92.59375 51.796875 92.4375 50.140625 
Q 92.296875 48.5 92.296875 46.296875 
Q 92.296875 43.90625 92.4375 41.703125 
Q 92.59375 39.5 92.796875 37.796875 
L 86.09375 37.796875 
L 86.09375 48.59375 
L 15.59375 48.59375 
L 15.59375 37.5 
L 8.90625 37.5 
Q 9.09375 39.5 9.1875 41.796875 
Q 9.296875 44.09375 9.296875 46.40625 
Q 9.296875 48.40625 9.1875 50.453125 
Q 9.09375 52.5 8.90625 53.796875 
Q 11 53.59375 15 53.5 
Q 19 53.40625 24.390625 53.296875 
Q 29.796875 53.203125 36.390625 53.140625 
Q 43 53.09375 50.40625 53.09375 
z
M 25 72.703125 
Q 32.40625 72.703125 36.953125 72.84375 
Q 41.5 73 44.09375 73.140625 
Q 46.703125 73.296875 47.890625 73.5 
Q 49.09375 73.703125 49.90625 73.90625 
L 49.90625 67.5 
Q 49.09375 67.59375 48.046875 67.75 
Q 47 67.90625 45.25 68 
Q 43.5 68.09375 40.84375 68.140625 
Q 38.203125 68.203125 34.203125 68.203125 
Q 35.90625 64.796875 36.90625 62.59375 
Q 37.90625 60.40625 39.09375 57.59375 
L 32.296875 55.796875 
Q 32 57.59375 31.75 59.046875 
Q 31.5 60.5 31.09375 61.953125 
Q 30.703125 63.40625 30.203125 64.90625 
Q 29.703125 66.40625 29 68.203125 
L 21.296875 68.203125 
Q 20 66.703125 18.84375 65.34375 
Q 17.703125 64 16.5 62.75 
Q 15.296875 61.5 13.890625 60.140625 
Q 12.5 58.796875 10.90625 57.296875 
Q 9.59375 59 8.4375 59.796875 
Q 7.296875 60.59375 5.796875 61.203125 
Q 11.5 64.796875 16.09375 70.34375 
Q 20.703125 75.90625 23.5 82.203125 
Q 24.90625 81.09375 26.5 80.25 
Q 28.09375 79.40625 29.40625 79 
Q 30.09375 78.796875 30.296875 78.1875 
Q 30.5 77.59375 29.40625 77.09375 
Q 29 76.90625 28.046875 76.046875 
Q 27.09375 75.203125 25 72.703125 
z
M 63.09375 68 
Q 61.703125 65.703125 60.203125 63.453125 
Q 58.703125 61.203125 57 59 
Q 55.796875 60.40625 54.75 61.15625 
Q 53.703125 61.90625 51.703125 62.40625 
Q 55.90625 66.703125 59.15625 71.390625 
Q 62.40625 76.09375 64.40625 82.5 
Q 66.203125 81.5 67.546875 80.84375 
Q 68.90625 80.203125 70.40625 79.59375 
Q 71.5 79.09375 71.546875 78.546875 
Q 71.59375 78 70.5 77.5 
Q 69.59375 77.09375 68.59375 76.09375 
Q 67.59375 75.09375 65.796875 72.296875 
Q 73.40625 72.296875 78.40625 72.4375 
Q 83.40625 72.59375 86.546875 72.796875 
Q 89.703125 73 91.390625 73.25 
Q 93.09375 73.5 94.203125 73.796875 
L 94.203125 67.40625 
Q 93.296875 67.5 92 67.640625 
Q 90.703125 67.796875 88.59375 67.84375 
Q 86.5 67.90625 83.390625 67.953125 
Q 80.296875 68 75.796875 68 
Q 76.703125 66.09375 77.390625 64.75 
Q 78.09375 63.40625 78.59375 62.34375 
Q 79.09375 61.296875 79.59375 60.296875 
Q 80.09375 59.296875 80.59375 58.203125 
L 74 56.203125 
Q 73.703125 57.703125 73.453125 58.84375 
Q 73.203125 60 72.84375 61.25 
Q 72.5 62.5 71.890625 64.09375 
Q 71.296875 65.703125 70.40625 68 
z
" id="STHeitiTC-Light-31649"/>
      <path d="M 95.296875 21.59375 
Q 92.09375 21.90625 86.296875 22.046875 
Q 80.5 22.203125 73.703125 22.203125 
Q 70.5 17.09375 67.390625 13.296875 
Q 64.296875 9.5 60.796875 6.59375 
Q 67.59375 4.90625 74.546875 2.75 
Q 81.5 0.59375 89.203125 -2.09375 
Q 87.5 -3.5 86.296875 -5.09375 
Q 85.09375 -6.703125 84.296875 -8.40625 
Q 80.5 -6.5 77 -4.84375 
Q 73.5 -3.203125 70.046875 -1.796875 
Q 66.59375 -0.40625 63 0.796875 
Q 59.40625 2 55.5 3.09375 
Q 51.90625 1.09375 47.546875 -0.5 
Q 43.203125 -2.09375 37.703125 -3.4375 
Q 32.203125 -4.796875 25.34375 -6 
Q 18.5 -7.203125 9.90625 -8.5 
Q 9.40625 -4.703125 6.09375 -2.09375 
Q 13.59375 -1.5 19.84375 -0.84375 
Q 26.09375 -0.203125 31.1875 0.640625 
Q 36.296875 1.5 40.4375 2.59375 
Q 44.59375 3.703125 48.09375 5.09375 
Q 42.59375 6.5 36.1875 8 
Q 29.796875 9.5 21.90625 11.296875 
Q 24.09375 13.203125 26.75 16 
Q 29.40625 18.796875 32.09375 22.203125 
Q 26.5 22.203125 22.296875 22.140625 
Q 18.09375 22.09375 14.890625 22.046875 
Q 11.703125 22 9.34375 21.84375 
Q 7 21.703125 5.09375 21.59375 
L 5.09375 27.5 
Q 7.203125 27.296875 9.546875 27.1875 
Q 11.90625 27.09375 15.34375 27.046875 
Q 18.796875 27 23.6875 26.953125 
Q 28.59375 26.90625 35.796875 26.90625 
Q 38 29.90625 40 32.90625 
Q 42 35.90625 43.40625 38.796875 
Q 45.59375 36.703125 48.09375 36.09375 
Q 49.796875 35.59375 49.84375 34.796875 
Q 49.90625 34 48.09375 33.5 
Q 47.796875 33.40625 47.34375 33.09375 
Q 46.90625 32.796875 46.25 32.046875 
Q 45.59375 31.296875 44.546875 30.046875 
Q 43.5 28.796875 42 26.90625 
L 61.796875 26.90625 
Q 69.296875 26.90625 74.640625 26.90625 
Q 80 26.90625 83.84375 27 
Q 87.703125 27.09375 90.34375 27.1875 
Q 93 27.296875 95.296875 27.5 
z
M 38.40625 22.203125 
Q 37 20.40625 35.453125 18.34375 
Q 33.90625 16.296875 31.90625 13.703125 
Q 37.703125 12.296875 43.25 11 
Q 48.796875 9.703125 54.40625 8.296875 
Q 58.296875 10.796875 61.4375 14.1875 
Q 64.59375 17.59375 67.5 22.203125 
z
M 53.703125 56.40625 
L 53.703125 51.703125 
Q 53.703125 48.703125 53.75 44.953125 
Q 53.796875 41.203125 54 37.09375 
L 47.40625 37.09375 
Q 47.703125 41.40625 47.796875 45.046875 
Q 47.90625 48.703125 47.90625 51.703125 
L 47.90625 56.40625 
L 45.5 56.40625 
Q 42.90625 53.203125 39.15625 50 
Q 35.40625 46.796875 30.84375 43.75 
Q 26.296875 40.703125 21.140625 38 
Q 16 35.296875 10.703125 33.203125 
Q 9.59375 35.296875 8.296875 36.640625 
Q 7 38 4.703125 38.90625 
Q 12.90625 40.296875 21.40625 44.640625 
Q 29.90625 49 39.203125 56.296875 
Q 34.703125 56.296875 30.34375 56.25 
Q 26 56.203125 22.09375 56.046875 
Q 18.203125 55.90625 14.84375 55.75 
Q 11.5 55.59375 9.09375 55.40625 
L 9.09375 61.796875 
Q 15.09375 61.296875 24.5 61.046875 
Q 33.90625 60.796875 47.90625 60.796875 
L 47.90625 70.203125 
Q 44 69.90625 39.953125 69.59375 
Q 35.90625 69.296875 32.09375 69.09375 
Q 28.296875 68.90625 24.84375 68.703125 
Q 21.40625 68.5 18.703125 68.40625 
Q 18.5 70.203125 17.890625 71.75 
Q 17.296875 73.296875 16.203125 74.703125 
Q 36.90625 73.40625 52.296875 74.84375 
Q 67.703125 76.296875 76.09375 79.5 
Q 77.203125 77.59375 78.453125 76.34375 
Q 79.703125 75.09375 81.09375 74.09375 
Q 81.703125 73.59375 81.25 72.9375 
Q 80.796875 72.296875 79.5 72.5 
Q 78.296875 72.59375 76.25 72.546875 
Q 74.203125 72.5 71.796875 72.34375 
Q 69.40625 72.203125 66.84375 72 
Q 64.296875 71.796875 62 71.5 
Q 60.203125 71.296875 58.09375 71.09375 
Q 56 70.90625 53.703125 70.703125 
L 53.703125 60.796875 
Q 60.796875 60.796875 66.390625 60.84375 
Q 72 60.90625 76.5 61.046875 
Q 81 61.203125 84.5 61.34375 
Q 88 61.5 90.90625 61.796875 
L 90.90625 55.40625 
Q 87 55.796875 79.84375 56.046875 
Q 72.703125 56.296875 61.59375 56.40625 
Q 64.40625 53.59375 68.09375 50.75 
Q 71.796875 47.90625 75.890625 45.34375 
Q 80 42.796875 84.390625 40.6875 
Q 88.796875 38.59375 93 37.40625 
Q 90.296875 35.09375 88.5 31.703125 
Q 78.59375 36.40625 70.59375 42.65625 
Q 62.59375 48.90625 56.203125 56.40625 
z
" id="STHeitiTC-Light-22996"/>
      <path d="M 72.703125 41.40625 
Q 70.59375 41.703125 68.296875 41.84375 
Q 66 42 63.296875 42.140625 
Q 60.59375 42.296875 57.34375 42.34375 
Q 54.09375 42.40625 50 42.40625 
Q 45.90625 42.40625 42.65625 42.34375 
Q 39.40625 42.296875 36.703125 42.140625 
Q 34 42 31.75 41.84375 
Q 29.5 41.703125 27.296875 41.40625 
L 27.296875 48.5 
Q 29.5 48.203125 31.84375 48.046875 
Q 34.203125 47.90625 36.84375 47.75 
Q 39.5 47.59375 42.703125 47.546875 
Q 45.90625 47.5 50 47.5 
Q 54.09375 47.5 57.296875 47.546875 
Q 60.5 47.59375 63.203125 47.75 
Q 65.90625 47.90625 68.203125 48.046875 
Q 70.5 48.203125 72.703125 48.5 
z
M 71.5 2.703125 
Q 68.59375 6 65.640625 8.703125 
Q 62.703125 11.40625 58.90625 14.5 
L 63.09375 18.796875 
Q 66.703125 15.5 69.546875 12.84375 
Q 72.40625 10.203125 74.953125 7.59375 
Q 77.5 5 80.046875 2.203125 
Q 82.59375 -0.59375 85.59375 -4 
L 80.5 -8.296875 
Q 77.90625 -4.90625 75.703125 -2.296875 
Q 64.796875 -2.703125 56.75 -3.09375 
Q 48.703125 -3.5 42.890625 -3.796875 
Q 37.09375 -4.09375 33.1875 -4.390625 
Q 29.296875 -4.703125 26.59375 -5.046875 
Q 23.90625 -5.40625 22 -5.796875 
Q 20.09375 -6.203125 18.40625 -6.703125 
Q 18.09375 -4.796875 17.1875 -2.6875 
Q 16.296875 -0.59375 15.40625 0.796875 
L 22.09375 0.796875 
Q 24.90625 3.59375 27.796875 6.84375 
Q 30.703125 10.09375 33.390625 13.390625 
Q 36.09375 16.703125 38.34375 19.796875 
Q 40.59375 22.90625 42.09375 25.40625 
Q 38.09375 25.40625 33.75 25.34375 
Q 29.40625 25.296875 25.25 25.140625 
Q 21.09375 25 17.34375 24.84375 
Q 13.59375 24.703125 10.796875 24.5 
L 10.796875 31.296875 
Q 17.59375 30.796875 27.296875 30.59375 
Q 37 30.40625 50.09375 30.40625 
Q 75.59375 30.40625 89.09375 31.296875 
L 89.09375 24.5 
Q 85.90625 24.703125 81.796875 24.890625 
Q 77.703125 25.09375 72.34375 25.1875 
Q 67 25.296875 60.203125 25.34375 
Q 53.40625 25.40625 44.703125 25.40625 
Q 47 23.703125 49.09375 22.703125 
Q 51.09375 21.796875 50.75 20.890625 
Q 50.40625 20 48.90625 20 
Q 48.296875 20 46.6875 19 
Q 45.09375 18 42.296875 14.703125 
Q 39.40625 11.203125 36.09375 7.59375 
Q 32.796875 4 29.796875 1 
Q 34.296875 1.09375 39.640625 1.25 
Q 45 1.40625 50.5 1.59375 
Q 56 1.796875 61.390625 2.09375 
Q 66.796875 2.40625 71.5 2.703125 
z
M 50 71.09375 
Q 46.09375 66.09375 41.640625 61.640625 
Q 37.203125 57.203125 32.25 53.203125 
Q 27.296875 49.203125 21.75 45.5 
Q 16.203125 41.796875 9.90625 38.203125 
Q 8.796875 40.40625 7.546875 41.75 
Q 6.296875 43.09375 4.203125 44.203125 
Q 8.40625 45.703125 12.953125 48 
Q 17.5 50.296875 22 53.140625 
Q 26.5 56 30.75 59.390625 
Q 35 62.796875 38.59375 66.5 
Q 42 70 44.890625 74.453125 
Q 47.796875 78.90625 49.203125 82.703125 
Q 50.5 81.59375 52.25 80.59375 
Q 54 79.59375 55.703125 79.203125 
Q 57.40625 78.796875 57.296875 78.09375 
Q 57.203125 77.40625 55.5 77 
Q 55.09375 76.90625 54.5 76.40625 
Q 53.90625 75.90625 53.203125 75.203125 
Q 57.796875 69.796875 62.4375 65.390625 
Q 67.09375 61 72.1875 57.390625 
Q 77.296875 53.796875 83.046875 51.046875 
Q 88.796875 48.296875 95.703125 46.296875 
Q 94 45 93.203125 43.75 
Q 92.40625 42.5 91.59375 40.203125 
Q 85.40625 42.5 79.953125 45.5 
Q 74.5 48.5 69.453125 52.25 
Q 64.40625 56 59.59375 60.703125 
Q 54.796875 65.40625 50 71.09375 
z
" id="STHeitiTC-Light-20250"/>
     </defs>
     <g transform="translate(210.821 172.055828)scale(0.0833 -0.0833)">
      <use xlink:href="#STHeitiTC-Light-23425"/>
      <use x="99.999985" xlink:href="#STHeitiTC-Light-19996"/>
      <use x="199.999969" xlink:href="#STHeitiTC-Light-31649"/>
      <use x="299.999954" xlink:href="#STHeitiTC-Light-22996"/>
      <use x="399.999939" xlink:href="#STHeitiTC-Light-20250"/>
     </g>
    </g>
   </g>
  </g>
 </g>
 <defs>
  <clipPath id="p211582130c">
   <rect height="554.4" width="1116" x="180" y="86.4"/>
  </clipPath>
 </defs>
</svg>
