<?xml version="1.0" encoding="utf-8" standalone="no"?>
<!DOCTYPE svg PUBLIC "-//W3C//DTD SVG 1.1//EN"
  "http://www.w3.org/Graphics/SVG/1.1/DTD/svg11.dtd">
<!-- Created with matplotlib (https://matplotlib.org/) -->
<svg height="864pt" version="1.1" viewBox="0 0 1440 864" width="1440pt" xmlns="http://www.w3.org/2000/svg" xmlns:xlink="http://www.w3.org/1999/xlink">
 <defs>
  <style type="text/css">
*{stroke-linecap:butt;stroke-linejoin:round;}
  </style>
 </defs>
 <g id="figure_1">
  <g id="patch_1">
   <path d="M 0 864 
L 1440 864 
L 1440 0 
L 0 0 
z
" style="fill:#ffffff;"/>
  </g>
  <g id="axes_1">
   <g id="patch_2">
    <path d="M 180 691.2 
L 1296 691.2 
L 1296 103.68 
L 180 103.68 
z
" style="fill:#ffffff;"/>
   </g>
   <g id="matplotlib.axis_1">
    <g id="xtick_1">
     <g id="line2d_1">
      <path clip-path="url(#pe60cb79345)" d="M 342.16172 691.2 
L 342.16172 103.68 
" style="fill:none;stroke:#b0b0b0;stroke-linecap:square;stroke-width:0.8;"/>
     </g>
     <g id="line2d_2">
      <defs>
       <path d="M 0 0 
L 0 3.5 
" id="ma135ca2b50" style="stroke:#000000;stroke-width:0.8;"/>
      </defs>
      <g>
       <use style="stroke:#000000;stroke-width:0.8;" x="342.16172" xlink:href="#ma135ca2b50" y="691.2"/>
      </g>
     </g>
     <g id="text_1">
      <!-- 2020-02-05 -->
      <defs>
       <path d="M 19.1875 8.296875 
L 53.609375 8.296875 
L 53.609375 0 
L 7.328125 0 
L 7.328125 8.296875 
Q 12.9375 14.109375 22.625 23.890625 
Q 32.328125 33.6875 34.8125 36.53125 
Q 39.546875 41.84375 41.421875 45.53125 
Q 43.3125 49.21875 43.3125 52.78125 
Q 43.3125 58.59375 39.234375 62.25 
Q 35.15625 65.921875 28.609375 65.921875 
Q 23.96875 65.921875 18.8125 64.3125 
Q 13.671875 62.703125 7.8125 59.421875 
L 7.8125 69.390625 
Q 13.765625 71.78125 18.9375 73 
Q 24.125 74.21875 28.421875 74.21875 
Q 39.75 74.21875 46.484375 68.546875 
Q 53.21875 62.890625 53.21875 53.421875 
Q 53.21875 48.921875 51.53125 44.890625 
Q 49.859375 40.875 45.40625 35.40625 
Q 44.1875 33.984375 37.640625 27.21875 
Q 31.109375 20.453125 19.1875 8.296875 
z
" id="DejaVuSans-50"/>
       <path d="M 31.78125 66.40625 
Q 24.171875 66.40625 20.328125 58.90625 
Q 16.5 51.421875 16.5 36.375 
Q 16.5 21.390625 20.328125 13.890625 
Q 24.171875 6.390625 31.78125 6.390625 
Q 39.453125 6.390625 43.28125 13.890625 
Q 47.125 21.390625 47.125 36.375 
Q 47.125 51.421875 43.28125 58.90625 
Q 39.453125 66.40625 31.78125 66.40625 
z
M 31.78125 74.21875 
Q 44.046875 74.21875 50.515625 64.515625 
Q 56.984375 54.828125 56.984375 36.375 
Q 56.984375 17.96875 50.515625 8.265625 
Q 44.046875 -1.421875 31.78125 -1.421875 
Q 19.53125 -1.421875 13.0625 8.265625 
Q 6.59375 17.96875 6.59375 36.375 
Q 6.59375 54.828125 13.0625 64.515625 
Q 19.53125 74.21875 31.78125 74.21875 
z
" id="DejaVuSans-48"/>
       <path d="M 4.890625 31.390625 
L 31.203125 31.390625 
L 31.203125 23.390625 
L 4.890625 23.390625 
z
" id="DejaVuSans-45"/>
       <path d="M 10.796875 72.90625 
L 49.515625 72.90625 
L 49.515625 64.59375 
L 19.828125 64.59375 
L 19.828125 46.734375 
Q 21.96875 47.46875 24.109375 47.828125 
Q 26.265625 48.1875 28.421875 48.1875 
Q 40.625 48.1875 47.75 41.5 
Q 54.890625 34.8125 54.890625 23.390625 
Q 54.890625 11.625 47.5625 5.09375 
Q 40.234375 -1.421875 26.90625 -1.421875 
Q 22.3125 -1.421875 17.546875 -0.640625 
Q 12.796875 0.140625 7.71875 1.703125 
L 7.71875 11.625 
Q 12.109375 9.234375 16.796875 8.0625 
Q 21.484375 6.890625 26.703125 6.890625 
Q 35.15625 6.890625 40.078125 11.328125 
Q 45.015625 15.765625 45.015625 23.390625 
Q 45.015625 31 40.078125 35.4375 
Q 35.15625 39.890625 26.703125 39.890625 
Q 22.75 39.890625 18.8125 39.015625 
Q 14.890625 38.140625 10.796875 36.28125 
z
" id="DejaVuSans-53"/>
      </defs>
      <g transform="translate(290.792268 733.838252)rotate(-30)scale(0.1 -0.1)">
       <use xlink:href="#DejaVuSans-50"/>
       <use x="63.623047" xlink:href="#DejaVuSans-48"/>
       <use x="127.246094" xlink:href="#DejaVuSans-50"/>
       <use x="190.869141" xlink:href="#DejaVuSans-48"/>
       <use x="254.492188" xlink:href="#DejaVuSans-45"/>
       <use x="290.576172" xlink:href="#DejaVuSans-48"/>
       <use x="354.199219" xlink:href="#DejaVuSans-50"/>
       <use x="417.822266" xlink:href="#DejaVuSans-45"/>
       <use x="453.90625" xlink:href="#DejaVuSans-48"/>
       <use x="517.529297" xlink:href="#DejaVuSans-53"/>
      </g>
     </g>
    </g>
    <g id="xtick_2">
     <g id="line2d_3">
      <path clip-path="url(#pe60cb79345)" d="M 534.262979 691.2 
L 534.262979 103.68 
" style="fill:none;stroke:#b0b0b0;stroke-linecap:square;stroke-width:0.8;"/>
     </g>
     <g id="line2d_4">
      <g>
       <use style="stroke:#000000;stroke-width:0.8;" x="534.262979" xlink:href="#ma135ca2b50" y="691.2"/>
      </g>
     </g>
     <g id="text_2">
      <!-- 2020-02-09 -->
      <defs>
       <path d="M 10.984375 1.515625 
L 10.984375 10.5 
Q 14.703125 8.734375 18.5 7.8125 
Q 22.3125 6.890625 25.984375 6.890625 
Q 35.75 6.890625 40.890625 13.453125 
Q 46.046875 20.015625 46.78125 33.40625 
Q 43.953125 29.203125 39.59375 26.953125 
Q 35.25 24.703125 29.984375 24.703125 
Q 19.046875 24.703125 12.671875 31.3125 
Q 6.296875 37.9375 6.296875 49.421875 
Q 6.296875 60.640625 12.9375 67.421875 
Q 19.578125 74.21875 30.609375 74.21875 
Q 43.265625 74.21875 49.921875 64.515625 
Q 56.59375 54.828125 56.59375 36.375 
Q 56.59375 19.140625 48.40625 8.859375 
Q 40.234375 -1.421875 26.421875 -1.421875 
Q 22.703125 -1.421875 18.890625 -0.6875 
Q 15.09375 0.046875 10.984375 1.515625 
z
M 30.609375 32.421875 
Q 37.25 32.421875 41.125 36.953125 
Q 45.015625 41.5 45.015625 49.421875 
Q 45.015625 57.28125 41.125 61.84375 
Q 37.25 66.40625 30.609375 66.40625 
Q 23.96875 66.40625 20.09375 61.84375 
Q 16.21875 57.28125 16.21875 49.421875 
Q 16.21875 41.5 20.09375 36.953125 
Q 23.96875 32.421875 30.609375 32.421875 
z
" id="DejaVuSans-57"/>
      </defs>
      <g transform="translate(482.893527 733.838252)rotate(-30)scale(0.1 -0.1)">
       <use xlink:href="#DejaVuSans-50"/>
       <use x="63.623047" xlink:href="#DejaVuSans-48"/>
       <use x="127.246094" xlink:href="#DejaVuSans-50"/>
       <use x="190.869141" xlink:href="#DejaVuSans-48"/>
       <use x="254.492188" xlink:href="#DejaVuSans-45"/>
       <use x="290.576172" xlink:href="#DejaVuSans-48"/>
       <use x="354.199219" xlink:href="#DejaVuSans-50"/>
       <use x="417.822266" xlink:href="#DejaVuSans-45"/>
       <use x="453.90625" xlink:href="#DejaVuSans-48"/>
       <use x="517.529297" xlink:href="#DejaVuSans-57"/>
      </g>
     </g>
    </g>
    <g id="xtick_3">
     <g id="line2d_5">
      <path clip-path="url(#pe60cb79345)" d="M 726.364238 691.2 
L 726.364238 103.68 
" style="fill:none;stroke:#b0b0b0;stroke-linecap:square;stroke-width:0.8;"/>
     </g>
     <g id="line2d_6">
      <g>
       <use style="stroke:#000000;stroke-width:0.8;" x="726.364238" xlink:href="#ma135ca2b50" y="691.2"/>
      </g>
     </g>
     <g id="text_3">
      <!-- 2020-02-13 -->
      <defs>
       <path d="M 12.40625 8.296875 
L 28.515625 8.296875 
L 28.515625 63.921875 
L 10.984375 60.40625 
L 10.984375 69.390625 
L 28.421875 72.90625 
L 38.28125 72.90625 
L 38.28125 8.296875 
L 54.390625 8.296875 
L 54.390625 0 
L 12.40625 0 
z
" id="DejaVuSans-49"/>
       <path d="M 40.578125 39.3125 
Q 47.65625 37.796875 51.625 33 
Q 55.609375 28.21875 55.609375 21.1875 
Q 55.609375 10.40625 48.1875 4.484375 
Q 40.765625 -1.421875 27.09375 -1.421875 
Q 22.515625 -1.421875 17.65625 -0.515625 
Q 12.796875 0.390625 7.625 2.203125 
L 7.625 11.71875 
Q 11.71875 9.328125 16.59375 8.109375 
Q 21.484375 6.890625 26.8125 6.890625 
Q 36.078125 6.890625 40.9375 10.546875 
Q 45.796875 14.203125 45.796875 21.1875 
Q 45.796875 27.640625 41.28125 31.265625 
Q 36.765625 34.90625 28.71875 34.90625 
L 20.21875 34.90625 
L 20.21875 43.015625 
L 29.109375 43.015625 
Q 36.375 43.015625 40.234375 45.921875 
Q 44.09375 48.828125 44.09375 54.296875 
Q 44.09375 59.90625 40.109375 62.90625 
Q 36.140625 65.921875 28.71875 65.921875 
Q 24.65625 65.921875 20.015625 65.03125 
Q 15.375 64.15625 9.8125 62.3125 
L 9.8125 71.09375 
Q 15.4375 72.65625 20.34375 73.4375 
Q 25.25 74.21875 29.59375 74.21875 
Q 40.828125 74.21875 47.359375 69.109375 
Q 53.90625 64.015625 53.90625 55.328125 
Q 53.90625 49.265625 50.4375 45.09375 
Q 46.96875 40.921875 40.578125 39.3125 
z
" id="DejaVuSans-51"/>
      </defs>
      <g transform="translate(674.994787 733.838252)rotate(-30)scale(0.1 -0.1)">
       <use xlink:href="#DejaVuSans-50"/>
       <use x="63.623047" xlink:href="#DejaVuSans-48"/>
       <use x="127.246094" xlink:href="#DejaVuSans-50"/>
       <use x="190.869141" xlink:href="#DejaVuSans-48"/>
       <use x="254.492188" xlink:href="#DejaVuSans-45"/>
       <use x="290.576172" xlink:href="#DejaVuSans-48"/>
       <use x="354.199219" xlink:href="#DejaVuSans-50"/>
       <use x="417.822266" xlink:href="#DejaVuSans-45"/>
       <use x="453.90625" xlink:href="#DejaVuSans-49"/>
       <use x="517.529297" xlink:href="#DejaVuSans-51"/>
      </g>
     </g>
    </g>
    <g id="xtick_4">
     <g id="line2d_7">
      <path clip-path="url(#pe60cb79345)" d="M 918.465497 691.2 
L 918.465497 103.68 
" style="fill:none;stroke:#b0b0b0;stroke-linecap:square;stroke-width:0.8;"/>
     </g>
     <g id="line2d_8">
      <g>
       <use style="stroke:#000000;stroke-width:0.8;" x="918.465497" xlink:href="#ma135ca2b50" y="691.2"/>
      </g>
     </g>
     <g id="text_4">
      <!-- 2020-02-17 -->
      <defs>
       <path d="M 8.203125 72.90625 
L 55.078125 72.90625 
L 55.078125 68.703125 
L 28.609375 0 
L 18.3125 0 
L 43.21875 64.59375 
L 8.203125 64.59375 
z
" id="DejaVuSans-55"/>
      </defs>
      <g transform="translate(867.096046 733.838252)rotate(-30)scale(0.1 -0.1)">
       <use xlink:href="#DejaVuSans-50"/>
       <use x="63.623047" xlink:href="#DejaVuSans-48"/>
       <use x="127.246094" xlink:href="#DejaVuSans-50"/>
       <use x="190.869141" xlink:href="#DejaVuSans-48"/>
       <use x="254.492188" xlink:href="#DejaVuSans-45"/>
       <use x="290.576172" xlink:href="#DejaVuSans-48"/>
       <use x="354.199219" xlink:href="#DejaVuSans-50"/>
       <use x="417.822266" xlink:href="#DejaVuSans-45"/>
       <use x="453.90625" xlink:href="#DejaVuSans-49"/>
       <use x="517.529297" xlink:href="#DejaVuSans-55"/>
      </g>
     </g>
    </g>
    <g id="xtick_5">
     <g id="line2d_9">
      <path clip-path="url(#pe60cb79345)" d="M 1110.566756 691.2 
L 1110.566756 103.68 
" style="fill:none;stroke:#b0b0b0;stroke-linecap:square;stroke-width:0.8;"/>
     </g>
     <g id="line2d_10">
      <g>
       <use style="stroke:#000000;stroke-width:0.8;" x="1110.566756" xlink:href="#ma135ca2b50" y="691.2"/>
      </g>
     </g>
     <g id="text_5">
      <!-- 2020-02-21 -->
      <g transform="translate(1059.197305 733.838252)rotate(-30)scale(0.1 -0.1)">
       <use xlink:href="#DejaVuSans-50"/>
       <use x="63.623047" xlink:href="#DejaVuSans-48"/>
       <use x="127.246094" xlink:href="#DejaVuSans-50"/>
       <use x="190.869141" xlink:href="#DejaVuSans-48"/>
       <use x="254.492188" xlink:href="#DejaVuSans-45"/>
       <use x="290.576172" xlink:href="#DejaVuSans-48"/>
       <use x="354.199219" xlink:href="#DejaVuSans-50"/>
       <use x="417.822266" xlink:href="#DejaVuSans-45"/>
       <use x="453.90625" xlink:href="#DejaVuSans-50"/>
       <use x="517.529297" xlink:href="#DejaVuSans-49"/>
      </g>
     </g>
    </g>
    <g id="text_6">
     <!-- Date -->
     <defs>
      <path d="M 8.703125 6 
L 8.703125 77.796875 
L 23.59375 77.796875 
Q 38.90625 77.796875 46.046875 75.546875 
Q 53.203125 73.296875 58.390625 68.4375 
Q 63.59375 63.59375 66.390625 56.59375 
Q 69.203125 49.59375 69.203125 40.25 
Q 69.203125 30.90625 64.84375 22.65625 
Q 60.5 14.40625 53.046875 10.203125 
Q 45.59375 6 31.59375 6 
z
M 15.59375 12.796875 
L 23.90625 12.796875 
Q 36.90625 12.796875 42.75 14.09375 
Q 48.59375 15.40625 53 19.25 
Q 57.40625 23.09375 59.703125 28.59375 
Q 62 34.09375 62 41.1875 
Q 62 48.296875 59.34375 54.296875 
Q 56.703125 60.296875 51.796875 64.1875 
Q 46.90625 68.09375 40.25 69.4375 
Q 33.59375 70.796875 20.703125 70.796875 
L 15.59375 70.796875 
z
" id="STHeitiTC-Light-68"/>
      <path d="M 60.5 59.09375 
L 60.5 6 
L 53.796875 6 
L 53.796875 15.09375 
Q 44.703125 4.203125 33 4.203125 
Q 21.296875 4.203125 13.25 12.546875 
Q 5.203125 20.90625 5.203125 32.453125 
Q 5.203125 44 13.296875 52.25 
Q 21.40625 60.5 32.703125 60.5 
Q 45.703125 60.5 53.796875 49.40625 
L 53.796875 59.09375 
z
M 54.203125 32.296875 
Q 54.203125 41.40625 48.09375 47.65625 
Q 42 53.90625 33.140625 53.90625 
Q 24.296875 53.90625 18.1875 47.453125 
Q 12.09375 41 12.09375 32.203125 
Q 12.09375 23.40625 18.296875 16.953125 
Q 24.5 10.5 33.140625 10.5 
Q 41.796875 10.5 48 16.703125 
Q 54.203125 22.90625 54.203125 32.296875 
z
" id="STHeitiTC-Light-97"/>
      <path d="M 20.5 14.40625 
Q 20.5 11.703125 21.203125 11.203125 
Q 21.90625 10.703125 24.796875 10.703125 
L 28.90625 10.703125 
L 28.90625 4.90625 
Q 24.703125 4.203125 22.296875 4.203125 
Q 17.796875 4.203125 15.6875 6.390625 
Q 13.59375 8.59375 13.59375 13.296875 
L 13.59375 53.296875 
L 4.203125 53.296875 
L 4.203125 59.09375 
L 13.59375 59.09375 
L 13.59375 79.59375 
L 20.5 79.59375 
L 20.5 59.09375 
L 31.296875 59.09375 
L 31.296875 53.296875 
L 20.5 53.296875 
z
" id="STHeitiTC-Light-116"/>
      <path d="M 52.296875 23.203125 
L 58.09375 20.203125 
Q 49.5 4.203125 32.703125 4.203125 
Q 20.703125 4.203125 12.890625 12.453125 
Q 5.09375 20.703125 5.09375 32.296875 
Q 5.09375 43.90625 12.9375 52.203125 
Q 20.796875 60.5 32.34375 60.5 
Q 43.90625 60.5 51.75 52.796875 
Q 59.59375 45.09375 59.90625 31.796875 
L 12.09375 31.796875 
Q 12.40625 22.203125 18.15625 16.34375 
Q 23.90625 10.5 32.09375 10.5 
Q 45.59375 10.5 52.296875 23.203125 
z
M 52.296875 37.703125 
Q 50.90625 45.296875 45.296875 49.59375 
Q 39.703125 53.90625 32.40625 53.90625 
Q 17.40625 53.90625 12.796875 37.703125 
z
" id="STHeitiTC-Light-101"/>
     </defs>
     <g transform="translate(725.919531 747.59869)scale(0.1 -0.1)">
      <use xlink:href="#STHeitiTC-Light-68"/>
      <use x="74.399994" xlink:href="#STHeitiTC-Light-97"/>
      <use x="142.699982" xlink:href="#STHeitiTC-Light-116"/>
      <use x="176.599976" xlink:href="#STHeitiTC-Light-101"/>
     </g>
    </g>
   </g>
   <g id="matplotlib.axis_2">
    <g id="ytick_1">
     <g id="line2d_11">
      <path clip-path="url(#pe60cb79345)" d="M 180 611.083636 
L 1296 611.083636 
" style="fill:none;stroke:#b0b0b0;stroke-linecap:square;stroke-width:0.8;"/>
     </g>
     <g id="line2d_12">
      <defs>
       <path d="M 0 0 
L 3.5 0 
" id="m596500148e" style="stroke:#000000;stroke-width:0.8;"/>
      </defs>
      <g>
       <use style="stroke:#000000;stroke-width:0.8;" x="1296" xlink:href="#m596500148e" y="611.083636"/>
      </g>
     </g>
     <g id="text_7">
      <!-- 0.96 -->
      <defs>
       <path d="M 10.6875 12.40625 
L 21 12.40625 
L 21 0 
L 10.6875 0 
z
" id="DejaVuSans-46"/>
       <path d="M 33.015625 40.375 
Q 26.375 40.375 22.484375 35.828125 
Q 18.609375 31.296875 18.609375 23.390625 
Q 18.609375 15.53125 22.484375 10.953125 
Q 26.375 6.390625 33.015625 6.390625 
Q 39.65625 6.390625 43.53125 10.953125 
Q 47.40625 15.53125 47.40625 23.390625 
Q 47.40625 31.296875 43.53125 35.828125 
Q 39.65625 40.375 33.015625 40.375 
z
M 52.59375 71.296875 
L 52.59375 62.3125 
Q 48.875 64.0625 45.09375 64.984375 
Q 41.3125 65.921875 37.59375 65.921875 
Q 27.828125 65.921875 22.671875 59.328125 
Q 17.53125 52.734375 16.796875 39.40625 
Q 19.671875 43.65625 24.015625 45.921875 
Q 28.375 48.1875 33.59375 48.1875 
Q 44.578125 48.1875 50.953125 41.515625 
Q 57.328125 34.859375 57.328125 23.390625 
Q 57.328125 12.15625 50.6875 5.359375 
Q 44.046875 -1.421875 33.015625 -1.421875 
Q 20.359375 -1.421875 13.671875 8.265625 
Q 6.984375 17.96875 6.984375 36.375 
Q 6.984375 53.65625 15.1875 63.9375 
Q 23.390625 74.21875 37.203125 74.21875 
Q 40.921875 74.21875 44.703125 73.484375 
Q 48.484375 72.75 52.59375 71.296875 
z
" id="DejaVuSans-54"/>
      </defs>
      <g transform="translate(1303 614.882855)scale(0.1 -0.1)">
       <use xlink:href="#DejaVuSans-48"/>
       <use x="63.623047" xlink:href="#DejaVuSans-46"/>
       <use x="95.410156" xlink:href="#DejaVuSans-57"/>
       <use x="159.033203" xlink:href="#DejaVuSans-54"/>
      </g>
     </g>
    </g>
    <g id="ytick_2">
     <g id="line2d_13">
      <path clip-path="url(#pe60cb79345)" d="M 180 504.261818 
L 1296 504.261818 
" style="fill:none;stroke:#b0b0b0;stroke-linecap:square;stroke-width:0.8;"/>
     </g>
     <g id="line2d_14">
      <g>
       <use style="stroke:#000000;stroke-width:0.8;" x="1296" xlink:href="#m596500148e" y="504.261818"/>
      </g>
     </g>
     <g id="text_8">
      <!-- 0.98 -->
      <defs>
       <path d="M 31.78125 34.625 
Q 24.75 34.625 20.71875 30.859375 
Q 16.703125 27.09375 16.703125 20.515625 
Q 16.703125 13.921875 20.71875 10.15625 
Q 24.75 6.390625 31.78125 6.390625 
Q 38.8125 6.390625 42.859375 10.171875 
Q 46.921875 13.96875 46.921875 20.515625 
Q 46.921875 27.09375 42.890625 30.859375 
Q 38.875 34.625 31.78125 34.625 
z
M 21.921875 38.8125 
Q 15.578125 40.375 12.03125 44.71875 
Q 8.5 49.078125 8.5 55.328125 
Q 8.5 64.0625 14.71875 69.140625 
Q 20.953125 74.21875 31.78125 74.21875 
Q 42.671875 74.21875 48.875 69.140625 
Q 55.078125 64.0625 55.078125 55.328125 
Q 55.078125 49.078125 51.53125 44.71875 
Q 48 40.375 41.703125 38.8125 
Q 48.828125 37.15625 52.796875 32.3125 
Q 56.78125 27.484375 56.78125 20.515625 
Q 56.78125 9.90625 50.3125 4.234375 
Q 43.84375 -1.421875 31.78125 -1.421875 
Q 19.734375 -1.421875 13.25 4.234375 
Q 6.78125 9.90625 6.78125 20.515625 
Q 6.78125 27.484375 10.78125 32.3125 
Q 14.796875 37.15625 21.921875 38.8125 
z
M 18.3125 54.390625 
Q 18.3125 48.734375 21.84375 45.5625 
Q 25.390625 42.390625 31.78125 42.390625 
Q 38.140625 42.390625 41.71875 45.5625 
Q 45.3125 48.734375 45.3125 54.390625 
Q 45.3125 60.0625 41.71875 63.234375 
Q 38.140625 66.40625 31.78125 66.40625 
Q 25.390625 66.40625 21.84375 63.234375 
Q 18.3125 60.0625 18.3125 54.390625 
z
" id="DejaVuSans-56"/>
      </defs>
      <g transform="translate(1303 508.061037)scale(0.1 -0.1)">
       <use xlink:href="#DejaVuSans-48"/>
       <use x="63.623047" xlink:href="#DejaVuSans-46"/>
       <use x="95.410156" xlink:href="#DejaVuSans-57"/>
       <use x="159.033203" xlink:href="#DejaVuSans-56"/>
      </g>
     </g>
    </g>
    <g id="ytick_3">
     <g id="line2d_15">
      <path clip-path="url(#pe60cb79345)" d="M 180 397.44 
L 1296 397.44 
" style="fill:none;stroke:#b0b0b0;stroke-linecap:square;stroke-width:0.8;"/>
     </g>
     <g id="line2d_16">
      <g>
       <use style="stroke:#000000;stroke-width:0.8;" x="1296" xlink:href="#m596500148e" y="397.44"/>
      </g>
     </g>
     <g id="text_9">
      <!-- 1.00 -->
      <g transform="translate(1303 401.239219)scale(0.1 -0.1)">
       <use xlink:href="#DejaVuSans-49"/>
       <use x="63.623047" xlink:href="#DejaVuSans-46"/>
       <use x="95.410156" xlink:href="#DejaVuSans-48"/>
       <use x="159.033203" xlink:href="#DejaVuSans-48"/>
      </g>
     </g>
    </g>
    <g id="ytick_4">
     <g id="line2d_17">
      <path clip-path="url(#pe60cb79345)" d="M 180 290.618182 
L 1296 290.618182 
" style="fill:none;stroke:#b0b0b0;stroke-linecap:square;stroke-width:0.8;"/>
     </g>
     <g id="line2d_18">
      <g>
       <use style="stroke:#000000;stroke-width:0.8;" x="1296" xlink:href="#m596500148e" y="290.618182"/>
      </g>
     </g>
     <g id="text_10">
      <!-- 1.02 -->
      <g transform="translate(1303 294.417401)scale(0.1 -0.1)">
       <use xlink:href="#DejaVuSans-49"/>
       <use x="63.623047" xlink:href="#DejaVuSans-46"/>
       <use x="95.410156" xlink:href="#DejaVuSans-48"/>
       <use x="159.033203" xlink:href="#DejaVuSans-50"/>
      </g>
     </g>
    </g>
    <g id="ytick_5">
     <g id="line2d_19">
      <path clip-path="url(#pe60cb79345)" d="M 180 183.796364 
L 1296 183.796364 
" style="fill:none;stroke:#b0b0b0;stroke-linecap:square;stroke-width:0.8;"/>
     </g>
     <g id="line2d_20">
      <g>
       <use style="stroke:#000000;stroke-width:0.8;" x="1296" xlink:href="#m596500148e" y="183.796364"/>
      </g>
     </g>
     <g id="text_11">
      <!-- 1.04 -->
      <defs>
       <path d="M 37.796875 64.3125 
L 12.890625 25.390625 
L 37.796875 25.390625 
z
M 35.203125 72.90625 
L 47.609375 72.90625 
L 47.609375 25.390625 
L 58.015625 25.390625 
L 58.015625 17.1875 
L 47.609375 17.1875 
L 47.609375 0 
L 37.796875 0 
L 37.796875 17.1875 
L 4.890625 17.1875 
L 4.890625 26.703125 
z
" id="DejaVuSans-52"/>
      </defs>
      <g transform="translate(1303 187.595582)scale(0.1 -0.1)">
       <use xlink:href="#DejaVuSans-49"/>
       <use x="63.623047" xlink:href="#DejaVuSans-46"/>
       <use x="95.410156" xlink:href="#DejaVuSans-48"/>
       <use x="159.033203" xlink:href="#DejaVuSans-52"/>
      </g>
     </g>
    </g>
    <g id="text_12">
     <!-- 西藏自治区 confirmed cases -->
     <defs>
      <path d="M 43.40625 45.203125 
Q 43.296875 37.90625 42.5 32.90625 
Q 41.703125 27.90625 39.75 24.09375 
Q 37.796875 20.296875 34.546875 17.046875 
Q 31.296875 13.796875 26.296875 10.09375 
Q 25.796875 11.59375 24.390625 12.546875 
Q 23 13.5 20.40625 14.296875 
L 20.40625 4.203125 
L 79.203125 4.203125 
L 79.203125 45.203125 
L 62.5 45.203125 
L 62.5 25.796875 
Q 62.5 24 62.890625 22.796875 
Q 63.296875 21.59375 64.84375 21.09375 
Q 66.40625 20.59375 69.546875 20.75 
Q 72.703125 20.90625 78.09375 21.703125 
Q 77.203125 19.703125 77 18.140625 
Q 76.796875 16.59375 76.90625 15.296875 
Q 75 15.203125 73.390625 15.09375 
Q 71.796875 15 70.1875 15 
Q 68.59375 15 66.796875 15 
Q 65 15 62.796875 15.09375 
Q 59.296875 15.296875 57.890625 17.046875 
Q 56.5 18.796875 56.5 22.296875 
L 56.5 45.203125 
z
M 20.40625 45.203125 
L 20.40625 14.90625 
Q 25.203125 17.296875 28.453125 19.890625 
Q 31.703125 22.5 33.640625 26 
Q 35.59375 29.5 36.5 34.09375 
Q 37.40625 38.703125 37.5 45.203125 
z
M 37.5 67.296875 
Q 27.90625 67.296875 20.84375 67.140625 
Q 13.796875 67 7.90625 66.59375 
L 7.90625 73.703125 
Q 11.09375 73.40625 14.84375 73.15625 
Q 18.59375 72.90625 23.5 72.75 
Q 28.40625 72.59375 34.796875 72.5 
Q 41.203125 72.40625 49.90625 72.40625 
Q 59.703125 72.40625 66.203125 72.5 
Q 72.703125 72.59375 77.296875 72.75 
Q 81.90625 72.90625 85.25 73.15625 
Q 88.59375 73.40625 92 73.703125 
L 92 66.59375 
Q 89.59375 66.703125 86.890625 66.84375 
Q 84.203125 67 80.75 67.046875 
Q 77.296875 67.09375 72.890625 67.1875 
Q 68.5 67.296875 62.5 67.296875 
L 62.5 50.203125 
Q 69.796875 50.203125 76.046875 50.390625 
Q 82.296875 50.59375 86 50.90625 
Q 85.703125 48.90625 85.546875 46.25 
Q 85.40625 43.59375 85.40625 39.40625 
L 85.40625 16.796875 
Q 85.40625 13.296875 85.453125 9.75 
Q 85.5 6.203125 85.640625 2.890625 
Q 85.796875 -0.40625 85.9375 -3.296875 
Q 86.09375 -6.203125 86.296875 -8.40625 
L 79.203125 -8.40625 
L 79.203125 -1 
L 20.40625 -1 
L 20.40625 -9.296875 
L 13.5 -9.296875 
Q 13.703125 -7.09375 13.84375 -4.1875 
Q 14 -1.296875 14.09375 2 
Q 14.203125 5.296875 14.25 8.84375 
Q 14.296875 12.40625 14.296875 15.90625 
L 14.296875 39.40625 
Q 14.296875 40.703125 14.25 42.296875 
Q 14.203125 43.90625 14.09375 45.5 
Q 14 47.09375 13.890625 48.5 
Q 13.796875 49.90625 13.703125 50.90625 
Q 17.5 50.59375 23.953125 50.390625 
Q 30.40625 50.203125 37.5 50.203125 
z
M 56.5 67.296875 
L 43.40625 67.296875 
L 43.40625 50.203125 
L 56.5 50.203125 
z
" id="STHeitiTC-Light-35199"/>
      <path d="M 57.90625 73.59375 
Q 57.796875 76 57.59375 78.09375 
Q 57.40625 80.203125 57.09375 81.90625 
Q 61 81.296875 64.5 81.296875 
Q 65.40625 81.296875 65.703125 80.59375 
Q 66 79.90625 64.90625 79.203125 
Q 64.203125 78.796875 64.046875 78.046875 
Q 63.90625 77.296875 63.90625 76.09375 
L 63.90625 73.59375 
Q 68.203125 73.59375 72.453125 73.640625 
Q 76.703125 73.703125 80.59375 73.796875 
Q 84.5 73.90625 87.84375 74.046875 
Q 91.203125 74.203125 93.703125 74.40625 
L 93.703125 68 
Q 91.203125 68.203125 87.84375 68.390625 
Q 84.5 68.59375 80.59375 68.6875 
Q 76.703125 68.796875 72.453125 68.84375 
Q 68.203125 68.90625 63.90625 68.90625 
L 63.90625 60.296875 
L 57.90625 60.296875 
L 57.90625 68.90625 
L 38 68.90625 
L 38 59.59375 
L 32.09375 59.59375 
L 32.09375 68.90625 
Q 24.203125 68.90625 17.5 68.703125 
Q 10.796875 68.5 6 68 
L 6 74.40625 
Q 10.90625 74 17.546875 73.796875 
Q 24.203125 73.59375 32.09375 73.59375 
Q 32 78.703125 31.296875 82.40625 
Q 33.296875 82.203125 35 82 
Q 36.703125 81.796875 38.59375 81.796875 
Q 39.5 81.796875 39.640625 80.890625 
Q 39.796875 80 39 79.5 
Q 38.5 79.203125 38.25 78.75 
Q 38 78.296875 38 77.40625 
L 38 73.59375 
z
M 38.203125 41.203125 
L 38.203125 31.796875 
L 46.09375 31.796875 
L 46.09375 41.203125 
z
M 38.203125 5.09375 
L 46.5 5.09375 
L 46.5 14.59375 
L 38.203125 14.59375 
z
M 38.203125 18.90625 
L 55.703125 18.90625 
L 55.703125 27.5 
L 38.203125 27.5 
z
M 64.796875 5.90625 
Q 66.40625 7.796875 67.953125 10.140625 
Q 69.5 12.5 71.296875 15.5 
Q 69.796875 20.703125 68.796875 25.34375 
Q 67.796875 30 67.140625 34.453125 
Q 66.5 38.90625 66.09375 43.203125 
Q 65.703125 47.5 65.40625 52.203125 
L 27.40625 52.203125 
Q 27.59375 42.5 27.5 35.046875 
Q 27.40625 27.59375 27 21.796875 
Q 26.59375 16 25.84375 11.59375 
Q 25.09375 7.203125 24.046875 3.546875 
Q 23 -0.09375 21.5 -3.296875 
Q 20 -6.5 18.203125 -9.90625 
Q 17.203125 -9.40625 16.5 -9.09375 
Q 15.796875 -8.796875 15.09375 -8.546875 
Q 14.40625 -8.296875 13.546875 -8.046875 
Q 12.703125 -7.796875 11.40625 -7.5 
Q 13.59375 -4.796875 15.296875 -1.9375 
Q 17 0.90625 18.296875 4.546875 
Q 19.59375 8.203125 20.4375 12.953125 
Q 21.296875 17.703125 21.703125 24.296875 
L 14.203125 24.296875 
Q 13.90625 15.90625 12.75 9.90625 
Q 11.59375 3.90625 8.90625 -1.5 
Q 7.796875 -0.40625 6.5 0 
Q 5.203125 0.40625 3.09375 0.09375 
Q 4.796875 2.703125 5.9375 5 
Q 7.09375 7.296875 7.890625 9.9375 
Q 8.703125 12.59375 9.140625 16 
Q 9.59375 19.40625 9.796875 24.203125 
Q 8.40625 24.09375 7 24 
Q 5.59375 23.90625 4.5 23.703125 
L 4.5 29.40625 
Q 5.703125 29.203125 7.140625 29.09375 
Q 8.59375 29 10.546875 28.890625 
Q 12.5 28.796875 15.25 28.796875 
Q 18 28.796875 21.90625 28.796875 
Q 22 31.09375 22.046875 33.640625 
Q 22.09375 36.203125 22 39 
L 15.90625 39 
Q 13.40625 39 11.59375 38.953125 
Q 9.796875 38.90625 7.59375 38.703125 
Q 8 40.59375 8.140625 41.84375 
Q 8.296875 43.09375 8.296875 45.203125 
L 8.296875 50.703125 
Q 8.296875 52.90625 8.1875 54.09375 
Q 8.09375 55.296875 7.796875 57 
Q 9.796875 56.59375 11.4375 56.546875 
Q 13.09375 56.5 14.703125 56.703125 
Q 15.5 56.796875 15.5 56.140625 
Q 15.5 55.5 14.90625 55.09375 
Q 13.5 54.296875 13.5 51.703125 
L 13.5 43.703125 
L 22 43.703125 
Q 21.90625 46.90625 21.796875 50.34375 
Q 21.703125 53.796875 21.59375 57.59375 
Q 25.40625 57.203125 29.09375 57.046875 
Q 32.796875 56.90625 35.203125 56.90625 
L 65 56.90625 
Q 64.796875 58.5 64.6875 60.046875 
Q 64.59375 61.59375 64.40625 63.703125 
Q 66.296875 63.40625 67.75 63.296875 
Q 69.203125 63.203125 71.203125 63.296875 
Q 72.203125 63.40625 72.34375 62.796875 
Q 72.5 62.203125 71.703125 61.40625 
Q 71.40625 61.09375 71.046875 59.890625 
Q 70.703125 58.703125 70.5 57 
Q 74 57 76.703125 57 
Q 79.40625 57 81.5 57.09375 
Q 80.203125 58.796875 78.390625 60.5 
Q 76.59375 62.203125 73.796875 64.296875 
L 77 67.796875 
Q 80.09375 65.5 82.1875 63.640625 
Q 84.296875 61.796875 85.796875 60.296875 
L 82.5 57.09375 
Q 85.703125 57.203125 87.59375 57.296875 
Q 89.5 57.40625 90.90625 57.59375 
L 90.90625 51.5 
Q 88.09375 51.796875 83.1875 51.9375 
Q 78.296875 52.09375 70.5 52.203125 
Q 70.703125 49.5 71 46 
Q 71.296875 42.5 71.796875 38 
Q 72.296875 34.09375 73.140625 30.046875 
Q 74 26 74.90625 22.5 
Q 76.203125 25.203125 77.140625 27.890625 
Q 78.09375 30.59375 78.890625 33.5 
Q 79.703125 36.40625 80.390625 39.703125 
Q 81.09375 43 81.796875 46.90625 
Q 83.59375 45.40625 85.09375 44.703125 
Q 86.59375 44 88.296875 44.09375 
Q 89.40625 44.203125 89.59375 43.25 
Q 89.796875 42.296875 88.59375 41.5 
Q 86.5 40.203125 85.40625 36.203125 
Q 83.5 29.90625 81.5 24.59375 
Q 79.5 19.296875 77.203125 15.40625 
Q 80.296875 7.09375 82.6875 2.84375 
Q 85.09375 -1.40625 86.75 -2.25 
Q 88.40625 -3.09375 89.34375 -0.84375 
Q 90.296875 1.40625 90.59375 6.09375 
Q 91.90625 4.296875 93.59375 3.09375 
Q 95.296875 1.90625 96.90625 1.5 
Q 95.09375 -4 93.1875 -6.796875 
Q 91.296875 -9.59375 89.140625 -10 
Q 87 -10.40625 84.546875 -8.34375 
Q 82.09375 -6.296875 79.09375 -2 
Q 77.703125 0 76.140625 3.09375 
Q 74.59375 6.203125 73.296875 9.40625 
Q 70.5 5.296875 68.546875 2.59375 
Q 66.59375 -0.09375 65.09375 -2 
Q 63.59375 -3.90625 62.296875 -5.203125 
Q 61 -6.5 59.5 -7.703125 
Q 57.796875 -6.5 56.4375 -5.890625 
Q 55.09375 -5.296875 52.296875 -4.90625 
Q 54.59375 -3.296875 56.1875 -2 
Q 57.796875 -0.703125 59.5 0.703125 
Q 58.5 0.703125 57.09375 0.75 
Q 55.703125 0.796875 53.296875 0.796875 
Q 50.90625 0.796875 47.25 0.796875 
Q 43.59375 0.796875 38.203125 0.796875 
L 38.203125 -3.40625 
L 32.40625 -3.40625 
Q 32.59375 0 32.75 3.296875 
Q 32.90625 6.59375 32.90625 10.40625 
L 32.90625 32.5 
Q 32.90625 36 32.75 39.59375 
Q 32.59375 43.203125 32.296875 46.09375 
Q 34 45.796875 38 45.59375 
Q 42 45.40625 48.09375 45.40625 
Q 53.796875 45.40625 57.25 45.546875 
Q 60.703125 45.703125 63.40625 46 
L 63.40625 40.5 
Q 61.09375 40.796875 58.046875 40.9375 
Q 55 41.09375 51.09375 41.203125 
L 51.09375 31.796875 
Q 54.796875 31.796875 57.25 32 
Q 59.703125 32.203125 61.09375 32.40625 
Q 60.90625 30.703125 60.796875 28.390625 
Q 60.703125 26.09375 60.703125 23.703125 
Q 60.703125 21.09375 60.796875 18.546875 
Q 60.90625 16 61.09375 14.203125 
Q 59.5 14.40625 57.09375 14.5 
Q 54.703125 14.59375 51.5 14.59375 
L 51.5 5.09375 
Q 54.59375 5.09375 56.75 5.140625 
Q 58.90625 5.203125 60.40625 5.296875 
Q 61.90625 5.40625 62.90625 5.546875 
Q 63.90625 5.703125 64.796875 5.90625 
z
" id="STHeitiTC-Light-34255"/>
      <path d="M 24.09375 20.703125 
L 24.09375 5 
L 75.59375 5 
L 75.59375 20.703125 
z
M 75.59375 45.703125 
L 75.59375 61.40625 
L 24.09375 61.40625 
L 24.09375 45.703125 
z
M 24.09375 40.90625 
L 24.09375 25.40625 
L 75.59375 25.40625 
L 75.59375 40.90625 
z
M 36 66.5 
Q 38.296875 71 39.84375 75.140625 
Q 41.40625 79.296875 42 83.09375 
Q 44.09375 82 45.796875 81.34375 
Q 47.5 80.703125 50.203125 80.203125 
Q 51.296875 80 51.4375 79.25 
Q 51.59375 78.5 50.5 78 
Q 49.703125 77.59375 48.953125 76.9375 
Q 48.203125 76.296875 47.25 75.046875 
Q 46.296875 73.796875 45.09375 71.6875 
Q 43.90625 69.59375 42.09375 66.296875 
L 64.5 66.296875 
Q 70 66.296875 74.796875 66.546875 
Q 79.59375 66.796875 83.09375 67.40625 
Q 82.796875 65.296875 82.546875 61.890625 
Q 82.296875 58.5 82.296875 55.296875 
L 82.296875 5.703125 
Q 82.296875 1.203125 82.4375 -2.140625 
Q 82.59375 -5.5 83.09375 -9.296875 
L 75.59375 -9.296875 
L 75.59375 0.296875 
L 24.09375 0.296875 
L 24.09375 -10 
L 16.90625 -10 
Q 17.40625 -6.203125 17.546875 -2.59375 
Q 17.703125 1 17.703125 5.5 
L 17.703125 55.296875 
Q 17.703125 56.59375 17.640625 58.1875 
Q 17.59375 59.796875 17.5 61.4375 
Q 17.40625 63.09375 17.25 64.640625 
Q 17.09375 66.203125 16.90625 67.40625 
Q 19.203125 67.09375 24.453125 66.890625 
Q 29.703125 66.703125 36 66.5 
z
" id="STHeitiTC-Light-33258"/>
      <path d="M 83.203125 45.703125 
Q 72.296875 45.296875 64.140625 44.84375 
Q 56 44.40625 50 43.84375 
Q 44 43.296875 39.796875 42.6875 
Q 35.59375 42.09375 32.59375 41.40625 
Q 32.09375 44 31.4375 45.390625 
Q 30.796875 46.796875 29.40625 48.703125 
L 35.5 48.703125 
Q 42.796875 57.703125 47.9375 65.59375 
Q 53.09375 73.5 56.703125 81.5 
Q 59.09375 80.09375 60.640625 79.34375 
Q 62.203125 78.59375 64.09375 78 
Q 65.796875 77.5 65.890625 76.453125 
Q 66 75.40625 64.40625 75 
Q 62.40625 74.5 61.203125 73.5 
Q 60 72.5 58.296875 70.203125 
Q 55.90625 66.90625 53.953125 64.25 
Q 52 61.59375 50.140625 59.09375 
Q 48.296875 56.59375 46.390625 54.140625 
Q 44.5 51.703125 42.296875 48.796875 
Q 47 48.90625 52.046875 49.09375 
Q 57.09375 49.296875 62 49.5 
Q 66.90625 49.703125 71.5 49.953125 
Q 76.09375 50.203125 80 50.5 
Q 78 53.296875 75.75 56.25 
Q 73.5 59.203125 70.59375 62.703125 
L 75 66 
Q 77.5 63.203125 80.203125 59.890625 
Q 82.90625 56.59375 85.453125 53.1875 
Q 88 49.796875 90.25 46.546875 
Q 92.5 43.296875 94.09375 40.59375 
L 88.296875 37.40625 
Q 85.796875 41.703125 83.203125 45.703125 
z
M 43.90625 -8.90625 
L 37.296875 -8.90625 
Q 37.5 -6 37.640625 -3.453125 
Q 37.796875 -0.90625 37.796875 2 
L 37.796875 26.796875 
Q 37.796875 28.703125 37.640625 30.046875 
Q 37.5 31.40625 37.296875 32.5 
Q 38.703125 32.40625 41.25 32.296875 
Q 43.796875 32.203125 47.09375 32.09375 
Q 50.40625 32 54.15625 31.953125 
Q 57.90625 31.90625 61.703125 31.90625 
Q 64.796875 31.90625 68.296875 31.953125 
Q 71.796875 32 75 32.09375 
Q 78.203125 32.203125 80.796875 32.296875 
Q 83.40625 32.40625 84.796875 32.5 
Q 84.40625 30.5 84.40625 26.796875 
L 84.40625 3.09375 
Q 84.40625 -2.59375 84.703125 -7.796875 
L 78.203125 -7.796875 
L 78.203125 0 
L 43.90625 0 
z
M 78.203125 26.90625 
L 43.90625 26.90625 
L 43.90625 5.09375 
L 78.203125 5.09375 
z
M 30.09375 26.59375 
Q 26.796875 20.90625 22.75 12.546875 
Q 18.703125 4.203125 13.59375 -7 
Q 11.90625 -5.796875 10.25 -5 
Q 8.59375 -4.203125 6.40625 -3.703125 
Q 8.59375 -0.796875 11 3.203125 
Q 13.40625 7.203125 15.796875 11.703125 
Q 18.203125 16.203125 20.453125 20.953125 
Q 22.703125 25.703125 24.40625 30.203125 
Q 26 28.703125 27.296875 27.890625 
Q 28.59375 27.09375 30.09375 26.59375 
z
M 23.40625 38.296875 
Q 21.703125 39.796875 19.5 41.546875 
Q 17.296875 43.296875 14.890625 45.046875 
Q 12.5 46.796875 10.09375 48.390625 
Q 7.703125 50 5.796875 51.203125 
L 9.203125 55.796875 
Q 13.703125 53 18.09375 49.953125 
Q 22.5 46.90625 27.40625 43.09375 
z
M 30.40625 60.203125 
Q 27.203125 63.40625 23.25 66.546875 
Q 19.296875 69.703125 13 74 
L 16.796875 78.40625 
Q 22 74.59375 26.34375 71.296875 
Q 30.703125 68 34.703125 64.796875 
z
" id="STHeitiTC-Light-27835"/>
      <path d="M 16.40625 68.40625 
Q 14.5 68.40625 12.640625 68.40625 
Q 10.796875 68.40625 9.09375 68.296875 
L 9.09375 74 
Q 13.203125 73.90625 17.59375 73.84375 
Q 22 73.796875 27.09375 73.75 
Q 32.203125 73.703125 38.140625 73.703125 
Q 44.09375 73.703125 51.296875 73.703125 
Q 60.203125 73.703125 65.953125 73.703125 
Q 71.703125 73.703125 75.84375 73.796875 
Q 80 73.90625 83.25 73.953125 
Q 86.5 74 90.40625 74.203125 
L 90.40625 68.203125 
Q 86.5 68.296875 83.25 68.390625 
Q 80 68.5 75.84375 68.59375 
Q 71.703125 68.703125 65.890625 68.703125 
Q 60.09375 68.703125 51.296875 68.703125 
Q 46.796875 68.703125 42.5 68.703125 
Q 38.203125 68.703125 34.390625 68.640625 
Q 30.59375 68.59375 27.5 68.546875 
Q 24.40625 68.5 22.40625 68.5 
L 22.40625 5.796875 
Q 22.40625 2.90625 23.5 1.703125 
Q 24.59375 0.5 27.203125 0.5 
L 59.09375 0.5 
Q 66.203125 0.5 71.25 0.546875 
Q 76.296875 0.59375 79.890625 0.640625 
Q 83.5 0.703125 86.046875 0.84375 
Q 88.59375 1 90.90625 1.203125 
L 90.90625 -5.203125 
Q 88.59375 -5 86 -4.84375 
Q 83.40625 -4.703125 79.796875 -4.640625 
Q 76.203125 -4.59375 71.25 -4.546875 
Q 66.296875 -4.5 59.09375 -4.5 
L 26.09375 -4.5 
Q 21 -4.5 18.703125 -2.140625 
Q 16.40625 0.203125 16.40625 7.09375 
z
M 57.40625 39.40625 
Q 63 45.703125 67.546875 52.09375 
Q 72.09375 58.5 75.09375 64.5 
Q 77 62.59375 78.34375 61.75 
Q 79.703125 60.90625 81 60.40625 
Q 82.203125 59.90625 82.09375 59.296875 
Q 82 58.703125 80.703125 58.203125 
Q 79.5 57.59375 78.046875 56.140625 
Q 76.59375 54.703125 74.296875 51.703125 
Q 70.59375 46.703125 67.546875 43 
Q 64.5 39.296875 61.203125 35.5 
Q 66 30.40625 71.25 24.75 
Q 76.5 19.09375 82.796875 12.09375 
L 77.703125 7.796875 
Q 72.59375 13.796875 67.4375 19.640625 
Q 62.296875 25.5 57.203125 31.09375 
Q 50.90625 24.40625 44.296875 18.453125 
Q 37.703125 12.5 30.296875 7.09375 
Q 29.796875 8.90625 28.75 10.046875 
Q 27.703125 11.203125 25.296875 12.5 
Q 32.203125 16.40625 39.5 22.296875 
Q 46.796875 28.203125 53.5 35.09375 
Q 47.90625 41.203125 42.75 46.34375 
Q 37.59375 51.5 31.5 57.296875 
L 35.59375 60.796875 
Q 41.59375 55.09375 46.84375 49.9375 
Q 52.09375 44.796875 57.40625 39.40625 
z
" id="STHeitiTC-Light-21306"/>
      <path id="STHeitiTC-Light-32"/>
      <path d="M 59.5 48.09375 
L 54.09375 44.703125 
Q 47.09375 54 34.90625 54 
Q 25.296875 54 18.796875 47.84375 
Q 12.296875 41.703125 12.296875 32.59375 
Q 12.296875 23.5 18.6875 17 
Q 25.09375 10.5 34.90625 10.5 
Q 46.59375 10.5 54.09375 19.796875 
L 59.5 16.203125 
Q 55.5 10.40625 48.75 7.296875 
Q 42 4.203125 34.203125 4.203125 
Q 21.90625 4.203125 13.65625 12.296875 
Q 5.40625 20.40625 5.40625 32.09375 
Q 5.40625 43.796875 13.75 52.140625 
Q 22.09375 60.5 35.203125 60.5 
Q 42.90625 60.5 49.453125 57.203125 
Q 56 53.90625 59.5 48.09375 
z
" id="STHeitiTC-Light-99"/>
      <path d="M 5.09375 32.203125 
Q 5.09375 43.90625 13.140625 52.203125 
Q 21.203125 60.5 32.75 60.5 
Q 44.296875 60.5 52.34375 52.203125 
Q 60.40625 43.90625 60.40625 32.296875 
Q 60.40625 20.703125 52.453125 12.453125 
Q 44.5 4.203125 32.796875 4.203125 
Q 21.09375 4.203125 13.09375 12.453125 
Q 5.09375 20.703125 5.09375 32.203125 
z
M 53.5 32.09375 
Q 53.5 40.90625 47.34375 47.34375 
Q 41.203125 53.796875 32.75 53.796875 
Q 24.296875 53.796875 18.1875 47.34375 
Q 12.09375 40.90625 12.09375 32 
Q 12.09375 23.09375 18 16.890625 
Q 23.90625 10.703125 32.65625 10.703125 
Q 41.40625 10.703125 47.453125 16.953125 
Q 53.5 23.203125 53.5 32.09375 
z
" id="STHeitiTC-Light-111"/>
      <path d="M 7.59375 59.09375 
L 14.5 59.09375 
L 14.5 49.59375 
Q 22.703125 60.5 34.40625 60.5 
Q 40.40625 60.5 45.203125 57.25 
Q 50 54 52 48.75 
Q 54 43.5 54 33.296875 
L 54 6 
L 47.203125 6 
L 47.203125 31.296875 
Q 47.203125 40.59375 46.34375 43.890625 
Q 45.5 47.203125 43.75 49.5 
Q 42 51.796875 39.296875 53 
Q 36.59375 54.203125 32.75 54.203125 
Q 28.90625 54.203125 25.203125 52.296875 
Q 21.5 50.40625 18.890625 47 
Q 16.296875 43.59375 15.390625 40 
Q 14.5 36.40625 14.5 25.5 
L 14.5 6 
L 7.59375 6 
z
" id="STHeitiTC-Light-110"/>
      <path d="M 29.5 78.203125 
L 29.5 71.5 
Q 25.59375 73.203125 22.546875 73.203125 
Q 19.5 73.203125 18.59375 71.25 
Q 17.703125 69.296875 17.703125 64.90625 
L 17.703125 59.09375 
L 28.796875 59.09375 
L 28.796875 53.296875 
L 17.703125 53.296875 
L 17.703125 6 
L 10.796875 6 
L 10.796875 53.296875 
L 3.90625 53.296875 
L 3.90625 59.09375 
L 10.796875 59.09375 
L 10.796875 66 
Q 10.796875 73 13.390625 76.296875 
Q 16 79.59375 21.5 79.59375 
Q 24.703125 79.59375 29.5 78.203125 
z
" id="STHeitiTC-Light-102"/>
      <path d="M 4.40625 73.90625 
Q 4.40625 76.203125 6.046875 77.890625 
Q 7.703125 79.59375 10.046875 79.59375 
Q 12.40625 79.59375 14.046875 77.9375 
Q 15.703125 76.296875 15.703125 73.9375 
Q 15.703125 71.59375 14.046875 69.9375 
Q 12.40625 68.296875 10.046875 68.296875 
Q 7.703125 68.296875 6.046875 70 
Q 4.40625 71.703125 4.40625 73.90625 
z
M 6.59375 59.09375 
L 13.5 59.09375 
L 13.5 6 
L 6.59375 6 
z
" id="STHeitiTC-Light-105"/>
      <path d="M 5 59.09375 
L 12 59.09375 
L 12 51.40625 
Q 14.796875 56.09375 17.4375 58.296875 
Q 20.09375 60.5 23.34375 60.5 
Q 26.59375 60.5 29.90625 58.703125 
L 26.296875 52.90625 
Q 24.796875 53.796875 23.203125 53.796875 
Q 20.09375 53.796875 17.34375 50.59375 
Q 14.59375 47.40625 13.296875 42.34375 
Q 12 37.296875 12 24 
L 12 6 
L 5 6 
z
" id="STHeitiTC-Light-114"/>
      <path d="M 7.59375 59.09375 
L 14.40625 59.09375 
L 14.40625 49.90625 
Q 21.5 60.5 32.59375 60.5 
Q 38.5 60.5 43.140625 57.140625 
Q 47.796875 53.796875 49.40625 47.703125 
Q 52.703125 53.90625 57.796875 57.203125 
Q 62.90625 60.5 69.546875 60.5 
Q 76.203125 60.5 81.59375 55.34375 
Q 87 50.203125 87 35 
L 87 6 
L 80 6 
L 80 35 
Q 80 42.296875 79.09375 45.75 
Q 78.203125 49.203125 75.203125 51.546875 
Q 72.203125 53.90625 67.25 53.90625 
Q 62.296875 53.90625 58 50.59375 
Q 53.703125 47.296875 52.09375 42.1875 
Q 50.5 37.09375 50.5 26.796875 
L 50.5 6 
L 43.796875 6 
L 43.796875 33.203125 
Q 43.796875 41.703125 42.890625 45.34375 
Q 42 49 38.890625 51.453125 
Q 35.796875 53.90625 31.296875 53.90625 
Q 26.796875 53.90625 22.84375 51.25 
Q 18.90625 48.59375 16.65625 44 
Q 14.40625 39.40625 14.40625 28.5 
L 14.40625 6 
L 7.59375 6 
z
" id="STHeitiTC-Light-109"/>
      <path d="M 60.59375 79.59375 
L 60.59375 6 
L 53.90625 6 
L 53.90625 15.09375 
Q 44.796875 4.203125 33.046875 4.203125 
Q 21.296875 4.203125 13.296875 12.5 
Q 5.296875 20.796875 5.296875 32.390625 
Q 5.296875 44 13.390625 52.25 
Q 21.5 60.5 32.796875 60.5 
Q 45.796875 60.5 53.90625 49.40625 
L 53.90625 79.59375 
z
M 54.296875 32.203125 
Q 54.296875 41.296875 48.296875 47.59375 
Q 42.296875 53.90625 33.296875 53.90625 
Q 24.296875 53.90625 18.25 47.453125 
Q 12.203125 41 12.203125 32.25 
Q 12.203125 23.5 18.390625 17 
Q 24.59375 10.5 33.046875 10.5 
Q 41.5 10.5 47.890625 16.640625 
Q 54.296875 22.796875 54.296875 32.203125 
z
" id="STHeitiTC-Light-100"/>
      <path d="M 34.296875 53.296875 
L 29.90625 48.796875 
Q 24.40625 54.09375 19.203125 54.09375 
Q 15.796875 54.09375 13.5 51.9375 
Q 11.203125 49.796875 11.203125 46.640625 
Q 11.203125 43.5 13.640625 41.25 
Q 16.09375 39 22.09375 35.84375 
Q 28.09375 32.703125 31.25 29.046875 
Q 34.40625 25.40625 34.40625 20.09375 
Q 34.40625 13.40625 29.75 8.796875 
Q 25.09375 4.203125 18.296875 4.203125 
Q 13.796875 4.203125 9.640625 6.203125 
Q 5.5 8.203125 2.59375 11.796875 
L 6.90625 16.59375 
Q 12.203125 10.703125 18 10.703125 
Q 22.09375 10.703125 25 13.390625 
Q 27.90625 16.09375 27.90625 19.75 
Q 27.90625 23.40625 25.34375 25.75 
Q 22.796875 28.09375 16.84375 31.09375 
Q 10.90625 34.09375 7.953125 37.640625 
Q 5 41.203125 5 46.84375 
Q 5 52.5 9.140625 56.5 
Q 13.296875 60.5 20.140625 60.5 
Q 27 60.5 34.296875 53.296875 
z
" id="STHeitiTC-Light-115"/>
     </defs>
     <g transform="translate(174.659375 463.719687)rotate(-90)scale(0.1 -0.1)">
      <use xlink:href="#STHeitiTC-Light-35199"/>
      <use x="99.999985" xlink:href="#STHeitiTC-Light-34255"/>
      <use x="199.999969" xlink:href="#STHeitiTC-Light-33258"/>
      <use x="299.999954" xlink:href="#STHeitiTC-Light-27835"/>
      <use x="399.999939" xlink:href="#STHeitiTC-Light-21306"/>
      <use x="499.999924" xlink:href="#STHeitiTC-Light-32"/>
      <use x="524.999908" xlink:href="#STHeitiTC-Light-99"/>
      <use x="589.699905" xlink:href="#STHeitiTC-Light-111"/>
      <use x="655.19989" xlink:href="#STHeitiTC-Light-110"/>
      <use x="716.199875" xlink:href="#STHeitiTC-Light-102"/>
      <use x="747.599869" xlink:href="#STHeitiTC-Light-105"/>
      <use x="767.599854" xlink:href="#STHeitiTC-Light-114"/>
      <use x="797.699844" xlink:href="#STHeitiTC-Light-109"/>
      <use x="891.499832" xlink:href="#STHeitiTC-Light-101"/>
      <use x="956.499817" xlink:href="#STHeitiTC-Light-100"/>
      <use x="1024.999802" xlink:href="#STHeitiTC-Light-32"/>
      <use x="1049.999786" xlink:href="#STHeitiTC-Light-99"/>
      <use x="1114.699783" xlink:href="#STHeitiTC-Light-97"/>
      <use x="1182.999771" xlink:href="#STHeitiTC-Light-115"/>
      <use x="1221.799759" xlink:href="#STHeitiTC-Light-101"/>
      <use x="1286.799744" xlink:href="#STHeitiTC-Light-115"/>
     </g>
    </g>
   </g>
   <g id="line2d_21">
    <path clip-path="url(#pe60cb79345)" d="M 1245.272727 397.44 
L 727.004607 397.44 
L 707.775179 397.44 
L 326.534471 397.44 
" style="fill:none;stroke:#1f77b4;stroke-dasharray:5.55,2.4;stroke-dashoffset:0;stroke-width:1.5;"/>
    <defs>
     <path d="M 0 3 
L 0 -3 
" id="m62e4a7a40b" style="stroke:#1f77b4;"/>
    </defs>
    <g clip-path="url(#pe60cb79345)">
     <use style="fill:#1f77b4;stroke:#1f77b4;" x="1245.272727" xlink:href="#m62e4a7a40b" y="397.44"/>
     <use style="fill:#1f77b4;stroke:#1f77b4;" x="727.004607" xlink:href="#m62e4a7a40b" y="397.44"/>
     <use style="fill:#1f77b4;stroke:#1f77b4;" x="707.775179" xlink:href="#m62e4a7a40b" y="397.44"/>
     <use style="fill:#1f77b4;stroke:#1f77b4;" x="326.534471" xlink:href="#m62e4a7a40b" y="397.44"/>
    </g>
   </g>
   <g id="line2d_22">
    <path clip-path="url(#pe60cb79345)" d="M 230.727273 397.44 
" style="fill:none;stroke:#ff7f0e;stroke-dasharray:1.5,2.475;stroke-dashoffset:0;stroke-width:1.5;"/>
    <defs>
     <path d="M 0 -3 
L -2.598076 -1.5 
L -2.598076 1.5 
L -0 3 
L 2.598076 1.5 
L 2.598076 -1.5 
z
" id="m77629f0431" style="stroke:#ff7f0e;stroke-linejoin:miter;"/>
    </defs>
    <g clip-path="url(#pe60cb79345)">
     <use style="fill:#ff7f0e;stroke:#ff7f0e;stroke-linejoin:miter;" x="230.727273" xlink:href="#m77629f0431" y="397.44"/>
    </g>
   </g>
   <g id="patch_3">
    <path d="M 180 691.2 
L 180 103.68 
" style="fill:none;stroke:#000000;stroke-linecap:square;stroke-linejoin:miter;stroke-width:0.8;"/>
   </g>
   <g id="patch_4">
    <path d="M 1296 691.2 
L 1296 103.68 
" style="fill:none;stroke:#000000;stroke-linecap:square;stroke-linejoin:miter;stroke-width:0.8;"/>
   </g>
   <g id="patch_5">
    <path d="M 180 691.2 
L 1296 691.2 
" style="fill:none;stroke:#000000;stroke-linecap:square;stroke-linejoin:miter;stroke-width:0.8;"/>
   </g>
   <g id="patch_6">
    <path d="M 180 103.68 
L 1296 103.68 
" style="fill:none;stroke:#000000;stroke-linecap:square;stroke-linejoin:miter;stroke-width:0.8;"/>
   </g>
   <g id="text_13">
    <!-- confirmed cases -->
    <defs>
     <path d="M 48.78125 52.59375 
L 48.78125 44.1875 
Q 44.96875 46.296875 41.140625 47.34375 
Q 37.3125 48.390625 33.40625 48.390625 
Q 24.65625 48.390625 19.8125 42.84375 
Q 14.984375 37.3125 14.984375 27.296875 
Q 14.984375 17.28125 19.8125 11.734375 
Q 24.65625 6.203125 33.40625 6.203125 
Q 37.3125 6.203125 41.140625 7.25 
Q 44.96875 8.296875 48.78125 10.40625 
L 48.78125 2.09375 
Q 45.015625 0.34375 40.984375 -0.53125 
Q 36.96875 -1.421875 32.421875 -1.421875 
Q 20.0625 -1.421875 12.78125 6.34375 
Q 5.515625 14.109375 5.515625 27.296875 
Q 5.515625 40.671875 12.859375 48.328125 
Q 20.21875 56 33.015625 56 
Q 37.15625 56 41.109375 55.140625 
Q 45.0625 54.296875 48.78125 52.59375 
z
" id="DejaVuSans-99"/>
     <path d="M 30.609375 48.390625 
Q 23.390625 48.390625 19.1875 42.75 
Q 14.984375 37.109375 14.984375 27.296875 
Q 14.984375 17.484375 19.15625 11.84375 
Q 23.34375 6.203125 30.609375 6.203125 
Q 37.796875 6.203125 41.984375 11.859375 
Q 46.1875 17.53125 46.1875 27.296875 
Q 46.1875 37.015625 41.984375 42.703125 
Q 37.796875 48.390625 30.609375 48.390625 
z
M 30.609375 56 
Q 42.328125 56 49.015625 48.375 
Q 55.71875 40.765625 55.71875 27.296875 
Q 55.71875 13.875 49.015625 6.21875 
Q 42.328125 -1.421875 30.609375 -1.421875 
Q 18.84375 -1.421875 12.171875 6.21875 
Q 5.515625 13.875 5.515625 27.296875 
Q 5.515625 40.765625 12.171875 48.375 
Q 18.84375 56 30.609375 56 
z
" id="DejaVuSans-111"/>
     <path d="M 54.890625 33.015625 
L 54.890625 0 
L 45.90625 0 
L 45.90625 32.71875 
Q 45.90625 40.484375 42.875 44.328125 
Q 39.84375 48.1875 33.796875 48.1875 
Q 26.515625 48.1875 22.3125 43.546875 
Q 18.109375 38.921875 18.109375 30.90625 
L 18.109375 0 
L 9.078125 0 
L 9.078125 54.6875 
L 18.109375 54.6875 
L 18.109375 46.1875 
Q 21.34375 51.125 25.703125 53.5625 
Q 30.078125 56 35.796875 56 
Q 45.21875 56 50.046875 50.171875 
Q 54.890625 44.34375 54.890625 33.015625 
z
" id="DejaVuSans-110"/>
     <path d="M 37.109375 75.984375 
L 37.109375 68.5 
L 28.515625 68.5 
Q 23.6875 68.5 21.796875 66.546875 
Q 19.921875 64.59375 19.921875 59.515625 
L 19.921875 54.6875 
L 34.71875 54.6875 
L 34.71875 47.703125 
L 19.921875 47.703125 
L 19.921875 0 
L 10.890625 0 
L 10.890625 47.703125 
L 2.296875 47.703125 
L 2.296875 54.6875 
L 10.890625 54.6875 
L 10.890625 58.5 
Q 10.890625 67.625 15.140625 71.796875 
Q 19.390625 75.984375 28.609375 75.984375 
z
" id="DejaVuSans-102"/>
     <path d="M 9.421875 54.6875 
L 18.40625 54.6875 
L 18.40625 0 
L 9.421875 0 
z
M 9.421875 75.984375 
L 18.40625 75.984375 
L 18.40625 64.59375 
L 9.421875 64.59375 
z
" id="DejaVuSans-105"/>
     <path d="M 41.109375 46.296875 
Q 39.59375 47.171875 37.8125 47.578125 
Q 36.03125 48 33.890625 48 
Q 26.265625 48 22.1875 43.046875 
Q 18.109375 38.09375 18.109375 28.8125 
L 18.109375 0 
L 9.078125 0 
L 9.078125 54.6875 
L 18.109375 54.6875 
L 18.109375 46.1875 
Q 20.953125 51.171875 25.484375 53.578125 
Q 30.03125 56 36.53125 56 
Q 37.453125 56 38.578125 55.875 
Q 39.703125 55.765625 41.0625 55.515625 
z
" id="DejaVuSans-114"/>
     <path d="M 52 44.1875 
Q 55.375 50.25 60.0625 53.125 
Q 64.75 56 71.09375 56 
Q 79.640625 56 84.28125 50.015625 
Q 88.921875 44.046875 88.921875 33.015625 
L 88.921875 0 
L 79.890625 0 
L 79.890625 32.71875 
Q 79.890625 40.578125 77.09375 44.375 
Q 74.3125 48.1875 68.609375 48.1875 
Q 61.625 48.1875 57.5625 43.546875 
Q 53.515625 38.921875 53.515625 30.90625 
L 53.515625 0 
L 44.484375 0 
L 44.484375 32.71875 
Q 44.484375 40.625 41.703125 44.40625 
Q 38.921875 48.1875 33.109375 48.1875 
Q 26.21875 48.1875 22.15625 43.53125 
Q 18.109375 38.875 18.109375 30.90625 
L 18.109375 0 
L 9.078125 0 
L 9.078125 54.6875 
L 18.109375 54.6875 
L 18.109375 46.1875 
Q 21.1875 51.21875 25.484375 53.609375 
Q 29.78125 56 35.6875 56 
Q 41.65625 56 45.828125 52.96875 
Q 50 49.953125 52 44.1875 
z
" id="DejaVuSans-109"/>
     <path d="M 56.203125 29.59375 
L 56.203125 25.203125 
L 14.890625 25.203125 
Q 15.484375 15.921875 20.484375 11.0625 
Q 25.484375 6.203125 34.421875 6.203125 
Q 39.59375 6.203125 44.453125 7.46875 
Q 49.3125 8.734375 54.109375 11.28125 
L 54.109375 2.78125 
Q 49.265625 0.734375 44.1875 -0.34375 
Q 39.109375 -1.421875 33.890625 -1.421875 
Q 20.796875 -1.421875 13.15625 6.1875 
Q 5.515625 13.8125 5.515625 26.8125 
Q 5.515625 40.234375 12.765625 48.109375 
Q 20.015625 56 32.328125 56 
Q 43.359375 56 49.78125 48.890625 
Q 56.203125 41.796875 56.203125 29.59375 
z
M 47.21875 32.234375 
Q 47.125 39.59375 43.09375 43.984375 
Q 39.0625 48.390625 32.421875 48.390625 
Q 24.90625 48.390625 20.390625 44.140625 
Q 15.875 39.890625 15.1875 32.171875 
z
" id="DejaVuSans-101"/>
     <path d="M 45.40625 46.390625 
L 45.40625 75.984375 
L 54.390625 75.984375 
L 54.390625 0 
L 45.40625 0 
L 45.40625 8.203125 
Q 42.578125 3.328125 38.25 0.953125 
Q 33.9375 -1.421875 27.875 -1.421875 
Q 17.96875 -1.421875 11.734375 6.484375 
Q 5.515625 14.40625 5.515625 27.296875 
Q 5.515625 40.1875 11.734375 48.09375 
Q 17.96875 56 27.875 56 
Q 33.9375 56 38.25 53.625 
Q 42.578125 51.265625 45.40625 46.390625 
z
M 14.796875 27.296875 
Q 14.796875 17.390625 18.875 11.75 
Q 22.953125 6.109375 30.078125 6.109375 
Q 37.203125 6.109375 41.296875 11.75 
Q 45.40625 17.390625 45.40625 27.296875 
Q 45.40625 37.203125 41.296875 42.84375 
Q 37.203125 48.484375 30.078125 48.484375 
Q 22.953125 48.484375 18.875 42.84375 
Q 14.796875 37.203125 14.796875 27.296875 
z
" id="DejaVuSans-100"/>
     <path id="DejaVuSans-32"/>
     <path d="M 34.28125 27.484375 
Q 23.390625 27.484375 19.1875 25 
Q 14.984375 22.515625 14.984375 16.5 
Q 14.984375 11.71875 18.140625 8.90625 
Q 21.296875 6.109375 26.703125 6.109375 
Q 34.1875 6.109375 38.703125 11.40625 
Q 43.21875 16.703125 43.21875 25.484375 
L 43.21875 27.484375 
z
M 52.203125 31.203125 
L 52.203125 0 
L 43.21875 0 
L 43.21875 8.296875 
Q 40.140625 3.328125 35.546875 0.953125 
Q 30.953125 -1.421875 24.3125 -1.421875 
Q 15.921875 -1.421875 10.953125 3.296875 
Q 6 8.015625 6 15.921875 
Q 6 25.140625 12.171875 29.828125 
Q 18.359375 34.515625 30.609375 34.515625 
L 43.21875 34.515625 
L 43.21875 35.40625 
Q 43.21875 41.609375 39.140625 45 
Q 35.0625 48.390625 27.6875 48.390625 
Q 23 48.390625 18.546875 47.265625 
Q 14.109375 46.140625 10.015625 43.890625 
L 10.015625 52.203125 
Q 14.9375 54.109375 19.578125 55.046875 
Q 24.21875 56 28.609375 56 
Q 40.484375 56 46.34375 49.84375 
Q 52.203125 43.703125 52.203125 31.203125 
z
" id="DejaVuSans-97"/>
     <path d="M 44.28125 53.078125 
L 44.28125 44.578125 
Q 40.484375 46.53125 36.375 47.5 
Q 32.28125 48.484375 27.875 48.484375 
Q 21.1875 48.484375 17.84375 46.4375 
Q 14.5 44.390625 14.5 40.28125 
Q 14.5 37.15625 16.890625 35.375 
Q 19.28125 33.59375 26.515625 31.984375 
L 29.59375 31.296875 
Q 39.15625 29.25 43.1875 25.515625 
Q 47.21875 21.78125 47.21875 15.09375 
Q 47.21875 7.46875 41.1875 3.015625 
Q 35.15625 -1.421875 24.609375 -1.421875 
Q 20.21875 -1.421875 15.453125 -0.5625 
Q 10.6875 0.296875 5.421875 2 
L 5.421875 11.28125 
Q 10.40625 8.6875 15.234375 7.390625 
Q 20.0625 6.109375 24.8125 6.109375 
Q 31.15625 6.109375 34.5625 8.28125 
Q 37.984375 10.453125 37.984375 14.40625 
Q 37.984375 18.0625 35.515625 20.015625 
Q 33.0625 21.96875 24.703125 23.78125 
L 21.578125 24.515625 
Q 13.234375 26.265625 9.515625 29.90625 
Q 5.8125 33.546875 5.8125 39.890625 
Q 5.8125 47.609375 11.28125 51.796875 
Q 16.75 56 26.8125 56 
Q 31.78125 56 36.171875 55.265625 
Q 40.578125 54.546875 44.28125 53.078125 
z
" id="DejaVuSans-115"/>
    </defs>
    <g transform="translate(688.81125 97.68)scale(0.12 -0.12)">
     <use xlink:href="#DejaVuSans-99"/>
     <use x="54.980469" xlink:href="#DejaVuSans-111"/>
     <use x="116.162109" xlink:href="#DejaVuSans-110"/>
     <use x="179.541016" xlink:href="#DejaVuSans-102"/>
     <use x="214.746094" xlink:href="#DejaVuSans-105"/>
     <use x="242.529297" xlink:href="#DejaVuSans-114"/>
     <use x="283.626953" xlink:href="#DejaVuSans-109"/>
     <use x="381.039062" xlink:href="#DejaVuSans-101"/>
     <use x="442.5625" xlink:href="#DejaVuSans-100"/>
     <use x="506.039062" xlink:href="#DejaVuSans-32"/>
     <use x="537.826172" xlink:href="#DejaVuSans-99"/>
     <use x="592.806641" xlink:href="#DejaVuSans-97"/>
     <use x="654.085938" xlink:href="#DejaVuSans-115"/>
     <use x="706.185547" xlink:href="#DejaVuSans-101"/>
     <use x="767.708984" xlink:href="#DejaVuSans-115"/>
    </g>
   </g>
   <g id="legend_1">
    <g id="patch_7">
     <path d="M 187 140.28 
L 279.810938 140.28 
Q 281.810938 140.28 281.810938 138.28 
L 281.810938 110.68 
Q 281.810938 108.68 279.810938 108.68 
L 187 108.68 
Q 185 108.68 185 110.68 
L 185 138.28 
Q 185 140.28 187 140.28 
z
" style="fill:#ffffff;opacity:0.8;stroke:#cccccc;stroke-linejoin:miter;"/>
    </g>
    <g id="line2d_23">
     <path d="M 189 117.139375 
L 209 117.139375 
" style="fill:none;stroke:#1f77b4;stroke-dasharray:5.55,2.4;stroke-dashoffset:0;stroke-width:1.5;"/>
    </g>
    <g id="line2d_24">
     <g>
      <use style="fill:#1f77b4;stroke:#1f77b4;" x="199" xlink:href="#m62e4a7a40b" y="117.139375"/>
     </g>
    </g>
    <g id="text_14">
     <!-- 拉萨: 1 -->
     <defs>
      <path d="M 20.796875 56.59375 
Q 10.703125 56.59375 5.203125 55.703125 
L 5.203125 62.296875 
Q 8 61.90625 11.890625 61.703125 
Q 15.796875 61.5 20.796875 61.5 
Q 20.796875 67.40625 20.796875 70.953125 
Q 20.796875 74.5 20.6875 76.59375 
Q 20.59375 78.703125 20.5 79.796875 
Q 20.40625 80.90625 20.203125 82.09375 
Q 22.09375 81.59375 23.6875 81.5 
Q 25.296875 81.40625 27.09375 81.5 
Q 28.5 81.59375 28.84375 80.9375 
Q 29.203125 80.296875 27.796875 79.203125 
Q 27.296875 78.90625 27.046875 77.796875 
Q 26.796875 76.703125 26.796875 75.203125 
L 26.796875 61.5 
Q 28.90625 61.5 30.5 61.546875 
Q 32.09375 61.59375 33.4375 61.6875 
Q 34.796875 61.796875 35.9375 61.9375 
Q 37.09375 62.09375 38.5 62.296875 
L 38.5 55.703125 
Q 37.09375 55.90625 35.9375 56.046875 
Q 34.796875 56.203125 33.4375 56.296875 
Q 32.09375 56.40625 30.5 56.5 
Q 28.90625 56.59375 26.796875 56.59375 
L 26.796875 38.59375 
Q 29.703125 40.09375 32.75 41.796875 
Q 35.796875 43.5 39.203125 45.5 
Q 39 43.796875 39.296875 42.34375 
Q 39.59375 40.90625 40.203125 39.40625 
Q 36.40625 37.5 33.09375 35.796875 
Q 29.796875 34.09375 26.796875 32.5 
L 26.796875 2 
Q 26.796875 -0.90625 26.296875 -2.796875 
Q 25.796875 -4.703125 24.140625 -5.890625 
Q 22.5 -7.09375 19.34375 -7.75 
Q 16.203125 -8.40625 11 -8.703125 
Q 10.796875 -6.703125 9.890625 -4.75 
Q 9 -2.796875 7.59375 -1.09375 
Q 12 -1.796875 14.59375 -1.84375 
Q 17.203125 -1.90625 18.59375 -1.203125 
Q 20 -0.5 20.390625 1.046875 
Q 20.796875 2.59375 20.796875 5.09375 
L 20.796875 29.40625 
Q 17.59375 27.703125 14.34375 25.953125 
Q 11.09375 24.203125 7.59375 22.203125 
Q 7 24 6.09375 25.59375 
Q 5.203125 27.203125 3.59375 28.90625 
Q 8.09375 30.40625 12.09375 31.953125 
Q 16.09375 33.5 20.796875 35.703125 
z
M 72.40625 2.59375 
Q 78.203125 2.59375 82.046875 2.640625 
Q 85.90625 2.703125 88.453125 2.796875 
Q 91 2.90625 92.75 3.046875 
Q 94.5 3.203125 96.296875 3.40625 
L 96.296875 -3.5 
Q 92.5 -3 85.203125 -2.703125 
Q 77.90625 -2.40625 66.09375 -2.40625 
Q 58.90625 -2.40625 53.84375 -2.453125 
Q 48.796875 -2.5 45.25 -2.640625 
Q 41.703125 -2.796875 39.34375 -3 
Q 37 -3.203125 35.203125 -3.5 
L 35.203125 3.703125 
Q 38.59375 3.203125 43.4375 2.890625 
Q 48.296875 2.59375 54.59375 2.59375 
L 66.703125 2.59375 
Q 71.90625 16 75.15625 28.453125 
Q 78.40625 40.90625 79.40625 51.203125 
Q 81.703125 50.203125 83.703125 49.59375 
Q 85.703125 49 87.703125 48.796875 
Q 88.796875 48.59375 89.046875 47.640625 
Q 89.296875 46.703125 87.90625 45.90625 
Q 86.59375 45.203125 86 44.09375 
Q 85.40625 43 84.703125 40.796875 
Q 83.703125 37.40625 82.59375 33.90625 
Q 81.5 30.40625 80.09375 26 
Q 78.703125 21.59375 76.84375 15.9375 
Q 75 10.296875 72.40625 2.59375 
z
M 69.59375 63.59375 
Q 74 63.59375 77.34375 63.6875 
Q 80.703125 63.796875 83.34375 63.890625 
Q 86 64 88 64.203125 
Q 90 64.40625 91.796875 64.59375 
L 91.796875 57.5 
Q 89.90625 57.796875 87.65625 58 
Q 85.40625 58.203125 82.40625 58.34375 
Q 79.40625 58.5 75.40625 58.546875 
Q 71.40625 58.59375 66 58.59375 
Q 61.09375 58.59375 57.34375 58.546875 
Q 53.59375 58.5 50.75 58.34375 
Q 47.90625 58.203125 45.65625 58 
Q 43.40625 57.796875 41.5 57.5 
L 41.5 64.59375 
Q 43.296875 64.40625 45.34375 64.203125 
Q 47.40625 64 49.953125 63.890625 
Q 52.5 63.796875 55.75 63.6875 
Q 59 63.59375 63.40625 63.59375 
Q 62.5 66.09375 61.75 68.140625 
Q 61 70.203125 60.140625 72.140625 
Q 59.296875 74.09375 58.390625 75.9375 
Q 57.5 77.796875 56.5 79.796875 
L 62.40625 82.40625 
Q 63.40625 79.90625 64.34375 77.703125 
Q 65.296875 75.5 66.140625 73.25 
Q 67 71 67.84375 68.640625 
Q 68.703125 66.296875 69.59375 63.59375 
z
M 57.59375 9.40625 
Q 54.59375 20.5 51.796875 29.25 
Q 49 38 45.5 46 
L 50.5 48 
Q 54.203125 38.90625 57.25 29.90625 
Q 60.296875 20.90625 63.296875 10.796875 
z
" id="STHeitiTC-Light-25289"/>
      <path d="M 17.40625 6.40625 
Q 17.40625 4.09375 17.40625 2.046875 
Q 17.40625 0 17.453125 -2 
Q 17.5 -4 17.59375 -6.046875 
Q 17.703125 -8.09375 17.796875 -10.5 
L 11.40625 -10.5 
Q 11.59375 -5.796875 11.6875 -2 
Q 11.796875 1.796875 11.796875 6.40625 
L 11.796875 44.40625 
Q 11.796875 47.203125 11.640625 49.75 
Q 11.5 52.296875 11.09375 54.296875 
Q 13.703125 54 17.25 53.796875 
Q 20.796875 53.59375 25 53.59375 
Q 28.796875 53.59375 32.640625 53.796875 
Q 36.5 54 39 54.296875 
Q 36.59375 48.296875 33.75 42.296875 
Q 30.90625 36.296875 28.09375 31.09375 
Q 32.703125 28.5 35.25 24.203125 
Q 37.796875 19.90625 37.796875 15.703125 
Q 37.796875 8.796875 34.34375 5 
Q 30.90625 1.203125 22.796875 0.40625 
Q 22.90625 2.09375 22 3.9375 
Q 21.09375 5.796875 19.59375 7.5 
Q 23.09375 7.09375 25.5 7.25 
Q 27.90625 7.40625 29.40625 8.40625 
Q 30.90625 9.40625 31.59375 11.296875 
Q 32.296875 13.203125 32.296875 16.296875 
Q 32.296875 19.796875 29.6875 23.546875 
Q 27.09375 27.296875 22 30.203125 
Q 24.40625 34.09375 26.953125 39.25 
Q 29.5 44.40625 31.40625 49.203125 
L 17.40625 49.203125 
z
M 38.59375 56.703125 
L 33 56.703125 
L 33 65.59375 
Q 23.09375 65.59375 16.5 65.34375 
Q 9.90625 65.09375 5.296875 64.703125 
L 5.296875 71.296875 
Q 9.90625 70.796875 16.546875 70.59375 
Q 23.203125 70.40625 33 70.40625 
Q 33 71.90625 32.890625 73.5 
Q 32.796875 75.09375 32.75 76.59375 
Q 32.703125 78.09375 32.59375 79.25 
Q 32.5 80.40625 32.40625 80.90625 
Q 34.40625 80.59375 36.15625 80.5 
Q 37.90625 80.40625 39.703125 80.40625 
Q 40.5 80.40625 40.546875 79.84375 
Q 40.59375 79.296875 39.796875 78.796875 
Q 38.59375 78.09375 38.59375 75.796875 
L 38.59375 70.40625 
L 62.796875 70.40625 
Q 62.796875 71.796875 62.6875 73.390625 
Q 62.59375 75 62.546875 76.453125 
Q 62.5 77.90625 62.390625 79.046875 
Q 62.296875 80.203125 62.203125 80.796875 
Q 64.09375 80.59375 66 80.390625 
Q 67.90625 80.203125 69.59375 80.203125 
Q 70.40625 80.203125 70.546875 79.703125 
Q 70.703125 79.203125 69.90625 78.703125 
Q 69.296875 78.203125 68.9375 77.5 
Q 68.59375 76.796875 68.59375 75.59375 
L 68.59375 70.40625 
Q 73.5 70.40625 77.25 70.453125 
Q 81 70.5 84.046875 70.59375 
Q 87.09375 70.703125 89.546875 70.890625 
Q 92 71.09375 94.296875 71.296875 
L 94.296875 64.703125 
Q 92 64.90625 89.546875 65.09375 
Q 87.09375 65.296875 84.046875 65.390625 
Q 81 65.5 77.203125 65.546875 
Q 73.40625 65.59375 68.59375 65.59375 
L 68.59375 59.296875 
L 62.796875 59.296875 
L 62.796875 65.59375 
L 38.59375 65.59375 
z
M 58.09375 30.203125 
Q 56.703125 33.09375 54.890625 35.59375 
Q 53.09375 38.09375 50.796875 40.40625 
L 56.09375 43.296875 
Q 58.09375 40.59375 59.890625 37.34375 
Q 61.703125 34.09375 63.5 30.203125 
L 71 30.203125 
Q 73.40625 33.296875 75.203125 36.5 
Q 77 39.703125 78.59375 44 
Q 79.703125 43 81.046875 42.25 
Q 82.40625 41.5 83.40625 41.203125 
Q 85.40625 40.59375 85.5 39.84375 
Q 85.59375 39.09375 83.90625 38.59375 
Q 82.90625 38.296875 81.09375 36.34375 
Q 79.296875 34.40625 76.296875 30.203125 
Q 84.09375 30.203125 88.640625 30.390625 
Q 93.203125 30.59375 94.59375 30.90625 
L 94.59375 25.09375 
Q 92.90625 25.40625 88.203125 25.59375 
Q 83.5 25.796875 76.203125 25.796875 
L 48 25.796875 
Q 48.296875 19.09375 48.140625 14.25 
Q 48 9.40625 47.296875 5.34375 
Q 46.59375 1.296875 45.140625 -2.390625 
Q 43.703125 -6.09375 41.40625 -10.40625 
Q 39 -7.203125 34.796875 -6.90625 
Q 38.09375 -3.40625 39.84375 0.1875 
Q 41.59375 3.796875 42.34375 8.140625 
Q 43.09375 12.5 42.890625 18 
Q 42.703125 23.5 42.09375 30.90625 
Q 42.90625 30.703125 43.953125 30.59375 
Q 45 30.5 46.75 30.453125 
Q 48.5 30.40625 51.203125 30.296875 
Q 53.90625 30.203125 58.09375 30.203125 
z
M 66 49.203125 
Q 64.90625 51 63.65625 52.546875 
Q 62.40625 54.09375 60.703125 55.59375 
L 66.296875 58.703125 
Q 68 56.40625 69.203125 54.09375 
Q 70.40625 51.796875 71.40625 49.203125 
Q 76.703125 49.203125 80.09375 49.25 
Q 83.5 49.296875 85.75 49.34375 
Q 88 49.40625 89.546875 49.546875 
Q 91.09375 49.703125 92.796875 50 
L 92.796875 44 
Q 90.90625 44.296875 89.203125 44.4375 
Q 87.5 44.59375 84.75 44.6875 
Q 82 44.796875 77.75 44.796875 
Q 73.5 44.796875 66.5 44.796875 
Q 60.203125 44.796875 56.09375 44.75 
Q 52 44.703125 49.203125 44.59375 
Q 46.40625 44.5 44.59375 44.34375 
Q 42.796875 44.203125 41.09375 44 
L 41.09375 50 
Q 43 49.703125 44.796875 49.546875 
Q 46.59375 49.40625 49.25 49.34375 
Q 51.90625 49.296875 55.84375 49.25 
Q 59.796875 49.203125 66 49.203125 
z
" id="STHeitiTC-Light-33832"/>
      <path d="M 9.09375 54.40625 
Q 9.09375 56.90625 10.890625 58.703125 
Q 12.703125 60.5 15.140625 60.5 
Q 17.59375 60.5 19.34375 58.75 
Q 21.09375 57 21.09375 54.453125 
Q 21.09375 51.90625 19.390625 50.15625 
Q 17.703125 48.40625 15.140625 48.40625 
Q 12.59375 48.40625 10.84375 50.15625 
Q 9.09375 51.90625 9.09375 54.40625 
z
M 9.09375 10.703125 
Q 9.09375 13.203125 10.890625 14.953125 
Q 12.703125 16.703125 15.140625 16.703125 
Q 17.59375 16.703125 19.34375 14.953125 
Q 21.09375 13.203125 21.09375 10.640625 
Q 21.09375 8.09375 19.34375 6.34375 
Q 17.59375 4.59375 15.140625 4.59375 
Q 12.703125 4.59375 10.890625 6.390625 
Q 9.09375 8.203125 9.09375 10.703125 
z
" id="STHeitiTC-Light-58"/>
      <path d="M 18.5 77.796875 
L 32.59375 77.796875 
L 32.59375 6 
L 25.5 6 
L 25.5 70.796875 
L 14.203125 70.796875 
z
" id="STHeitiTC-Light-49"/>
     </defs>
     <g transform="translate(217 120.639375)scale(0.1 -0.1)">
      <use xlink:href="#STHeitiTC-Light-25289"/>
      <use x="99.999985" xlink:href="#STHeitiTC-Light-33832"/>
      <use x="199.999969" xlink:href="#STHeitiTC-Light-58"/>
      <use x="227.699966" xlink:href="#STHeitiTC-Light-32"/>
      <use x="252.699951" xlink:href="#STHeitiTC-Light-49"/>
     </g>
    </g>
    <g id="line2d_25">
     <path d="M 189 131.439375 
L 209 131.439375 
" style="fill:none;stroke:#ff7f0e;stroke-dasharray:1.5,2.475;stroke-dashoffset:0;stroke-width:1.5;"/>
    </g>
    <g id="line2d_26">
     <g>
      <use style="fill:#ff7f0e;stroke:#ff7f0e;stroke-linejoin:miter;" x="199" xlink:href="#m77629f0431" y="131.439375"/>
     </g>
    </g>
    <g id="text_15">
     <!-- 待明确地区: 1 -->
     <defs>
      <path d="M 53.5 3 
Q 52.09375 5.09375 50.6875 7 
Q 49.296875 8.90625 47.84375 10.65625 
Q 46.40625 12.40625 44.75 14.046875 
Q 43.09375 15.703125 41.203125 17.5 
L 45.59375 21.40625 
Q 49.09375 17.796875 52.25 14.25 
Q 55.40625 10.703125 58.296875 6.796875 
z
M 77.90625 29.296875 
Q 81 29.296875 83.84375 29.34375 
Q 86.703125 29.40625 89.046875 29.5 
Q 91.40625 29.59375 93.09375 29.6875 
Q 94.796875 29.796875 95.703125 29.90625 
L 95.703125 24 
Q 94.796875 24.09375 93.09375 24.1875 
Q 91.40625 24.296875 89.046875 24.390625 
Q 86.703125 24.5 83.84375 24.546875 
Q 81 24.59375 77.90625 24.59375 
L 77.90625 -0.09375 
Q 77.90625 -2.90625 77.296875 -4.796875 
Q 76.703125 -6.703125 75.046875 -7.84375 
Q 73.40625 -9 70.40625 -9.5 
Q 67.40625 -10 62.40625 -10 
Q 62.09375 -7.90625 61.546875 -6.5 
Q 61 -5.09375 59.59375 -2.796875 
Q 63.5 -3.40625 65.796875 -3.5 
Q 68.09375 -3.59375 69.390625 -3 
Q 70.703125 -2.40625 71.09375 -1 
Q 71.5 0.40625 71.5 2.796875 
L 71.5 24.59375 
L 49.09375 24.59375 
Q 37.203125 24.59375 33.90625 24 
L 33.90625 29.90625 
Q 35.59375 29.59375 39.296875 29.4375 
Q 43 29.296875 49.09375 29.296875 
L 71.5 29.296875 
Q 71.5 33.90625 71.34375 36.5 
Q 71.203125 39.09375 70.796875 41 
Q 75.09375 40.40625 78.796875 40.40625 
Q 80.5 40.40625 80.546875 39.75 
Q 80.59375 39.09375 79.203125 38 
Q 78.59375 37.5 78.1875 36.546875 
Q 77.796875 35.59375 77.90625 34.5 
z
M 60.90625 61.5 
Q 53.40625 61.40625 48.203125 61.15625 
Q 43 60.90625 39.40625 60.40625 
L 39.40625 67.203125 
Q 43 66.703125 48.203125 66.453125 
Q 53.40625 66.203125 60.90625 66.09375 
Q 60.90625 69.5 60.84375 72 
Q 60.796875 74.5 60.75 76.296875 
Q 60.703125 78.09375 60.546875 79.34375 
Q 60.40625 80.59375 60.203125 81.59375 
Q 64.59375 80.796875 67.90625 81 
Q 69.59375 81.09375 69.640625 80.390625 
Q 69.703125 79.703125 68.296875 78.59375 
Q 67.703125 78.09375 67.34375 77.140625 
Q 67 76.203125 67 75.09375 
L 67 66.09375 
Q 75 66.203125 79.953125 66.453125 
Q 84.90625 66.703125 88.703125 67.203125 
L 88.703125 60.40625 
Q 84.90625 60.90625 79.546875 61.15625 
Q 74.203125 61.40625 67 61.5 
L 67 48.09375 
Q 71.796875 48.09375 75.4375 48.1875 
Q 79.09375 48.296875 82.140625 48.4375 
Q 85.203125 48.59375 87.84375 48.84375 
Q 90.5 49.09375 93.203125 49.40625 
L 93.203125 42.5 
Q 90.203125 42.796875 87.75 43.046875 
Q 85.296875 43.296875 82.4375 43.4375 
Q 79.59375 43.59375 75.796875 43.6875 
Q 72 43.796875 66.5 43.796875 
Q 61.40625 43.796875 57.25 43.6875 
Q 53.09375 43.59375 49.59375 43.4375 
Q 46.09375 43.296875 43.09375 43.046875 
Q 40.09375 42.796875 37.09375 42.5 
L 37.09375 49.40625 
Q 39.90625 49.09375 42.15625 48.84375 
Q 44.40625 48.59375 46.953125 48.4375 
Q 49.5 48.296875 52.796875 48.1875 
Q 56.09375 48.09375 60.90625 48.09375 
z
M 34.59375 77.203125 
Q 35.296875 76.796875 35.546875 76.296875 
Q 35.796875 75.796875 35.6875 75.296875 
Q 35.59375 74.796875 35.1875 74.5 
Q 34.796875 74.203125 34.203125 74.296875 
Q 33.90625 74.296875 33.546875 74.140625 
Q 33.203125 74 32.296875 73.09375 
Q 31.40625 72.203125 29.65625 70.390625 
Q 27.90625 68.59375 24.90625 65.40625 
Q 22.90625 63.296875 19.203125 59.796875 
Q 15.5 56.296875 11 52.09375 
Q 9.90625 53.5 8.84375 54.546875 
Q 7.796875 55.59375 6.09375 56.796875 
Q 9.5 58.796875 13.140625 61.796875 
Q 16.796875 64.796875 19.59375 67.703125 
Q 23.59375 71.796875 26 75.5 
Q 28.40625 79.203125 29.203125 81.40625 
Q 30.59375 79.90625 31.75 79 
Q 32.90625 78.09375 34.59375 77.203125 
z
M 25.59375 -10.296875 
L 18.5 -10.296875 
Q 19 -6.203125 19.140625 -2.59375 
Q 19.296875 1 19.296875 5.296875 
L 19.296875 34.40625 
Q 15.296875 29.59375 9.59375 24.09375 
Q 8.5 25.59375 7.453125 26.4375 
Q 6.40625 27.296875 4.203125 28.59375 
Q 6.5 30.296875 8.34375 31.796875 
Q 10.203125 33.296875 11.890625 34.84375 
Q 13.59375 36.40625 15.25 38.296875 
Q 16.90625 40.203125 18.796875 42.59375 
Q 20.40625 44.703125 21.703125 46.390625 
Q 23 48.09375 24 49.640625 
Q 25 51.203125 25.84375 52.796875 
Q 26.703125 54.40625 27.5 56.40625 
Q 29.5 55 30.546875 54.25 
Q 31.59375 53.5 33 52.703125 
Q 34.09375 52.09375 33.9375 51.046875 
Q 33.796875 50 32.296875 49.703125 
Q 31.796875 49.59375 31.1875 49.25 
Q 30.59375 48.90625 29.84375 48.09375 
Q 29.09375 47.296875 28.046875 46 
Q 27 44.703125 25.59375 42.796875 
z
" id="STHeitiTC-Light-24453"/>
      <path d="M 57.59375 26 
Q 57.09375 15.296875 53.75 6 
Q 50.40625 -3.296875 44.203125 -9.5 
Q 42.703125 -8.09375 41.203125 -7.25 
Q 39.703125 -6.40625 37 -5.59375 
Q 41.40625 -2.59375 44.25 1.09375 
Q 47.09375 4.796875 48.75 10 
Q 50.40625 15.203125 51.046875 22.203125 
Q 51.703125 29.203125 51.703125 38.796875 
L 51.703125 63.296875 
Q 51.703125 68.09375 51.59375 71.140625 
Q 51.5 74.203125 51.296875 76.5 
Q 54.796875 76.296875 59.890625 76.140625 
Q 65 76 69.796875 76 
Q 74.59375 76 79.6875 76.140625 
Q 84.796875 76.296875 88.296875 76.5 
Q 88.203125 74.703125 88.140625 73.296875 
Q 88.09375 71.90625 88.046875 70.453125 
Q 88 69 88 67.34375 
Q 88 65.703125 88 63.296875 
L 88 1.5 
Q 88 -1.09375 87.453125 -3.046875 
Q 86.90625 -5 85 -6.34375 
Q 83.09375 -7.703125 79.59375 -8.5 
Q 76.09375 -9.296875 70.09375 -9.59375 
Q 69.796875 -5.5 67.09375 -2 
Q 71.703125 -2.796875 74.546875 -2.796875 
Q 77.40625 -2.796875 79.046875 -2.09375 
Q 80.703125 -1.40625 81.296875 0 
Q 81.90625 1.40625 81.90625 3.296875 
L 81.90625 26 
z
M 57.703125 47.703125 
L 57.703125 30.90625 
L 81.90625 30.90625 
L 81.90625 47.703125 
z
M 81.90625 52.5 
L 81.90625 71.296875 
L 57.703125 71.296875 
L 57.703125 52.5 
z
M 18.5 2.09375 
L 11.59375 2.09375 
Q 12.09375 5.5 12.25 8.796875 
Q 12.40625 12.09375 12.40625 15.796875 
L 12.40625 64.09375 
Q 12.40625 65.40625 12.34375 66.90625 
Q 12.296875 68.40625 12.25 69.75 
Q 12.203125 71.09375 12.140625 72.140625 
Q 12.09375 73.203125 12 73.703125 
Q 14.90625 73.5 19.09375 73.34375 
Q 23.296875 73.203125 27 73.203125 
Q 30.796875 73.203125 34.9375 73.34375 
Q 39.09375 73.5 42 73.703125 
Q 41.5 71.40625 41.34375 69.046875 
Q 41.203125 66.703125 41.203125 64.09375 
L 41.203125 19 
Q 41.203125 15.5 41.390625 12.140625 
Q 41.59375 8.796875 42 5.5 
L 35.5 5.5 
L 35.5 11.90625 
L 18.5 11.90625 
z
M 18.5 39.296875 
L 18.5 16.796875 
L 35.5 16.796875 
L 35.5 39.296875 
z
M 35.5 44.09375 
L 35.5 68.296875 
L 18.5 68.296875 
L 18.5 44.09375 
z
" id="STHeitiTC-Light-26126"/>
      <path d="M 35.703125 41.59375 
L 22.90625 41.59375 
L 22.90625 16.703125 
L 35.703125 16.703125 
z
M 29.796875 66.203125 
Q 28.296875 60.40625 26.5 55.65625 
Q 24.703125 50.90625 22.296875 46.59375 
Q 25.5 46.59375 28.5 46.640625 
Q 31.5 46.703125 34.046875 46.75 
Q 36.59375 46.796875 38.546875 46.890625 
Q 40.5 47 41.59375 47.203125 
Q 41.296875 45.59375 41.1875 43.796875 
Q 41.09375 42 41.09375 38.796875 
L 41.09375 13.296875 
Q 41.09375 9.40625 41.1875 7.296875 
Q 41.296875 5.203125 41.5 3.5 
L 35.703125 3.40625 
L 35.703125 11.703125 
L 22.90625 11.703125 
L 22.90625 1.296875 
L 16.40625 1.296875 
Q 16.5 2.203125 16.59375 3.046875 
Q 16.703125 3.90625 16.796875 5 
Q 16.90625 6.09375 16.90625 7.546875 
Q 16.90625 9 16.90625 11 
L 16.90625 37.90625 
Q 14.40625 34.5 11 30.5 
Q 9.59375 33.59375 5.59375 35.296875 
Q 8.90625 37.796875 11.65625 40.84375 
Q 14.40625 43.90625 16.703125 47.65625 
Q 19 51.40625 20.84375 56 
Q 22.703125 60.59375 24.09375 66.203125 
Q 20 66.09375 15.890625 65.890625 
Q 11.796875 65.703125 9.796875 65.40625 
L 9.796875 71.59375 
Q 11 71.40625 12.453125 71.25 
Q 13.90625 71.09375 15.90625 71.046875 
Q 17.90625 71 20.59375 70.953125 
Q 23.296875 70.90625 27.09375 70.90625 
Q 34 70.90625 38.453125 71.046875 
Q 42.90625 71.203125 45.296875 71.59375 
L 45.296875 65.40625 
Q 44.203125 65.5 42.5 65.640625 
Q 40.796875 65.796875 38.6875 65.890625 
Q 36.59375 66 34.296875 66.09375 
Q 32 66.203125 29.796875 66.203125 
z
M 55 31.40625 
Q 55 24 54.40625 18.296875 
L 68.40625 18.296875 
L 68.40625 31.40625 
z
M 68.40625 36 
L 68.40625 48.296875 
L 55 48.296875 
L 55 36 
z
M 87.90625 36 
L 87.90625 48.296875 
L 73.703125 48.296875 
L 73.703125 36 
z
M 73.703125 31.40625 
L 73.703125 18.296875 
L 87.90625 18.296875 
L 87.90625 31.40625 
z
M 62.5 70.203125 
Q 73.09375 70.203125 79.09375 70.453125 
Q 85.09375 70.703125 88 71 
L 76.5 53.09375 
Q 81.90625 53.203125 86 53.390625 
Q 90.09375 53.59375 94.40625 54 
Q 93.90625 52 93.75 49.203125 
Q 93.59375 46.40625 93.59375 41.40625 
L 93.59375 0.703125 
Q 93.59375 -2.703125 93.1875 -4.75 
Q 92.796875 -6.796875 91.25 -7.890625 
Q 89.703125 -9 86.5 -9.390625 
Q 83.296875 -9.796875 77.703125 -9.90625 
Q 77.59375 -7.90625 77.140625 -6.5 
Q 76.703125 -5.09375 75.296875 -3.09375 
Q 79.5 -3.703125 82 -3.796875 
Q 84.5 -3.90625 85.796875 -3.203125 
Q 87.09375 -2.5 87.5 -1 
Q 87.90625 0.5 87.90625 3.09375 
L 87.90625 13.59375 
L 53.796875 13.59375 
Q 52.59375 6.5 50.140625 1.25 
Q 47.703125 -4 44 -9.09375 
Q 42.5 -7.40625 41.09375 -6.75 
Q 39.703125 -6.09375 37.40625 -5.703125 
Q 40.796875 -2.5 43.09375 0.75 
Q 45.40625 4 46.796875 7.84375 
Q 48.203125 11.703125 48.796875 16.296875 
Q 49.40625 20.90625 49.40625 26.90625 
L 49.40625 52 
Q 48.5 51.09375 47.796875 50.09375 
Q 45.59375 53.203125 41.5 53.90625 
Q 44.90625 56.59375 48 59.9375 
Q 51.09375 63.296875 53.6875 67 
Q 56.296875 70.703125 58.34375 74.59375 
Q 60.40625 78.5 61.59375 82.203125 
Q 65.203125 79.796875 68.203125 79.09375 
Q 69.703125 78.703125 69.59375 77.953125 
Q 69.5 77.203125 68.09375 76.703125 
Q 66.90625 76.296875 65.703125 74.890625 
Q 64.5 73.5 62.5 70.203125 
z
M 78.09375 65.59375 
L 59.5 65.59375 
Q 58.703125 64.40625 57.703125 62.953125 
Q 56.703125 61.5 55.546875 59.953125 
Q 54.40625 58.40625 53.203125 56.796875 
Q 52 55.203125 50.90625 53.90625 
Q 55.203125 53.5 59.640625 53.296875 
Q 64.09375 53.09375 70.296875 53.09375 
z
" id="STHeitiTC-Light-30830"/>
      <path d="M 17.703125 51.90625 
Q 15.203125 51.90625 13.5 51.796875 
Q 11.796875 51.703125 10.4375 51.59375 
Q 9.09375 51.5 7.84375 51.34375 
Q 6.59375 51.203125 5.09375 50.90625 
L 5.09375 57.59375 
Q 6.59375 57.296875 7.84375 57.140625 
Q 9.09375 57 10.4375 56.890625 
Q 11.796875 56.796875 13.5 56.6875 
Q 15.203125 56.59375 17.703125 56.59375 
Q 17.703125 62.203125 17.640625 66.296875 
Q 17.59375 70.40625 17.4375 73.25 
Q 17.296875 76.09375 17.140625 77.890625 
Q 17 79.703125 16.90625 80.703125 
Q 19 80.203125 20.796875 80.046875 
Q 22.59375 79.90625 24.59375 79.90625 
Q 26 79.90625 26.09375 79.34375 
Q 26.203125 78.796875 25 78.09375 
Q 23.703125 77.40625 23.703125 75.703125 
L 23.703125 56.59375 
Q 25.90625 56.59375 27.453125 56.6875 
Q 29 56.796875 30.25 56.890625 
Q 31.5 57 32.703125 57.140625 
Q 33.90625 57.296875 35.40625 57.59375 
L 35.40625 50.90625 
Q 34 51.09375 32.703125 51.296875 
Q 31.40625 51.5 30.046875 51.59375 
Q 28.703125 51.703125 27.140625 51.75 
Q 25.59375 51.796875 23.703125 51.796875 
L 23.703125 17.203125 
Q 27.40625 18.5 30.90625 19.953125 
Q 34.40625 21.40625 38.59375 23.203125 
Q 38.5 21.296875 38.640625 20.046875 
Q 38.796875 18.796875 39.203125 17.203125 
Q 33.5 15.296875 29.25 13.796875 
Q 25 12.296875 21.140625 10.9375 
Q 17.296875 9.59375 13.546875 8.140625 
Q 9.796875 6.703125 5.203125 4.90625 
Q 4.703125 6.59375 4.046875 8.296875 
Q 3.40625 10 2.296875 11.703125 
Q 7 12.5 10.703125 13.390625 
Q 14.40625 14.296875 17.703125 15.203125 
z
M 69.40625 55.40625 
Q 72.59375 56.296875 75.84375 57.296875 
Q 79.09375 58.296875 81.84375 59.09375 
Q 84.59375 59.90625 86.6875 60.546875 
Q 88.796875 61.203125 89.703125 61.5 
L 89 28.203125 
Q 88.90625 25 88.40625 22.953125 
Q 87.90625 20.90625 86.453125 19.65625 
Q 85 18.40625 82.546875 17.65625 
Q 80.09375 16.90625 76.09375 16.296875 
Q 76.296875 18.5 75.390625 20.140625 
Q 74.5 21.796875 72.90625 23.203125 
Q 75.90625 23 77.84375 23.09375 
Q 79.796875 23.203125 81 23.890625 
Q 82.203125 24.59375 82.703125 25.890625 
Q 83.203125 27.203125 83.203125 29.296875 
L 83.5 54.59375 
L 69.40625 50.796875 
L 69.40625 26.703125 
Q 69.40625 24 69.546875 20.25 
Q 69.703125 16.5 70 12.59375 
L 62.90625 12.59375 
Q 63.296875 16.59375 63.5 20.25 
Q 63.703125 23.90625 63.703125 26.703125 
L 63.703125 49.296875 
L 50.796875 45.90625 
L 50.796875 10.203125 
Q 50.796875 7.5 51.046875 5.796875 
Q 51.296875 4.09375 52.296875 3.09375 
Q 53.296875 2.09375 55.390625 1.59375 
Q 57.5 1.09375 61.09375 0.796875 
Q 62.59375 0.703125 65.046875 0.640625 
Q 67.5 0.59375 70.203125 0.640625 
Q 72.90625 0.703125 75.703125 0.75 
Q 78.5 0.796875 80.796875 1 
Q 83.203125 1.09375 85 1.640625 
Q 86.796875 2.203125 88.09375 3.5 
Q 89.40625 4.796875 90.203125 6.9375 
Q 91 9.09375 91.5 12.5 
Q 92.296875 10.796875 93.9375 9.640625 
Q 95.59375 8.5 97.59375 8.296875 
Q 96.5 4.5 95.390625 2.203125 
Q 94.296875 -0.09375 92.75 -1.4375 
Q 91.203125 -2.796875 89.046875 -3.34375 
Q 86.90625 -3.90625 83.796875 -4.09375 
Q 79.40625 -4.40625 76.09375 -4.59375 
Q 72.796875 -4.796875 70.1875 -4.890625 
Q 67.59375 -5 65.34375 -5 
Q 63.09375 -5 60.90625 -4.90625 
Q 55.59375 -4.703125 52.4375 -3.890625 
Q 49.296875 -3.09375 47.640625 -1.4375 
Q 46 0.203125 45.5 2.84375 
Q 45 5.5 45 9.40625 
L 45 44.40625 
Q 42.40625 43.59375 39.59375 42.796875 
Q 36.796875 42 33.59375 41.09375 
L 32.09375 47.59375 
Q 33.296875 47.703125 34.390625 47.796875 
Q 35.5 47.90625 36.890625 48.09375 
Q 38.296875 48.296875 40.1875 48.6875 
Q 42.09375 49.09375 45 49.703125 
L 45 53.5 
Q 45 59.203125 44.953125 63.09375 
Q 44.90625 67 44.796875 69.640625 
Q 44.703125 72.296875 44.5 73.890625 
Q 44.296875 75.5 44.09375 76.59375 
Q 46.5 76.296875 48.453125 76.1875 
Q 50.40625 76.09375 52.203125 76.203125 
Q 53.90625 76.296875 54.046875 75.4375 
Q 54.203125 74.59375 52.796875 74.09375 
Q 51.90625 73.703125 51.34375 72.5 
Q 50.796875 71.296875 50.796875 70.40625 
L 50.796875 51 
Q 53.40625 51.59375 56.34375 52.25 
Q 59.296875 52.90625 63.703125 53.90625 
L 63.703125 69.796875 
Q 63.703125 74 63.453125 77.25 
Q 63.203125 80.5 62.59375 82.59375 
Q 65 82.296875 66.59375 82.09375 
Q 68.203125 81.90625 70.09375 81.90625 
Q 71.5 81.90625 71.703125 81.09375 
Q 71.90625 80.296875 70.40625 79.5 
Q 69.40625 79 69.40625 73.5 
z
" id="STHeitiTC-Light-22320"/>
     </defs>
     <g transform="translate(217 134.939375)scale(0.1 -0.1)">
      <use xlink:href="#STHeitiTC-Light-24453"/>
      <use x="99.999985" xlink:href="#STHeitiTC-Light-26126"/>
      <use x="199.999969" xlink:href="#STHeitiTC-Light-30830"/>
      <use x="299.999954" xlink:href="#STHeitiTC-Light-22320"/>
      <use x="399.999939" xlink:href="#STHeitiTC-Light-21306"/>
      <use x="499.999924" xlink:href="#STHeitiTC-Light-58"/>
      <use x="527.699921" xlink:href="#STHeitiTC-Light-32"/>
      <use x="552.699905" xlink:href="#STHeitiTC-Light-49"/>
     </g>
    </g>
   </g>
  </g>
 </g>
 <defs>
  <clipPath id="pe60cb79345">
   <rect height="587.52" width="1116" x="180" y="103.68"/>
  </clipPath>
 </defs>
</svg>
