<?xml version="1.0" encoding="utf-8" standalone="no"?>
<!DOCTYPE svg PUBLIC "-//W3C//DTD SVG 1.1//EN"
  "http://www.w3.org/Graphics/SVG/1.1/DTD/svg11.dtd">
<!-- Created with matplotlib (https://matplotlib.org/) -->
<svg height="720pt" version="1.1" viewBox="0 0 1440 720" width="1440pt" xmlns="http://www.w3.org/2000/svg" xmlns:xlink="http://www.w3.org/1999/xlink">
 <defs>
  <style type="text/css">
*{stroke-linecap:butt;stroke-linejoin:round;}
  </style>
 </defs>
 <g id="figure_1">
  <g id="patch_1">
   <path d="M 0 720 
L 1440 720 
L 1440 0 
L 0 0 
z
" style="fill:#ffffff;"/>
  </g>
  <g id="axes_1">
   <g id="patch_2">
    <path d="M 180 640.8 
L 1296 640.8 
L 1296 86.4 
L 180 86.4 
z
" style="fill:#ffffff;"/>
   </g>
   <g id="PathCollection_1">
    <defs>
     <path d="M 0 3 
C 0.795609 3 1.55874 2.683901 2.12132 2.12132 
C 2.683901 1.55874 3 0.795609 3 0 
C 3 -0.795609 2.683901 -1.55874 2.12132 -2.12132 
C 1.55874 -2.683901 0.795609 -3 0 -3 
C -0.795609 -3 -1.55874 -2.683901 -2.12132 -2.12132 
C -2.683901 -1.55874 -3 -0.795609 -3 0 
C -3 0.795609 -2.683901 1.55874 -2.12132 2.12132 
C -1.55874 2.683901 -0.795609 3 0 3 
z
" id="m116cc4b18c" style="stroke:#1f77b4;"/>
    </defs>
    <g clip-path="url(#pb69b53d709)">
     <use style="fill:#1f77b4;stroke:#1f77b4;" x="1194.527023" xlink:href="#m116cc4b18c" y="111.73962"/>
     <use style="fill:#1f77b4;stroke:#1f77b4;" x="1143.800671" xlink:href="#m116cc4b18c" y="111.73962"/>
     <use style="fill:#1f77b4;stroke:#1f77b4;" x="1093.07432" xlink:href="#m116cc4b18c" y="111.73962"/>
     <use style="fill:#1f77b4;stroke:#1f77b4;" x="839.442565" xlink:href="#m116cc4b18c" y="111.73962"/>
     <use style="fill:#1f77b4;stroke:#1f77b4;" x="788.716214" xlink:href="#m116cc4b18c" y="147.575364"/>
     <use style="fill:#1f77b4;stroke:#1f77b4;" x="737.989862" xlink:href="#m116cc4b18c" y="219.246852"/>
     <use style="fill:#1f77b4;stroke:#1f77b4;" x="687.263511" xlink:href="#m116cc4b18c" y="219.246852"/>
     <use style="fill:#1f77b4;stroke:#1f77b4;" x="636.53716" xlink:href="#m116cc4b18c" y="326.754084"/>
     <use style="fill:#1f77b4;stroke:#1f77b4;" x="585.810809" xlink:href="#m116cc4b18c" y="326.754084"/>
     <use style="fill:#1f77b4;stroke:#1f77b4;" x="535.084458" xlink:href="#m116cc4b18c" y="362.589828"/>
     <use style="fill:#1f77b4;stroke:#1f77b4;" x="484.358107" xlink:href="#m116cc4b18c" y="434.261317"/>
     <use style="fill:#1f77b4;stroke:#1f77b4;" x="332.179053" xlink:href="#m116cc4b18c" y="434.261317"/>
     <use style="fill:#1f77b4;stroke:#1f77b4;" x="230.726351" xlink:href="#m116cc4b18c" y="613.440037"/>
    </g>
   </g>
   <g id="PathCollection_2">
    <defs>
     <path d="M 0 3 
C 0.795609 3 1.55874 2.683901 2.12132 2.12132 
C 2.683901 1.55874 3 0.795609 3 0 
C 3 -0.795609 2.683901 -1.55874 2.12132 -2.12132 
C 1.55874 -2.683901 0.795609 -3 0 -3 
C -0.795609 -3 -1.55874 -2.683901 -2.12132 -2.12132 
C -2.683901 -1.55874 -3 -0.795609 -3 0 
C -3 0.795609 -2.683901 1.55874 -2.12132 2.12132 
C -1.55874 2.683901 -0.795609 3 0 3 
z
" id="m06c5518a6e" style="stroke:#ff7f0e;"/>
    </defs>
    <g clip-path="url(#pb69b53d709)">
     <use style="fill:#ff7f0e;stroke:#ff7f0e;" x="1194.527023" xlink:href="#m06c5518a6e" y="541.768549"/>
     <use style="fill:#ff7f0e;stroke:#ff7f0e;" x="1143.800671" xlink:href="#m06c5518a6e" y="541.768549"/>
     <use style="fill:#ff7f0e;stroke:#ff7f0e;" x="1093.07432" xlink:href="#m06c5518a6e" y="541.768549"/>
     <use style="fill:#ff7f0e;stroke:#ff7f0e;" x="839.442565" xlink:href="#m06c5518a6e" y="541.768549"/>
     <use style="fill:#ff7f0e;stroke:#ff7f0e;" x="788.716214" xlink:href="#m06c5518a6e" y="541.768549"/>
     <use style="fill:#ff7f0e;stroke:#ff7f0e;" x="737.989862" xlink:href="#m06c5518a6e" y="541.768549"/>
     <use style="fill:#ff7f0e;stroke:#ff7f0e;" x="687.263511" xlink:href="#m06c5518a6e" y="613.440037"/>
    </g>
   </g>
   <g id="PathCollection_3">
    <defs>
     <path d="M 0 3 
C 0.795609 3 1.55874 2.683901 2.12132 2.12132 
C 2.683901 1.55874 3 0.795609 3 0 
C 3 -0.795609 2.683901 -1.55874 2.12132 -2.12132 
C 1.55874 -2.683901 0.795609 -3 0 -3 
C -0.795609 -3 -1.55874 -2.683901 -2.12132 -2.12132 
C -2.683901 -1.55874 -3 -0.795609 -3 0 
C -3 0.795609 -2.683901 1.55874 -2.12132 2.12132 
C -1.55874 2.683901 -0.795609 3 0 3 
z
" id="mcd7408ffb7" style="stroke:#2ca02c;"/>
    </defs>
    <g clip-path="url(#pb69b53d709)">
     <use style="fill:#2ca02c;stroke:#2ca02c;" x="687.263511" xlink:href="#mcd7408ffb7" y="613.440037"/>
    </g>
   </g>
   <g id="PathCollection_4">
    <defs>
     <path d="M 0 3 
C 0.795609 3 1.55874 2.683901 2.12132 2.12132 
C 2.683901 1.55874 3 0.795609 3 0 
C 3 -0.795609 2.683901 -1.55874 2.12132 -2.12132 
C 1.55874 -2.683901 0.795609 -3 0 -3 
C -0.795609 -3 -1.55874 -2.683901 -2.12132 -2.12132 
C -2.683901 -1.55874 -3 -0.795609 -3 0 
C -3 0.795609 -2.683901 1.55874 -2.12132 2.12132 
C -1.55874 2.683901 -0.795609 3 0 3 
z
" id="m2c9c5304a9" style="stroke:#d62728;"/>
    </defs>
    <g clip-path="url(#pb69b53d709)">
     <use style="fill:#d62728;stroke:#d62728;" x="636.53716" xlink:href="#m2c9c5304a9" y="577.604293"/>
    </g>
   </g>
   <g id="PathCollection_5">
    <defs>
     <path d="M 0 3 
C 0.795609 3 1.55874 2.683901 2.12132 2.12132 
C 2.683901 1.55874 3 0.795609 3 0 
C 3 -0.795609 2.683901 -1.55874 2.12132 -2.12132 
C 1.55874 -2.683901 0.795609 -3 0 -3 
C -0.795609 -3 -1.55874 -2.683901 -2.12132 -2.12132 
C -2.683901 -1.55874 -3 -0.795609 -3 0 
C -3 0.795609 -2.683901 1.55874 -2.12132 2.12132 
C -1.55874 2.683901 -0.795609 3 0 3 
z
" id="m092b8fa85c" style="stroke:#9467bd;"/>
    </defs>
    <g clip-path="url(#pb69b53d709)">
     <use style="fill:#9467bd;stroke:#9467bd;" x="585.810809" xlink:href="#m092b8fa85c" y="326.754084"/>
    </g>
   </g>
   <g id="matplotlib.axis_1">
    <g id="xtick_1">
     <g id="line2d_1">
      <path clip-path="url(#pb69b53d709)" d="M 180 640.8 
L 180 86.4 
" style="fill:none;stroke:#b0b0b0;stroke-linecap:square;stroke-width:0.8;"/>
     </g>
     <g id="line2d_2">
      <defs>
       <path d="M 0 0 
L 0 3.5 
" id="m1b022cad28" style="stroke:#000000;stroke-width:0.8;"/>
      </defs>
      <g>
       <use style="stroke:#000000;stroke-width:0.8;" x="180" xlink:href="#m1b022cad28" y="640.8"/>
      </g>
     </g>
     <g id="text_1">
      <!-- 0.0 -->
      <defs>
       <path d="M 31.78125 66.40625 
Q 24.171875 66.40625 20.328125 58.90625 
Q 16.5 51.421875 16.5 36.375 
Q 16.5 21.390625 20.328125 13.890625 
Q 24.171875 6.390625 31.78125 6.390625 
Q 39.453125 6.390625 43.28125 13.890625 
Q 47.125 21.390625 47.125 36.375 
Q 47.125 51.421875 43.28125 58.90625 
Q 39.453125 66.40625 31.78125 66.40625 
z
M 31.78125 74.21875 
Q 44.046875 74.21875 50.515625 64.515625 
Q 56.984375 54.828125 56.984375 36.375 
Q 56.984375 17.96875 50.515625 8.265625 
Q 44.046875 -1.421875 31.78125 -1.421875 
Q 19.53125 -1.421875 13.0625 8.265625 
Q 6.59375 17.96875 6.59375 36.375 
Q 6.59375 54.828125 13.0625 64.515625 
Q 19.53125 74.21875 31.78125 74.21875 
z
" id="DejaVuSans-48"/>
       <path d="M 10.6875 12.40625 
L 21 12.40625 
L 21 0 
L 10.6875 0 
z
" id="DejaVuSans-46"/>
      </defs>
      <g transform="translate(172.048438 655.398438)scale(0.1 -0.1)">
       <use xlink:href="#DejaVuSans-48"/>
       <use x="63.623047" xlink:href="#DejaVuSans-46"/>
       <use x="95.410156" xlink:href="#DejaVuSans-48"/>
      </g>
     </g>
    </g>
    <g id="xtick_2">
     <g id="line2d_3">
      <path clip-path="url(#pb69b53d709)" d="M 306.815878 640.8 
L 306.815878 86.4 
" style="fill:none;stroke:#b0b0b0;stroke-linecap:square;stroke-width:0.8;"/>
     </g>
     <g id="line2d_4">
      <g>
       <use style="stroke:#000000;stroke-width:0.8;" x="306.815878" xlink:href="#m1b022cad28" y="640.8"/>
      </g>
     </g>
     <g id="text_2">
      <!-- 2.5 -->
      <defs>
       <path d="M 19.1875 8.296875 
L 53.609375 8.296875 
L 53.609375 0 
L 7.328125 0 
L 7.328125 8.296875 
Q 12.9375 14.109375 22.625 23.890625 
Q 32.328125 33.6875 34.8125 36.53125 
Q 39.546875 41.84375 41.421875 45.53125 
Q 43.3125 49.21875 43.3125 52.78125 
Q 43.3125 58.59375 39.234375 62.25 
Q 35.15625 65.921875 28.609375 65.921875 
Q 23.96875 65.921875 18.8125 64.3125 
Q 13.671875 62.703125 7.8125 59.421875 
L 7.8125 69.390625 
Q 13.765625 71.78125 18.9375 73 
Q 24.125 74.21875 28.421875 74.21875 
Q 39.75 74.21875 46.484375 68.546875 
Q 53.21875 62.890625 53.21875 53.421875 
Q 53.21875 48.921875 51.53125 44.890625 
Q 49.859375 40.875 45.40625 35.40625 
Q 44.1875 33.984375 37.640625 27.21875 
Q 31.109375 20.453125 19.1875 8.296875 
z
" id="DejaVuSans-50"/>
       <path d="M 10.796875 72.90625 
L 49.515625 72.90625 
L 49.515625 64.59375 
L 19.828125 64.59375 
L 19.828125 46.734375 
Q 21.96875 47.46875 24.109375 47.828125 
Q 26.265625 48.1875 28.421875 48.1875 
Q 40.625 48.1875 47.75 41.5 
Q 54.890625 34.8125 54.890625 23.390625 
Q 54.890625 11.625 47.5625 5.09375 
Q 40.234375 -1.421875 26.90625 -1.421875 
Q 22.3125 -1.421875 17.546875 -0.640625 
Q 12.796875 0.140625 7.71875 1.703125 
L 7.71875 11.625 
Q 12.109375 9.234375 16.796875 8.0625 
Q 21.484375 6.890625 26.703125 6.890625 
Q 35.15625 6.890625 40.078125 11.328125 
Q 45.015625 15.765625 45.015625 23.390625 
Q 45.015625 31 40.078125 35.4375 
Q 35.15625 39.890625 26.703125 39.890625 
Q 22.75 39.890625 18.8125 39.015625 
Q 14.890625 38.140625 10.796875 36.28125 
z
" id="DejaVuSans-53"/>
      </defs>
      <g transform="translate(298.864315 655.398438)scale(0.1 -0.1)">
       <use xlink:href="#DejaVuSans-50"/>
       <use x="63.623047" xlink:href="#DejaVuSans-46"/>
       <use x="95.410156" xlink:href="#DejaVuSans-53"/>
      </g>
     </g>
    </g>
    <g id="xtick_3">
     <g id="line2d_5">
      <path clip-path="url(#pb69b53d709)" d="M 433.631756 640.8 
L 433.631756 86.4 
" style="fill:none;stroke:#b0b0b0;stroke-linecap:square;stroke-width:0.8;"/>
     </g>
     <g id="line2d_6">
      <g>
       <use style="stroke:#000000;stroke-width:0.8;" x="433.631756" xlink:href="#m1b022cad28" y="640.8"/>
      </g>
     </g>
     <g id="text_3">
      <!-- 5.0 -->
      <g transform="translate(425.680193 655.398438)scale(0.1 -0.1)">
       <use xlink:href="#DejaVuSans-53"/>
       <use x="63.623047" xlink:href="#DejaVuSans-46"/>
       <use x="95.410156" xlink:href="#DejaVuSans-48"/>
      </g>
     </g>
    </g>
    <g id="xtick_4">
     <g id="line2d_7">
      <path clip-path="url(#pb69b53d709)" d="M 560.447633 640.8 
L 560.447633 86.4 
" style="fill:none;stroke:#b0b0b0;stroke-linecap:square;stroke-width:0.8;"/>
     </g>
     <g id="line2d_8">
      <g>
       <use style="stroke:#000000;stroke-width:0.8;" x="560.447633" xlink:href="#m1b022cad28" y="640.8"/>
      </g>
     </g>
     <g id="text_4">
      <!-- 7.5 -->
      <defs>
       <path d="M 8.203125 72.90625 
L 55.078125 72.90625 
L 55.078125 68.703125 
L 28.609375 0 
L 18.3125 0 
L 43.21875 64.59375 
L 8.203125 64.59375 
z
" id="DejaVuSans-55"/>
      </defs>
      <g transform="translate(552.496071 655.398438)scale(0.1 -0.1)">
       <use xlink:href="#DejaVuSans-55"/>
       <use x="63.623047" xlink:href="#DejaVuSans-46"/>
       <use x="95.410156" xlink:href="#DejaVuSans-53"/>
      </g>
     </g>
    </g>
    <g id="xtick_5">
     <g id="line2d_9">
      <path clip-path="url(#pb69b53d709)" d="M 687.263511 640.8 
L 687.263511 86.4 
" style="fill:none;stroke:#b0b0b0;stroke-linecap:square;stroke-width:0.8;"/>
     </g>
     <g id="line2d_10">
      <g>
       <use style="stroke:#000000;stroke-width:0.8;" x="687.263511" xlink:href="#m1b022cad28" y="640.8"/>
      </g>
     </g>
     <g id="text_5">
      <!-- 10.0 -->
      <defs>
       <path d="M 12.40625 8.296875 
L 28.515625 8.296875 
L 28.515625 63.921875 
L 10.984375 60.40625 
L 10.984375 69.390625 
L 28.421875 72.90625 
L 38.28125 72.90625 
L 38.28125 8.296875 
L 54.390625 8.296875 
L 54.390625 0 
L 12.40625 0 
z
" id="DejaVuSans-49"/>
      </defs>
      <g transform="translate(676.130699 655.398438)scale(0.1 -0.1)">
       <use xlink:href="#DejaVuSans-49"/>
       <use x="63.623047" xlink:href="#DejaVuSans-48"/>
       <use x="127.246094" xlink:href="#DejaVuSans-46"/>
       <use x="159.033203" xlink:href="#DejaVuSans-48"/>
      </g>
     </g>
    </g>
    <g id="xtick_6">
     <g id="line2d_11">
      <path clip-path="url(#pb69b53d709)" d="M 814.079389 640.8 
L 814.079389 86.4 
" style="fill:none;stroke:#b0b0b0;stroke-linecap:square;stroke-width:0.8;"/>
     </g>
     <g id="line2d_12">
      <g>
       <use style="stroke:#000000;stroke-width:0.8;" x="814.079389" xlink:href="#m1b022cad28" y="640.8"/>
      </g>
     </g>
     <g id="text_6">
      <!-- 12.5 -->
      <g transform="translate(802.946577 655.398438)scale(0.1 -0.1)">
       <use xlink:href="#DejaVuSans-49"/>
       <use x="63.623047" xlink:href="#DejaVuSans-50"/>
       <use x="127.246094" xlink:href="#DejaVuSans-46"/>
       <use x="159.033203" xlink:href="#DejaVuSans-53"/>
      </g>
     </g>
    </g>
    <g id="xtick_7">
     <g id="line2d_13">
      <path clip-path="url(#pb69b53d709)" d="M 940.895267 640.8 
L 940.895267 86.4 
" style="fill:none;stroke:#b0b0b0;stroke-linecap:square;stroke-width:0.8;"/>
     </g>
     <g id="line2d_14">
      <g>
       <use style="stroke:#000000;stroke-width:0.8;" x="940.895267" xlink:href="#m1b022cad28" y="640.8"/>
      </g>
     </g>
     <g id="text_7">
      <!-- 15.0 -->
      <g transform="translate(929.762454 655.398438)scale(0.1 -0.1)">
       <use xlink:href="#DejaVuSans-49"/>
       <use x="63.623047" xlink:href="#DejaVuSans-53"/>
       <use x="127.246094" xlink:href="#DejaVuSans-46"/>
       <use x="159.033203" xlink:href="#DejaVuSans-48"/>
      </g>
     </g>
    </g>
    <g id="xtick_8">
     <g id="line2d_15">
      <path clip-path="url(#pb69b53d709)" d="M 1067.711145 640.8 
L 1067.711145 86.4 
" style="fill:none;stroke:#b0b0b0;stroke-linecap:square;stroke-width:0.8;"/>
     </g>
     <g id="line2d_16">
      <g>
       <use style="stroke:#000000;stroke-width:0.8;" x="1067.711145" xlink:href="#m1b022cad28" y="640.8"/>
      </g>
     </g>
     <g id="text_8">
      <!-- 17.5 -->
      <g transform="translate(1056.578332 655.398438)scale(0.1 -0.1)">
       <use xlink:href="#DejaVuSans-49"/>
       <use x="63.623047" xlink:href="#DejaVuSans-55"/>
       <use x="127.246094" xlink:href="#DejaVuSans-46"/>
       <use x="159.033203" xlink:href="#DejaVuSans-53"/>
      </g>
     </g>
    </g>
    <g id="xtick_9">
     <g id="line2d_17">
      <path clip-path="url(#pb69b53d709)" d="M 1194.527023 640.8 
L 1194.527023 86.4 
" style="fill:none;stroke:#b0b0b0;stroke-linecap:square;stroke-width:0.8;"/>
     </g>
     <g id="line2d_18">
      <g>
       <use style="stroke:#000000;stroke-width:0.8;" x="1194.527023" xlink:href="#m1b022cad28" y="640.8"/>
      </g>
     </g>
     <g id="text_9">
      <!-- 20.0 -->
      <g transform="translate(1183.39421 655.398438)scale(0.1 -0.1)">
       <use xlink:href="#DejaVuSans-50"/>
       <use x="63.623047" xlink:href="#DejaVuSans-48"/>
       <use x="127.246094" xlink:href="#DejaVuSans-46"/>
       <use x="159.033203" xlink:href="#DejaVuSans-48"/>
      </g>
     </g>
    </g>
    <g id="text_10">
     <!-- day from 2020-01-24 00:00:00 -->
     <defs>
      <path d="M 60.59375 79.59375 
L 60.59375 6 
L 53.90625 6 
L 53.90625 15.09375 
Q 44.796875 4.203125 33.046875 4.203125 
Q 21.296875 4.203125 13.296875 12.5 
Q 5.296875 20.796875 5.296875 32.390625 
Q 5.296875 44 13.390625 52.25 
Q 21.5 60.5 32.796875 60.5 
Q 45.796875 60.5 53.90625 49.40625 
L 53.90625 79.59375 
z
M 54.296875 32.203125 
Q 54.296875 41.296875 48.296875 47.59375 
Q 42.296875 53.90625 33.296875 53.90625 
Q 24.296875 53.90625 18.25 47.453125 
Q 12.203125 41 12.203125 32.25 
Q 12.203125 23.5 18.390625 17 
Q 24.59375 10.5 33.046875 10.5 
Q 41.5 10.5 47.890625 16.640625 
Q 54.296875 22.796875 54.296875 32.203125 
z
" id="STHeitiTC-Light-100"/>
      <path d="M 60.5 59.09375 
L 60.5 6 
L 53.796875 6 
L 53.796875 15.09375 
Q 44.703125 4.203125 33 4.203125 
Q 21.296875 4.203125 13.25 12.546875 
Q 5.203125 20.90625 5.203125 32.453125 
Q 5.203125 44 13.296875 52.25 
Q 21.40625 60.5 32.703125 60.5 
Q 45.703125 60.5 53.796875 49.40625 
L 53.796875 59.09375 
z
M 54.203125 32.296875 
Q 54.203125 41.40625 48.09375 47.65625 
Q 42 53.90625 33.140625 53.90625 
Q 24.296875 53.90625 18.1875 47.453125 
Q 12.09375 41 12.09375 32.203125 
Q 12.09375 23.40625 18.296875 16.953125 
Q 24.5 10.5 33.140625 10.5 
Q 41.796875 10.5 48 16.703125 
Q 54.203125 22.90625 54.203125 32.296875 
z
" id="STHeitiTC-Light-97"/>
      <path d="M 1.90625 59.09375 
L 9.09375 59.09375 
L 27.40625 18.203125 
L 45.09375 59.09375 
L 52.40625 59.09375 
L 20.703125 -13.40625 
L 13.5 -13.40625 
L 23.703125 10 
z
" id="STHeitiTC-Light-121"/>
      <path id="STHeitiTC-Light-32"/>
      <path d="M 29.5 78.203125 
L 29.5 71.5 
Q 25.59375 73.203125 22.546875 73.203125 
Q 19.5 73.203125 18.59375 71.25 
Q 17.703125 69.296875 17.703125 64.90625 
L 17.703125 59.09375 
L 28.796875 59.09375 
L 28.796875 53.296875 
L 17.703125 53.296875 
L 17.703125 6 
L 10.796875 6 
L 10.796875 53.296875 
L 3.90625 53.296875 
L 3.90625 59.09375 
L 10.796875 59.09375 
L 10.796875 66 
Q 10.796875 73 13.390625 76.296875 
Q 16 79.59375 21.5 79.59375 
Q 24.703125 79.59375 29.5 78.203125 
z
" id="STHeitiTC-Light-102"/>
      <path d="M 5 59.09375 
L 12 59.09375 
L 12 51.40625 
Q 14.796875 56.09375 17.4375 58.296875 
Q 20.09375 60.5 23.34375 60.5 
Q 26.59375 60.5 29.90625 58.703125 
L 26.296875 52.90625 
Q 24.796875 53.796875 23.203125 53.796875 
Q 20.09375 53.796875 17.34375 50.59375 
Q 14.59375 47.40625 13.296875 42.34375 
Q 12 37.296875 12 24 
L 12 6 
L 5 6 
z
" id="STHeitiTC-Light-114"/>
      <path d="M 5.09375 32.203125 
Q 5.09375 43.90625 13.140625 52.203125 
Q 21.203125 60.5 32.75 60.5 
Q 44.296875 60.5 52.34375 52.203125 
Q 60.40625 43.90625 60.40625 32.296875 
Q 60.40625 20.703125 52.453125 12.453125 
Q 44.5 4.203125 32.796875 4.203125 
Q 21.09375 4.203125 13.09375 12.453125 
Q 5.09375 20.703125 5.09375 32.203125 
z
M 53.5 32.09375 
Q 53.5 40.90625 47.34375 47.34375 
Q 41.203125 53.796875 32.75 53.796875 
Q 24.296875 53.796875 18.1875 47.34375 
Q 12.09375 40.90625 12.09375 32 
Q 12.09375 23.09375 18 16.890625 
Q 23.90625 10.703125 32.65625 10.703125 
Q 41.40625 10.703125 47.453125 16.953125 
Q 53.5 23.203125 53.5 32.09375 
z
" id="STHeitiTC-Light-111"/>
      <path d="M 7.59375 59.09375 
L 14.40625 59.09375 
L 14.40625 49.90625 
Q 21.5 60.5 32.59375 60.5 
Q 38.5 60.5 43.140625 57.140625 
Q 47.796875 53.796875 49.40625 47.703125 
Q 52.703125 53.90625 57.796875 57.203125 
Q 62.90625 60.5 69.546875 60.5 
Q 76.203125 60.5 81.59375 55.34375 
Q 87 50.203125 87 35 
L 87 6 
L 80 6 
L 80 35 
Q 80 42.296875 79.09375 45.75 
Q 78.203125 49.203125 75.203125 51.546875 
Q 72.203125 53.90625 67.25 53.90625 
Q 62.296875 53.90625 58 50.59375 
Q 53.703125 47.296875 52.09375 42.1875 
Q 50.5 37.09375 50.5 26.796875 
L 50.5 6 
L 43.796875 6 
L 43.796875 33.203125 
Q 43.796875 41.703125 42.890625 45.34375 
Q 42 49 38.890625 51.453125 
Q 35.796875 53.90625 31.296875 53.90625 
Q 26.796875 53.90625 22.84375 51.25 
Q 18.90625 48.59375 16.65625 44 
Q 14.40625 39.40625 14.40625 28.5 
L 14.40625 6 
L 7.59375 6 
z
" id="STHeitiTC-Light-109"/>
      <path d="M 11.59375 55.296875 
L 4.703125 55.296875 
Q 5.203125 66.296875 12 72.9375 
Q 18.796875 79.59375 28.4375 79.59375 
Q 38.09375 79.59375 44.4375 73.34375 
Q 50.796875 67.09375 50.796875 58.09375 
Q 50.796875 51.40625 47.25 45.703125 
Q 43.703125 40 36.5 32.203125 
L 18.59375 12.90625 
L 51.796875 12.90625 
L 51.796875 6 
L 3 6 
L 30.40625 35.59375 
Q 37.59375 43.40625 40.6875 47.90625 
Q 43.796875 52.40625 43.796875 58.203125 
Q 43.796875 64 39.25 68.390625 
Q 34.703125 72.796875 27.953125 72.796875 
Q 21.203125 72.796875 16.75 68.25 
Q 12.296875 63.703125 11.59375 55.296875 
z
" id="STHeitiTC-Light-50"/>
      <path d="M 27.296875 4.203125 
Q 15.703125 4.203125 9.453125 13.75 
Q 3.203125 23.296875 3.203125 41.890625 
Q 3.203125 60.5 9.453125 70.046875 
Q 15.703125 79.59375 27.203125 79.59375 
Q 38.703125 79.59375 45.453125 69.84375 
Q 52.203125 60.09375 52.203125 41.890625 
Q 52.203125 23.703125 45.390625 13.953125 
Q 38.59375 4.203125 27.296875 4.203125 
z
M 27.5 72.796875 
Q 19.203125 72.796875 14.59375 64.796875 
Q 10 56.796875 10 41.703125 
Q 10 10.703125 27.5 10.703125 
Q 36 10.703125 40.75 18.84375 
Q 45.5 27 45.5 41.890625 
Q 45.5 56.796875 40.59375 64.796875 
Q 35.703125 72.796875 27.5 72.796875 
z
" id="STHeitiTC-Light-48"/>
      <path d="M 3.203125 37 
L 30 37 
L 30 30 
L 3.203125 30 
z
" id="STHeitiTC-Light-45"/>
      <path d="M 18.5 77.796875 
L 32.59375 77.796875 
L 32.59375 6 
L 25.5 6 
L 25.5 70.796875 
L 14.203125 70.796875 
z
" id="STHeitiTC-Light-49"/>
      <path d="M 42.59375 79.59375 
L 44 79.59375 
L 44 29.59375 
L 52.703125 29.59375 
L 52.703125 22.703125 
L 44 22.703125 
L 44 6 
L 36.90625 6 
L 36.90625 22.703125 
L 2.5 22.703125 
z
M 36.90625 29.59375 
L 36.90625 59.5 
L 15.703125 29.59375 
z
" id="STHeitiTC-Light-52"/>
      <path d="M 9.09375 54.40625 
Q 9.09375 56.90625 10.890625 58.703125 
Q 12.703125 60.5 15.140625 60.5 
Q 17.59375 60.5 19.34375 58.75 
Q 21.09375 57 21.09375 54.453125 
Q 21.09375 51.90625 19.390625 50.15625 
Q 17.703125 48.40625 15.140625 48.40625 
Q 12.59375 48.40625 10.84375 50.15625 
Q 9.09375 51.90625 9.09375 54.40625 
z
M 9.09375 10.703125 
Q 9.09375 13.203125 10.890625 14.953125 
Q 12.703125 16.703125 15.140625 16.703125 
Q 17.59375 16.703125 19.34375 14.953125 
Q 21.09375 13.203125 21.09375 10.640625 
Q 21.09375 8.09375 19.34375 6.34375 
Q 17.59375 4.59375 15.140625 4.59375 
Q 12.703125 4.59375 10.890625 6.390625 
Q 9.09375 8.203125 9.09375 10.703125 
z
" id="STHeitiTC-Light-58"/>
     </defs>
     <g transform="translate(680.369416 668.108284)scale(0.0833 -0.0833)">
      <use xlink:href="#STHeitiTC-Light-100"/>
      <use x="68.499985" xlink:href="#STHeitiTC-Light-97"/>
      <use x="136.799973" xlink:href="#STHeitiTC-Light-121"/>
      <use x="190.399963" xlink:href="#STHeitiTC-Light-32"/>
      <use x="215.399948" xlink:href="#STHeitiTC-Light-102"/>
      <use x="246.799942" xlink:href="#STHeitiTC-Light-114"/>
      <use x="276.899933" xlink:href="#STHeitiTC-Light-111"/>
      <use x="342.399918" xlink:href="#STHeitiTC-Light-109"/>
      <use x="436.199905" xlink:href="#STHeitiTC-Light-32"/>
      <use x="461.19989" xlink:href="#STHeitiTC-Light-50"/>
      <use x="516.599884" xlink:href="#STHeitiTC-Light-48"/>
      <use x="571.999878" xlink:href="#STHeitiTC-Light-50"/>
      <use x="627.399872" xlink:href="#STHeitiTC-Light-48"/>
      <use x="682.799866" xlink:href="#STHeitiTC-Light-45"/>
      <use x="715.999863" xlink:href="#STHeitiTC-Light-48"/>
      <use x="771.399857" xlink:href="#STHeitiTC-Light-49"/>
      <use x="826.79985" xlink:href="#STHeitiTC-Light-45"/>
      <use x="859.999847" xlink:href="#STHeitiTC-Light-50"/>
      <use x="915.399841" xlink:href="#STHeitiTC-Light-52"/>
      <use x="970.799835" xlink:href="#STHeitiTC-Light-32"/>
      <use x="995.79982" xlink:href="#STHeitiTC-Light-48"/>
      <use x="1051.199814" xlink:href="#STHeitiTC-Light-48"/>
      <use x="1106.599808" xlink:href="#STHeitiTC-Light-58"/>
      <use x="1134.299805" xlink:href="#STHeitiTC-Light-48"/>
      <use x="1189.699799" xlink:href="#STHeitiTC-Light-48"/>
      <use x="1245.099792" xlink:href="#STHeitiTC-Light-58"/>
      <use x="1272.799789" xlink:href="#STHeitiTC-Light-48"/>
      <use x="1328.199783" xlink:href="#STHeitiTC-Light-48"/>
     </g>
    </g>
   </g>
   <g id="matplotlib.axis_2">
    <g id="ytick_1">
     <g id="line2d_19">
      <path clip-path="url(#pb69b53d709)" d="M 180 577.604293 
L 1296 577.604293 
" style="fill:none;stroke:#b0b0b0;stroke-linecap:square;stroke-width:0.8;"/>
     </g>
     <g id="line2d_20">
      <defs>
       <path d="M 0 0 
L -3.5 0 
" id="mfcb870b3b8" style="stroke:#000000;stroke-width:0.8;"/>
      </defs>
      <g>
       <use style="stroke:#000000;stroke-width:0.8;" x="180" xlink:href="#mfcb870b3b8" y="577.604293"/>
      </g>
     </g>
     <g id="text_11">
      <!-- 2 -->
      <g transform="translate(166.6375 581.403512)scale(0.1 -0.1)">
       <use xlink:href="#DejaVuSans-50"/>
      </g>
     </g>
    </g>
    <g id="ytick_2">
     <g id="line2d_21">
      <path clip-path="url(#pb69b53d709)" d="M 180 505.932805 
L 1296 505.932805 
" style="fill:none;stroke:#b0b0b0;stroke-linecap:square;stroke-width:0.8;"/>
     </g>
     <g id="line2d_22">
      <g>
       <use style="stroke:#000000;stroke-width:0.8;" x="180" xlink:href="#mfcb870b3b8" y="505.932805"/>
      </g>
     </g>
     <g id="text_12">
      <!-- 4 -->
      <defs>
       <path d="M 37.796875 64.3125 
L 12.890625 25.390625 
L 37.796875 25.390625 
z
M 35.203125 72.90625 
L 47.609375 72.90625 
L 47.609375 25.390625 
L 58.015625 25.390625 
L 58.015625 17.1875 
L 47.609375 17.1875 
L 47.609375 0 
L 37.796875 0 
L 37.796875 17.1875 
L 4.890625 17.1875 
L 4.890625 26.703125 
z
" id="DejaVuSans-52"/>
      </defs>
      <g transform="translate(166.6375 509.732023)scale(0.1 -0.1)">
       <use xlink:href="#DejaVuSans-52"/>
      </g>
     </g>
    </g>
    <g id="ytick_3">
     <g id="line2d_23">
      <path clip-path="url(#pb69b53d709)" d="M 180 434.261317 
L 1296 434.261317 
" style="fill:none;stroke:#b0b0b0;stroke-linecap:square;stroke-width:0.8;"/>
     </g>
     <g id="line2d_24">
      <g>
       <use style="stroke:#000000;stroke-width:0.8;" x="180" xlink:href="#mfcb870b3b8" y="434.261317"/>
      </g>
     </g>
     <g id="text_13">
      <!-- 6 -->
      <defs>
       <path d="M 33.015625 40.375 
Q 26.375 40.375 22.484375 35.828125 
Q 18.609375 31.296875 18.609375 23.390625 
Q 18.609375 15.53125 22.484375 10.953125 
Q 26.375 6.390625 33.015625 6.390625 
Q 39.65625 6.390625 43.53125 10.953125 
Q 47.40625 15.53125 47.40625 23.390625 
Q 47.40625 31.296875 43.53125 35.828125 
Q 39.65625 40.375 33.015625 40.375 
z
M 52.59375 71.296875 
L 52.59375 62.3125 
Q 48.875 64.0625 45.09375 64.984375 
Q 41.3125 65.921875 37.59375 65.921875 
Q 27.828125 65.921875 22.671875 59.328125 
Q 17.53125 52.734375 16.796875 39.40625 
Q 19.671875 43.65625 24.015625 45.921875 
Q 28.375 48.1875 33.59375 48.1875 
Q 44.578125 48.1875 50.953125 41.515625 
Q 57.328125 34.859375 57.328125 23.390625 
Q 57.328125 12.15625 50.6875 5.359375 
Q 44.046875 -1.421875 33.015625 -1.421875 
Q 20.359375 -1.421875 13.671875 8.265625 
Q 6.984375 17.96875 6.984375 36.375 
Q 6.984375 53.65625 15.1875 63.9375 
Q 23.390625 74.21875 37.203125 74.21875 
Q 40.921875 74.21875 44.703125 73.484375 
Q 48.484375 72.75 52.59375 71.296875 
z
" id="DejaVuSans-54"/>
      </defs>
      <g transform="translate(166.6375 438.060535)scale(0.1 -0.1)">
       <use xlink:href="#DejaVuSans-54"/>
      </g>
     </g>
    </g>
    <g id="ytick_4">
     <g id="line2d_25">
      <path clip-path="url(#pb69b53d709)" d="M 180 362.589828 
L 1296 362.589828 
" style="fill:none;stroke:#b0b0b0;stroke-linecap:square;stroke-width:0.8;"/>
     </g>
     <g id="line2d_26">
      <g>
       <use style="stroke:#000000;stroke-width:0.8;" x="180" xlink:href="#mfcb870b3b8" y="362.589828"/>
      </g>
     </g>
     <g id="text_14">
      <!-- 8 -->
      <defs>
       <path d="M 31.78125 34.625 
Q 24.75 34.625 20.71875 30.859375 
Q 16.703125 27.09375 16.703125 20.515625 
Q 16.703125 13.921875 20.71875 10.15625 
Q 24.75 6.390625 31.78125 6.390625 
Q 38.8125 6.390625 42.859375 10.171875 
Q 46.921875 13.96875 46.921875 20.515625 
Q 46.921875 27.09375 42.890625 30.859375 
Q 38.875 34.625 31.78125 34.625 
z
M 21.921875 38.8125 
Q 15.578125 40.375 12.03125 44.71875 
Q 8.5 49.078125 8.5 55.328125 
Q 8.5 64.0625 14.71875 69.140625 
Q 20.953125 74.21875 31.78125 74.21875 
Q 42.671875 74.21875 48.875 69.140625 
Q 55.078125 64.0625 55.078125 55.328125 
Q 55.078125 49.078125 51.53125 44.71875 
Q 48 40.375 41.703125 38.8125 
Q 48.828125 37.15625 52.796875 32.3125 
Q 56.78125 27.484375 56.78125 20.515625 
Q 56.78125 9.90625 50.3125 4.234375 
Q 43.84375 -1.421875 31.78125 -1.421875 
Q 19.734375 -1.421875 13.25 4.234375 
Q 6.78125 9.90625 6.78125 20.515625 
Q 6.78125 27.484375 10.78125 32.3125 
Q 14.796875 37.15625 21.921875 38.8125 
z
M 18.3125 54.390625 
Q 18.3125 48.734375 21.84375 45.5625 
Q 25.390625 42.390625 31.78125 42.390625 
Q 38.140625 42.390625 41.71875 45.5625 
Q 45.3125 48.734375 45.3125 54.390625 
Q 45.3125 60.0625 41.71875 63.234375 
Q 38.140625 66.40625 31.78125 66.40625 
Q 25.390625 66.40625 21.84375 63.234375 
Q 18.3125 60.0625 18.3125 54.390625 
z
" id="DejaVuSans-56"/>
      </defs>
      <g transform="translate(166.6375 366.389047)scale(0.1 -0.1)">
       <use xlink:href="#DejaVuSans-56"/>
      </g>
     </g>
    </g>
    <g id="ytick_5">
     <g id="line2d_27">
      <path clip-path="url(#pb69b53d709)" d="M 180 290.91834 
L 1296 290.91834 
" style="fill:none;stroke:#b0b0b0;stroke-linecap:square;stroke-width:0.8;"/>
     </g>
     <g id="line2d_28">
      <g>
       <use style="stroke:#000000;stroke-width:0.8;" x="180" xlink:href="#mfcb870b3b8" y="290.91834"/>
      </g>
     </g>
     <g id="text_15">
      <!-- 10 -->
      <g transform="translate(160.275 294.717559)scale(0.1 -0.1)">
       <use xlink:href="#DejaVuSans-49"/>
       <use x="63.623047" xlink:href="#DejaVuSans-48"/>
      </g>
     </g>
    </g>
    <g id="ytick_6">
     <g id="line2d_29">
      <path clip-path="url(#pb69b53d709)" d="M 180 219.246852 
L 1296 219.246852 
" style="fill:none;stroke:#b0b0b0;stroke-linecap:square;stroke-width:0.8;"/>
     </g>
     <g id="line2d_30">
      <g>
       <use style="stroke:#000000;stroke-width:0.8;" x="180" xlink:href="#mfcb870b3b8" y="219.246852"/>
      </g>
     </g>
     <g id="text_16">
      <!-- 12 -->
      <g transform="translate(160.275 223.046071)scale(0.1 -0.1)">
       <use xlink:href="#DejaVuSans-49"/>
       <use x="63.623047" xlink:href="#DejaVuSans-50"/>
      </g>
     </g>
    </g>
    <g id="ytick_7">
     <g id="line2d_31">
      <path clip-path="url(#pb69b53d709)" d="M 180 147.575364 
L 1296 147.575364 
" style="fill:none;stroke:#b0b0b0;stroke-linecap:square;stroke-width:0.8;"/>
     </g>
     <g id="line2d_32">
      <g>
       <use style="stroke:#000000;stroke-width:0.8;" x="180" xlink:href="#mfcb870b3b8" y="147.575364"/>
      </g>
     </g>
     <g id="text_17">
      <!-- 14 -->
      <g transform="translate(160.275 151.374583)scale(0.1 -0.1)">
       <use xlink:href="#DejaVuSans-49"/>
       <use x="63.623047" xlink:href="#DejaVuSans-52"/>
      </g>
     </g>
    </g>
   </g>
   <g id="patch_3">
    <path d="M 180 640.8 
L 180 86.4 
" style="fill:none;stroke:#000000;stroke-linecap:square;stroke-linejoin:miter;stroke-width:0.8;"/>
   </g>
   <g id="patch_4">
    <path d="M 1296 640.8 
L 1296 86.4 
" style="fill:none;stroke:#000000;stroke-linecap:square;stroke-linejoin:miter;stroke-width:0.8;"/>
   </g>
   <g id="patch_5">
    <path d="M 180 640.8 
L 1296 640.8 
" style="fill:none;stroke:#000000;stroke-linecap:square;stroke-linejoin:miter;stroke-width:0.8;"/>
   </g>
   <g id="patch_6">
    <path d="M 180 86.4 
L 1296 86.4 
" style="fill:none;stroke:#000000;stroke-linecap:square;stroke-linejoin:miter;stroke-width:0.8;"/>
   </g>
   <g id="legend_1">
    <g id="patch_7">
     <path d="M 185.831 152.680769 
L 254.137 152.680769 
Q 255.803 152.680769 255.803 151.014769 
L 255.803 92.231 
Q 255.803 90.565 254.137 90.565 
L 185.831 90.565 
Q 184.165 90.565 184.165 92.231 
L 184.165 151.014769 
Q 184.165 152.680769 185.831 152.680769 
z
" style="fill:#ffffff;opacity:0.8;stroke:#cccccc;stroke-linejoin:miter;"/>
    </g>
    <g id="PathCollection_6">
     <g>
      <use style="fill:#1f77b4;stroke:#1f77b4;" x="195.827" xlink:href="#m116cc4b18c" y="98.340534"/>
     </g>
    </g>
    <g id="text_18">
     <!-- 西宁 -->
     <defs>
      <path d="M 43.40625 45.203125 
Q 43.296875 37.90625 42.5 32.90625 
Q 41.703125 27.90625 39.75 24.09375 
Q 37.796875 20.296875 34.546875 17.046875 
Q 31.296875 13.796875 26.296875 10.09375 
Q 25.796875 11.59375 24.390625 12.546875 
Q 23 13.5 20.40625 14.296875 
L 20.40625 4.203125 
L 79.203125 4.203125 
L 79.203125 45.203125 
L 62.5 45.203125 
L 62.5 25.796875 
Q 62.5 24 62.890625 22.796875 
Q 63.296875 21.59375 64.84375 21.09375 
Q 66.40625 20.59375 69.546875 20.75 
Q 72.703125 20.90625 78.09375 21.703125 
Q 77.203125 19.703125 77 18.140625 
Q 76.796875 16.59375 76.90625 15.296875 
Q 75 15.203125 73.390625 15.09375 
Q 71.796875 15 70.1875 15 
Q 68.59375 15 66.796875 15 
Q 65 15 62.796875 15.09375 
Q 59.296875 15.296875 57.890625 17.046875 
Q 56.5 18.796875 56.5 22.296875 
L 56.5 45.203125 
z
M 20.40625 45.203125 
L 20.40625 14.90625 
Q 25.203125 17.296875 28.453125 19.890625 
Q 31.703125 22.5 33.640625 26 
Q 35.59375 29.5 36.5 34.09375 
Q 37.40625 38.703125 37.5 45.203125 
z
M 37.5 67.296875 
Q 27.90625 67.296875 20.84375 67.140625 
Q 13.796875 67 7.90625 66.59375 
L 7.90625 73.703125 
Q 11.09375 73.40625 14.84375 73.15625 
Q 18.59375 72.90625 23.5 72.75 
Q 28.40625 72.59375 34.796875 72.5 
Q 41.203125 72.40625 49.90625 72.40625 
Q 59.703125 72.40625 66.203125 72.5 
Q 72.703125 72.59375 77.296875 72.75 
Q 81.90625 72.90625 85.25 73.15625 
Q 88.59375 73.40625 92 73.703125 
L 92 66.59375 
Q 89.59375 66.703125 86.890625 66.84375 
Q 84.203125 67 80.75 67.046875 
Q 77.296875 67.09375 72.890625 67.1875 
Q 68.5 67.296875 62.5 67.296875 
L 62.5 50.203125 
Q 69.796875 50.203125 76.046875 50.390625 
Q 82.296875 50.59375 86 50.90625 
Q 85.703125 48.90625 85.546875 46.25 
Q 85.40625 43.59375 85.40625 39.40625 
L 85.40625 16.796875 
Q 85.40625 13.296875 85.453125 9.75 
Q 85.5 6.203125 85.640625 2.890625 
Q 85.796875 -0.40625 85.9375 -3.296875 
Q 86.09375 -6.203125 86.296875 -8.40625 
L 79.203125 -8.40625 
L 79.203125 -1 
L 20.40625 -1 
L 20.40625 -9.296875 
L 13.5 -9.296875 
Q 13.703125 -7.09375 13.84375 -4.1875 
Q 14 -1.296875 14.09375 2 
Q 14.203125 5.296875 14.25 8.84375 
Q 14.296875 12.40625 14.296875 15.90625 
L 14.296875 39.40625 
Q 14.296875 40.703125 14.25 42.296875 
Q 14.203125 43.90625 14.09375 45.5 
Q 14 47.09375 13.890625 48.5 
Q 13.796875 49.90625 13.703125 50.90625 
Q 17.5 50.59375 23.953125 50.390625 
Q 30.40625 50.203125 37.5 50.203125 
z
M 56.5 67.296875 
L 43.40625 67.296875 
L 43.40625 50.203125 
L 56.5 50.203125 
z
" id="STHeitiTC-Light-35199"/>
      <path d="M 26 38.203125 
Q 20.296875 38.203125 16.09375 38.046875 
Q 11.90625 37.90625 8.40625 37.5 
L 8.40625 43.90625 
Q 12.5 43.5 16.890625 43.34375 
Q 21.296875 43.203125 26 43.203125 
L 73.296875 43.203125 
Q 77.09375 43.203125 79.75 43.25 
Q 82.40625 43.296875 84.453125 43.34375 
Q 86.5 43.40625 88.140625 43.546875 
Q 89.796875 43.703125 91.59375 43.90625 
L 91.59375 37.5 
Q 89.796875 37.703125 88.09375 37.84375 
Q 86.40625 38 84.296875 38.046875 
Q 82.203125 38.09375 79.546875 38.140625 
Q 76.90625 38.203125 73.296875 38.203125 
L 56 38.203125 
L 56 0.703125 
Q 56 -2.296875 55.453125 -4.296875 
Q 54.90625 -6.296875 52.90625 -7.5 
Q 50.90625 -8.703125 47.046875 -9.140625 
Q 43.203125 -9.59375 36.59375 -9.5 
Q 36.59375 -8.296875 36.5 -7.390625 
Q 36.40625 -6.5 36.15625 -5.640625 
Q 35.90625 -4.796875 35.453125 -3.9375 
Q 35 -3.09375 34.203125 -1.90625 
Q 39.09375 -2.703125 42.09375 -2.953125 
Q 45.09375 -3.203125 46.796875 -2.59375 
Q 48.5 -2 49.09375 -0.546875 
Q 49.703125 0.90625 49.703125 3.40625 
L 49.703125 38.203125 
z
M 48 70.296875 
Q 46.296875 73.203125 44.6875 75.390625 
Q 43.09375 77.59375 41 79.90625 
L 47 83.09375 
Q 48.90625 80.09375 50.5 77.25 
Q 52.09375 74.40625 54.09375 70.296875 
Q 68 70.296875 76.546875 70.5 
Q 85.09375 70.703125 89.796875 71.203125 
L 89.796875 50.90625 
L 83.703125 50.90625 
L 83.703125 65.09375 
L 16.59375 65.09375 
L 16.59375 51 
L 10.59375 51 
L 10.59375 71.203125 
Q 13 71 16.09375 70.84375 
Q 19.203125 70.703125 23.546875 70.59375 
Q 27.90625 70.5 33.84375 70.390625 
Q 39.796875 70.296875 48 70.296875 
z
" id="STHeitiTC-Light-23425"/>
     </defs>
     <g transform="translate(210.821 100.527159)scale(0.0833 -0.0833)">
      <use xlink:href="#STHeitiTC-Light-35199"/>
      <use x="99.999985" xlink:href="#STHeitiTC-Light-23425"/>
     </g>
    </g>
    <g id="PathCollection_7">
     <g>
      <use style="fill:#ff7f0e;stroke:#ff7f0e;" x="195.827" xlink:href="#m06c5518a6e" y="110.252434"/>
     </g>
    </g>
    <g id="text_19">
     <!-- 海北州 -->
     <defs>
      <path d="M 64 11.40625 
Q 63.296875 12.40625 62.046875 13.796875 
Q 60.796875 15.203125 59.34375 16.640625 
Q 57.90625 18.09375 56.40625 19.4375 
Q 54.90625 20.796875 53.703125 21.703125 
L 57.5 25.40625 
Q 58.5 24.59375 59.953125 23.390625 
Q 61.40625 22.203125 62.90625 20.796875 
Q 64.40625 19.40625 65.796875 17.953125 
Q 67.203125 16.5 68.296875 15.296875 
z
M 64.296875 34.296875 
Q 62.796875 36.796875 59.75 39.59375 
Q 56.703125 42.40625 54 44.296875 
L 57.203125 48.09375 
Q 58.5 47.296875 60 46.09375 
Q 61.5 44.90625 63.046875 43.546875 
Q 64.59375 42.203125 66.046875 40.75 
Q 67.5 39.296875 68.703125 38.09375 
z
M 28 25.796875 
Q 24.5 19.5 20.703125 11.5 
Q 16.90625 3.5 12.40625 -7.5 
Q 10.703125 -5.796875 9 -4.796875 
Q 7.296875 -3.796875 5.59375 -3.09375 
Q 8.09375 0.59375 10.640625 4.84375 
Q 13.203125 9.09375 15.453125 13.4375 
Q 17.703125 17.796875 19.546875 21.9375 
Q 21.40625 26.09375 22.703125 29.703125 
Q 24.09375 28 25.1875 27.25 
Q 26.296875 26.5 28 25.796875 
z
M 44.59375 28.296875 
L 43.5 10.09375 
L 76.90625 10.09375 
L 77.203125 28.296875 
z
M 77.203125 33.09375 
L 77.5 51.09375 
L 46 51.09375 
L 44.90625 33.09375 
z
M 40.90625 56.296875 
Q 44.59375 56.09375 50.140625 55.9375 
Q 55.703125 55.796875 62.296875 55.796875 
Q 69.203125 55.796875 74.546875 55.9375 
Q 79.90625 56.09375 83.59375 56.296875 
L 83 33.09375 
Q 87.296875 33.09375 90.09375 33.1875 
Q 92.90625 33.296875 95.5 33.5 
L 95.5 27.90625 
Q 92.90625 28.09375 90.09375 28.1875 
Q 87.296875 28.296875 82.90625 28.296875 
L 82.5 10.09375 
Q 85.703125 10.09375 88 10.1875 
Q 90.296875 10.296875 92.5 10.5 
L 92.5 5 
Q 90.296875 5.203125 87.9375 5.296875 
Q 85.59375 5.40625 82.40625 5.40625 
Q 82.296875 0.40625 81.6875 -2.5 
Q 81.09375 -5.40625 79.34375 -6.953125 
Q 77.59375 -8.5 74.25 -9.046875 
Q 70.90625 -9.59375 65.40625 -9.90625 
Q 65.59375 -7.796875 65 -6.296875 
Q 64.40625 -4.796875 62.703125 -2.703125 
Q 67.203125 -3.5 69.953125 -3.59375 
Q 72.703125 -3.703125 74.203125 -2.796875 
Q 75.703125 -1.90625 76.203125 0.09375 
Q 76.703125 2.09375 76.796875 5.40625 
L 54.5 5.40625 
Q 49.703125 5.40625 45.140625 5.203125 
Q 40.59375 5 37.5 4.5 
L 39.09375 28.296875 
Q 35.796875 28.296875 33.6875 28.1875 
Q 31.59375 28.09375 29.296875 27.90625 
L 29.296875 33.5 
Q 31.703125 33.296875 33.796875 33.1875 
Q 35.90625 33.09375 39.40625 33.09375 
z
M 22.703125 38.5 
Q 18.90625 41.90625 13.90625 45 
Q 8.90625 48.09375 4.40625 50 
L 7.5 55.09375 
Q 9.59375 54 12.046875 52.59375 
Q 14.5 51.203125 17.046875 49.640625 
Q 19.59375 48.09375 22.09375 46.5 
Q 24.59375 44.90625 26.59375 43.5 
z
M 69.40625 70 
Q 75.703125 70 81.390625 70.203125 
Q 87.09375 70.40625 90.796875 70.703125 
L 90.796875 64.40625 
Q 87.09375 64.703125 81.390625 64.890625 
Q 75.703125 65.09375 69.40625 65.09375 
L 44.703125 65.09375 
Q 42.203125 60.59375 39.59375 56.6875 
Q 37 52.796875 33.796875 48.796875 
Q 32.59375 50.09375 31.1875 51.09375 
Q 29.796875 52.09375 28.09375 52.796875 
Q 35.203125 59.40625 39.453125 66.703125 
Q 43.703125 74 45.40625 82.703125 
Q 47.203125 81.5 49.09375 80.796875 
Q 51 80.09375 52.703125 79.90625 
Q 53.796875 79.703125 53.59375 79.09375 
Q 53.40625 78.5 52.296875 77.796875 
Q 51.796875 77.5 51.546875 77.34375 
Q 51.296875 77.203125 50.890625 76.75 
Q 50.5 76.296875 50 75.34375 
Q 49.5 74.40625 48.59375 72.59375 
Q 48.296875 71.90625 47.9375 71.296875 
Q 47.59375 70.703125 47.296875 70 
z
M 28.09375 62.296875 
Q 24.203125 65.796875 19.953125 68.59375 
Q 15.703125 71.40625 9.796875 74.59375 
L 13 79.5 
Q 18.203125 76.59375 23.09375 73.296875 
Q 28 70 31.90625 67.09375 
z
" id="STHeitiTC-Light-28023"/>
      <path d="M 63.703125 47 
Q 71.90625 49.40625 78.34375 52.203125 
Q 84.796875 55 88.59375 57.5 
Q 89.296875 56 90.5 54.203125 
Q 91.703125 52.40625 92.796875 51.5 
Q 94 50.40625 93.84375 49.65625 
Q 93.703125 48.90625 91.796875 49.09375 
Q 90.59375 49.203125 89 49.046875 
Q 87.40625 48.90625 84.34375 48.09375 
Q 81.296875 47.296875 76.390625 45.75 
Q 71.5 44.203125 63.703125 41.5 
L 63.703125 6.796875 
Q 63.703125 5.296875 64.09375 4.1875 
Q 64.5 3.09375 65.75 2.390625 
Q 67 1.703125 69.390625 1.390625 
Q 71.796875 1.09375 75.703125 1.09375 
Q 80 1.09375 82.640625 1.5 
Q 85.296875 1.90625 86.75 3.046875 
Q 88.203125 4.203125 88.75 6.296875 
Q 89.296875 8.40625 89.296875 11.796875 
Q 90.703125 10.40625 92.546875 9.296875 
Q 94.40625 8.203125 95.90625 7.796875 
Q 95.09375 3.703125 93.890625 1.296875 
Q 92.703125 -1.09375 90.5 -2.390625 
Q 88.296875 -3.703125 84.6875 -4.09375 
Q 81.09375 -4.5 75.59375 -4.5 
Q 69.40625 -4.5 65.84375 -4 
Q 62.296875 -3.5 60.4375 -2.34375 
Q 58.59375 -1.203125 58.09375 0.75 
Q 57.59375 2.703125 57.59375 5.703125 
L 57.59375 61.796875 
Q 57.59375 65.5 57.546875 68.140625 
Q 57.5 70.796875 57.453125 72.796875 
Q 57.40625 74.796875 57.25 76.1875 
Q 57.09375 77.59375 57 78.703125 
Q 60.59375 77.796875 64.90625 78.09375 
Q 66.296875 78.203125 66.390625 77.75 
Q 66.5 77.296875 65.40625 76.09375 
Q 64.59375 75.296875 64.140625 72.140625 
Q 63.703125 69 63.703125 61.796875 
z
M 33.203125 59.40625 
Q 33.203125 67 32.953125 71.390625 
Q 32.703125 75.796875 32.296875 78.796875 
Q 34.296875 78.296875 36.59375 78 
Q 38.90625 77.703125 41 77.703125 
Q 42.40625 77.703125 42.59375 77.140625 
Q 42.796875 76.59375 41.59375 75.90625 
Q 40.796875 75.40625 40.140625 74.09375 
Q 39.5 72.796875 39.5 71.09375 
L 39.5 7.90625 
Q 39.5 3.703125 39.640625 0.203125 
Q 39.796875 -3.296875 40.296875 -7.09375 
L 32.296875 -7.09375 
Q 32.796875 -3.203125 33 0.25 
Q 33.203125 3.703125 33.203125 7.90625 
L 33.203125 16.796875 
Q 30.796875 15.40625 27.796875 13.59375 
Q 24.796875 11.796875 21.546875 9.75 
Q 18.296875 7.703125 14.890625 5.453125 
Q 11.5 3.203125 8.203125 1 
Q 7.796875 2.796875 6.796875 4.4375 
Q 5.796875 6.09375 4.09375 7.90625 
Q 6.796875 8.796875 10.5 10.5 
Q 14.203125 12.203125 18.140625 14.25 
Q 22.09375 16.296875 26.046875 18.546875 
Q 30 20.796875 33.203125 22.90625 
L 33.203125 44.703125 
L 20.40625 44.703125 
Q 16.703125 44.703125 12.84375 44.5 
Q 9 44.296875 6.703125 44 
L 6.703125 50.296875 
Q 9.203125 49.90625 13 49.703125 
Q 16.796875 49.5 20.40625 49.5 
L 33.203125 49.5 
z
" id="STHeitiTC-Light-21271"/>
      <path d="M 75.296875 35.203125 
Q 72.90625 39.09375 69.796875 43.09375 
Q 66.703125 47.09375 63.5 50.296875 
L 67.59375 54.203125 
Q 69.796875 51.90625 71.546875 49.953125 
Q 73.296875 48 74.796875 46.203125 
Q 76.296875 44.40625 77.640625 42.703125 
Q 79 41 80.40625 39.09375 
z
M 22.703125 56.296875 
Q 22.40625 52.09375 21.953125 48.796875 
Q 21.5 45.5 20.890625 42.34375 
Q 20.296875 39.203125 19.4375 35.890625 
Q 18.59375 32.59375 17.296875 28.40625 
L 10.703125 29.90625 
Q 12.40625 33.90625 13.453125 37.046875 
Q 14.5 40.203125 15.203125 43.203125 
Q 15.90625 46.203125 16.296875 49.453125 
Q 16.703125 52.703125 17 57.09375 
z
M 61.796875 73.796875 
Q 60.59375 72.59375 60.59375 68.203125 
L 60.59375 11.90625 
Q 60.59375 8.5 60.84375 4.046875 
Q 61.09375 -0.40625 61.59375 -4.703125 
L 53.796875 -4.703125 
Q 54.296875 -0.296875 54.546875 4.140625 
Q 54.796875 8.59375 54.796875 12 
L 54.796875 63.203125 
Q 54.796875 67.296875 54.546875 70.390625 
Q 54.296875 73.5 53.796875 76.40625 
Q 57.796875 75.296875 61 75.796875 
Q 62.09375 76 62.390625 75.34375 
Q 62.703125 74.703125 61.796875 73.796875 
z
M 48.09375 36.09375 
Q 45.703125 40.09375 42.84375 43.75 
Q 40 47.40625 36.796875 50.5 
L 40.59375 54.40625 
Q 44.59375 50.296875 47.390625 46.890625 
Q 50.203125 43.5 53 39.5 
z
M 88.90625 77.40625 
Q 88.296875 76.796875 88.140625 75.546875 
Q 88 74.296875 88 72 
L 88 9.40625 
Q 88 6 88.296875 1.546875 
Q 88.59375 -2.90625 89 -7.203125 
L 81 -7.203125 
Q 81.5 -2.796875 81.75 1.640625 
Q 82 6.09375 82 9.5 
L 82 67 
Q 82 71.09375 81.75 74.1875 
Q 81.5 77.296875 81 80.203125 
Q 83.203125 79.5 84.890625 79.390625 
Q 86.59375 79.296875 88.40625 79.703125 
Q 89.59375 79.90625 89.75 79.15625 
Q 89.90625 78.40625 88.90625 77.40625 
z
M 36 76.09375 
Q 35.703125 75.796875 35.390625 74.640625 
Q 35.09375 73.5 34.9375 71 
Q 34.796875 68.5 34.75 64.453125 
Q 34.703125 60.40625 34.796875 54.5 
Q 34.90625 45.703125 34.703125 38.84375 
Q 34.5 32 33.84375 26.59375 
Q 33.203125 21.203125 31.890625 16.890625 
Q 30.59375 12.59375 28.546875 8.75 
Q 26.5 4.90625 23.59375 1.203125 
Q 20.703125 -2.5 16.703125 -6.59375 
Q 15.59375 -4.40625 14.046875 -3.5 
Q 12.5 -2.59375 10 -2.203125 
Q 15.703125 2.203125 19.34375 6.75 
Q 23 11.296875 25.09375 17.546875 
Q 27.203125 23.796875 28 32.34375 
Q 28.796875 40.90625 28.796875 53.40625 
Q 28.796875 59.59375 28.6875 64 
Q 28.59375 68.40625 28.5 71.453125 
Q 28.40625 74.5 28.203125 76.34375 
Q 28 78.203125 27.796875 79.203125 
Q 30 78.703125 31.796875 78.546875 
Q 33.59375 78.40625 35.59375 78.296875 
Q 36.796875 78.203125 36.9375 77.546875 
Q 37.09375 76.90625 36 76.09375 
z
" id="STHeitiTC-Light-24030"/>
     </defs>
     <g transform="translate(210.821 112.439059)scale(0.0833 -0.0833)">
      <use xlink:href="#STHeitiTC-Light-28023"/>
      <use x="99.999985" xlink:href="#STHeitiTC-Light-21271"/>
      <use x="199.999969" xlink:href="#STHeitiTC-Light-24030"/>
     </g>
    </g>
    <g id="PathCollection_8">
     <g>
      <use style="fill:#2ca02c;stroke:#2ca02c;" x="195.827" xlink:href="#mcd7408ffb7" y="122.164334"/>
     </g>
    </g>
    <g id="text_20">
     <!-- 北海州 -->
     <g transform="translate(210.821 124.350959)scale(0.0833 -0.0833)">
      <use xlink:href="#STHeitiTC-Light-21271"/>
      <use x="99.999985" xlink:href="#STHeitiTC-Light-28023"/>
      <use x="199.999969" xlink:href="#STHeitiTC-Light-24030"/>
     </g>
    </g>
    <g id="PathCollection_9">
     <g>
      <use style="fill:#d62728;stroke:#d62728;" x="195.827" xlink:href="#m2c9c5304a9" y="134.076234"/>
     </g>
    </g>
    <g id="text_21">
     <!-- 待明确地区 -->
     <defs>
      <path d="M 53.5 3 
Q 52.09375 5.09375 50.6875 7 
Q 49.296875 8.90625 47.84375 10.65625 
Q 46.40625 12.40625 44.75 14.046875 
Q 43.09375 15.703125 41.203125 17.5 
L 45.59375 21.40625 
Q 49.09375 17.796875 52.25 14.25 
Q 55.40625 10.703125 58.296875 6.796875 
z
M 77.90625 29.296875 
Q 81 29.296875 83.84375 29.34375 
Q 86.703125 29.40625 89.046875 29.5 
Q 91.40625 29.59375 93.09375 29.6875 
Q 94.796875 29.796875 95.703125 29.90625 
L 95.703125 24 
Q 94.796875 24.09375 93.09375 24.1875 
Q 91.40625 24.296875 89.046875 24.390625 
Q 86.703125 24.5 83.84375 24.546875 
Q 81 24.59375 77.90625 24.59375 
L 77.90625 -0.09375 
Q 77.90625 -2.90625 77.296875 -4.796875 
Q 76.703125 -6.703125 75.046875 -7.84375 
Q 73.40625 -9 70.40625 -9.5 
Q 67.40625 -10 62.40625 -10 
Q 62.09375 -7.90625 61.546875 -6.5 
Q 61 -5.09375 59.59375 -2.796875 
Q 63.5 -3.40625 65.796875 -3.5 
Q 68.09375 -3.59375 69.390625 -3 
Q 70.703125 -2.40625 71.09375 -1 
Q 71.5 0.40625 71.5 2.796875 
L 71.5 24.59375 
L 49.09375 24.59375 
Q 37.203125 24.59375 33.90625 24 
L 33.90625 29.90625 
Q 35.59375 29.59375 39.296875 29.4375 
Q 43 29.296875 49.09375 29.296875 
L 71.5 29.296875 
Q 71.5 33.90625 71.34375 36.5 
Q 71.203125 39.09375 70.796875 41 
Q 75.09375 40.40625 78.796875 40.40625 
Q 80.5 40.40625 80.546875 39.75 
Q 80.59375 39.09375 79.203125 38 
Q 78.59375 37.5 78.1875 36.546875 
Q 77.796875 35.59375 77.90625 34.5 
z
M 60.90625 61.5 
Q 53.40625 61.40625 48.203125 61.15625 
Q 43 60.90625 39.40625 60.40625 
L 39.40625 67.203125 
Q 43 66.703125 48.203125 66.453125 
Q 53.40625 66.203125 60.90625 66.09375 
Q 60.90625 69.5 60.84375 72 
Q 60.796875 74.5 60.75 76.296875 
Q 60.703125 78.09375 60.546875 79.34375 
Q 60.40625 80.59375 60.203125 81.59375 
Q 64.59375 80.796875 67.90625 81 
Q 69.59375 81.09375 69.640625 80.390625 
Q 69.703125 79.703125 68.296875 78.59375 
Q 67.703125 78.09375 67.34375 77.140625 
Q 67 76.203125 67 75.09375 
L 67 66.09375 
Q 75 66.203125 79.953125 66.453125 
Q 84.90625 66.703125 88.703125 67.203125 
L 88.703125 60.40625 
Q 84.90625 60.90625 79.546875 61.15625 
Q 74.203125 61.40625 67 61.5 
L 67 48.09375 
Q 71.796875 48.09375 75.4375 48.1875 
Q 79.09375 48.296875 82.140625 48.4375 
Q 85.203125 48.59375 87.84375 48.84375 
Q 90.5 49.09375 93.203125 49.40625 
L 93.203125 42.5 
Q 90.203125 42.796875 87.75 43.046875 
Q 85.296875 43.296875 82.4375 43.4375 
Q 79.59375 43.59375 75.796875 43.6875 
Q 72 43.796875 66.5 43.796875 
Q 61.40625 43.796875 57.25 43.6875 
Q 53.09375 43.59375 49.59375 43.4375 
Q 46.09375 43.296875 43.09375 43.046875 
Q 40.09375 42.796875 37.09375 42.5 
L 37.09375 49.40625 
Q 39.90625 49.09375 42.15625 48.84375 
Q 44.40625 48.59375 46.953125 48.4375 
Q 49.5 48.296875 52.796875 48.1875 
Q 56.09375 48.09375 60.90625 48.09375 
z
M 34.59375 77.203125 
Q 35.296875 76.796875 35.546875 76.296875 
Q 35.796875 75.796875 35.6875 75.296875 
Q 35.59375 74.796875 35.1875 74.5 
Q 34.796875 74.203125 34.203125 74.296875 
Q 33.90625 74.296875 33.546875 74.140625 
Q 33.203125 74 32.296875 73.09375 
Q 31.40625 72.203125 29.65625 70.390625 
Q 27.90625 68.59375 24.90625 65.40625 
Q 22.90625 63.296875 19.203125 59.796875 
Q 15.5 56.296875 11 52.09375 
Q 9.90625 53.5 8.84375 54.546875 
Q 7.796875 55.59375 6.09375 56.796875 
Q 9.5 58.796875 13.140625 61.796875 
Q 16.796875 64.796875 19.59375 67.703125 
Q 23.59375 71.796875 26 75.5 
Q 28.40625 79.203125 29.203125 81.40625 
Q 30.59375 79.90625 31.75 79 
Q 32.90625 78.09375 34.59375 77.203125 
z
M 25.59375 -10.296875 
L 18.5 -10.296875 
Q 19 -6.203125 19.140625 -2.59375 
Q 19.296875 1 19.296875 5.296875 
L 19.296875 34.40625 
Q 15.296875 29.59375 9.59375 24.09375 
Q 8.5 25.59375 7.453125 26.4375 
Q 6.40625 27.296875 4.203125 28.59375 
Q 6.5 30.296875 8.34375 31.796875 
Q 10.203125 33.296875 11.890625 34.84375 
Q 13.59375 36.40625 15.25 38.296875 
Q 16.90625 40.203125 18.796875 42.59375 
Q 20.40625 44.703125 21.703125 46.390625 
Q 23 48.09375 24 49.640625 
Q 25 51.203125 25.84375 52.796875 
Q 26.703125 54.40625 27.5 56.40625 
Q 29.5 55 30.546875 54.25 
Q 31.59375 53.5 33 52.703125 
Q 34.09375 52.09375 33.9375 51.046875 
Q 33.796875 50 32.296875 49.703125 
Q 31.796875 49.59375 31.1875 49.25 
Q 30.59375 48.90625 29.84375 48.09375 
Q 29.09375 47.296875 28.046875 46 
Q 27 44.703125 25.59375 42.796875 
z
" id="STHeitiTC-Light-24453"/>
      <path d="M 57.59375 26 
Q 57.09375 15.296875 53.75 6 
Q 50.40625 -3.296875 44.203125 -9.5 
Q 42.703125 -8.09375 41.203125 -7.25 
Q 39.703125 -6.40625 37 -5.59375 
Q 41.40625 -2.59375 44.25 1.09375 
Q 47.09375 4.796875 48.75 10 
Q 50.40625 15.203125 51.046875 22.203125 
Q 51.703125 29.203125 51.703125 38.796875 
L 51.703125 63.296875 
Q 51.703125 68.09375 51.59375 71.140625 
Q 51.5 74.203125 51.296875 76.5 
Q 54.796875 76.296875 59.890625 76.140625 
Q 65 76 69.796875 76 
Q 74.59375 76 79.6875 76.140625 
Q 84.796875 76.296875 88.296875 76.5 
Q 88.203125 74.703125 88.140625 73.296875 
Q 88.09375 71.90625 88.046875 70.453125 
Q 88 69 88 67.34375 
Q 88 65.703125 88 63.296875 
L 88 1.5 
Q 88 -1.09375 87.453125 -3.046875 
Q 86.90625 -5 85 -6.34375 
Q 83.09375 -7.703125 79.59375 -8.5 
Q 76.09375 -9.296875 70.09375 -9.59375 
Q 69.796875 -5.5 67.09375 -2 
Q 71.703125 -2.796875 74.546875 -2.796875 
Q 77.40625 -2.796875 79.046875 -2.09375 
Q 80.703125 -1.40625 81.296875 0 
Q 81.90625 1.40625 81.90625 3.296875 
L 81.90625 26 
z
M 57.703125 47.703125 
L 57.703125 30.90625 
L 81.90625 30.90625 
L 81.90625 47.703125 
z
M 81.90625 52.5 
L 81.90625 71.296875 
L 57.703125 71.296875 
L 57.703125 52.5 
z
M 18.5 2.09375 
L 11.59375 2.09375 
Q 12.09375 5.5 12.25 8.796875 
Q 12.40625 12.09375 12.40625 15.796875 
L 12.40625 64.09375 
Q 12.40625 65.40625 12.34375 66.90625 
Q 12.296875 68.40625 12.25 69.75 
Q 12.203125 71.09375 12.140625 72.140625 
Q 12.09375 73.203125 12 73.703125 
Q 14.90625 73.5 19.09375 73.34375 
Q 23.296875 73.203125 27 73.203125 
Q 30.796875 73.203125 34.9375 73.34375 
Q 39.09375 73.5 42 73.703125 
Q 41.5 71.40625 41.34375 69.046875 
Q 41.203125 66.703125 41.203125 64.09375 
L 41.203125 19 
Q 41.203125 15.5 41.390625 12.140625 
Q 41.59375 8.796875 42 5.5 
L 35.5 5.5 
L 35.5 11.90625 
L 18.5 11.90625 
z
M 18.5 39.296875 
L 18.5 16.796875 
L 35.5 16.796875 
L 35.5 39.296875 
z
M 35.5 44.09375 
L 35.5 68.296875 
L 18.5 68.296875 
L 18.5 44.09375 
z
" id="STHeitiTC-Light-26126"/>
      <path d="M 35.703125 41.59375 
L 22.90625 41.59375 
L 22.90625 16.703125 
L 35.703125 16.703125 
z
M 29.796875 66.203125 
Q 28.296875 60.40625 26.5 55.65625 
Q 24.703125 50.90625 22.296875 46.59375 
Q 25.5 46.59375 28.5 46.640625 
Q 31.5 46.703125 34.046875 46.75 
Q 36.59375 46.796875 38.546875 46.890625 
Q 40.5 47 41.59375 47.203125 
Q 41.296875 45.59375 41.1875 43.796875 
Q 41.09375 42 41.09375 38.796875 
L 41.09375 13.296875 
Q 41.09375 9.40625 41.1875 7.296875 
Q 41.296875 5.203125 41.5 3.5 
L 35.703125 3.40625 
L 35.703125 11.703125 
L 22.90625 11.703125 
L 22.90625 1.296875 
L 16.40625 1.296875 
Q 16.5 2.203125 16.59375 3.046875 
Q 16.703125 3.90625 16.796875 5 
Q 16.90625 6.09375 16.90625 7.546875 
Q 16.90625 9 16.90625 11 
L 16.90625 37.90625 
Q 14.40625 34.5 11 30.5 
Q 9.59375 33.59375 5.59375 35.296875 
Q 8.90625 37.796875 11.65625 40.84375 
Q 14.40625 43.90625 16.703125 47.65625 
Q 19 51.40625 20.84375 56 
Q 22.703125 60.59375 24.09375 66.203125 
Q 20 66.09375 15.890625 65.890625 
Q 11.796875 65.703125 9.796875 65.40625 
L 9.796875 71.59375 
Q 11 71.40625 12.453125 71.25 
Q 13.90625 71.09375 15.90625 71.046875 
Q 17.90625 71 20.59375 70.953125 
Q 23.296875 70.90625 27.09375 70.90625 
Q 34 70.90625 38.453125 71.046875 
Q 42.90625 71.203125 45.296875 71.59375 
L 45.296875 65.40625 
Q 44.203125 65.5 42.5 65.640625 
Q 40.796875 65.796875 38.6875 65.890625 
Q 36.59375 66 34.296875 66.09375 
Q 32 66.203125 29.796875 66.203125 
z
M 55 31.40625 
Q 55 24 54.40625 18.296875 
L 68.40625 18.296875 
L 68.40625 31.40625 
z
M 68.40625 36 
L 68.40625 48.296875 
L 55 48.296875 
L 55 36 
z
M 87.90625 36 
L 87.90625 48.296875 
L 73.703125 48.296875 
L 73.703125 36 
z
M 73.703125 31.40625 
L 73.703125 18.296875 
L 87.90625 18.296875 
L 87.90625 31.40625 
z
M 62.5 70.203125 
Q 73.09375 70.203125 79.09375 70.453125 
Q 85.09375 70.703125 88 71 
L 76.5 53.09375 
Q 81.90625 53.203125 86 53.390625 
Q 90.09375 53.59375 94.40625 54 
Q 93.90625 52 93.75 49.203125 
Q 93.59375 46.40625 93.59375 41.40625 
L 93.59375 0.703125 
Q 93.59375 -2.703125 93.1875 -4.75 
Q 92.796875 -6.796875 91.25 -7.890625 
Q 89.703125 -9 86.5 -9.390625 
Q 83.296875 -9.796875 77.703125 -9.90625 
Q 77.59375 -7.90625 77.140625 -6.5 
Q 76.703125 -5.09375 75.296875 -3.09375 
Q 79.5 -3.703125 82 -3.796875 
Q 84.5 -3.90625 85.796875 -3.203125 
Q 87.09375 -2.5 87.5 -1 
Q 87.90625 0.5 87.90625 3.09375 
L 87.90625 13.59375 
L 53.796875 13.59375 
Q 52.59375 6.5 50.140625 1.25 
Q 47.703125 -4 44 -9.09375 
Q 42.5 -7.40625 41.09375 -6.75 
Q 39.703125 -6.09375 37.40625 -5.703125 
Q 40.796875 -2.5 43.09375 0.75 
Q 45.40625 4 46.796875 7.84375 
Q 48.203125 11.703125 48.796875 16.296875 
Q 49.40625 20.90625 49.40625 26.90625 
L 49.40625 52 
Q 48.5 51.09375 47.796875 50.09375 
Q 45.59375 53.203125 41.5 53.90625 
Q 44.90625 56.59375 48 59.9375 
Q 51.09375 63.296875 53.6875 67 
Q 56.296875 70.703125 58.34375 74.59375 
Q 60.40625 78.5 61.59375 82.203125 
Q 65.203125 79.796875 68.203125 79.09375 
Q 69.703125 78.703125 69.59375 77.953125 
Q 69.5 77.203125 68.09375 76.703125 
Q 66.90625 76.296875 65.703125 74.890625 
Q 64.5 73.5 62.5 70.203125 
z
M 78.09375 65.59375 
L 59.5 65.59375 
Q 58.703125 64.40625 57.703125 62.953125 
Q 56.703125 61.5 55.546875 59.953125 
Q 54.40625 58.40625 53.203125 56.796875 
Q 52 55.203125 50.90625 53.90625 
Q 55.203125 53.5 59.640625 53.296875 
Q 64.09375 53.09375 70.296875 53.09375 
z
" id="STHeitiTC-Light-30830"/>
      <path d="M 17.703125 51.90625 
Q 15.203125 51.90625 13.5 51.796875 
Q 11.796875 51.703125 10.4375 51.59375 
Q 9.09375 51.5 7.84375 51.34375 
Q 6.59375 51.203125 5.09375 50.90625 
L 5.09375 57.59375 
Q 6.59375 57.296875 7.84375 57.140625 
Q 9.09375 57 10.4375 56.890625 
Q 11.796875 56.796875 13.5 56.6875 
Q 15.203125 56.59375 17.703125 56.59375 
Q 17.703125 62.203125 17.640625 66.296875 
Q 17.59375 70.40625 17.4375 73.25 
Q 17.296875 76.09375 17.140625 77.890625 
Q 17 79.703125 16.90625 80.703125 
Q 19 80.203125 20.796875 80.046875 
Q 22.59375 79.90625 24.59375 79.90625 
Q 26 79.90625 26.09375 79.34375 
Q 26.203125 78.796875 25 78.09375 
Q 23.703125 77.40625 23.703125 75.703125 
L 23.703125 56.59375 
Q 25.90625 56.59375 27.453125 56.6875 
Q 29 56.796875 30.25 56.890625 
Q 31.5 57 32.703125 57.140625 
Q 33.90625 57.296875 35.40625 57.59375 
L 35.40625 50.90625 
Q 34 51.09375 32.703125 51.296875 
Q 31.40625 51.5 30.046875 51.59375 
Q 28.703125 51.703125 27.140625 51.75 
Q 25.59375 51.796875 23.703125 51.796875 
L 23.703125 17.203125 
Q 27.40625 18.5 30.90625 19.953125 
Q 34.40625 21.40625 38.59375 23.203125 
Q 38.5 21.296875 38.640625 20.046875 
Q 38.796875 18.796875 39.203125 17.203125 
Q 33.5 15.296875 29.25 13.796875 
Q 25 12.296875 21.140625 10.9375 
Q 17.296875 9.59375 13.546875 8.140625 
Q 9.796875 6.703125 5.203125 4.90625 
Q 4.703125 6.59375 4.046875 8.296875 
Q 3.40625 10 2.296875 11.703125 
Q 7 12.5 10.703125 13.390625 
Q 14.40625 14.296875 17.703125 15.203125 
z
M 69.40625 55.40625 
Q 72.59375 56.296875 75.84375 57.296875 
Q 79.09375 58.296875 81.84375 59.09375 
Q 84.59375 59.90625 86.6875 60.546875 
Q 88.796875 61.203125 89.703125 61.5 
L 89 28.203125 
Q 88.90625 25 88.40625 22.953125 
Q 87.90625 20.90625 86.453125 19.65625 
Q 85 18.40625 82.546875 17.65625 
Q 80.09375 16.90625 76.09375 16.296875 
Q 76.296875 18.5 75.390625 20.140625 
Q 74.5 21.796875 72.90625 23.203125 
Q 75.90625 23 77.84375 23.09375 
Q 79.796875 23.203125 81 23.890625 
Q 82.203125 24.59375 82.703125 25.890625 
Q 83.203125 27.203125 83.203125 29.296875 
L 83.5 54.59375 
L 69.40625 50.796875 
L 69.40625 26.703125 
Q 69.40625 24 69.546875 20.25 
Q 69.703125 16.5 70 12.59375 
L 62.90625 12.59375 
Q 63.296875 16.59375 63.5 20.25 
Q 63.703125 23.90625 63.703125 26.703125 
L 63.703125 49.296875 
L 50.796875 45.90625 
L 50.796875 10.203125 
Q 50.796875 7.5 51.046875 5.796875 
Q 51.296875 4.09375 52.296875 3.09375 
Q 53.296875 2.09375 55.390625 1.59375 
Q 57.5 1.09375 61.09375 0.796875 
Q 62.59375 0.703125 65.046875 0.640625 
Q 67.5 0.59375 70.203125 0.640625 
Q 72.90625 0.703125 75.703125 0.75 
Q 78.5 0.796875 80.796875 1 
Q 83.203125 1.09375 85 1.640625 
Q 86.796875 2.203125 88.09375 3.5 
Q 89.40625 4.796875 90.203125 6.9375 
Q 91 9.09375 91.5 12.5 
Q 92.296875 10.796875 93.9375 9.640625 
Q 95.59375 8.5 97.59375 8.296875 
Q 96.5 4.5 95.390625 2.203125 
Q 94.296875 -0.09375 92.75 -1.4375 
Q 91.203125 -2.796875 89.046875 -3.34375 
Q 86.90625 -3.90625 83.796875 -4.09375 
Q 79.40625 -4.40625 76.09375 -4.59375 
Q 72.796875 -4.796875 70.1875 -4.890625 
Q 67.59375 -5 65.34375 -5 
Q 63.09375 -5 60.90625 -4.90625 
Q 55.59375 -4.703125 52.4375 -3.890625 
Q 49.296875 -3.09375 47.640625 -1.4375 
Q 46 0.203125 45.5 2.84375 
Q 45 5.5 45 9.40625 
L 45 44.40625 
Q 42.40625 43.59375 39.59375 42.796875 
Q 36.796875 42 33.59375 41.09375 
L 32.09375 47.59375 
Q 33.296875 47.703125 34.390625 47.796875 
Q 35.5 47.90625 36.890625 48.09375 
Q 38.296875 48.296875 40.1875 48.6875 
Q 42.09375 49.09375 45 49.703125 
L 45 53.5 
Q 45 59.203125 44.953125 63.09375 
Q 44.90625 67 44.796875 69.640625 
Q 44.703125 72.296875 44.5 73.890625 
Q 44.296875 75.5 44.09375 76.59375 
Q 46.5 76.296875 48.453125 76.1875 
Q 50.40625 76.09375 52.203125 76.203125 
Q 53.90625 76.296875 54.046875 75.4375 
Q 54.203125 74.59375 52.796875 74.09375 
Q 51.90625 73.703125 51.34375 72.5 
Q 50.796875 71.296875 50.796875 70.40625 
L 50.796875 51 
Q 53.40625 51.59375 56.34375 52.25 
Q 59.296875 52.90625 63.703125 53.90625 
L 63.703125 69.796875 
Q 63.703125 74 63.453125 77.25 
Q 63.203125 80.5 62.59375 82.59375 
Q 65 82.296875 66.59375 82.09375 
Q 68.203125 81.90625 70.09375 81.90625 
Q 71.5 81.90625 71.703125 81.09375 
Q 71.90625 80.296875 70.40625 79.5 
Q 69.40625 79 69.40625 73.5 
z
" id="STHeitiTC-Light-22320"/>
      <path d="M 16.40625 68.40625 
Q 14.5 68.40625 12.640625 68.40625 
Q 10.796875 68.40625 9.09375 68.296875 
L 9.09375 74 
Q 13.203125 73.90625 17.59375 73.84375 
Q 22 73.796875 27.09375 73.75 
Q 32.203125 73.703125 38.140625 73.703125 
Q 44.09375 73.703125 51.296875 73.703125 
Q 60.203125 73.703125 65.953125 73.703125 
Q 71.703125 73.703125 75.84375 73.796875 
Q 80 73.90625 83.25 73.953125 
Q 86.5 74 90.40625 74.203125 
L 90.40625 68.203125 
Q 86.5 68.296875 83.25 68.390625 
Q 80 68.5 75.84375 68.59375 
Q 71.703125 68.703125 65.890625 68.703125 
Q 60.09375 68.703125 51.296875 68.703125 
Q 46.796875 68.703125 42.5 68.703125 
Q 38.203125 68.703125 34.390625 68.640625 
Q 30.59375 68.59375 27.5 68.546875 
Q 24.40625 68.5 22.40625 68.5 
L 22.40625 5.796875 
Q 22.40625 2.90625 23.5 1.703125 
Q 24.59375 0.5 27.203125 0.5 
L 59.09375 0.5 
Q 66.203125 0.5 71.25 0.546875 
Q 76.296875 0.59375 79.890625 0.640625 
Q 83.5 0.703125 86.046875 0.84375 
Q 88.59375 1 90.90625 1.203125 
L 90.90625 -5.203125 
Q 88.59375 -5 86 -4.84375 
Q 83.40625 -4.703125 79.796875 -4.640625 
Q 76.203125 -4.59375 71.25 -4.546875 
Q 66.296875 -4.5 59.09375 -4.5 
L 26.09375 -4.5 
Q 21 -4.5 18.703125 -2.140625 
Q 16.40625 0.203125 16.40625 7.09375 
z
M 57.40625 39.40625 
Q 63 45.703125 67.546875 52.09375 
Q 72.09375 58.5 75.09375 64.5 
Q 77 62.59375 78.34375 61.75 
Q 79.703125 60.90625 81 60.40625 
Q 82.203125 59.90625 82.09375 59.296875 
Q 82 58.703125 80.703125 58.203125 
Q 79.5 57.59375 78.046875 56.140625 
Q 76.59375 54.703125 74.296875 51.703125 
Q 70.59375 46.703125 67.546875 43 
Q 64.5 39.296875 61.203125 35.5 
Q 66 30.40625 71.25 24.75 
Q 76.5 19.09375 82.796875 12.09375 
L 77.703125 7.796875 
Q 72.59375 13.796875 67.4375 19.640625 
Q 62.296875 25.5 57.203125 31.09375 
Q 50.90625 24.40625 44.296875 18.453125 
Q 37.703125 12.5 30.296875 7.09375 
Q 29.796875 8.90625 28.75 10.046875 
Q 27.703125 11.203125 25.296875 12.5 
Q 32.203125 16.40625 39.5 22.296875 
Q 46.796875 28.203125 53.5 35.09375 
Q 47.90625 41.203125 42.75 46.34375 
Q 37.59375 51.5 31.5 57.296875 
L 35.59375 60.796875 
Q 41.59375 55.09375 46.84375 49.9375 
Q 52.09375 44.796875 57.40625 39.40625 
z
" id="STHeitiTC-Light-21306"/>
     </defs>
     <g transform="translate(210.821 136.262859)scale(0.0833 -0.0833)">
      <use xlink:href="#STHeitiTC-Light-24453"/>
      <use x="99.999985" xlink:href="#STHeitiTC-Light-26126"/>
      <use x="199.999969" xlink:href="#STHeitiTC-Light-30830"/>
      <use x="299.999954" xlink:href="#STHeitiTC-Light-22320"/>
      <use x="399.999939" xlink:href="#STHeitiTC-Light-21306"/>
     </g>
    </g>
    <g id="PathCollection_10">
     <g>
      <use style="fill:#9467bd;stroke:#9467bd;" x="195.827" xlink:href="#m092b8fa85c" y="146.045403"/>
     </g>
    </g>
    <g id="text_22">
     <!-- 西宁市 -->
     <defs>
      <path d="M 45.796875 68.09375 
Q 44.40625 71 42.90625 73.5 
Q 41.40625 76 39.09375 79.203125 
L 45 82.203125 
Q 46.296875 80.203125 47.34375 78.5 
Q 48.40625 76.796875 49.203125 75.1875 
Q 50 73.59375 50.75 71.890625 
Q 51.5 70.203125 52.296875 68.09375 
Q 60.40625 68.09375 66.5 68.140625 
Q 72.59375 68.203125 77.390625 68.296875 
Q 82.203125 68.40625 86.09375 68.59375 
Q 90 68.796875 93.796875 69.09375 
L 93.796875 61.90625 
Q 90 62.203125 86.203125 62.390625 
Q 82.40625 62.59375 77.703125 62.6875 
Q 73 62.796875 67 62.84375 
Q 61 62.90625 53 62.90625 
L 53 48.5 
Q 57.5 48.5 61.34375 48.546875 
Q 65.203125 48.59375 68.796875 48.75 
Q 72.40625 48.90625 75.84375 49.09375 
Q 79.296875 49.296875 83.09375 49.59375 
Q 83 48.296875 82.890625 47.25 
Q 82.796875 46.203125 82.75 44.953125 
Q 82.703125 43.703125 82.703125 42.046875 
Q 82.703125 40.40625 82.703125 38 
L 82.703125 13.09375 
Q 82.703125 10.203125 82.046875 8.390625 
Q 81.40625 6.59375 79.5 5.5 
Q 77.59375 4.40625 74.296875 3.953125 
Q 71 3.5 65.703125 3.5 
Q 65.796875 5.5 65.296875 7.453125 
Q 64.796875 9.40625 63.203125 11.296875 
Q 67.796875 10.59375 70.5 10.4375 
Q 73.203125 10.296875 74.59375 10.796875 
Q 76 11.296875 76.390625 12.59375 
Q 76.796875 13.90625 76.796875 16.09375 
L 76.796875 43.5 
L 53 43.5 
L 53 6.59375 
Q 53 2.90625 53.25 -1.59375 
Q 53.5 -6.09375 54 -10.59375 
L 45.796875 -10.59375 
Q 46.296875 -6.09375 46.546875 -1.59375 
Q 46.796875 2.90625 46.796875 6.59375 
L 46.796875 43.5 
L 23.59375 43.5 
L 23.59375 4 
L 16.90625 4 
Q 17.40625 7.5 17.546875 10.75 
Q 17.703125 14 17.703125 17.703125 
L 17.703125 38 
Q 17.703125 41.5 17.546875 44.25 
Q 17.40625 47 17 49.59375 
Q 20.703125 49.296875 24.140625 49.09375 
Q 27.59375 48.90625 31.140625 48.75 
Q 34.703125 48.59375 38.546875 48.546875 
Q 42.40625 48.5 46.796875 48.5 
L 46.796875 62.90625 
Q 39.296875 62.90625 33.4375 62.84375 
Q 27.59375 62.796875 22.796875 62.6875 
Q 18 62.59375 13.953125 62.390625 
Q 9.90625 62.203125 6.203125 61.90625 
L 6.203125 69.09375 
Q 9.90625 68.796875 13.59375 68.640625 
Q 17.296875 68.5 21.890625 68.34375 
Q 26.5 68.203125 32.25 68.140625 
Q 38 68.09375 45.796875 68.09375 
z
" id="STHeitiTC-Light-24066"/>
     </defs>
     <g transform="translate(210.821 148.232028)scale(0.0833 -0.0833)">
      <use xlink:href="#STHeitiTC-Light-35199"/>
      <use x="99.999985" xlink:href="#STHeitiTC-Light-23425"/>
      <use x="199.999969" xlink:href="#STHeitiTC-Light-24066"/>
     </g>
    </g>
   </g>
  </g>
 </g>
 <defs>
  <clipPath id="pb69b53d709">
   <rect height="554.4" width="1116" x="180" y="86.4"/>
  </clipPath>
 </defs>
</svg>
